<svg width="24" height="24" viewBox="0 0 24 24" fill="none" xmlns="http://www.w3.org/2000/svg">
<path d="M9.96874 6.40076C8.0773 6.40076 6.53947 7.91491 6.53947 9.77723C6.53947 11.6395 8.0773 13.1537 9.96874 13.1537C11.8602 13.1537 13.398 11.6395 13.398 9.77723C13.398 7.91491 11.8602 6.40076 9.96874 6.40076ZM9.96874 11.9229C8.76809 11.9229 7.78947 10.9594 7.78947 9.77723C7.78947 8.59506 8.76809 7.63151 9.96874 7.63151C11.1694 7.63151 12.1398 8.59506 12.1398 9.77723C12.1398 10.9594 11.1694 11.9229 9.96874 11.9229Z" fill="#212121"/>
<path d="M22 7.15379C22 4.86232 20.1086 3 17.7813 3C16.0954 3 14.6398 3.97974 13.9655 5.39673C12.7566 4.70038 11.3832 4.33601 9.96875 4.33601C5.5773 4.32792 2 7.85013 2 12.174C2 16.4978 5.5773 20.02 9.96875 20.02C14.3602 20.02 17.9375 16.4978 17.9375 12.174C17.9375 11.8825 17.9211 11.591 17.8882 11.2995C20.1579 11.2428 22 9.40477 22 7.15379ZM9.96875 18.7812C8.06085 18.7812 6.34211 17.9876 5.125 16.7326C6.25164 15.4047 8.04441 14.6112 9.96875 14.6112C11.8355 14.6112 13.6776 15.4128 14.8289 16.7164C13.6036 17.9795 11.8766 18.7812 9.96875 18.7812ZM15.6102 15.7286C14.2204 14.2711 12.0987 13.3723 9.96053 13.3723C7.75658 13.3723 5.69243 14.2549 4.3273 15.7448C3.65296 14.7164 3.25822 13.4938 3.25822 12.174C3.25822 8.53029 6.26809 5.56677 9.96875 5.56677C11.2681 5.56677 12.5181 5.93113 13.6036 6.62748C13.5789 6.79752 13.5625 6.97565 13.5625 7.15379C13.5625 9.0323 14.8372 10.6274 16.5806 11.1294C16.6382 11.4695 16.6711 11.8258 16.6711 12.174C16.6793 13.4776 16.2845 14.7002 15.6102 15.7286ZM17.7813 10.0687C16.153 10.0687 14.8207 8.7651 14.8207 7.15379C14.8207 5.54247 16.1447 4.23885 17.7813 4.23885C19.4178 4.23885 20.7418 5.54247 20.7418 7.15379C20.7418 8.7651 19.4095 10.0687 17.7813 10.0687Z" fill="#212121"/>
<path d="M18.4063 6.5303V5.32384C18.4063 4.98377 18.1266 4.70847 17.7813 4.70847C17.4359 4.70847 17.1563 4.98377 17.1563 5.32384V6.5303H15.9309C15.5855 6.5303 15.3059 6.8056 15.3059 7.14568C15.3059 7.48575 15.5855 7.76105 15.9309 7.76105H17.1563V8.96751C17.1563 9.30759 17.4359 9.58289 17.7813 9.58289C18.1266 9.58289 18.4063 9.30759 18.4063 8.96751V7.76915H19.6316C19.977 7.76915 20.2566 7.49385 20.2566 7.15377C20.2566 6.8137 19.977 6.5384 19.6316 6.5384H18.4063V6.5303Z" fill="#212121"/>
</svg>
