<svg width="24" height="24" viewBox="0 0 24 24" fill="none" xmlns="http://www.w3.org/2000/svg">
<path d="M8.91486 1H3.2404C2.01002 1 1 2.02153 1 3.26594V8.99578C1 10.2495 2.01002 11.2617 3.2404 11.2617H8.91486C10.1544 11.2617 11.1553 10.2402 11.1553 8.99578V3.26594C11.1553 2.02153 10.1544 1 8.91486 1ZM9.71369 9.00507C9.71369 9.45082 9.35559 9.813 8.91486 9.813H3.2404C2.79967 9.813 2.44157 9.45082 2.44157 9.00507V3.26594C2.44157 2.82018 2.79967 2.458 3.2404 2.458H8.91486C9.35559 2.458 9.71369 2.82018 9.71369 3.26594V9.00507V9.00507Z" fill="black"/>
<path d="M20.7504 1H15.0851C13.8456 1 12.8447 2.02153 12.8447 3.26594V8.99578C12.8447 10.2495 13.8548 11.2617 15.0851 11.2617H20.7504C21.99 11.2617 22.9908 10.2402 22.9908 8.99578V3.26594C23 2.02153 21.99 1 20.7504 1ZM21.5584 9.00507C21.5584 9.45082 21.2003 9.813 20.7596 9.813H15.0943C14.6536 9.813 14.2955 9.45082 14.2955 9.00507V3.26594C14.2955 2.82018 14.6536 2.458 15.0943 2.458H20.7596C21.2003 2.458 21.5584 2.82018 21.5584 3.26594V9.00507Z" fill="black"/>
<path d="M8.91486 12.729H3.2404C2.01002 12.729 1 13.7412 1 14.9949V20.7341C1 21.9878 2.01002 23 3.2404 23H8.91486C10.1544 23 11.1553 21.9785 11.1553 20.7341V14.9949C11.1553 13.7412 10.1544 12.729 8.91486 12.729ZM9.71369 20.7248C9.71369 21.1705 9.35559 21.5327 8.91486 21.5327H3.2404C2.79967 21.5327 2.44157 21.1705 2.44157 20.7248V14.9856C2.44157 14.5399 2.79967 14.1777 3.2404 14.1777H8.91486C9.35559 14.1777 9.71369 14.5399 9.71369 14.9856V20.7248V20.7248Z" fill="black"/>
<path d="M20.7504 12.729H15.0851C13.8456 12.729 12.8447 13.7505 12.8447 14.9949V20.7341C12.8447 21.9878 13.8548 23 15.0851 23H20.7504C21.99 23 22.9908 21.9785 22.9908 20.7341V14.9949C23 13.7412 21.99 12.729 20.7504 12.729ZM21.5584 20.7248C21.5584 21.1705 21.2003 21.5327 20.7596 21.5327H15.0943C14.6536 21.5327 14.2955 21.1705 14.2955 20.7248V14.9856C14.2955 14.5399 14.6536 14.1777 15.0943 14.1777H20.7596C21.2003 14.1777 21.5584 14.5399 21.5584 14.9856V20.7248Z" fill="black"/>
</svg>
