<svg width="24" height="24" viewBox="0 0 24 24" fill="none" xmlns="http://www.w3.org/2000/svg">
<path d="M9.19247 1.99129H4.02938C2.90988 1.99129 1.99088 2.92076 1.99088 4.05302V9.26651C1.99088 10.4072 2.90988 11.3282 4.02938 11.3282H9.19247C10.3203 11.3282 11.231 10.3988 11.231 9.26651V4.05302C11.231 2.92076 10.3203 1.99129 9.19247 1.99129ZM9.91932 9.27496C9.91932 9.68054 9.59349 10.0101 9.19247 10.0101H4.02938C3.62837 10.0101 3.30254 9.68054 3.30254 9.27496V4.05302C3.30254 3.64743 3.62837 3.3179 4.02938 3.3179H9.19247C9.59349 3.3179 9.91932 3.64743 9.91932 4.05302V9.27496Z" fill="black"/>
<path d="M19.9614 1.99129H14.8067C13.6788 1.99129 12.7682 2.92076 12.7682 4.05302V9.26651C12.7682 10.4072 13.6872 11.3282 14.8067 11.3282H19.9614C21.0893 11.3282 21.9999 10.3988 21.9999 9.26651V4.05302C22.0083 2.92076 21.0893 1.99129 19.9614 1.99129ZM20.6966 9.27496C20.6966 9.68054 20.3708 10.0101 19.9698 10.0101H14.8151C14.414 10.0101 14.0882 9.68054 14.0882 9.27496V4.05302C14.0882 3.64743 14.414 3.3179 14.8151 3.3179H19.9698C20.3708 3.3179 20.6966 3.64743 20.6966 4.05302V9.27496Z" fill="black"/>
<path d="M9.19247 12.6633H4.02938C2.90988 12.6633 1.99088 13.5843 1.99088 14.725V19.947C1.99088 21.0877 2.90988 22.0087 4.02938 22.0087H9.19247C10.3203 22.0087 11.231 21.0792 11.231 19.947V14.725C11.231 13.5843 10.3203 12.6633 9.19247 12.6633ZM9.91932 19.9385C9.91932 20.3441 9.59349 20.6736 9.19247 20.6736H4.02938C3.62837 20.6736 3.30254 20.3441 3.30254 19.9385V14.7166C3.30254 14.311 3.62837 13.9815 4.02938 13.9815H9.19247C9.59349 13.9815 9.91932 14.311 9.91932 14.7166V19.9385Z" fill="black"/>
<path d="M19.9614 12.6633H14.8067C13.6788 12.6633 12.7682 13.5928 12.7682 14.725V19.947C12.7682 21.0877 13.6872 22.0087 14.8067 22.0087H19.9614C21.0893 22.0087 21.9999 21.0792 21.9999 19.947V14.725C22.0083 13.5843 21.0893 12.6633 19.9614 12.6633ZM20.6966 19.9385C20.6966 20.3441 20.3708 20.6736 19.9698 20.6736H14.8151C14.414 20.6736 14.0882 20.3441 14.0882 19.9385V14.7166C14.0882 14.311 14.414 13.9815 14.8151 13.9815H19.9698C20.3708 13.9815 20.6966 14.311 20.6966 14.7166V19.9385Z" fill="black"/>
</svg>
