<svg width="24" height="24" viewBox="0 0 24 24" fill="none" xmlns="http://www.w3.org/2000/svg">
<path d="M13.3855 5.58988H5.00073L7.20073 3.40411C7.53648 3.07624 7.51881 2.54661 7.17423 2.22715C6.82965 1.9161 6.28185 1.9245 5.94611 2.25237L2.24409 5.91775C1.91718 6.24561 1.91718 6.75843 2.25292 7.07789L5.94611 10.5919C6.11398 10.7517 6.3437 10.8357 6.56459 10.8357C6.78547 10.8357 7.01519 10.7517 7.18306 10.5919C7.52764 10.2641 7.52764 9.74285 7.18306 9.41498L4.91237 7.25443H13.3943C17.1847 7.25443 20.2683 10.1884 20.2683 13.7949C20.2683 17.4015 17.1847 20.3354 13.3943 20.3354H10.302C9.816 20.3354 9.42725 20.7053 9.42725 21.1677C9.42725 21.6301 9.816 22 10.302 22H13.3855C18.1389 22 22 18.3178 22 13.8033C22.0088 9.27207 18.1389 5.58988 13.3855 5.58988Z" fill="black"/>
</svg>
