<svg width="24" height="24" viewBox="0 0 24 24" fill="none" xmlns="http://www.w3.org/2000/svg">
<path d="M13.524 4.94887H4.3008L6.72081 2.54452C7.09013 2.18386 7.07069 1.60127 6.69165 1.24987C6.31261 0.907707 5.71004 0.916955 5.34072 1.27761L1.2685 5.30952C0.908897 5.67017 0.908897 6.23427 1.27822 6.58568L5.34072 10.4511C5.52538 10.6268 5.77807 10.7193 6.02104 10.7193C6.26402 10.7193 6.51671 10.6268 6.70137 10.4511C7.08041 10.0905 7.08041 9.51714 6.70137 9.15648L4.20361 6.77987H13.5338C17.7032 6.77987 21.0951 10.0073 21.0951 13.9744C21.0951 17.9416 17.7032 21.169 13.5338 21.169H10.1321C9.59761 21.169 9.16997 21.5759 9.16997 22.0845C9.16997 22.5931 9.59761 23 10.1321 23H13.524C18.7528 23 23 18.9496 23 13.9837C23.0097 8.99928 18.7528 4.94887 13.524 4.94887Z" fill="black"/>
</svg>
