<svg width="24" height="24" viewBox="0 0 24 24" fill="none" xmlns="http://www.w3.org/2000/svg">
<path d="M22 18.2716L19.5357 14.107V9.87654C19.5357 5.53086 16.0078 2 11.6671 2C7.32642 2 3.79853 5.53086 3.79853 9.87654V14.5103L2 18.2716H7.77605C7.9144 20.3539 9.73022 22 11.9438 22C14.1574 22 15.9732 20.3457 16.1115 18.2716H22ZM5.13878 14.7819V9.87654C5.13878 6.23868 8.07004 3.28395 11.6671 3.28395C15.2642 3.28395 18.1954 6.24691 18.1954 9.87654V14.4444L19.7 16.9959H4.08387L5.13878 14.7819ZM11.9438 20.7243C10.4652 20.7243 9.25465 19.6461 9.1163 18.2716H14.7713C14.6416 19.6461 13.4224 20.7243 11.9438 20.7243Z" fill="black"/>
</svg>
