<svg width="24" height="24" viewBox="0 0 24 24" fill="none" xmlns="http://www.w3.org/2000/svg">
<path d="M20.9042 7.79446L22.8267 5.63351C22.9808 5.45805 23.0443 5.20871 22.9808 4.97784C22.9174 4.74697 22.7451 4.56227 22.5184 4.48839L14.6288 2.03193C14.3749 1.94882 14.0938 2.03193 13.9124 2.2351L11.9174 4.47916L9.96766 2.24433C9.78629 2.03193 9.50517 1.95805 9.24219 2.04116L1.55216 4.49763C1.33452 4.57151 1.16222 4.74697 1.09874 4.97784C1.02619 5.19948 1.0806 5.44882 1.23477 5.62428L3.22982 7.96992L1.16222 10.4449C1.01712 10.6203 0.962714 10.8604 1.02619 11.0913C1.08967 11.3129 1.2529 11.4976 1.46148 11.5715L3.39305 12.2641V19.1348C3.39305 19.4211 3.56535 19.6797 3.82834 19.7905L11.7269 22.9581C11.8086 22.995 11.8902 23.0042 11.9809 23.0042C12.0625 23.0042 12.1441 22.9858 12.2257 22.9581L20.0608 19.966C20.3329 19.8644 20.5052 19.5966 20.5052 19.3103V12.3842L22.5093 11.71C22.7179 11.6362 22.8811 11.4699 22.9536 11.2575C23.0262 11.0451 22.9899 10.8143 22.863 10.6296L20.9042 7.79446ZM11.9899 9.89077L5.8778 7.94222L11.2917 6.3723V9.37362H12.6701V6.3723L18.0386 7.94222L11.9899 9.89077ZM14.6288 3.5095L21.0583 5.51346L19.7525 6.9818L13.2414 5.07019L14.6288 3.5095ZM9.22405 3.51874L10.6025 5.10713L4.20014 6.96333L2.96684 5.51346L9.22405 3.51874ZM4.26362 8.90264L10.8473 11.0082L9.23312 12.8459L2.86708 10.5741L4.26362 8.90264ZM4.78052 12.7443L9.22405 14.3235C9.2966 14.3512 9.37821 14.3604 9.45076 14.3604C9.6412 14.3604 9.83163 14.2773 9.96766 14.1296L11.3007 12.615V21.2681L4.78959 18.6546V12.7443H4.78052ZM19.1358 18.8208L12.6791 21.2865V12.4303L13.9306 14.0926C14.0666 14.2681 14.2661 14.3697 14.4837 14.3697C14.5563 14.3697 14.6288 14.3604 14.7014 14.3327L19.1449 12.8459V18.8208H19.1358ZM14.7286 12.8367L13.3048 10.9435L19.9157 8.81029L21.2034 10.6573L14.7286 12.8367Z" fill="black"/>
</svg>
