<svg width="24" height="24" viewBox="0 0 24 24" fill="none" xmlns="http://www.w3.org/2000/svg">
<path d="M20.0904 8.24155L21.8377 6.2868C21.9778 6.12808 22.0355 5.90254 21.9778 5.69369C21.9201 5.48485 21.7635 5.31778 21.5575 5.25095L14.3869 3.02888C14.1561 2.9537 13.9006 3.02888 13.7358 3.21266L11.9225 5.2426L10.1505 3.22102C9.98563 3.02888 9.73013 2.96205 9.49111 3.03724L2.50185 5.2593C2.30404 5.32613 2.14744 5.48485 2.08974 5.69369C2.02381 5.89418 2.07326 6.11973 2.21337 6.27845L4.02663 8.40027L2.14744 10.639C2.01556 10.7978 1.96611 11.015 2.02381 11.2238C2.0815 11.4243 2.22986 11.5914 2.41942 11.6582L4.17498 12.2847V18.4998C4.17498 18.7588 4.33158 18.9927 4.5706 19.0929L11.7494 21.9582C11.8236 21.9916 11.8978 22 11.9802 22C12.0544 22 12.1286 21.9833 12.2027 21.9582L19.3239 19.2517C19.5711 19.1598 19.7277 18.9175 19.7277 18.6585V12.3933L21.5492 11.7835C21.7388 11.7167 21.8872 11.5663 21.9531 11.3742C22.019 11.182 21.9861 10.9732 21.8707 10.8061L20.0904 8.24155ZM11.9885 10.1378L6.43331 8.37521L11.3538 6.95509V9.67003H12.6066V6.95509L17.4859 8.37521L11.9885 10.1378ZM14.3869 4.36547L20.2305 6.17821L19.0436 7.50643L13.1259 5.77723L14.3869 4.36547ZM9.47462 4.37382L10.7274 5.81064L4.90853 7.48973L3.78761 6.17821L9.47462 4.37382ZM4.96622 9.24399L10.95 11.1486L9.48287 12.811L3.69694 10.756L4.96622 9.24399ZM5.43602 12.7191L9.47462 14.1476C9.54056 14.1726 9.61474 14.181 9.68067 14.181C9.85376 14.181 10.0268 14.1058 10.1505 13.9722L11.3621 12.6022V20.4295L5.44426 18.0654V12.7191H5.43602ZM18.4832 18.2158L12.6148 20.4462V12.4351L13.7523 13.9387C13.8759 14.0975 14.0572 14.1893 14.255 14.1893C14.321 14.1893 14.3869 14.181 14.4528 14.1559L18.4914 12.811V18.2158H18.4832ZM14.4776 12.8026L13.1835 11.0901L19.192 9.16045L20.3624 10.8312L14.4776 12.8026Z" fill="black"/>
</svg>
