<svg width="24" height="24" viewBox="0 0 24 24" fill="none" xmlns="http://www.w3.org/2000/svg">
<path d="M18.0472 2H5.95282C5.2819 2 4.72728 2.52699 4.72728 3.16447V20.8355C4.72728 21.4815 5.2819 22 5.95282 22H8.45757H15.4709H18.0472C18.7271 22 19.2727 21.473 19.2727 20.8355V3.16447C19.2727 2.52699 18.7271 2 18.0472 2ZM9.76362 20.759V17.3591H11.2844V20.759H9.76362ZM12.5815 20.759V17.3591H14.1738V20.759H12.5815ZM17.9756 20.759H15.4798V17.0871C15.4798 16.5516 15.0236 16.1181 14.46 16.1181H9.47736C8.91379 16.1181 8.45757 16.5516 8.45757 17.0871V20.759H6.02438V3.23247H17.9667V20.759H17.9756Z" fill="#212121"/>
<path d="M9.36107 5.32343H7.38411V7.01488H9.36107V5.32343Z" fill="#212121"/>
<path d="M12.9572 5.32343H10.9802V7.01488H12.9572V5.32343Z" fill="#212121"/>
<path d="M16.5533 5.32343H14.5763V7.01488H16.5533V5.32343Z" fill="#212121"/>
<path d="M9.36107 8.62137H7.38411V10.3128H9.36107V8.62137Z" fill="#212121"/>
<path d="M12.9572 8.62137H10.9802V10.3128H12.9572V8.62137Z" fill="#212121"/>
<path d="M16.5533 8.62137H14.5763V10.3128H16.5533V8.62137Z" fill="#212121"/>
<path d="M9.36107 12.0807H7.38411V13.7722H9.36107V12.0807Z" fill="#212121"/>
<path d="M12.9572 12.0807H10.9802V13.7722H12.9572V12.0807Z" fill="#212121"/>
<path d="M16.5533 12.0807H14.5763V13.7722H16.5533V12.0807Z" fill="#212121"/>
</svg>
