<svg width="24" height="24" viewBox="0 0 24 24" fill="none" xmlns="http://www.w3.org/2000/svg">
<path d="M22.7193 19.4099C22.3844 18.9083 22.2033 18.3155 22.2033 17.7136V12.4514C22.2033 10.2991 20.6189 8.51163 18.5728 8.20155C18.9893 7.3534 19.1342 6.65116 19.1885 6.15869C19.2247 5.73917 19.0889 5.31053 18.7992 4.99134C18.5095 4.67214 18.1021 4.48974 17.6765 4.48974H13.9193C13.53 4.48974 13.1588 4.66302 12.9144 4.96398C12.6609 5.25581 12.5523 5.64797 12.6247 6.03101C12.7514 6.76972 13.014 7.56316 13.2494 8.16507C12.8601 8.20155 12.4979 8.30187 12.1449 8.43867V3.65071C12.1449 2.73871 11.4115 2 10.5062 2H2.63868C1.73333 2 1 2.73871 1 3.65071V15.689C1 16.601 1.73333 17.3397 2.63868 17.3397H9.40165V17.9508C9.40165 18.425 9.28395 18.9083 9.07572 19.3279L8.94897 19.5741C8.68642 20.0939 8.71358 20.705 9.01235 21.1974C9.31111 21.699 9.84527 21.9909 10.4247 21.9909H21.3432C21.9588 21.9909 22.5111 21.6534 22.8008 21.1062C23.0905 20.5773 23.0543 19.9207 22.7193 19.4099ZM17.6675 5.89421C17.7128 5.89421 17.749 5.91245 17.7671 5.93981C17.7942 5.96717 17.8033 5.99453 17.7942 6.03101C17.749 6.49612 17.5679 7.23484 17.0066 8.15595H14.7342C14.5169 7.64523 14.1728 6.72412 14.0099 5.90333H17.6675V5.89421ZM2.63868 15.9444C2.50288 15.9444 2.38519 15.8349 2.38519 15.689V3.65071C2.38519 3.51391 2.49383 3.39535 2.63868 3.39535H10.4881C10.6239 3.39535 10.7416 3.50479 10.7416 3.65071V9.31418C10.4428 9.5969 10.1893 9.9161 9.98107 10.2809V8.22891H3.3177V15.1509H9.40165V15.9444H2.63868ZM8.93992 10.1259H8.107V9.2777H8.93992V10.1259ZM7.06584 10.1259H6.22387V9.2777H7.06584V10.1259ZM7.06584 11.1746V12.1322H6.22387V11.1746H7.06584ZM5.18272 10.1259H4.3679V9.2777H5.18272V10.1259ZM4.3679 11.1746H5.18272V12.1322H4.3679V11.1746ZM4.3679 13.181H5.18272V14.093H4.3679V13.181ZM6.22387 13.181H7.06584V14.093H6.22387V13.181ZM8.107 13.181H8.93992V14.093H8.107V13.181ZM8.93992 12.1322H8.107V11.1746H8.93992V12.1322ZM21.5786 20.4587C21.5514 20.5135 21.4881 20.5955 21.3432 20.5955H10.4247C10.2979 20.5955 10.2255 20.5135 10.1984 20.4679C10.1712 20.4223 10.1259 20.3219 10.1893 20.2125L10.316 19.9663C10.6329 19.3461 10.7959 18.653 10.7959 17.9508V12.4423C10.7959 10.8463 12.0815 9.54218 13.6749 9.54218H17.9391C19.5235 9.54218 20.8181 10.8372 20.8181 12.4423V17.7045C20.8181 17.7501 20.8181 17.7957 20.8272 17.8322H18.6453V19.2367H21.0897C21.2074 19.565 21.3704 19.8842 21.5695 20.1851C21.6329 20.3037 21.6058 20.4131 21.5786 20.4587Z" fill="black"/>
<path d="M10.0354 4.27086H3.27243V7.32604H10.0263V4.27086H10.0354ZM8.98519 6.28637H4.32264V5.32877H8.99424V6.28637H8.98519Z" fill="black"/>
<path d="M16.1284 14.4487C15.7481 14.3484 15.4403 14.2754 15.4403 14.0383C15.4403 13.865 15.6304 13.7829 15.8296 13.7829C16.065 13.7829 16.2461 13.9015 16.2461 14.1386H17.3687C17.3687 13.4637 16.9794 13.0077 16.3004 12.871V12.4697H15.4041V12.871C14.716 12.9986 14.3086 13.4181 14.3086 14.0839C14.3086 15.005 15.051 15.1874 15.6395 15.3425C16.0197 15.4337 16.3366 15.5157 16.3366 15.762C16.3366 15.9717 16.1103 16.0903 15.8839 16.0903C15.6304 16.0903 15.4132 15.9535 15.4132 15.6799H14.2634C14.2634 16.4186 14.716 16.902 15.4494 17.0388V17.4583H16.3457V17.0296C17.0428 16.902 17.5045 16.4642 17.5045 15.7346C17.5045 14.7953 16.7259 14.6037 16.1284 14.4487Z" fill="black"/>
</svg>
