<svg width="24" height="24" viewBox="0 0 24 24" fill="none" xmlns="http://www.w3.org/2000/svg">
<path d="M7.6447 19.2897H16.5804V10.1227H7.6447V19.2897ZM8.9367 16.6457H10.1704V17.9967H8.9367V16.6457ZM12.7377 13.9519V15.3609H11.4707V13.9519H12.7377V13.9519ZM11.4707 12.6672V11.4074H12.7377V12.6672H11.4707ZM14.0297 13.9519H15.2967V15.3609H14.0297V13.9519ZM12.7377 16.6457V17.9967H11.4707V16.6457H12.7377ZM10.1787 15.3609H8.9367V13.9519H10.1704V15.3609H10.1787ZM14.0297 17.9967V16.6457H15.2967V17.9967H14.0297ZM15.2884 12.6672H14.0214V11.4074H15.2884V12.6672ZM10.1787 11.4074V12.6672H8.9367V11.4074H10.1787Z" fill="#212121"/>
<path d="M17.3389 2H6.66112C5.59417 2 4.72728 2.862 4.72728 3.92292V20.0771C4.72728 21.138 5.59417 22 6.66112 22H17.2305C18.3558 22 19.2727 21.0883 19.2727 19.9693V3.92292C19.2727 2.862 18.4058 2 17.3389 2ZM17.9807 19.9693C17.9807 20.3755 17.6473 20.7153 17.2305 20.7153H6.66112C6.31103 20.7153 6.01928 20.4252 6.01928 20.0771V3.92292C6.01928 3.5748 6.31103 3.28471 6.66112 3.28471H17.3389C17.689 3.28471 17.9807 3.5748 17.9807 3.92292V19.9693Z" fill="#212121"/>
<path d="M7.58635 8.79653H16.647V4.81808H7.58635V8.79653ZM8.87835 6.10279H15.355V7.51183H8.87835V6.10279Z" fill="#212121"/>
</svg>
