<svg width="24" height="24" viewBox="0 0 24 24" fill="none" xmlns="http://www.w3.org/2000/svg">
<path d="M21.748 18.7382C21.4434 18.282 21.2787 17.743 21.2787 17.1956V12.4101C21.2787 10.4528 19.8379 8.82725 17.9772 8.54526C18.3559 7.77395 18.4876 7.13534 18.537 6.68748C18.57 6.30597 18.4465 5.91617 18.183 5.62589C17.9196 5.33561 17.5491 5.16974 17.1621 5.16974H13.7453C13.3913 5.16974 13.0537 5.32732 12.8314 5.60101C12.6009 5.86641 12.5021 6.22303 12.5679 6.57137C12.6832 7.24316 12.922 7.96471 13.136 8.51209C12.782 8.54526 12.4527 8.63649 12.1316 8.7609V4.40672C12.1316 3.57735 11.4647 2.90556 10.6413 2.90556H3.48664C2.66331 2.90556 1.99641 3.57735 1.99641 4.40672V15.3544C1.99641 16.1837 2.66331 16.8555 3.48664 16.8555H9.63689V17.4112C9.63689 17.8425 9.52985 18.282 9.34049 18.6636L9.22522 18.8875C8.98646 19.3602 9.01116 19.9159 9.28286 20.3638C9.55455 20.8199 10.0403 21.0853 10.5672 21.0853H20.4966C21.0564 21.0853 21.5587 20.7784 21.8221 20.2808C22.0856 19.7998 22.0527 19.2026 21.748 18.7382ZM17.1539 6.44696C17.195 6.44696 17.228 6.46355 17.2444 6.48843C17.2691 6.51331 17.2774 6.53819 17.2691 6.57137C17.228 6.99435 17.0633 7.66613 16.5528 8.5038H14.4863C14.2887 8.03935 13.9758 7.20169 13.8276 6.45526H17.1539V6.44696ZM3.48664 15.5866C3.36314 15.5866 3.2561 15.4871 3.2561 15.3544V4.40672C3.2561 4.28231 3.3549 4.1745 3.48664 4.1745H10.6249C10.7484 4.1745 10.8554 4.27402 10.8554 4.40672V9.55709C10.5837 9.8142 10.3532 10.1045 10.1638 10.4362V8.57015H4.10413V14.865H9.63689V15.5866H3.48664ZM9.21699 10.2952H8.45953V9.52392H9.21699V10.2952ZM7.5127 10.2952H6.74701V9.52392H7.5127V10.2952ZM7.5127 11.249V12.1198H6.74701V11.249H7.5127ZM5.80018 10.2952H5.05919V9.52392H5.80018V10.2952ZM5.05919 11.249H5.80018V12.1198H5.05919V11.249ZM5.05919 13.0736H5.80018V13.903H5.05919V13.0736ZM6.74701 13.0736H7.5127V13.903H6.74701V13.0736ZM8.45953 13.0736H9.21699V13.903H8.45953V13.0736ZM9.21699 12.1198H8.45953V11.249H9.21699V12.1198ZM20.7106 19.692C20.6859 19.7417 20.6283 19.8164 20.4966 19.8164H10.5672C10.452 19.8164 10.3861 19.7417 10.3614 19.7003C10.3367 19.6588 10.2955 19.5676 10.3532 19.468L10.4684 19.2441C10.7566 18.6801 10.9048 18.0498 10.9048 17.4112V12.4018C10.9048 10.9504 12.0739 9.76444 13.523 9.76444H17.4009C18.8417 9.76444 20.019 10.9421 20.019 12.4018V17.1873C20.019 17.2287 20.019 17.2702 20.0273 17.3034H18.0431V18.5806H20.266C20.3731 18.8792 20.5213 19.1695 20.7024 19.4432C20.76 19.551 20.7353 19.6505 20.7106 19.692Z" fill="black"/>
<path d="M10.2132 4.97069H4.06297V7.74907H10.205V4.97069H10.2132ZM9.25816 6.80359H5.01803V5.93275H9.2664V6.80359H9.25816Z" fill="black"/>
<path d="M15.7542 14.2264C15.4084 14.1352 15.1285 14.0689 15.1285 13.8532C15.1285 13.6956 15.3014 13.621 15.4825 13.621C15.6966 13.621 15.8612 13.7288 15.8612 13.9445H16.8821C16.8821 13.3307 16.5281 12.916 15.9106 12.7916V12.4267H15.0955V12.7916C14.4698 12.9077 14.0993 13.2893 14.0993 13.8947C14.0993 14.7324 14.7744 14.8982 15.3096 15.0392C15.6554 15.1222 15.9436 15.1968 15.9436 15.4207C15.9436 15.6115 15.7377 15.7193 15.5319 15.7193C15.3014 15.7193 15.1038 15.5949 15.1038 15.3461H14.0581C14.0581 16.0179 14.4698 16.4574 15.1367 16.5818V16.9634H15.9518V16.5736C16.5857 16.4574 17.0056 16.0593 17.0056 15.3958C17.0056 14.5416 16.2976 14.3674 15.7542 14.2264Z" fill="black"/>
</svg>
