<svg width="24" height="24" viewBox="0 0 24 24" fill="none" xmlns="http://www.w3.org/2000/svg">
<path d="M8.52922 11.7571H6.05499V14.0819H8.52922V11.7571Z" fill="black"/>
<path d="M8.52922 15.4264H6.05499V17.7512H8.52922V15.4264Z" fill="black"/>
<path d="M13.2371 11.7571H10.7629V14.0819H13.2371V11.7571Z" fill="black"/>
<path d="M13.2371 15.4264H10.7629V17.7512H13.2371V15.4264Z" fill="black"/>
<path d="M17.9794 11.7571H15.5052V14.0819H17.9794V11.7571Z" fill="black"/>
<path d="M17.9794 15.4264H15.5052V17.7512H17.9794V15.4264Z" fill="black"/>
<path d="M19.921 4.33171H18.4347V2.90909H17.1718V4.33171H7.66151V2.90909H6.39003V4.33171H4.07904C2.93643 4.33171 2 5.27724 2 6.43962V18.9917C2 20.1541 2.93643 21.0909 4.07904 21.0909H19.921C21.0722 21.0909 22 20.1454 22 18.9917V6.43962C22 5.27724 21.0722 4.33171 19.921 4.33171ZM4.07904 5.61554H6.39003V7.35045H7.65292V5.61554H17.1632V7.35045H18.4261V5.61554H19.9124C20.3591 5.61554 20.7285 5.98855 20.7285 6.43962V8.6603H3.26289V6.43962C3.26289 5.97987 3.6323 5.61554 4.07904 5.61554ZM19.921 19.8157H4.07904C3.6323 19.8157 3.26289 19.4427 3.26289 18.9917V9.93546H20.7371V18.983C20.7371 19.4427 20.3677 19.8157 19.921 19.8157Z" fill="black"/>
</svg>
