<svg width="24" height="24" viewBox="0 0 24 24" fill="none" xmlns="http://www.w3.org/2000/svg">
<path d="M8.18213 11.7328H5.46048V14.2901H8.18213V11.7328Z" fill="black"/>
<path d="M8.18213 15.7691H5.46048V18.3263H8.18213V15.7691Z" fill="black"/>
<path d="M13.3608 11.7328H10.6392V14.2901H13.3608V11.7328Z" fill="black"/>
<path d="M13.3608 15.7691H10.6392V18.3263H13.3608V15.7691Z" fill="black"/>
<path d="M18.5773 11.7328H15.8557V14.2901H18.5773V11.7328Z" fill="black"/>
<path d="M18.5773 15.7691H15.8557V18.3263H18.5773V15.7691Z" fill="black"/>
<path d="M20.7131 3.56489H19.0782V2H17.689V3.56489H7.22766V2H5.82904V3.56489H3.28694C2.03007 3.56489 1 4.60496 1 5.88359V19.6908C1 20.9695 2.03007 22 3.28694 22H20.7131C21.9794 22 23 20.9599 23 19.6908V5.88359C23 4.60496 21.9794 3.56489 20.7131 3.56489ZM3.28694 4.9771H5.82904V6.8855H7.21821V4.9771H17.6796V6.8855H19.0687V4.9771H20.7036C21.195 4.9771 21.6014 5.3874 21.6014 5.88359V8.32634H2.38918V5.88359C2.38918 5.37786 2.79553 4.9771 3.28694 4.9771ZM20.7131 20.5973H3.28694C2.79553 20.5973 2.38918 20.187 2.38918 19.6908V9.72901H21.6108V19.6813C21.6108 20.187 21.2045 20.5973 20.7131 20.5973Z" fill="black"/>
</svg>
