<svg width="24" height="24" viewBox="0 0 24 24" fill="none" xmlns="http://www.w3.org/2000/svg">
<path d="M21.0157 5.99375H17.0443L16.4966 4.33331C16.411 4.05942 16.1542 3.87112 15.8632 3.87112H8.24571C7.96327 3.87112 7.71506 4.0423 7.62091 4.30763L7.00466 5.99375H3.05041C2.50264 5.99375 2.06613 6.41314 2.06613 6.92668V19.2259C2.06613 19.7395 2.50264 20.1589 3.05041 20.1589H21.0157C21.5549 20.1589 22 19.7395 22 19.2259V6.92668C22 6.41314 21.5549 5.99375 21.0157 5.99375ZM20.6733 18.8237H3.39277V7.32039H7.46685C7.74929 7.32039 7.9975 7.14921 8.09165 6.88388L8.7079 5.19777H15.3839L15.9317 6.86677C16.0173 7.14065 16.274 7.32039 16.565 7.32039H20.6733V18.8237Z" fill="#212121"/>
<path d="M11.9689 8.79254C9.6665 8.79254 7.79208 10.667 7.79208 12.9693C7.79208 15.2717 9.6665 17.1461 11.9689 17.1461C14.2712 17.1461 16.1456 15.2717 16.1456 12.9693C16.1456 10.667 14.2712 8.79254 11.9689 8.79254ZM11.9689 15.8109C10.4026 15.8109 9.11872 14.5356 9.11872 12.9608C9.11872 11.3859 10.4026 10.1192 11.9689 10.1192C13.5352 10.1192 14.819 11.3945 14.819 12.9693C14.819 14.5442 13.5437 15.8109 11.9689 15.8109Z" fill="#212121"/>
<path d="M5.87489 8.20197C5.32712 8.20197 4.88205 8.64703 4.88205 9.19481C4.88205 9.74258 5.32712 10.1876 5.87489 10.1876C6.42267 10.1876 6.86773 9.74258 6.86773 9.19481C6.86773 8.64703 6.42267 8.20197 5.87489 8.20197Z" fill="#212121"/>
</svg>
