<svg width="24" height="24" viewBox="0 0 24 24" fill="none" xmlns="http://www.w3.org/2000/svg">
<path d="M21.818 7.67364L16.7207 2.21757C16.5883 2.07531 16.4146 2 16.2242 2H8.35499C8.18122 2 8.01572 2.06695 7.8916 2.1841L2.20687 7.64017C2.07447 7.77406 2 7.94979 2 8.13389V15.7071C2 15.8828 2.0662 16.0502 2.19032 16.1757L7.51096 21.7908C7.63508 21.9247 7.81713 22 7.99917 22H16.3815C16.5718 22 16.7538 21.9163 16.8862 21.7741L21.8428 16.159C21.9504 16.0335 22.0166 15.8745 22.0166 15.7071V8.13389C22 7.96653 21.9338 7.79916 21.818 7.67364ZM20.6512 15.4477L16.067 20.6444H8.28051L3.34878 15.4393V8.42678L8.62805 3.35565H15.9346L20.6512 8.40167V15.4477Z" fill="black"/>
<path d="M15.439 7.82427L12.2615 11.0377L9.09226 7.82427C8.82747 7.55649 8.40546 7.55649 8.14067 7.82427C7.87588 8.09206 7.87588 8.5272 8.14067 8.78662L11.3182 12L8.14067 15.2134C7.87588 15.4812 7.87588 15.908 8.14067 16.1757C8.27307 16.3096 8.44684 16.3766 8.6206 16.3766C8.79437 16.3766 8.96814 16.3096 9.10054 16.1757L12.278 12.9623L15.4555 16.1757C15.5879 16.3096 15.7617 16.3766 15.9355 16.3766C16.1092 16.3766 16.283 16.3096 16.4154 16.1757C16.6802 15.908 16.6802 15.4812 16.4154 15.2134L13.2379 12L16.4154 8.78662C16.6802 8.51883 16.6802 8.09206 16.4154 7.82427C16.1341 7.56486 15.7038 7.56486 15.439 7.82427Z" fill="black"/>
</svg>
