<svg width="24" height="24" viewBox="0 0 24 24" fill="none" xmlns="http://www.w3.org/2000/svg">
<path d="M22.7998 7.241L17.1928 1.23933C17.0472 1.08285 16.856 1 16.6467 1H7.99048C7.79934 1 7.61729 1.07364 7.48076 1.20251L1.22755 7.20418C1.08192 7.35146 1 7.54477 1 7.74728V16.0778C1 16.2711 1.07282 16.4552 1.20935 16.5933L7.06206 22.7699C7.19859 22.9172 7.39884 23 7.59909 23H16.8196C17.029 23 17.2292 22.9079 17.3748 22.7515L22.8271 16.5749C22.9454 16.4368 23.0182 16.2619 23.0182 16.0778V7.74728C23 7.56318 22.9272 7.37908 22.7998 7.241ZM21.5163 15.7925L16.4737 21.5088H7.90856L2.48366 15.7833V8.06946L8.29086 2.49121H16.3281L21.5163 8.04184V15.7925Z" fill="black"/>
<path d="M15.782 7.4067L12.2867 10.9414L8.80057 7.4067C8.5093 7.11214 8.04509 7.11214 7.75382 7.4067C7.46255 7.70126 7.46255 8.17992 7.75382 8.46527L11.2491 12L7.75382 15.5347C7.46255 15.8293 7.46255 16.2987 7.75382 16.5933C7.89946 16.7406 8.0906 16.8142 8.28175 16.8142C8.4729 16.8142 8.66404 16.7406 8.80968 16.5933L12.3049 13.0586L15.8002 16.5933C15.9458 16.7406 16.1369 16.8142 16.3281 16.8142C16.5192 16.8142 16.7104 16.7406 16.856 16.5933C17.1473 16.2987 17.1473 15.8293 16.856 15.5347L13.3608 12L16.856 8.46527C17.1473 8.17071 17.1473 7.70126 16.856 7.4067C16.5465 7.12134 16.0732 7.12134 15.782 7.4067Z" fill="black"/>
</svg>
