<svg width="24" height="24" viewBox="0 0 24 24" fill="none" xmlns="http://www.w3.org/2000/svg">
<path d="M21.8682 5.60774C21.7492 5.46507 21.5536 5.37789 21.358 5.37789H7.54816L7.22502 3.42018C7.174 3.119 6.90188 2.905 6.57874 2.905H2.65008C2.28442 2.905 1.9953 3.17448 1.9953 3.51529C1.9953 3.85611 2.28442 4.12559 2.65008 4.12559H6.02601L7.96483 15.7291C8.16892 16.9101 9.25738 17.774 10.5414 17.774H18.9855C19.3427 17.774 19.6403 17.5045 19.6403 17.1637C19.6403 16.8308 19.3512 16.5534 18.9855 16.5534H10.5414C9.89515 16.5534 9.35092 16.1254 9.24888 15.531L9.05329 14.35H18.4923C19.2916 14.35 19.9804 13.8428 20.1675 13.1215L21.9788 6.13085C22.0298 5.94855 21.9873 5.75833 21.8682 5.60774ZM18.909 12.8362C18.8665 13.0105 18.6964 13.1374 18.5008 13.1374H8.8407L7.75224 6.59055H20.5247L18.909 12.8362Z" fill="black"/>
<path d="M10.0992 21.095C10.8647 21.095 11.4852 20.5165 11.4852 19.803C11.4852 19.0895 10.8647 18.5111 10.0992 18.5111C9.33365 18.5111 8.71307 19.0895 8.71307 19.803C8.71307 20.5165 9.33365 21.095 10.0992 21.095Z" fill="black"/>
<path d="M17.5739 21.095C18.3394 21.095 18.96 20.5165 18.96 19.803C18.96 19.0895 18.3394 18.5111 17.5739 18.5111C16.8084 18.5111 16.1878 19.0895 16.1878 19.803C16.1878 20.5165 16.8084 21.095 17.5739 21.095Z" fill="black"/>
</svg>
