<svg width="24" height="24" viewBox="0 0 24 24" fill="none" xmlns="http://www.w3.org/2000/svg">
<path d="M22.8504 4.97168C22.7195 4.81481 22.5045 4.71895 22.2894 4.71895H7.1054L6.75011 2.56645C6.69401 2.23529 6.39482 2 6.03952 2H1.71993C1.31789 2 1 2.2963 1 2.67102C1 3.04575 1.31789 3.34205 1.71993 3.34205H5.43179L7.56354 16.1002C7.78793 17.3987 8.9847 18.3486 10.3965 18.3486H19.6808C20.0735 18.3486 20.4008 18.0523 20.4008 17.6776C20.4008 17.3115 20.0829 17.0065 19.6808 17.0065H10.3965C9.68593 17.0065 9.08755 16.5359 8.97535 15.8824L8.76031 14.5839H19.1385C20.0174 14.5839 20.7748 14.0261 20.9805 13.2331L22.972 5.54684C23.028 5.34641 22.9813 5.13726 22.8504 4.97168ZM19.5967 12.9194C19.5499 13.1111 19.3629 13.2505 19.1479 13.2505H8.52656L7.32979 6.05229H21.3731L19.5967 12.9194Z" fill="black"/>
<path d="M9.91024 22C10.7519 22 11.4343 21.364 11.4343 20.5795C11.4343 19.795 10.7519 19.159 9.91024 19.159C9.06855 19.159 8.38623 19.795 8.38623 20.5795C8.38623 21.364 9.06855 22 9.91024 22Z" fill="black"/>
<path d="M18.1287 22C18.9704 22 19.6528 21.364 19.6528 20.5795C19.6528 19.795 18.9704 19.159 18.1287 19.159C17.2871 19.159 16.6047 19.795 16.6047 20.5795C16.6047 21.364 17.2871 22 18.1287 22Z" fill="black"/>
</svg>
