<svg width="24" height="24" viewBox="0 0 24 24" fill="none" xmlns="http://www.w3.org/2000/svg">
<path d="M21.3545 19.8237H20.8167V14.4188C20.8167 13.9407 20.4195 13.5437 19.923 13.5437H17.0184C16.5302 13.5437 16.1247 13.9326 16.1247 14.4188V19.8237H14.3704V10.3267C14.3704 9.84857 13.9732 9.45151 13.4766 9.45151H10.5721C10.0839 9.45151 9.67838 9.84047 9.67838 10.3267V19.8237H8.07301V15.2778C8.07301 14.7997 7.6758 14.4026 7.1793 14.4026H4.27474C3.78651 14.4026 3.38103 14.7916 3.38103 15.2778V19.8237H2.71902C2.36319 19.8237 2.07356 20.1074 2.07356 20.4558C2.07356 20.8042 2.36319 21.0879 2.71902 21.0879H21.3545C21.7104 21.0879 22 20.8042 22 20.4558C22 20.1074 21.7104 19.8237 21.3545 19.8237ZM17.4156 14.8078H19.5257V19.6455H17.4156V14.8078ZM10.9776 10.7156H13.0877V19.6374H10.9776V10.7156V10.7156ZM4.67194 15.6667H6.78209V19.6374H4.67194V15.6667Z" fill="#212121"/>
<path d="M5.73116 12.6361C7.02207 12.6361 8.07301 11.607 8.07301 10.3429C8.07301 9.91339 7.94888 9.50823 7.73373 9.15979L10.5059 6.94759C10.9196 7.28792 11.4492 7.49861 12.0285 7.49861C12.5747 7.49861 13.0794 7.31223 13.4766 7.00431L16.3729 9.30565C16.2157 9.61357 16.1247 9.96201 16.1247 10.3348C16.1247 11.5989 17.1756 12.628 18.4665 12.628C19.7574 12.628 20.8084 11.5989 20.8084 10.3348C20.8084 9.07065 19.7574 8.04153 18.4665 8.04153C18.0197 8.04153 17.6059 8.16308 17.2501 8.38187L14.238 5.98329C14.329 5.74019 14.3786 5.48089 14.3786 5.20537C14.3786 3.94126 13.3277 2.91214 12.0285 2.91214C10.7293 2.91214 9.68665 3.94126 9.68665 5.20537C9.68665 5.44037 9.72803 5.67537 9.79423 5.88605L6.77382 8.29273C6.45936 8.13877 6.10353 8.04963 5.72288 8.04963C4.43196 8.04963 3.38103 9.07875 3.38103 10.3429C3.38103 11.607 4.43196 12.6361 5.73116 12.6361ZM18.4748 9.30565C19.0541 9.30565 19.5257 9.76753 19.5257 10.3348C19.5257 10.902 19.0541 11.3639 18.4748 11.3639C17.8955 11.3639 17.4239 10.902 17.4239 10.3348C17.4156 9.77564 17.8873 9.30565 18.4748 9.30565ZM12.0285 4.17626C12.6078 4.17626 13.0794 4.63814 13.0794 5.20537C13.0794 5.77261 12.6078 6.23449 12.0285 6.23449C11.4492 6.23449 10.9776 5.77261 10.9776 5.20537C10.9776 4.63814 11.4492 4.17626 12.0285 4.17626ZM5.73116 9.30565C6.31041 9.30565 6.78209 9.76753 6.78209 10.3348C6.78209 10.902 6.31041 11.3639 5.73116 11.3639C5.1519 11.3639 4.68022 10.902 4.68022 10.3348C4.67194 9.77564 5.14362 9.30565 5.73116 9.30565Z" fill="#212121"/>
</svg>
