<svg width="24" height="24" viewBox="0 0 24 24" fill="none" xmlns="http://www.w3.org/2000/svg">
<path d="M19.7637 5C18.5316 5 17.5274 6.00361 17.5274 7.23494C17.5274 7.86747 17.789 8.43253 18.211 8.84578L16.4473 11.5361C16.2447 11.4771 16.0338 11.4434 15.8228 11.4434C15.173 11.4434 14.5823 11.7301 14.1772 12.1771L11.4262 10.1193C11.4346 10.0265 11.443 9.93373 11.443 9.83253C11.443 8.6012 10.4388 7.59759 9.20675 7.59759C7.97468 7.59759 6.9789 8.6012 6.9789 9.83253C6.9789 10.2458 7.09705 10.6422 7.29958 10.9711L4.60759 14.5639C4.48101 14.547 4.36287 14.5301 4.23629 14.5301C3.00422 14.5301 2 15.5337 2 16.7651C2 17.9964 3.00422 19 4.23629 19C5.46835 19 6.47257 17.9964 6.47257 16.7651C6.47257 16.1663 6.22785 15.6181 5.83966 15.2133L8.33755 11.8819C8.60759 12 8.90295 12.059 9.21519 12.059C9.8481 12.059 10.4135 11.7976 10.8186 11.3759L13.6034 13.459C13.5949 13.5265 13.5949 13.6024 13.5949 13.6699C13.5949 14.9012 14.5992 15.9048 15.8312 15.9048C17.0633 15.9048 18.0675 14.9012 18.0675 13.6699C18.0675 13.1554 17.8903 12.6831 17.5949 12.3036L19.4684 9.43614C19.5696 9.45301 19.6624 9.46145 19.7637 9.46145C20.9958 9.46145 22 8.45783 22 7.22651C22 5.99518 20.9958 5 19.7637 5ZM4.23629 17.6253C3.76371 17.6253 3.37553 17.2373 3.37553 16.7651C3.37553 16.2928 3.76371 15.9048 4.23629 15.9048C4.70886 15.9048 5.09705 16.2928 5.09705 16.7651C5.08861 17.2373 4.70886 17.6253 4.23629 17.6253ZM9.21519 10.6843C8.74262 10.6843 8.35443 10.2964 8.35443 9.8241C8.35443 9.35181 8.74262 8.96386 9.21519 8.96386C9.68776 8.96386 10.0759 9.35181 10.0759 9.8241C10.0759 10.3048 9.68776 10.6843 9.21519 10.6843ZM15.8312 14.5301C15.3586 14.5301 14.9705 14.1422 14.9705 13.6699C14.9705 13.1976 15.3586 12.8096 15.8312 12.8096C16.3038 12.8096 16.692 13.1976 16.692 13.6699C16.6835 14.1506 16.3038 14.5301 15.8312 14.5301ZM19.7637 8.08675C19.2911 8.08675 18.903 7.6988 18.903 7.22651C18.903 6.75422 19.2911 6.36627 19.7637 6.36627C20.2363 6.36627 20.6245 6.75422 20.6245 7.22651C20.6245 7.70723 20.2363 8.08675 19.7637 8.08675Z" fill="#212121"/>
</svg>
