<svg width="24" height="24" viewBox="0 0 24 24" fill="none" xmlns="http://www.w3.org/2000/svg">
<path d="M12.1372 1C6.15732 1 1.29407 5.92942 1.29407 12C1.29407 13.8333 1.74625 15.6386 2.6137 17.2474L1.03568 22.074C0.952626 22.3265 1.01722 22.5978 1.20179 22.7849C1.33098 22.9158 1.50632 22.9906 1.69088 22.9906C1.76471 22.9906 1.83853 22.9813 1.90313 22.9532L6.55414 21.4099C8.2429 22.4388 10.1716 22.9906 12.1556 22.9906C18.1355 22.9906 23.008 18.0612 23.008 11.9906C22.9895 5.92942 18.1263 1 12.1372 1ZM12.1372 21.5969C10.31 21.5969 8.52897 21.0638 6.99709 20.0629C6.88635 19.9881 6.75716 19.9507 6.62796 19.9507C6.52645 19.9507 6.42494 19.9694 6.33266 20.0162L2.76135 21.2041L3.97024 17.5C4.07175 17.2942 4.07175 17.0417 3.95179 16.8359C3.11202 15.3767 2.65984 13.7024 2.65984 12.0094C2.66907 6.70578 6.92326 2.40306 12.1372 2.40306C17.3603 2.40306 21.6053 6.70578 21.6053 12C21.6053 17.2942 17.3603 21.5969 12.1372 21.5969Z" fill="black"/>
<path d="M8.56546 12.9354C9.13628 12.9354 9.59902 12.4663 9.59902 11.8878C9.59902 11.3092 9.13628 10.8401 8.56546 10.8401C7.99465 10.8401 7.53191 11.3092 7.53191 11.8878C7.53191 12.4663 7.99465 12.9354 8.56546 12.9354Z" fill="black"/>
<path d="M12.3306 10.8401C11.7584 10.8401 11.297 11.3078 11.297 11.8878C11.297 12.4677 11.7584 12.9354 12.3306 12.9354C12.9027 12.9354 13.3641 12.4677 13.3641 11.8878C13.3641 11.3078 12.8935 10.8401 12.3306 10.8401Z" fill="black"/>
<path d="M16.0864 12.9354C16.6573 12.9354 17.12 12.4663 17.12 11.8878C17.12 11.3092 16.6573 10.8401 16.0864 10.8401C15.5156 10.8401 15.0529 11.3092 15.0529 11.8878C15.0529 12.4663 15.5156 12.9354 16.0864 12.9354Z" fill="black"/>
</svg>
