<svg width="24" height="24" viewBox="0 0 24 24" fill="none" xmlns="http://www.w3.org/2000/svg">
<path d="M12.1243 2C6.68828 2 2.26732 6.4811 2.26732 11.9996C2.26732 13.6662 2.67838 15.3073 3.46694 16.7698L2.03243 21.1573C1.95693 21.3869 2.01566 21.6335 2.18344 21.8036C2.30088 21.9226 2.46027 21.9906 2.62805 21.9906C2.69516 21.9906 2.76227 21.9821 2.82099 21.9566L7.049 20.5536C8.58417 21.489 10.3375 21.9906 12.1411 21.9906C17.5771 21.9906 22.0064 17.5095 22.0064 11.9911C21.9896 6.4811 17.5687 2 12.1243 2ZM12.1243 20.7237C10.4633 20.7237 8.84423 20.239 7.45167 19.3292C7.351 19.2612 7.23356 19.2272 7.11611 19.2272C7.02383 19.2272 6.93156 19.2442 6.84767 19.2867L3.60116 20.3666L4.70011 16.9994C4.79238 16.8123 4.79238 16.5827 4.68333 16.3956C3.91994 15.0692 3.50888 13.5471 3.50888 12.0081C3.51727 7.18685 7.38456 3.27546 12.1243 3.27546C16.8724 3.27546 20.7313 7.18685 20.7313 11.9996C20.7313 16.8123 16.8724 20.7237 12.1243 20.7237Z" fill="black"/>
<path d="M8.87822 12.8499C9.39712 12.8499 9.81777 12.4235 9.81777 11.8975C9.81777 11.3716 9.39712 10.9452 8.87822 10.9452C8.35931 10.9452 7.93866 11.3716 7.93866 11.8975C7.93866 12.4235 8.35931 12.8499 8.87822 12.8499Z" fill="black"/>
<path d="M12.3009 10.9452C11.7807 10.9452 11.3613 11.3703 11.3613 11.8975C11.3613 12.4247 11.7807 12.8499 12.3009 12.8499C12.821 12.8499 13.2404 12.4247 13.2404 11.8975C13.2404 11.3703 12.8126 10.9452 12.3009 10.9452Z" fill="black"/>
<path d="M15.7152 12.8499C16.2341 12.8499 16.6547 12.4235 16.6547 11.8975C16.6547 11.3716 16.2341 10.9452 15.7152 10.9452C15.1963 10.9452 14.7756 11.3716 14.7756 11.8975C14.7756 12.4235 15.1963 12.8499 15.7152 12.8499Z" fill="black"/>
</svg>
