<svg width="24" height="24" viewBox="0 0 24 24" fill="none" xmlns="http://www.w3.org/2000/svg">
<path d="M10.2347 16.2636C10.0347 16.2636 9.82563 16.1909 9.67109 16.0364L6.44381 12.9455C6.12563 12.6364 6.10745 12.1182 6.42563 11.7909C6.73472 11.4636 7.2529 11.4546 7.58018 11.7636L10.2256 14.3091L20.7165 3.81819C21.0347 3.50001 21.5529 3.50001 21.8711 3.81819C22.1893 4.13637 22.1893 4.65455 21.8711 4.97273L10.8165 16.0273C10.6529 16.1909 10.4438 16.2636 10.2347 16.2636Z" fill="black"/>
<path d="M12.0142 22C11.9412 22 11.8591 22 11.7861 22C6.26745 21.8723 1.88899 17.2857 2.00757 11.7781C2.07142 9.10631 3.16604 6.62605 5.09986 4.77497C7.02456 2.9239 9.56954 1.93909 12.2331 2.00292C14.176 2.04851 16.046 2.65034 17.6514 3.74457C18.0254 3.99989 18.1167 4.51053 17.8612 4.8844C17.6058 5.25826 17.095 5.34944 16.721 5.09412C15.3892 4.18226 13.8203 3.68074 12.1966 3.64427C9.96177 3.59867 7.84552 4.41023 6.23096 5.96039C4.6164 7.50143 3.6951 9.58047 3.64949 11.8145C3.54915 16.4194 7.21611 20.2583 11.8226 20.3587C16.4291 20.459 20.2694 16.7933 20.3697 12.1884C20.388 11.1945 20.242 10.2188 19.9228 9.27956C19.7768 8.85099 20.0049 8.38594 20.4245 8.24004C20.8532 8.09414 21.3184 8.32211 21.4644 8.75068C21.8475 9.86315 22.0299 11.0394 22.0025 12.2249C21.884 17.6595 17.4234 22 12.0142 22Z" fill="black"/>
</svg>
