<svg width="24" height="24" viewBox="0 0 24 24" fill="none" xmlns="http://www.w3.org/2000/svg">
<path d="M14.6599 21.7004C15.1134 21.2901 15.1134 20.6423 14.6599 20.232L5.7449 12.1667L14.6718 3.74517C15.1134 3.33489 15.1014 2.67628 14.636 2.28759C14.1706 1.8989 13.4545 1.8989 13.0249 2.31998L3.32223 11.4649C3.10741 11.6701 3 11.9292 3 12.1883C3 12.4583 3.10741 12.7174 3.33416 12.9225L13.0368 21.7004C13.4903 22.0999 14.2064 22.0999 14.6599 21.7004Z" fill="black"/>
<path d="M20.6599 21.7004C21.1134 21.2901 21.1134 20.6423 20.6599 20.232L11.7449 12.1667L20.6718 3.74517C21.1134 3.33489 21.1014 2.67628 20.636 2.28759C20.1706 1.8989 19.4545 1.8989 19.0249 2.31998L9.32223 11.4649C9.10741 11.6701 9 11.9292 9 12.1883C9 12.4583 9.10741 12.7174 9.33416 12.9225L19.0368 21.7004C19.4903 22.0999 20.2064 22.0999 20.6599 21.7004Z" fill="black"/>
</svg>
