<svg width="24" height="24" viewBox="0 0 24 24" fill="none" xmlns="http://www.w3.org/2000/svg">
<path d="M2.29961 14.6599C2.70989 15.1134 3.35771 15.1134 3.76799 14.6599L11.8333 5.7449L20.2548 14.6718C20.6651 15.1134 21.3237 15.1014 21.7124 14.636C22.1011 14.1706 22.1011 13.4545 21.68 13.0249L12.5351 3.32223C12.3299 3.10741 12.0708 3 11.8117 3C11.5417 3 11.2826 3.10741 11.0775 3.33416L2.29961 13.0368C1.90013 13.4903 1.90013 14.2064 2.29961 14.6599Z" fill="black"/>
<path d="M2.29961 20.6599C2.70989 21.1134 3.35771 21.1134 3.76799 20.6599L11.8333 11.7449L20.2548 20.6718C20.6651 21.1134 21.3237 21.1014 21.7124 20.636C22.1011 20.1706 22.1011 19.4545 21.68 19.0249L12.5351 9.32223C12.3299 9.10741 12.0708 9 11.8117 9C11.5417 9 11.2826 9.10741 11.0775 9.33416L2.29961 19.0368C1.90013 19.4903 1.90013 20.2064 2.29961 20.6599Z" fill="black"/>
</svg>
