<svg width="24" height="24" viewBox="0 0 24 24" fill="none" xmlns="http://www.w3.org/2000/svg">
<path d="M21.7004 9.34013C21.2901 8.88663 20.6423 8.88663 20.232 9.34013L12.1667 18.2551L3.74517 9.3282C3.33489 8.88662 2.67628 8.89856 2.28759 9.364C1.8989 9.82944 1.8989 10.5455 2.31998 10.9751L11.4649 20.6778C11.6701 20.8926 11.9292 21 12.1883 21C12.4583 21 12.7174 20.8926 12.9225 20.6658L21.7004 10.9632C22.0999 10.5097 22.0999 9.79364 21.7004 9.34013Z" fill="black"/>
<path d="M21.7004 3.34013C21.2901 2.88663 20.6423 2.88663 20.232 3.34013L12.1667 12.2551L3.74517 3.3282C3.33489 2.88662 2.67628 2.89856 2.28759 3.364C1.8989 3.82944 1.8989 4.5455 2.31998 4.97514L11.4649 14.6778C11.6701 14.8926 11.9292 15 12.1883 15C12.4583 15 12.7174 14.8926 12.9225 14.6658L21.7004 4.96321C22.0999 4.5097 22.0999 3.79364 21.7004 3.34013Z" fill="black"/>
</svg>
