<svg width="24" height="24" viewBox="0 0 24 24" fill="none" xmlns="http://www.w3.org/2000/svg">
<path d="M9.34013 2.29961C8.88663 2.70989 8.88663 3.35771 9.34013 3.76799L18.2551 11.8333L9.3282 20.2548C8.88662 20.6651 8.89856 21.3237 9.364 21.7124C9.82944 22.1011 10.5455 22.1011 10.9751 21.68L20.6778 12.5351C20.8926 12.3299 21 12.0708 21 11.8117C21 11.5417 20.8926 11.2826 20.6658 11.0775L10.9632 2.29961C10.5097 1.90013 9.79364 1.90013 9.34013 2.29961Z" fill="black"/>
<path d="M3.34013 2.29961C2.88663 2.70989 2.88663 3.35771 3.34013 3.76799L12.2551 11.8333L3.3282 20.2548C2.88662 20.6651 2.89856 21.3237 3.364 21.7124C3.82944 22.1011 4.5455 22.1011 4.97514 21.68L14.6778 12.5351C14.8926 12.3299 15 12.0708 15 11.8117C15 11.5417 14.8926 11.2826 14.6658 11.0775L4.9632 2.29961C4.5097 1.90013 3.79364 1.90013 3.34013 2.29961Z" fill="black"/>
</svg>
