<svg width="24" height="24" viewBox="0 0 24 24" fill="none" xmlns="http://www.w3.org/2000/svg">
<path d="M14.5486 4.67052V3.26499H15.0533C15.4065 3.26499 15.6925 2.98388 15.6925 2.63663C15.6925 2.28938 15.4149 2 15.0617 2H8.94672C8.59345 2 8.30747 2.28111 8.30747 2.62836C8.30747 2.97561 8.59345 3.25672 8.94672 3.25672H9.54392V4.64572C5.7757 5.69574 3 9.11038 3 13.1534C3 18.0314 7.03738 22 12 22C16.9626 22 21 18.0314 21 13.1534C21.0084 9.14345 18.2747 5.75362 14.5486 4.67052ZM10.8308 3.26499H13.2617V4.39769C12.8495 4.33981 12.429 4.30674 12 4.30674C11.6047 4.30674 11.2093 4.33154 10.8308 4.38115V3.26499ZM12 20.7433C7.74392 20.7433 4.2785 17.3369 4.2785 13.1534C4.2785 8.96982 7.74392 5.56346 12 5.56346C16.2561 5.56346 19.7215 8.96982 19.7215 13.1534C19.7215 17.3369 16.2561 20.7433 12 20.7433Z" fill="black"/>
<path d="M12.6476 12.9136V9.55685C12.6476 9.2096 12.3617 8.92849 12.0084 8.92849C11.6551 8.92849 11.3691 9.2096 11.3691 9.55685V13.1534C11.3691 13.3105 11.428 13.4593 11.5374 13.575L14.5486 16.8491C14.6747 16.9897 14.8514 17.0558 15.028 17.0558C15.1794 17.0558 15.3392 16.9979 15.457 16.8905C15.7177 16.659 15.743 16.2538 15.499 15.9975L12.6476 12.9136Z" fill="black"/>
</svg>
