<svg width="24" height="24" viewBox="0 0 24 24" fill="none" xmlns="http://www.w3.org/2000/svg">
<path d="M14.5413 4.66501V3.26193H15.0478C15.4024 3.26193 15.6895 2.97966 15.6895 2.63097C15.6895 2.28227 15.4024 2 15.0478 2H8.94371C8.58912 2 8.30206 2.28227 8.30206 2.63097C8.30206 2.97966 8.58912 3.26193 8.94371 3.26193H9.54315V4.6401C5.76923 5.69448 3 9.11499 3 13.1499C3 18.0315 7.03565 22 12 22C16.9644 22 21 18.0315 21 13.1499C20.9916 9.14819 18.2645 5.75259 14.5413 4.66501ZM10.8265 3.26193H13.258V4.39103C12.8443 4.33292 12.4221 4.29971 12 4.29971C11.6032 4.29971 11.2148 4.32462 10.8265 4.37443V3.26193ZM12 20.7381C7.74484 20.7381 4.2833 17.3342 4.2833 13.1499C4.2833 8.96555 7.74484 5.56164 12 5.56164C16.2552 5.56164 19.7167 8.96555 19.7167 13.1499C19.7083 17.3342 16.2552 20.7381 12 20.7381Z" fill="#212121"/>
<path d="M18.4165 12.6268C17.7664 7.87798 13.9756 6.77378 12.5488 6.52472C12.2617 6.47491 12 6.69076 12 6.98134V12.7016C12 12.9589 12.2111 13.1582 12.4644 13.1582H17.9522C18.2392 13.1499 18.4587 12.9091 18.4165 12.6268Z" fill="#212121"/>
<path d="M12 17.9319C11.6454 17.9319 11.3584 18.2142 11.3584 18.5629V19.144C11.3584 19.4927 11.6454 19.775 12 19.775C12.3546 19.775 12.6417 19.4927 12.6417 19.144V18.5629C12.6417 18.2142 12.3546 17.9319 12 17.9319Z" fill="#212121"/>
<path d="M6.54596 11.9377H5.95497C5.60037 11.9377 5.31332 12.22 5.31332 12.5687C5.31332 12.9174 5.60037 13.2079 5.95497 13.2079H6.54596C6.90056 13.2079 7.18761 12.9257 7.18761 12.577C7.18761 12.2283 6.90056 11.9377 6.54596 11.9377Z" fill="#212121"/>
</svg>
