<svg width="24" height="24" viewBox="0 0 24 24" fill="none" xmlns="http://www.w3.org/2000/svg">
<path d="M14.1902 4.39067V2.88133H14.7229C15.0958 2.88133 15.3976 2.57946 15.3976 2.20656C15.3976 1.83367 15.1047 1.52292 14.7318 1.52292H8.2771C7.9042 1.52292 7.60233 1.82479 7.60233 2.19768C7.60233 2.57058 7.9042 2.87245 8.2771 2.87245H8.90747V4.36404C4.9299 5.49161 2 9.15842 2 13.5C2 18.7383 6.26168 23 11.5 23C16.7383 23 21 18.7383 21 13.5C21.0089 9.19394 18.1233 5.55376 14.1902 4.39067ZM10.2659 2.88133H12.8318V4.09768C12.3967 4.03553 11.9528 4.00002 11.5 4.00002C11.0827 4.00002 10.6654 4.02665 10.2659 4.07993V2.88133ZM11.5 21.6505C7.00747 21.6505 3.34953 17.9925 3.34953 13.5C3.34953 9.00749 7.00747 5.34955 11.5 5.34955C15.9925 5.34955 19.6504 9.00749 19.6504 13.5C19.6504 17.9925 15.9925 21.6505 11.5 21.6505Z" fill="black"/>
<path d="M12.1836 13.2425V9.63787C12.1836 9.26497 11.8818 8.9631 11.5089 8.9631C11.136 8.9631 10.8341 9.26497 10.8341 9.63787V13.5C10.8341 13.6687 10.8963 13.8285 11.0117 13.9528L14.1902 17.4687C14.3234 17.6196 14.5098 17.6907 14.6963 17.6907C14.8561 17.6907 15.0248 17.6285 15.1491 17.5131C15.4243 17.2645 15.4509 16.8294 15.1934 16.5542L12.1836 13.2425Z" fill="black"/>
</svg>
