<svg width="24" height="24" viewBox="0 0 24 24" fill="none" xmlns="http://www.w3.org/2000/svg">
<path d="M12.0591 2.10999C6.57307 2.10999 2.10999 6.57307 2.10999 12.0591C2.10999 17.5452 6.57307 22 12.0591 22C17.5452 22 22 17.5369 22 12.0591C22 6.58132 17.5369 2.10999 12.0591 2.10999ZM12.0591 20.746C7.26604 20.746 3.37219 16.8522 3.37219 12.0591C3.37219 7.26604 7.26604 3.37219 12.0591 3.37219C16.8522 3.37219 20.746 7.26604 20.746 12.0591C20.746 16.8439 16.8439 20.746 12.0591 20.746Z" fill="#333333"/>
<path d="M16.8769 11.4239H12.6861V7.23306C12.6861 6.88657 12.4056 6.60608 12.0591 6.60608C11.7126 6.60608 11.4321 6.88657 11.4321 7.23306V11.4239H7.23306C6.88657 11.4239 6.60608 11.7044 6.60608 12.0509C6.60608 12.3974 6.88657 12.6779 7.23306 12.6779H11.4239V16.8687C11.4239 17.2152 11.7044 17.4957 12.0509 17.4957C12.3974 17.4957 12.6779 17.2152 12.6779 16.8687V12.6779H16.8687C17.2152 12.6779 17.4957 12.3974 17.4957 12.0509C17.5039 11.7044 17.2234 11.4239 16.8769 11.4239Z" fill="#333333"/>
</svg>
