<svg width="24" height="24" viewBox="0 0 24 24" fill="none" xmlns="http://www.w3.org/2000/svg">
<path d="M13.0666 22C12.6229 22 10.7457 21.863 9.85836 19.6188C9.63652 19.0621 9.5256 18.4368 9.5256 17.7602V7.38758C9.5256 5.96574 10.6775 4.80942 12.0939 4.80942C13.5102 4.80942 14.6621 5.96574 14.6621 7.38758V15.379C14.6621 15.7473 14.3635 16.0557 13.9881 16.0557C13.6212 16.0557 13.314 15.7559 13.314 15.379V7.38758C13.314 6.71092 12.7679 6.16274 12.0939 6.16274C11.4198 6.16274 10.8737 6.71092 10.8737 7.38758V17.7516C10.8737 18.257 10.9505 18.7195 11.1126 19.1135C11.727 20.6638 12.9556 20.6552 13.0921 20.6467C13.1007 20.6467 13.1177 20.6467 13.1263 20.6467C14.5256 20.6467 15.6689 19.4989 15.6689 18.0942V5.89722C15.6689 4.49251 14.5256 3.34475 13.1263 3.34475H11.0785C9.56826 3.34475 8.33959 4.57816 8.33959 6.09422V18.0942C8.33959 18.4625 8.04096 18.7709 7.66553 18.7709C7.2901 18.7709 7 18.4711 7 18.0942V6.09422C7 3.83298 8.82594 2 11.0785 2H13.1177C15.2594 2 17 3.74732 17 5.89722V18.0942C17 20.2355 15.2679 21.9829 13.1348 21.9914C13.1177 22 13.0921 22 13.0666 22Z" fill="#212121"/>
</svg>
