<svg width="24" height="24" viewBox="0 0 24 24" fill="none" xmlns="http://www.w3.org/2000/svg">
<path fill-rule="evenodd" clip-rule="evenodd" d="M12 3.39535C7.24778 3.39535 3.39535 7.24778 3.39535 12C3.39535 16.7522 7.24778 20.6047 12 20.6047C16.7522 20.6047 20.6047 16.7522 20.6047 12C20.6047 7.24778 16.7522 3.39535 12 3.39535ZM2 12C2 6.47715 6.47715 2 12 2C17.5228 2 22 6.47715 22 12C22 17.5228 17.5228 22 12 22C6.47715 22 2 17.5228 2 12Z" fill="black"/>
<path d="M16.1264 7.63634L11.8802 11.8825L8.65841 9.60247C8.37753 9.39594 7.981 9.47029 7.78274 9.75117C7.58447 10.032 7.65056 10.4286 7.93143 10.6351L11.5911 13.2208C11.6985 13.2952 11.8307 13.3365 11.9546 13.3365C12.1198 13.3365 12.2767 13.2704 12.4007 13.1547L17.0186 8.53679C17.2664 8.28896 17.2664 7.89243 17.0186 7.6446C16.7708 7.39677 16.3742 7.38851 16.1264 7.63634Z" fill="black"/>
</svg>
