<svg width="24" height="24" viewBox="0 0 24 24" fill="none" xmlns="http://www.w3.org/2000/svg">
<path d="M12 2C6.48419 2 2 6.48419 2 12C2 17.5158 6.48419 22 12 22C17.5158 22 22 17.5158 22 12C22 6.48419 17.5075 2 12 2ZM12 20.7354C7.18303 20.7354 3.26456 16.817 3.26456 12C3.26456 7.18303 7.18303 3.26456 12 3.26456C16.817 3.26456 20.7354 7.18303 20.7354 12C20.7354 16.817 16.817 20.7354 12 20.7354Z" fill="#212121"/>
<path d="M12.6323 11.7587V7.89848C12.6323 7.54907 12.3494 7.2662 12 7.2662C11.6506 7.2662 11.3677 7.54907 11.3677 7.89848V12C11.3677 12.1581 11.426 12.3078 11.5341 12.4243L14.9118 16.1514C15.0366 16.2928 15.2113 16.3594 15.3777 16.3594C15.5275 16.3594 15.6772 16.3095 15.802 16.193C16.0599 15.96 16.0849 15.5607 15.8436 15.3028L12.6323 11.7587Z" fill="#212121"/>
<path d="M12 4.82862C12.3328 4.82862 12.599 4.5624 12.599 4.22962C12.599 3.89684 12.3328 3.63062 12 3.63062C11.6672 3.63062 11.401 3.89684 11.401 4.22962C11.401 4.5624 11.6672 4.82862 12 4.82862Z" fill="#212121"/>
<path d="M12 19.03C11.6672 19.03 11.401 19.2962 11.401 19.629C11.401 19.9617 11.6672 20.228 12 20.228C12.3328 20.228 12.599 19.9617 12.599 19.629C12.599 19.2962 12.3328 19.03 12 19.03Z" fill="#212121"/>
<path d="M19.6955 11.3344C19.3627 11.3344 19.0965 11.6007 19.0965 11.9334C19.0965 12.2662 19.3627 12.5324 19.6955 12.5324C20.0283 12.5324 20.2945 12.2662 20.2945 11.9334C20.2945 11.6007 20.0283 11.3344 19.6955 11.3344Z" fill="#212121"/>
<path d="M4.29615 11.3344C3.96337 11.3344 3.69714 11.6007 3.69714 11.9334C3.69714 12.2662 3.96337 12.5324 4.29615 12.5324C4.62892 12.5324 4.89515 12.2662 4.89515 11.9334C4.89515 11.6007 4.62892 11.3344 4.29615 11.3344Z" fill="#212121"/>
<path d="M16.5424 17.3078C16.3178 17.5491 16.3261 17.9235 16.5591 18.1564C16.8003 18.381 17.1747 18.3727 17.4076 18.1398C17.6406 17.9068 17.624 17.5241 17.391 17.2912C17.1497 17.0582 16.7754 17.0666 16.5424 17.3078Z" fill="#212121"/>
<path d="M6.55076 7.71545C6.77538 7.47419 6.76706 7.09981 6.53412 6.86687C6.29285 6.63392 5.91016 6.65056 5.68553 6.88351C5.45259 7.12477 5.46091 7.50747 5.70217 7.73209C5.94344 7.96504 6.31781 7.95672 6.55076 7.71545Z" fill="#212121"/>
<path d="M16.975 6.25124C16.7421 6.48419 16.7338 6.85857 16.9667 7.09983C17.1997 7.33278 17.574 7.34109 17.8153 7.10815C18.0482 6.8752 18.0566 6.50083 17.8236 6.25956C17.5907 6.02662 17.2163 6.02662 16.975 6.25124Z" fill="#212121"/>
<path d="M6.18469 16.7504C5.94342 16.975 5.94342 17.3577 6.17637 17.5907C6.40931 17.8236 6.78369 17.832 7.02495 17.599C7.2579 17.3661 7.26622 16.9917 7.03327 16.7504C6.80033 16.5175 6.41763 16.5175 6.18469 16.7504Z" fill="#212121"/>
</svg>
