<svg width="24" height="24" viewBox="0 0 24 24" fill="none" xmlns="http://www.w3.org/2000/svg">
<path d="M19.4167 9.36659C18.9889 7.21015 16.965 5.62161 14.5792 5.62161C13.7318 5.62161 12.9091 5.82113 12.1686 6.21251C11.2637 5.43743 10.079 5 8.83668 5C6.12175 5 3.9169 7.05667 3.9169 9.58914C3.9169 9.65053 3.9169 9.71192 3.92513 9.77332C2.70753 10.6405 2 11.9758 2 13.4109C2 15.9433 4.20485 18 6.91977 18H17.0802C19.7951 18 22 15.9433 22 13.4109C22.0082 11.7149 20.9963 10.1647 19.4167 9.36659ZM17.0802 16.8412H6.91977C4.89592 16.8412 3.24228 15.3064 3.24228 13.4109C3.24228 12.2521 3.86754 11.1777 4.90415 10.5407L5.225 10.3412L5.19209 9.98819C5.17564 9.84238 5.15919 9.71192 5.15919 9.58914C5.15919 7.7013 6.8046 6.1588 8.83668 6.1588C9.89796 6.1588 10.9017 6.58855 11.601 7.33294L11.9712 7.732L12.4319 7.42503C13.0572 7.00295 13.7976 6.7804 14.5709 6.7804C16.4385 6.7804 18.0098 8.08501 18.2237 9.81169L18.2649 10.1417L18.5857 10.2798C19.9021 10.8323 20.7577 12.0602 20.7577 13.4032C20.7577 15.2987 19.1123 16.8412 17.0802 16.8412Z" fill="black"/>
</svg>
