<svg width="24" height="24" viewBox="0 0 24 24" fill="none" xmlns="http://www.w3.org/2000/svg">
<path d="M20.1505 9.03837C19.6801 6.55018 17.4548 4.71724 14.8314 4.71724C13.8997 4.71724 12.9951 4.94746 12.1809 5.39906C11.1859 4.50472 9.88322 4 8.51727 4C5.53207 4 3.10773 6.37308 3.10773 9.29516C3.10773 9.366 3.10773 9.43684 3.11678 9.50767C1.77796 10.5083 1 12.049 1 13.7048C1 16.6269 3.42434 19 6.40954 19H17.5814C20.5666 19 22.991 16.6269 22.991 13.7048C23 11.7479 21.8873 9.95927 20.1505 9.03837ZM17.5814 17.6629H6.40954C4.18421 17.6629 2.36595 15.892 2.36595 13.7048C2.36595 12.3678 3.05345 11.1281 4.19326 10.3932L4.54605 10.1629L4.50987 9.75561C4.49178 9.58737 4.47368 9.43684 4.47368 9.29516C4.47368 7.11688 6.2829 5.33707 8.51727 5.33707C9.68421 5.33707 10.7878 5.83294 11.5567 6.69185L11.9638 7.1523L12.4704 6.79811C13.1579 6.3111 13.972 6.05431 14.8224 6.05431C16.8758 6.05431 18.6036 7.55962 18.8388 9.55195L18.884 9.9327L19.2368 10.0921C20.6842 10.7296 21.625 12.1464 21.625 13.696C21.625 15.8831 19.8158 17.6629 17.5814 17.6629Z" fill="black"/>
</svg>
