<svg width="24" height="24" viewBox="0 0 24 24" fill="none" xmlns="http://www.w3.org/2000/svg">
<path d="M12 2C6.48718 2 2 6.48718 2 12C2 17.5128 6.48718 22 12 22C17.5128 22 22 17.5128 22 12C22 6.48718 17.5128 2 12 2ZM12 20.5641C7.2735 20.5641 3.42735 16.7179 3.42735 11.9915C3.42735 7.26496 7.2735 3.4188 12 3.4188C16.7265 3.4188 20.5726 7.26496 20.5726 11.9915C20.5641 16.7179 16.7265 20.5641 12 20.5641Z" fill="#212121"/>
<path d="M12.2564 15.265C10.4274 15.265 9.86325 13.5812 9.86325 11.9744C9.86325 10.2479 10.5128 8.73504 12.2051 8.73504C13.4957 8.73504 14 9.46154 14.1966 10.1966H16.2479C16.0085 8.60684 14.7863 7.1282 12.265 7.1282C9.20513 7.1282 7.74359 9.45299 7.74359 12.0513C7.74359 14.7436 9.16239 16.8718 12.1709 16.8718C14.547 16.8718 15.8718 15.5812 16.2564 13.8205H14.1966C14.0085 14.3675 13.5897 15.265 12.2564 15.265Z" fill="#212121"/>
</svg>
