<svg width="24" height="24" viewBox="0 0 24 24" fill="none" xmlns="http://www.w3.org/2000/svg">
<path d="M19.5053 5H4.49475C3.11718 5 2 5.97693 2 7.18182V16.4545C2 17.6594 3.11718 18.6364 4.49475 18.6364H19.5053C20.8828 18.6364 22 17.6594 22 16.4545V7.18182C22 5.97693 20.8828 5 19.5053 5ZM3.44477 9.24152H20.5552V10.2836H3.44477V9.24152ZM4.49475 6.40027H19.5053C20.0764 6.40027 20.5552 6.75848 20.5552 7.18182V7.84125H3.44477V7.18182C3.44477 6.75848 3.92356 6.40027 4.49475 6.40027ZM19.5053 17.2361H4.49475C3.92356 17.2361 3.44477 16.8779 3.44477 16.4545V11.6839H20.5552V16.4627C20.5552 16.8779 20.0764 17.2361 19.5053 17.2361Z" fill="#212121"/>
<path d="M17.2793 12.2293C16.7585 12.2293 16.2797 12.4003 15.8933 12.6934C15.4985 12.4003 15.0114 12.2293 14.5074 12.2293C13.2558 12.2293 12.2394 13.2144 12.2394 14.4274C12.2394 15.6404 13.2558 16.6255 14.5074 16.6255C15.0198 16.6255 15.4985 16.4627 15.8933 16.1615C16.2797 16.4464 16.7585 16.6255 17.2793 16.6255C18.5309 16.6255 19.5473 15.6404 19.5473 14.4274C19.5473 13.2144 18.5309 12.2293 17.2793 12.2293ZM14.5074 15.2252C14.0538 15.2252 13.6842 14.867 13.6842 14.4274C13.6842 13.9878 14.0538 13.6296 14.5074 13.6296C14.7258 13.6296 14.9358 13.7191 15.087 13.8657C15.0366 14.0448 15.0114 14.232 15.0114 14.4274C15.0114 14.6228 15.0366 14.81 15.087 14.9891C14.9358 15.1357 14.7342 15.2252 14.5074 15.2252ZM17.2793 15.2252C16.8257 15.2252 16.4561 14.867 16.4561 14.4274C16.4561 13.9878 16.8257 13.6296 17.2793 13.6296C17.7329 13.6296 18.1025 13.9878 18.1025 14.4274C18.1025 14.867 17.7329 15.2252 17.2793 15.2252Z" fill="#212121"/>
</svg>
