<svg width="24" height="24" viewBox="0 0 24 24" fill="none" xmlns="http://www.w3.org/2000/svg">
<path d="M20.7047 1H3.28619C2.02515 1 1 2.09227 1 3.43585V20.5545C1 21.8981 2.02515 22.9903 3.28619 22.9903H20.7047C21.9658 22.9903 22.9909 21.8981 22.9909 20.5545V3.43585C23 2.09227 21.9748 1 20.7047 1ZM3.28619 2.48858H20.7047C21.2037 2.48858 21.6029 2.91388 21.6029 3.44552V5.58172H2.39711V3.43585C2.39711 2.91388 2.79629 2.48858 3.28619 2.48858ZM20.7047 21.5211H3.28619C2.78722 21.5211 2.38804 21.0958 2.38804 20.5641V7.06063H21.6029V20.5545C21.6029 21.0861 21.2037 21.5211 20.7047 21.5211Z" fill="black"/>
<path d="M4.41113 5.05009C4.90102 5.05009 5.3002 4.62478 5.3002 4.10281C5.3002 3.58084 4.90102 3.15554 4.41113 3.15554C3.92123 3.15554 3.53113 3.58084 3.53113 4.10281C3.53113 4.62478 3.92123 5.05009 4.41113 5.05009Z" fill="black"/>
<path d="M6.96952 5.05009C7.45941 5.05009 7.85859 4.62478 7.85859 4.10281C7.85859 3.58084 7.45941 3.15554 6.96952 3.15554C6.47962 3.15554 6.08044 3.58084 6.08044 4.10281C6.08044 4.62478 6.47962 5.05009 6.96952 5.05009Z" fill="black"/>
<path d="M9.51877 5.05009C10.0087 5.05009 10.4078 4.62478 10.4078 4.10281C10.4078 3.58084 10.0087 3.15554 9.51877 3.15554C9.02888 3.15554 8.6297 3.58084 8.6297 4.10281C8.6297 4.62478 9.02888 5.05009 9.51877 5.05009Z" fill="black"/>
<path d="M3.9394 13.7206H8.62971C9.01074 13.7206 9.32827 13.3919 9.32827 12.9763V8.83919C9.32827 8.43321 9.01981 8.0949 8.62971 8.0949H3.9394C3.55837 8.0949 3.24084 8.42355 3.24084 8.83919V12.9763C3.24084 13.3822 3.55837 13.7206 3.9394 13.7206ZM4.63796 9.57381H7.94023V12.232H4.63796V9.57381Z" fill="black"/>
<path d="M10.5167 13.7206H13.5015C13.8825 13.7206 14.2 13.3919 14.2 12.9763V8.83919C14.2 8.43321 13.8916 8.0949 13.5015 8.0949H10.5167C10.1357 8.0949 9.81818 8.42355 9.81818 8.83919V12.9763C9.82725 13.3822 10.1357 13.7206 10.5167 13.7206ZM11.2153 9.57381H12.8029V12.232H11.2153V9.57381Z" fill="black"/>
<path d="M19.6524 14.7452H3.9394C3.55837 14.7452 3.24084 15.0738 3.24084 15.4895V19.9552C3.24084 20.3612 3.5493 20.6995 3.9394 20.6995H19.6524C20.0334 20.6995 20.3509 20.3708 20.3509 19.9552V15.4895C20.3509 15.0835 20.0334 14.7452 19.6524 14.7452ZM18.9538 19.2206H4.63796V16.2337H18.9538V19.2206Z" fill="black"/>
<path d="M17.6111 7.88225C16.1052 7.88225 14.8713 9.18717 14.8713 10.8014C14.8713 12.406 16.0961 13.7206 17.6111 13.7206C19.1262 13.7206 20.3509 12.4156 20.3509 10.8014C20.3509 9.19684 19.1262 7.88225 17.6111 7.88225ZM17.6111 12.232C16.8672 12.232 16.2685 11.594 16.2685 10.8014C16.2685 10.0088 16.8672 9.37082 17.6111 9.37082C18.355 9.37082 18.9538 10.0088 18.9538 10.8014C18.9538 11.594 18.355 12.232 17.6111 12.232Z" fill="black"/>
</svg>
