<svg width="24" height="24" viewBox="0 0 24 24" fill="none" xmlns="http://www.w3.org/2000/svg">
<path d="M19.9198 1.99096H4.07114C2.92376 1.99096 1.991 2.98478 1.991 4.20728V19.7831C1.991 21.0055 2.92376 21.9994 4.07114 21.9994H19.9198C21.0672 21.9994 22 21.0055 22 19.7831V4.20728C22.0082 2.98478 21.0754 1.99096 19.9198 1.99096ZM4.07114 3.34537H19.9198C20.3738 3.34537 20.737 3.73235 20.737 4.21607V6.15974H3.26219V4.20728C3.26219 3.73235 3.62539 3.34537 4.07114 3.34537ZM19.9198 20.6625H4.07114C3.61714 20.6625 3.25394 20.2756 3.25394 19.7919V7.50537H20.737V19.7831C20.737 20.2668 20.3738 20.6625 19.9198 20.6625Z" fill="black"/>
<path d="M5.09469 5.67602C5.54044 5.67602 5.90364 5.28904 5.90364 4.81412C5.90364 4.33919 5.54044 3.95222 5.09469 3.95222C4.64895 3.95222 4.29401 4.33919 4.29401 4.81412C4.29401 5.28904 4.64895 5.67602 5.09469 5.67602Z" fill="black"/>
<path d="M7.4225 5.67602C7.86824 5.67602 8.23144 5.28904 8.23144 4.81412C8.23144 4.33919 7.86824 3.95222 7.4225 3.95222C6.97675 3.95222 6.61356 4.33919 6.61356 4.81412C6.61356 5.28904 6.97675 5.67602 7.4225 5.67602Z" fill="black"/>
<path d="M9.742 5.67602C10.1877 5.67602 10.5509 5.28904 10.5509 4.81412C10.5509 4.33919 10.1877 3.95222 9.742 3.95222C9.29626 3.95222 8.93306 4.33919 8.93306 4.81412C8.93306 5.28904 9.29626 5.67602 9.742 5.67602Z" fill="black"/>
<path d="M4.66547 13.5651H8.93306C9.27975 13.5651 9.56866 13.266 9.56866 12.8878V9.12363C9.56866 8.75424 9.28801 8.44642 8.93306 8.44642H4.66547C4.31878 8.44642 4.02988 8.74545 4.02988 9.12363V12.8878C4.02988 13.2572 4.31878 13.5651 4.66547 13.5651ZM5.30107 9.79204H8.30572V12.2106H5.30107V9.79204Z" fill="black"/>
<path d="M10.65 13.5651H13.3658C13.7124 13.5651 14.0014 13.266 14.0014 12.8878V9.12363C14.0014 8.75424 13.7207 8.44642 13.3658 8.44642H10.65C10.3033 8.44642 10.0144 8.74545 10.0144 9.12363V12.8878C10.0227 13.2572 10.3033 13.5651 10.65 13.5651ZM11.2856 9.79204H12.7302V12.2106H11.2856V9.79204Z" fill="black"/>
<path d="M18.9623 14.4973H4.66547C4.31878 14.4973 4.02988 14.7963 4.02988 15.1745V19.2378C4.02988 19.6072 4.31053 19.915 4.66547 19.915H18.9623C19.309 19.915 19.5979 19.616 19.5979 19.2378V15.1745C19.5979 14.8051 19.309 14.4973 18.9623 14.4973ZM18.3267 18.5694H5.30107V15.8517H18.3267V18.5694Z" fill="black"/>
<path d="M17.105 8.25293C15.7348 8.25293 14.6122 9.44024 14.6122 10.909C14.6122 12.3689 15.7265 13.5651 17.105 13.5651C18.4835 13.5651 19.5979 12.3777 19.5979 10.909C19.5979 9.44904 18.4835 8.25293 17.105 8.25293ZM17.105 12.2106C16.4281 12.2106 15.8833 11.6302 15.8833 10.909C15.8833 10.1878 16.4281 9.60735 17.105 9.60735C17.7819 9.60735 18.3267 10.1878 18.3267 10.909C18.3267 11.6302 17.7819 12.2106 17.105 12.2106Z" fill="black"/>
</svg>
