<svg width="24" height="24" viewBox="0 0 24 24" fill="none" xmlns="http://www.w3.org/2000/svg">
<path d="M9.49747 2H4.10838C2.95238 2 2.01262 2.93976 2.01262 4.09576V11.5557C2.01262 12.7033 2.95238 13.6431 4.10838 13.6431H9.49747C10.6535 13.6431 11.5932 12.7033 11.5932 11.5473V4.09576C11.5849 2.93976 10.6451 2 9.49747 2ZM10.3125 11.5557C10.3125 12.0047 9.94656 12.379 9.48915 12.379H4.10838C3.65929 12.379 3.28504 12.0131 3.28504 11.5557V4.09576C3.28504 3.64667 3.65097 3.27242 4.10838 3.27242H9.49747C9.94656 3.27242 10.3208 3.63835 10.3208 4.09576V11.5557H10.3125Z" fill="#212121"/>
<path d="M9.49747 14.4747H4.10838C2.95238 14.4747 2.01262 15.4145 2.01262 16.5622V19.6559C2.01262 20.8119 2.95238 21.7517 4.10838 21.7517H9.49747C10.6535 21.7517 11.5932 20.8119 11.5932 19.6559V16.5622C11.5849 15.4145 10.6451 14.4747 9.49747 14.4747ZM10.3125 19.6642C10.3125 20.1133 9.94656 20.4876 9.48915 20.4876H4.10838C3.65929 20.4876 3.28504 20.1216 3.28504 19.6642V16.5705C3.28504 16.1214 3.65097 15.7472 4.10838 15.7472H9.49747C9.94656 15.7472 10.3208 16.1131 10.3208 16.5705V19.6642H10.3125Z" fill="#212121"/>
<path d="M19.9263 2H14.5373C13.3813 2 12.4415 2.93976 12.4415 4.09576V6.92337C12.4415 8.07936 13.3813 9.01912 14.5373 9.01912H19.9263C21.0823 9.01912 22.0221 8.07936 22.0221 6.92337V4.09576C22.0221 2.93976 21.0823 2 19.9263 2ZM20.7497 6.92337C20.7497 7.37246 20.3838 7.7467 19.9263 7.7467H14.5373C14.0882 7.7467 13.7139 7.38077 13.7139 6.92337V4.09576C13.7139 3.64667 14.0798 3.27242 14.5373 3.27242H19.9263C20.3754 3.27242 20.7497 3.63835 20.7497 4.09576V6.92337Z" fill="#212121"/>
<path d="M19.9263 9.84247H14.5373C13.3813 9.84247 12.4415 10.7822 12.4415 11.9382V19.6643C12.4415 20.8202 13.3813 21.76 14.5373 21.76H19.9263C21.0823 21.76 22.0221 20.8202 22.0221 19.6643V11.9382C22.0221 10.7822 21.0823 9.84247 19.9263 9.84247ZM20.7497 19.6643C20.7497 20.1133 20.3838 20.4876 19.9263 20.4876H14.5373C14.0882 20.4876 13.7139 20.1217 13.7139 19.6643V11.9382C13.7139 11.4891 14.0798 11.1149 14.5373 11.1149H19.9263C20.3754 11.1149 20.7497 11.4808 20.7497 11.9382V19.6643Z" fill="#212121"/>
</svg>
