<svg width="24" height="24" viewBox="0 0 24 24" fill="none" xmlns="http://www.w3.org/2000/svg">
<path d="M22.9718 7.49303C22.9906 7.42569 23 7.36797 23 7.291V7.28138C23 7.21404 22.9906 7.1467 22.9718 7.08898C22.9718 7.07936 22.9624 7.06012 22.9624 7.0505C22.9436 6.98316 22.906 6.92544 22.8684 6.87734C22.8684 6.87734 22.8684 6.86772 22.859 6.86772L19.4274 2.2886C19.2863 2.10582 19.0889 2 18.8726 2H5.00513C4.77949 2 4.57265 2.10582 4.44103 2.2886L1.13162 6.86772C1.13162 6.86772 1.13162 6.87734 1.12222 6.87734C1.09402 6.93506 1.06581 6.99278 1.03761 7.06012C1.03761 7.06974 1.02821 7.08898 1.02821 7.0986C1.0094 7.15633 1 7.22366 1 7.291C1 7.35835 1.0094 7.42568 1.02821 7.4834C1.02821 7.49302 1.03761 7.51226 1.03761 7.52188C1.05641 7.58923 1.09402 7.64695 1.13162 7.69505C1.13162 7.69505 1.13162 7.70467 1.14103 7.70467L11.4453 21.721C11.4829 21.7787 11.5299 21.8172 11.5863 21.8557C11.6051 21.8653 11.6145 21.8749 11.6333 21.8846C11.6709 21.9134 11.7179 21.9327 11.765 21.9519C11.7838 21.9615 11.8026 21.9615 11.8214 21.9711C11.8778 21.9904 11.9436 22 12.0094 22C12.0752 22 12.141 21.9904 12.2068 21.9711C12.2162 21.9711 12.2256 21.9711 12.2256 21.9711C12.2444 21.9615 12.2632 21.9519 12.2821 21.9423C12.3009 21.9327 12.3197 21.923 12.3385 21.9134C12.3667 21.8942 12.3949 21.8749 12.4231 21.8557C12.4325 21.8461 12.4419 21.8365 12.4607 21.8268C12.4983 21.798 12.5359 21.7595 12.5641 21.7114L22.859 7.72391C22.859 7.72391 22.859 7.71429 22.8684 7.71429C22.906 7.65657 22.9342 7.59885 22.9624 7.53151C22.9624 7.51227 22.9624 7.50265 22.9718 7.49303ZM6.92308 8.00289L9.98803 17.3824L3.08718 8.00289H6.92308ZM13.6641 3.42376L14.7171 6.57912H8.53077L10.0068 3.42376H13.6641ZM14.7923 8.00289L12.0094 19.0755L8.38974 8.00289H14.7923ZM16.2308 8.00289H20.9128L13.7957 17.6806L16.2308 8.00289ZM20.894 6.57912H16.1838L15.1308 3.42376H18.5248L20.894 6.57912ZM5.35299 3.42376H8.45556L6.98889 6.57912H3.07778L5.35299 3.42376Z" fill="black"/>
</svg>
