<svg width="24" height="24" viewBox="0 0 24 24" fill="none" xmlns="http://www.w3.org/2000/svg">
<path d="M21.9744 7.94372C21.9915 7.88312 22 7.83117 22 7.7619V7.75325C22 7.69264 21.9915 7.63203 21.9744 7.58009C21.9744 7.57143 21.9658 7.55411 21.9658 7.54545C21.9487 7.48485 21.9145 7.4329 21.8803 7.38961C21.8803 7.38961 21.8803 7.38095 21.8718 7.38095L18.7521 3.25974C18.6239 3.09524 18.4444 3 18.2479 3H5.64103C5.4359 3 5.24786 3.09524 5.12821 3.25974L2.11966 7.38095C2.11966 7.38095 2.11966 7.38961 2.11111 7.38961C2.08547 7.44156 2.05983 7.49351 2.03419 7.55411C2.03419 7.56277 2.02564 7.58009 2.02564 7.58874C2.00855 7.64069 2 7.7013 2 7.7619C2 7.82251 2.00855 7.88312 2.02564 7.93506C2.02564 7.94372 2.03419 7.96104 2.03419 7.9697C2.05128 8.0303 2.08547 8.08225 2.11966 8.12554C2.11966 8.12554 2.11966 8.1342 2.12821 8.1342L11.4957 20.7489C11.5299 20.8009 11.5726 20.8355 11.6239 20.8701C11.641 20.8788 11.6496 20.8874 11.6667 20.8961C11.7009 20.9221 11.7436 20.9394 11.7863 20.9567C11.8034 20.9654 11.8205 20.9654 11.8376 20.974C11.8889 20.9913 11.9487 21 12.0085 21C12.0684 21 12.1282 20.9913 12.188 20.974C12.1966 20.974 12.2051 20.974 12.2051 20.974C12.2222 20.9654 12.2393 20.9567 12.2564 20.948C12.2735 20.9394 12.2906 20.9307 12.3077 20.9221C12.3333 20.9048 12.359 20.8874 12.3846 20.8701C12.3932 20.8615 12.4017 20.8528 12.4188 20.8442C12.453 20.8182 12.4872 20.7835 12.5128 20.7403L21.8718 8.15151C21.8718 8.15151 21.8718 8.14286 21.8803 8.14286C21.9145 8.09091 21.9402 8.03896 21.9658 7.97835C21.9658 7.96104 21.9658 7.95238 21.9744 7.94372ZM7.38462 8.4026L10.1709 16.8442L3.89744 8.4026H7.38462ZM13.5128 4.28139L14.4701 7.12121H8.84615L10.188 4.28139H13.5128ZM14.5385 8.4026L12.0085 18.368L8.71795 8.4026H14.5385ZM15.8462 8.4026H20.1026L13.6325 17.1126L15.8462 8.4026ZM20.0855 7.12121H15.8034L14.8462 4.28139H17.9316L20.0855 7.12121ZM5.95727 4.28139H8.77778L7.44444 7.12121H3.88889L5.95727 4.28139Z" fill="black"/>
</svg>
