<svg width="24" height="24" viewBox="0 0 24 24" fill="none" xmlns="http://www.w3.org/2000/svg">
<path d="M4.00001 14C5.10459 14 6.00002 13.1046 6.00002 12C6.00002 10.8954 5.10459 10 4.00001 10C2.89544 10 2 10.8954 2 12C2 13.1046 2.89544 14 4.00001 14Z" fill="#212121"/>
<path d="M12 9.99997C10.8928 9.99997 9.99997 10.8928 9.99997 12C9.99997 13.1071 10.8928 14 12 14C13.1071 14 14 13.1071 14 12C14 10.8928 13.0893 9.99997 12 9.99997Z" fill="#212121"/>
<path d="M20 14C21.1046 14 22.0001 13.1046 22.0001 12C22.0001 10.8954 21.1046 9.99997 20 9.99997C18.8955 9.99997 18 10.8954 18 12C18 13.1046 18.8955 14 20 14Z" fill="#212121"/>
</svg>
