<svg width="24" height="24" viewBox="0 0 24 24" fill="none" xmlns="http://www.w3.org/2000/svg">
<path d="M9.99998 4.00001C9.99998 5.10459 10.8954 6.00002 12 6.00002C13.1046 6.00002 14 5.10459 14 4.00001C14 2.89544 13.1046 2 12 2C10.8954 2 9.99998 2.89544 9.99998 4.00001Z" fill="#212121"/>
<path d="M14 12C14 10.8928 13.1072 9.99997 12 9.99997C10.8929 9.99997 10 10.8928 10 12C10 13.1071 10.8929 14 12 14C13.1072 14 14 13.0893 14 12Z" fill="#212121"/>
<path d="M10 20C10 21.1046 10.8954 22.0001 12 22.0001C13.1046 22.0001 14 21.1046 14 20C14 18.8955 13.1046 18 12 18C10.8954 18 10 18.8955 10 20Z" fill="#212121"/>
</svg>
