<svg width="24" height="24" viewBox="0 0 24 24" fill="none" xmlns="http://www.w3.org/2000/svg">
<path d="M11.5178 16.2048C11.68 16.3576 11.8783 16.4295 12.0856 16.4295C12.2929 16.4295 12.5093 16.3486 12.6625 16.1869L16.9439 11.9191C17.2594 11.6047 17.2594 11.0836 16.9439 10.7601C16.6284 10.4456 16.1056 10.4456 15.7812 10.7601L12.8067 13.7251V2.81761C12.8067 2.36837 12.4371 2 11.9865 2C11.5358 2 11.1753 2.36837 11.1753 2.81761V13.6172L8.19178 10.7601C7.86729 10.4456 7.35352 10.4636 7.03805 10.7871C6.72257 11.1105 6.73159 11.6316 7.06509 11.9371L11.5178 16.2048Z" fill="#212121"/>
<path d="M20.1798 15.6029C19.7291 15.6029 19.3595 15.9712 19.3595 16.4205V20.3738H4.64046V16.6451C4.64046 16.1959 4.27091 15.8275 3.82023 15.8275C3.36955 15.8275 3 16.1959 3 16.6451V21.1824C3 21.6316 3.36955 22 3.82023 22H20.1798C20.6304 22 21 21.6316 21 21.1824V16.4115C21 15.9712 20.6304 15.6029 20.1798 15.6029Z" fill="#212121"/>
</svg>
