<svg width="24" height="24" viewBox="0 0 24 24" fill="none" xmlns="http://www.w3.org/2000/svg">
<path d="M11.0595 2.96934L11.0595 18.6626L8.58629 16.2142C8.21451 15.8465 7.61641 15.8549 7.26079 16.2393C6.90517 16.6236 6.91325 17.242 7.28504 17.6097L11.4313 21.7294C11.8031 22.0971 12.385 22.0887 12.7487 21.7127L16.7252 17.6013C16.9111 17.4091 17 17.1668 17 16.9161C17 16.6654 16.9111 16.4231 16.7252 16.2309C16.3615 15.8549 15.7634 15.8549 15.3997 16.2309L12.9427 18.7629L12.9427 2.96934C12.9427 2.43453 12.5224 2 12.0051 2C11.4878 2 11.0595 2.43453 11.0595 2.96934Z" fill="black"/>
</svg>
