<svg width="24" height="24" viewBox="0 0 24 24" fill="none" xmlns="http://www.w3.org/2000/svg">
<path d="M18.8156 20.6813C18.8156 21.1437 18.441 21.5229 17.9842 21.5229H3.29319C2.83638 21.5229 2.46179 21.1437 2.46179 20.6813V5.81122C2.46179 5.34884 2.83638 4.96969 3.29319 4.96969H12.4385V3.49007H3.29319C2.03239 3.49007 1 4.53505 1 5.81122V20.6813C1 21.9575 2.03239 23.0025 3.29319 23.0025H17.9842C19.245 23.0025 20.2774 21.9575 20.2774 20.6813V12.0626H18.8156V20.6813V20.6813Z" fill="black"/>
<path d="M22.1229 2.28789C21.4651 1.51109 20.515 1.04871 19.51 1.00247C18.5141 0.965483 17.5183 1.34463 16.7965 2.0567L8.2907 10.5275C8.07143 10.7402 7.93439 11.0176 7.87957 11.3228L7.2309 15.216C7.14867 15.6876 7.31313 16.1685 7.65117 16.5014C7.91612 16.7604 8.27243 16.9083 8.63788 16.9083C8.73837 16.9083 8.83887 16.8991 8.93024 16.8806L13.2243 15.9651C13.4983 15.9096 13.7542 15.7709 13.946 15.5674L21.9493 7.31857C23.2832 5.93143 23.3563 3.73051 22.1229 2.28789ZM20.9261 6.2551L12.9319 14.4947L8.67442 15.4102L9.30482 11.5817L17.8106 3.12017C18.2218 2.70403 18.7699 2.48209 19.3455 2.48209C19.3729 2.48209 19.4095 2.48209 19.4369 2.48209C20.049 2.50983 20.6063 2.77801 21.0083 3.24964C21.7575 4.11891 21.7118 5.44131 20.9261 6.2551Z" fill="black"/>
</svg>
