<svg width="24" height="24" viewBox="0 0 24 24" fill="none" xmlns="http://www.w3.org/2000/svg">
<path d="M21.4676 6.02839L17.5279 2.42591C17.2174 2.15084 16.827 2 16.4188 2H4.14729C2.9583 2 2 2.9583 2 4.14729V19.8527C2 21.0328 2.9583 22 4.14729 22H19.8527C21.0328 22 22 21.0417 22 19.8527V7.23514C22 6.78261 21.8048 6.33895 21.4676 6.02839ZM17.457 4.12955L20.0035 6.46318H17.6078C17.5191 6.46318 17.457 6.39219 17.457 6.31233V4.12955ZM19.8527 20.6868H4.14729C3.68589 20.6868 3.30435 20.3052 3.30435 19.8438V4.14729C3.30435 3.68589 3.68589 3.30435 4.14729 3.30435H16.1526V6.31233C16.1526 7.11979 16.8092 7.76752 17.6078 7.76752H20.6957V19.8527C20.6957 20.3141 20.3141 20.6868 19.8527 20.6868Z" fill="#212121"/>
<path d="M16.8625 14.7152C16.6939 14.1739 16.4011 13.6682 16.0195 13.2511L8.85004 5.46941C8.53948 5.13223 7.99822 5.11448 7.66105 5.42504L5.43389 7.47473C5.09672 7.79416 5.07897 8.32655 5.38953 8.66373L12.5501 16.4277C12.9405 16.8536 13.4374 17.1908 13.9787 17.4037L16.2147 18.2733C16.339 18.3177 16.4632 18.3443 16.5874 18.3443C16.8447 18.3443 17.0932 18.2467 17.2884 18.0692C17.5812 17.7942 17.6877 17.3949 17.5723 17.0133L16.8625 14.7152ZM8.20231 6.70277L9.16947 7.75867L7.62555 9.17837L6.66726 8.12247L8.20231 6.70277ZM14.449 16.1881C14.0941 16.0462 13.7657 15.8332 13.5084 15.5493L8.51286 10.1367L10.0568 8.71697L15.0612 14.1473C15.3097 14.4224 15.5049 14.7507 15.6114 15.1056L16.1526 16.8536L14.449 16.1881Z" fill="#212121"/>
</svg>
