<svg width="24" height="24" viewBox="0 0 24 24" fill="none" xmlns="http://www.w3.org/2000/svg">
<path d="M18.1961 19.8923C18.1961 20.3127 17.8556 20.6573 17.4403 20.6573H4.08468C3.66939 20.6573 3.32886 20.3127 3.32886 19.8923V6.37387C3.32886 5.95352 3.66939 5.60884 4.08468 5.60884H12.3987V4.26372H4.08468C2.93849 4.26372 1.99994 5.21371 1.99994 6.37387V19.8923C1.99994 21.0525 2.93849 22.0025 4.08468 22.0025H17.4403C18.5865 22.0025 19.5251 21.0525 19.5251 19.8923V12.057H18.1961V19.8923V19.8923Z" fill="black"/>
<path d="M21.2028 3.17082C20.6048 2.46463 19.741 2.04428 18.8274 2.00225C17.922 1.96862 17.0167 2.31331 16.3606 2.96065L8.62792 10.6614C8.42858 10.8548 8.304 11.107 8.25416 11.3844L7.66445 14.9238C7.5897 15.3525 7.73921 15.7897 8.04652 16.0924C8.28738 16.3278 8.61131 16.4623 8.94354 16.4623C9.0349 16.4623 9.12626 16.4539 9.20932 16.437L13.113 15.6048C13.3622 15.5543 13.5948 15.4282 13.7692 15.2433L21.045 7.74422C22.2576 6.48317 22.3241 4.48231 21.2028 3.17082ZM20.1148 6.77742L12.8472 14.268L8.97676 15.1003L9.54986 11.6198L17.2825 3.92745C17.6563 3.54913 18.1546 3.34737 18.6779 3.34737C18.7028 3.34737 18.736 3.34737 18.7609 3.34737C19.3174 3.37259 19.8241 3.61639 20.1895 4.04515C20.8706 4.8354 20.8291 6.0376 20.1148 6.77742Z" fill="black"/>
</svg>
