<svg width="24" height="24" viewBox="0 0 24 24" fill="none" xmlns="http://www.w3.org/2000/svg">
<path d="M18.9898 16.085C18.639 16.085 18.355 16.369 18.355 16.7198C18.355 17.2043 17.9541 17.6052 17.4696 17.6052H4.15505C3.67058 17.6052 3.26964 17.2043 3.26964 16.7198V8.85971L10.9126 11.6579L18.355 8.79289V8.9683C18.355 9.31912 18.639 9.60312 18.9898 9.60312C19.3406 9.60312 19.6246 9.31912 19.6246 8.9683V6.86336C19.6246 5.67725 18.6557 4.70831 17.4696 4.70831H4.15505C2.96894 4.70831 2 5.67725 2 6.86336V16.7198C2 17.9059 2.96894 18.8748 4.15505 18.8748H17.4696C18.6557 18.8748 19.6246 17.9059 19.6246 16.7198C19.6246 16.369 19.3406 16.085 18.9898 16.085ZM4.15505 5.97796H17.4696C17.9541 5.97796 18.355 6.3789 18.355 6.86336V7.43136L10.9042 10.3048L3.26964 7.50654V6.86336C3.26964 6.37054 3.66223 5.97796 4.15505 5.97796Z" fill="#212121"/>
<path d="M21.8298 10.7558L20.7272 9.65324C20.5017 9.42771 20.1425 9.42771 19.917 9.64488L16.2417 13.3118C16.0245 13.529 15.8575 13.8046 15.7572 14.1053L15.3981 15.2413C15.3229 15.4836 15.3897 15.7425 15.5651 15.9263C15.6904 16.0516 15.8658 16.1267 16.0412 16.1267C16.1081 16.1267 16.1832 16.1184 16.25 16.0933L17.3777 15.7175C17.67 15.6172 17.9373 15.4585 18.1545 15.2413L21.8381 11.5661C22.0553 11.3405 22.0553 10.9814 21.8298 10.7558ZM17.4779 14.5564C17.3693 14.665 17.2273 14.7485 17.077 14.7986L16.4672 14.9991L16.6677 14.3893C16.7178 14.2306 16.8013 14.0886 16.9183 13.98L18.8478 12.0505L19.4158 12.6185L17.4779 14.5564ZM20.0924 11.9586L19.5244 11.3906L20.3263 10.5971L20.8943 11.1651L20.0924 11.9586Z" fill="#212121"/>
</svg>
