<svg width="24" height="24" viewBox="0 0 24 24" fill="none" xmlns="http://www.w3.org/2000/svg">
<path d="M20.7089 3H3.29109C2.03053 3 1 3.9927 1 5.20699V17.793C1 19.0073 2.03053 20 3.29109 20H20.7089C21.9695 20 23 19.0073 23 17.793V5.20699C23 3.9927 21.9695 3 20.7089 3ZM3.29109 4.33837H20.7089C21.2058 4.33837 21.6106 4.72836 21.6106 5.20699V6.27059L12.115 9.79823L2.38938 6.36809V5.20699C2.38938 4.72836 2.79423 4.33837 3.29109 4.33837ZM20.7089 18.6528H3.29109C2.79423 18.6528 2.38938 18.2628 2.38938 17.7841V7.80396L12.1242 11.2341L21.6014 7.71533V17.793C21.6106 18.2628 21.2058 18.6528 20.7089 18.6528Z" fill="black"/>
</svg>
