<svg width="24" height="24" viewBox="0 0 24 24" fill="none" xmlns="http://www.w3.org/2000/svg">
<path d="M19.9172 4H4.08281C2.93685 4 2 4.87591 2 5.94734V17.0527C2 18.1241 2.93685 19 4.08281 19H19.9172C21.0632 19 22 18.1241 22 17.0527V5.94734C22 4.87591 21.0632 4 19.9172 4ZM4.08281 5.18092H19.9172C20.3689 5.18092 20.7369 5.52503 20.7369 5.94734V6.88582L12.1046 9.99844L3.26307 6.97185V5.94734C3.26307 5.52503 3.63112 5.18092 4.08281 5.18092ZM19.9172 17.8113H4.08281C3.63112 17.8113 3.26307 17.4672 3.26307 17.0448V8.23879L12.1129 11.2654L20.7286 8.16058V17.0527C20.7369 17.4672 20.3689 17.8113 19.9172 17.8113Z" fill="black"/>
</svg>
