<svg width="24" height="24" viewBox="0 0 24 24" fill="none" xmlns="http://www.w3.org/2000/svg">
<path d="M11.1827 11.1254L18.8852 8.15648V9.02624C18.8852 9.37749 19.1695 9.66184 19.5208 9.66184C19.872 9.66184 20.1564 9.37749 20.1564 9.02624V6.1995C20.148 4.98685 19.1611 4 17.9485 4H4.1995C2.98685 4 2 4.98685 2 6.1995V16.3774C2 17.5901 2.98685 18.5769 4.1995 18.5769H10.4468C10.798 18.5769 11.0824 18.2926 11.0824 17.9413C11.0824 17.5901 10.798 17.3057 10.4468 17.3057H4.1995C3.68099 17.3057 3.26283 16.8876 3.26283 16.3691V8.23174L11.1827 11.1254ZM4.1995 5.26283H17.9401C18.4586 5.26283 18.8768 5.68099 18.8768 6.1995V6.80165L11.166 9.77056L3.26283 6.88528V6.1995C3.26283 5.68935 3.68935 5.26283 4.1995 5.26283Z" fill="#212121"/>
<path d="M21.9963 13.4504C21.9963 13.4336 21.9963 13.4169 21.9963 13.3918C21.9963 13.3751 21.9963 13.3667 21.9963 13.35C21.9963 13.3333 21.9879 13.3165 21.9796 13.2915C21.9796 13.2831 21.9712 13.2664 21.9712 13.258C21.9628 13.2413 21.9545 13.2246 21.9461 13.2078C21.9377 13.1995 21.9377 13.1911 21.9294 13.1744C21.9126 13.1493 21.8959 13.1242 21.8708 13.0991L20.2735 11.4516C20.0895 11.2676 19.7884 11.2592 19.6044 11.4432C19.4204 11.6272 19.4121 11.9283 19.5961 12.1123L20.2902 12.8231C18.5256 12.8064 16.209 13.3835 15.2556 15.6666C15.1552 15.9091 15.2723 16.1851 15.5065 16.2855C15.565 16.3105 15.6319 16.3189 15.6905 16.3189C15.8745 16.3189 16.0501 16.2102 16.1254 16.0262C16.6355 14.8052 17.6642 14.0776 19.1779 13.8434C19.6128 13.7765 20.0309 13.7682 20.3906 13.7765L19.4539 14.5877C19.2532 14.7634 19.2364 15.0561 19.4037 15.2568C19.4957 15.3655 19.6295 15.4241 19.7633 15.4241C19.872 15.4241 19.9808 15.3822 20.0728 15.307L21.8374 13.7765C21.8457 13.7765 21.8457 13.7682 21.8457 13.7682C21.8541 13.7598 21.8625 13.7514 21.8708 13.7431C21.8792 13.7263 21.8959 13.718 21.9043 13.7013C21.9126 13.6929 21.921 13.6762 21.9294 13.6678C21.9377 13.6511 21.9461 13.6427 21.9545 13.626C21.9628 13.6093 21.9628 13.6009 21.9712 13.5842C21.9796 13.5674 21.9796 13.5507 21.9879 13.534V13.5256C21.9879 13.5089 21.9879 13.5005 21.9879 13.4838C21.9879 13.4754 21.9963 13.4587 21.9963 13.4504C21.9963 13.4587 22.0046 13.4587 21.9963 13.4504Z" fill="#212121"/>
<path d="M19.3953 16.4778C19.0441 16.4778 18.7597 16.7621 18.7597 17.1134V17.8661H14.0513V13.1576H15.749C16.1003 13.1576 16.3846 12.8733 16.3846 12.522C16.3846 12.1708 16.1003 11.8864 15.749 11.8864H13.4241C13.0728 11.8864 12.7885 12.1708 12.7885 12.522V18.4933C12.7885 18.8446 13.0728 19.1289 13.4241 19.1289H19.3953C19.7466 19.1289 20.0309 18.8446 20.0309 18.4933V17.1134C20.0226 16.7538 19.7382 16.4778 19.3953 16.4778Z" fill="#212121"/>
</svg>
