<svg width="24" height="24" viewBox="0 0 24 24" fill="none" xmlns="http://www.w3.org/2000/svg">
<path d="M21.8224 12.3046L20.1788 10.6453C19.931 10.3968 19.5346 10.3888 19.2785 10.6293C19.0225 10.8698 19.0142 11.2545 19.262 11.503L19.8402 12.0802H16.6934C14.4468 12.0802 12.6133 13.8597 12.6133 16.0401C12.6133 18.2205 14.4468 20 16.6934 20H18.0644C18.4196 20 18.7004 19.7195 18.7004 19.3828C18.7004 19.0381 18.4113 18.7656 18.0644 18.7656H16.6934C15.1489 18.7656 13.8852 17.5471 13.8852 16.0401C13.8852 14.5331 15.1406 13.3147 16.6934 13.3147H19.865L19.2785 13.8838C19.0308 14.1243 19.0308 14.5171 19.2785 14.7575C19.4024 14.8778 19.5676 14.9419 19.7328 14.9419C19.898 14.9419 20.0632 14.8778 20.1871 14.7575L21.8307 13.1624C22.0537 12.9379 22.0619 12.5531 21.8224 12.3046Z" fill="#212121"/>
<path d="M10.8788 16.9058H4.20524C3.69317 16.9058 3.27194 16.497 3.27194 16V8.12024L11.1761 10.9258L18.8656 8.04809V8.64128C18.8656 8.98597 19.1547 9.25851 19.5015 9.25851C19.8567 9.25851 20.1375 8.97795 20.1375 8.64128V6.14028C20.1375 4.96192 19.1464 4 17.9323 4H4.20524C2.99112 4 2 4.96192 2 6.14028V16.008C2 17.1864 2.99112 18.1483 4.20524 18.1483H10.8788C11.2339 18.1483 11.5148 17.8677 11.5148 17.5311C11.5148 17.1864 11.2339 16.9058 10.8788 16.9058ZM4.20524 5.23447H17.9323C18.4443 5.23447 18.8656 5.64329 18.8656 6.14028V6.71743L11.1679 9.59519L3.27194 6.79759V6.14028C3.27194 5.64329 3.69317 5.23447 4.20524 5.23447Z" fill="#212121"/>
</svg>
