<svg width="24" height="24" viewBox="0 0 24 24" fill="none" xmlns="http://www.w3.org/2000/svg">
<path d="M19.5533 21.0839H4.45162C3.54585 21.0839 2.72242 20.6222 2.29423 19.875C1.91546 19.2117 1.91546 18.4226 2.27776 17.7593L9.82861 4.14182C10.2486 3.38622 11.0802 2.91608 12.0025 2.91608C12.9247 2.91608 13.7481 3.38622 14.1763 4.14182L21.7272 17.7593C22.0977 18.4226 22.0895 19.2201 21.7107 19.875C21.2825 20.6222 20.4509 21.0839 19.5533 21.0839ZM3.38116 18.3974C3.18354 18.7584 3.29882 19.0774 3.38939 19.2285C3.58702 19.5727 3.99873 19.791 4.45162 19.791H19.5533C20.0062 19.791 20.4179 19.5727 20.6155 19.2285C20.7061 19.0774 20.8214 18.7584 20.6238 18.3974L13.0647 4.77988C12.8671 4.41887 12.4636 4.20898 12.0025 4.20898C11.5331 4.20898 11.1379 4.42727 10.9402 4.77988L3.38116 18.3974Z" fill="black"/>
<path d="M12.801 8.90206L12.6281 14.7537C12.6198 15.1147 12.3234 15.3918 11.9776 15.3834C11.6399 15.375 11.3764 15.0979 11.36 14.7537L11.1871 8.90206C11.1706 8.44871 11.5247 8.07091 11.9693 8.06251C12.414 8.04572 12.7845 8.40673 12.7927 8.86009C12.801 8.87688 12.801 8.89367 12.801 8.90206Z" fill="black"/>
<path d="M12.0023 18.1455C12.5253 18.1455 12.9492 17.7132 12.9492 17.18C12.9492 16.6468 12.5253 16.2145 12.0023 16.2145C11.4793 16.2145 11.0553 16.6468 11.0553 17.18C11.0553 17.7132 11.4793 18.1455 12.0023 18.1455Z" fill="black"/>
</svg>
