<svg width="24" height="24" viewBox="0 0 24 24" fill="none" xmlns="http://www.w3.org/2000/svg">
<path d="M20.3146 22H3.68998C2.69287 22 1.7864 21.4917 1.31504 20.6691C0.89806 19.939 0.89806 19.0702 1.29691 18.3401L9.60923 3.34935C10.0715 2.51756 10.9871 2 12.0023 2C13.0175 2 13.924 2.51756 14.3954 3.34935L22.7077 18.3401C23.1156 19.0702 23.1065 19.9482 22.6896 20.6691C22.2182 21.4917 21.3027 22 20.3146 22ZM2.51157 19.0425C2.29402 19.4399 2.42093 19.7911 2.52064 19.9575C2.73819 20.3364 3.19143 20.5767 3.68998 20.5767H20.3146C20.8132 20.5767 21.2664 20.3364 21.484 19.9575C21.5837 19.7911 21.7106 19.4399 21.493 19.0425L13.1716 4.05176C12.9541 3.65434 12.5099 3.42329 12.0023 3.42329C11.4856 3.42329 11.0505 3.66359 10.833 4.05176L2.51157 19.0425Z" fill="black"/>
<path d="M12.8814 8.58965L12.691 15.0314C12.6819 15.4288 12.3556 15.7338 11.9749 15.7246C11.6032 15.7153 11.3132 15.4103 11.295 15.0314L11.1047 8.58965C11.0865 8.09057 11.4763 7.67468 11.9658 7.66543C12.4553 7.64695 12.8632 8.04436 12.8723 8.54344C12.8814 8.56192 12.8814 8.58041 12.8814 8.58965Z" fill="black"/>
<path d="M12.0021 18.7652C12.5778 18.7652 13.0445 18.2894 13.0445 17.7024C13.0445 17.1154 12.5778 16.6396 12.0021 16.6396C11.4264 16.6396 10.9597 17.1154 10.9597 17.7024C10.9597 18.2894 11.4264 18.7652 12.0021 18.7652Z" fill="black"/>
</svg>
