<svg width="24" height="24" viewBox="0 0 24 24" fill="none" xmlns="http://www.w3.org/2000/svg">
<path d="M22.8453 11.6254C22.7543 11.4579 21.3441 8.83986 18.3962 7.01518L21.3623 4.15034C21.6352 3.8859 21.6352 3.46278 21.3623 3.19833C21.0893 2.93389 20.6526 2.93389 20.3797 3.19833L17.1315 6.33643C15.7486 5.69295 14.1017 5.26102 12.1729 5.26102C4.95782 5.26102 1.32754 11.3345 1.18197 11.5901L1 11.9074L1.15467 12.2248C1.24566 12.4011 2.70141 15.2924 5.94045 17.1611L3.13813 19.8673C2.86518 20.1317 2.86518 20.5548 3.13813 20.8193C3.27461 20.9515 3.44748 21.0132 3.62945 21.0132C3.80232 21.0132 3.98428 20.9515 4.12076 20.8193L7.23242 17.8134C8.57899 18.3864 10.1621 18.7566 12.0091 18.7566C19.5699 18.7566 22.727 12.4892 22.8544 12.2248L23 11.9251L22.8453 11.6254ZM2.57403 11.9603C3.38379 10.7968 6.64103 6.6097 12.1729 6.6097C13.6559 6.6097 14.957 6.9094 16.0761 7.35896L14.7113 8.68119C13.9744 8.09941 13.0281 7.74682 12 7.74682C9.61621 7.74682 7.68734 9.62439 7.68734 11.9251C7.68734 12.9123 8.04218 13.8203 8.64268 14.5431L6.95947 16.1738C4.43011 14.834 3.03805 12.7625 2.57403 11.9603ZM14.9388 11.9339C14.9388 13.5029 13.6195 14.7723 12.0091 14.7723C11.536 14.7723 11.0902 14.6577 10.6898 14.4638L14.6294 10.6557C14.8205 11.0436 14.9388 11.4755 14.9388 11.9339ZM9.07031 11.9339C9.07031 10.3648 10.3896 9.09549 12 9.09549C12.646 9.09549 13.2374 9.29824 13.7196 9.64202L9.62531 13.5911C9.27957 13.1239 9.07031 12.5509 9.07031 11.9339ZM12 17.4079C10.5988 17.4079 9.36146 17.1611 8.28784 16.7733L9.6617 15.4422C10.335 15.8653 11.1356 16.1121 11.9909 16.1121C14.3747 16.1121 16.3036 14.2346 16.3036 11.9339C16.3036 11.1053 16.0488 10.3384 15.6212 9.68609L17.3681 7.99363C19.6518 9.31587 20.9711 11.2111 21.426 11.9427C20.7436 13.1151 17.8139 17.4079 12 17.4079Z" fill="black"/>
</svg>
