<svg width="24" height="24" viewBox="0 0 24 24" fill="none" xmlns="http://www.w3.org/2000/svg">
<path d="M21.8594 11.6614C21.7767 11.5126 20.4946 9.18718 17.8147 7.56643L20.5112 5.02178C20.7593 4.78689 20.7593 4.41106 20.5112 4.17617C20.263 3.94128 19.866 3.94128 19.6179 4.17617L16.665 6.96354C15.4078 6.39197 13.9107 6.00832 12.1572 6.00832C5.59801 6.00832 2.29777 11.403 2.16543 11.63L2 11.9119L2.14061 12.1938C2.22333 12.3504 3.54673 14.9185 6.49131 16.5784L3.94376 18.9821C3.69562 19.217 3.69562 19.5929 3.94376 19.8277C4.06782 19.9452 4.22498 20 4.39041 20C4.54756 20 4.71299 19.9452 4.83706 19.8277L7.66584 17.1578C8.88999 17.6667 10.3292 17.9956 12.0083 17.9956C18.8817 17.9956 21.7519 12.4287 21.8677 12.1938L22 11.9276L21.8594 11.6614ZM3.43093 11.9589C4.16708 10.9254 7.1282 7.20626 12.1572 7.20626C13.5054 7.20626 14.6882 7.47247 15.7055 7.87179L14.4648 9.04624C13.7949 8.52948 12.9347 8.2163 12 8.2163C9.83292 8.2163 8.0794 9.88402 8.0794 11.9276C8.0794 12.8045 8.40198 13.611 8.94789 14.253L7.4177 15.7015C5.11828 14.5114 3.85277 12.6714 3.43093 11.9589ZM14.6716 11.9354C14.6716 13.3291 13.4723 14.4566 12.0083 14.4566C11.5782 14.4566 11.1729 14.3548 10.8089 14.1825L14.3904 10.8001C14.5641 11.1446 14.6716 11.5283 14.6716 11.9354ZM9.33664 11.9354C9.33664 10.5417 10.536 9.41424 12 9.41424C12.5873 9.41424 13.1249 9.59432 13.5633 9.89968L9.84119 13.4074C9.52688 12.9924 9.33664 12.4835 9.33664 11.9354ZM12 16.7977C10.7262 16.7977 9.60132 16.5784 8.62531 16.2339L9.87428 15.0516C10.4864 15.4275 11.2142 15.6467 11.9917 15.6467C14.1588 15.6467 15.9123 13.979 15.9123 11.9354C15.9123 11.1994 15.6807 10.5182 15.292 9.93883L16.8801 8.43553C18.9562 9.60998 20.1555 11.2934 20.5691 11.9432C19.9487 12.9846 17.2854 16.7977 12 16.7977Z" fill="black"/>
</svg>
