<svg width="24" height="24" viewBox="0 0 24 24" fill="none" xmlns="http://www.w3.org/2000/svg">
<path d="M22.8453 11.6017C22.7088 11.3362 19.4061 5 12.1729 5C4.95782 5 1.32754 11.3087 1.17287 11.5742L1 11.8947L1.15467 12.2243C1.28205 12.499 4.43921 19.0092 12 19.0092C19.5608 19.0092 22.7179 12.499 22.8453 12.2243L22.9909 11.913L22.8453 11.6017ZM12 17.6082C6.16791 17.6082 3.28371 13.2132 2.57403 11.9496C3.38379 10.7319 6.64103 6.39176 12.1729 6.39176C17.7684 6.39176 20.7254 10.7135 21.4351 11.9313C20.7436 13.1674 17.8685 17.6082 12 17.6082Z" fill="black"/>
<path d="M12 7.57292C9.61618 7.57292 7.68732 9.52322 7.68732 11.913C7.68732 14.3028 9.62528 16.2531 12 16.2531C14.3747 16.2531 16.3126 14.3028 16.3126 11.913C16.3126 9.52322 14.3838 7.57292 12 7.57292ZM12 14.8705C10.3805 14.8705 9.07028 13.5428 9.07028 11.9222C9.07028 10.2923 10.3896 8.97384 12 8.97384C13.6104 8.97384 14.9297 10.3015 14.9297 11.9222C14.9388 13.552 13.6195 14.8705 12 14.8705Z" fill="black"/>
</svg>
