<svg width="24" height="24" viewBox="0 0 24 24" fill="none" xmlns="http://www.w3.org/2000/svg">
<path d="M21.8675 11.638C21.7434 11.3964 18.7383 5.63124 12.1569 5.63124C5.59205 5.63124 2.28893 11.3714 2.1482 11.613L1.99091 11.9046L2.13164 12.2045C2.24754 12.4545 5.12017 18.3779 11.9996 18.3779C18.879 18.3779 21.7517 12.4545 21.8675 12.2045L22 11.9213L21.8675 11.638ZM11.9996 17.1032C6.69309 17.1032 4.06881 13.1043 3.42308 11.9546C4.15987 10.8465 7.12357 6.89758 12.1569 6.89758C17.2482 6.89758 19.9387 10.8299 20.5844 11.9379C19.9552 13.0626 17.3392 17.1032 11.9996 17.1032Z" fill="black"/>
<path d="M11.9996 7.97229C9.83063 7.97229 8.07559 9.74683 8.07559 11.9213C8.07559 14.0957 9.83891 15.8702 11.9996 15.8702C14.1603 15.8702 15.9236 14.0957 15.9236 11.9213C15.9236 9.74683 14.1686 7.97229 11.9996 7.97229ZM11.9996 14.6122C10.526 14.6122 9.33392 13.4042 9.33392 11.9296C9.33392 10.4466 10.5343 9.24696 11.9996 9.24696C13.4649 9.24696 14.6653 10.455 14.6653 11.9296C14.6735 13.4125 13.4732 14.6122 11.9996 14.6122Z" fill="black"/>
</svg>
