<svg width="24" height="24" viewBox="0 0 24 24" fill="none" xmlns="http://www.w3.org/2000/svg">
<path d="M12 1C5.93802 1 1 5.93802 1 12C1 18.062 5.93802 23 12 23C18.062 23 23 18.062 23 12C23 5.93802 18.0712 1 12 1ZM13.5201 21.4615V14.8652H16.072L16.5603 11.7052H13.5293V9.64154C13.5293 8.77554 13.9531 7.93719 15.3166 7.93719H16.6985V5.24707C16.6985 5.24707 15.4456 5.03518 14.2479 5.03518C11.7513 5.03518 10.1114 6.54606 10.1114 9.29146V11.7052H7.31993V14.8652H10.1022V21.397C5.72613 20.5126 2.42797 16.6432 2.42797 12.0092C2.42797 6.73032 6.72111 2.42797 12.0092 2.42797C17.2973 2.42797 21.5905 6.72111 21.5905 12.0092C21.5812 16.763 18.0804 20.7337 13.5201 21.4615Z" fill="#0E0E0E"/>
</svg>
