<svg width="24" height="24" viewBox="0 0 24 24" fill="none" xmlns="http://www.w3.org/2000/svg">
<path d="M12 2C6.48911 2 2 6.48911 2 12C2 17.5109 6.48911 22 12 22C17.5109 22 22 17.5109 22 12C22 6.48911 17.5193 2 12 2ZM13.3819 20.6013V14.6047H15.7018L16.1457 11.732H13.3903V9.85595C13.3903 9.06868 13.7755 8.30653 15.0151 8.30653H16.2714V5.86097C16.2714 5.86097 15.1323 5.66834 14.0436 5.66834C11.7739 5.66834 10.2831 7.04188 10.2831 9.53769V11.732H7.74539V14.6047H10.2747V20.5427C6.29648 19.7387 3.29816 16.2211 3.29816 12.0084C3.29816 7.20938 7.20101 3.29816 12.0084 3.29816C16.8157 3.29816 20.7186 7.20101 20.7186 12.0084C20.7102 16.33 17.5276 19.9397 13.3819 20.6013Z" fill="#0E0E0E"/>
</svg>
