<svg width="24" height="24" viewBox="0 0 24 24" fill="none" xmlns="http://www.w3.org/2000/svg">
<path d="M5.88959 6.7627H14.8059C15.1521 6.7627 15.4322 6.48206 15.4322 6.13538C15.4322 5.7887 15.1521 5.50806 14.8059 5.50806H5.88959C5.54348 5.50806 5.2633 5.7887 5.2633 6.13538C5.25506 6.48206 5.53524 6.7627 5.88959 6.7627Z" fill="#212121"/>
<path d="M14.806 17.2786H5.88962C5.54352 17.2786 5.26334 17.5592 5.26334 17.9059C5.26334 18.2526 5.54352 18.5332 5.88962 18.5332H14.806C15.1521 18.5332 15.4323 18.2526 15.4323 17.9059C15.4323 17.5675 15.1521 17.2786 14.806 17.2786Z" fill="#212121"/>
<path d="M22 11.9959C22 9.79199 20.6403 7.91003 18.7202 7.12588C18.7202 7.11762 18.7202 7.10937 18.7202 7.10111V3.54354C18.7285 2.69336 18.0363 2 17.1875 2H3.541C2.69221 2 2 2.69336 2 3.54354V20.4565C2 21.3066 2.69221 22 3.541 22H17.1875C18.0363 22 18.7285 21.3066 18.7285 20.4565V16.8741C20.6485 16.0817 22 14.1998 22 11.9959ZM17.4677 20.4482C17.4677 20.605 17.344 20.7288 17.1875 20.7288H3.541C3.38443 20.7288 3.26082 20.605 3.26082 20.4482V3.54354C3.26082 3.38671 3.38443 3.2629 3.541 3.2629H17.1875C17.344 3.2629 17.4677 3.38671 17.4677 3.54354V6.79571C17.2369 6.76269 16.9979 6.73793 16.7507 6.73793C14.7895 6.73793 13.0754 7.82749 12.1689 9.42881H5.88958C5.53523 9.42881 5.25505 9.70945 5.25505 10.0644C5.25505 10.4111 5.53523 10.6917 5.88133 10.6917H11.6663C11.5591 11.1127 11.4932 11.5419 11.4932 11.9959C11.4932 12.4664 11.5591 12.9203 11.6745 13.3578H5.88958C5.54347 13.3578 5.26329 13.6385 5.26329 13.9851C5.26329 14.3318 5.54347 14.6125 5.88958 14.6125H12.136C12.1607 14.6125 12.1854 14.6042 12.2101 14.6042C13.1166 16.1808 14.8142 17.2456 16.759 17.2456C17.0062 17.2456 17.2369 17.2208 17.4759 17.1878V20.4482H17.4677ZM16.7507 15.9909C14.5505 15.9909 12.7623 14.1998 12.7623 11.9959C12.7623 9.79199 14.5505 8.00083 16.7507 8.00083C18.951 8.00083 20.7392 9.79199 20.7392 11.9959C20.7392 14.1998 18.951 15.9909 16.7507 15.9909Z" fill="#212121"/>
<path d="M19.1405 11.3686H17.377V9.60218C17.377 9.2555 17.0968 8.97485 16.7507 8.97485C16.4046 8.97485 16.1244 9.2555 16.1244 9.60218V11.3686H14.3609C14.0148 11.3686 13.7346 11.6492 13.7346 11.9959C13.7346 12.3426 14.0148 12.6232 14.3609 12.6232H16.1244V14.3896C16.1244 14.7363 16.4046 15.017 16.7507 15.017C17.0968 15.017 17.377 14.7363 17.377 14.3896V12.6232H19.1405C19.4866 12.6232 19.7668 12.3426 19.7668 11.9959C19.7668 11.6492 19.4866 11.3686 19.1405 11.3686Z" fill="#212121"/>
</svg>
