<svg width="24" height="24" viewBox="0 0 24 24" fill="none" xmlns="http://www.w3.org/2000/svg">
<path d="M18.5725 2H5.42748C4.6393 2 4 2.67926 4 3.51669V20.4981C4 21.3355 4.6393 22.0148 5.42748 22.0148H18.5725C19.3607 22.0148 20 21.3355 20 20.4981V3.51669C20 2.67926 19.3607 2 18.5725 2ZM18.5725 20.4981H5.42748V3.51669H18.5725V20.4981Z" fill="#212121"/>
<path d="M10.936 12.3098H16.208C16.6021 12.3098 16.9261 11.9655 16.9261 11.5468C16.9261 11.1281 16.6021 10.7838 16.208 10.7838H10.936C10.5419 10.7838 10.2179 11.1281 10.2179 11.5468C10.2179 11.9655 10.5419 12.3098 10.936 12.3098Z" fill="#212121"/>
<path d="M10.936 15.8084H16.208C16.6021 15.8084 16.9261 15.4642 16.9261 15.0454C16.9261 14.6267 16.6021 14.2824 16.208 14.2824H10.936C10.5419 14.2824 10.2179 14.6267 10.2179 15.0454C10.2179 15.4642 10.5419 15.8084 10.936 15.8084Z" fill="#212121"/>
<path d="M7.53803 15.8178C7.60809 15.8922 7.69566 15.9294 7.792 15.9294C7.87957 15.9294 7.9759 15.8922 8.04596 15.8178L8.2649 15.5851L8.48384 15.8178C8.5539 15.8922 8.64148 15.9294 8.73781 15.9294C8.83414 15.9294 8.92172 15.8922 8.99178 15.8178C9.1319 15.6689 9.1319 15.427 8.99178 15.2781L8.77284 15.0455L8.99178 14.8128C9.1319 14.664 9.1319 14.422 8.99178 14.2732C8.85166 14.1243 8.62396 14.1243 8.48384 14.2732L8.2649 14.5058L8.04596 14.2732C7.90584 14.1243 7.67815 14.1243 7.53803 14.2732C7.39791 14.422 7.39791 14.664 7.53803 14.8128L7.75697 15.0455L7.53803 15.2781C7.39791 15.4363 7.39791 15.6782 7.53803 15.8178Z" fill="#212121"/>
<path d="M7.53803 12.3191C7.60809 12.3935 7.69566 12.4308 7.792 12.4308C7.87957 12.4308 7.9759 12.3935 8.04596 12.3191L8.2649 12.0865L8.48384 12.3191C8.5539 12.3935 8.64148 12.4308 8.73781 12.4308C8.83414 12.4308 8.92172 12.3935 8.99178 12.3191C9.1319 12.1702 9.1319 11.9283 8.99178 11.7794L8.77284 11.5468L8.99178 11.3142C9.1319 11.1653 9.1319 10.9234 8.99178 10.7745C8.85166 10.6256 8.62396 10.6256 8.48384 10.7745L8.2649 11.0071L8.04596 10.7745C7.90584 10.6256 7.67815 10.6256 7.53803 10.7745C7.39791 10.9234 7.39791 11.1653 7.53803 11.3142L7.75697 11.5468L7.53803 11.7794C7.39791 11.9283 7.39791 12.1702 7.53803 12.3191Z" fill="#212121"/>
<path d="M10.936 8.80188H16.208C16.6021 8.80188 16.9261 8.4576 16.9261 8.03888C16.9261 7.62016 16.6021 7.27588 16.208 7.27588H10.936C10.5419 7.28518 10.2179 7.62946 10.2179 8.04818C10.2179 8.4669 10.5419 8.80188 10.936 8.80188Z" fill="#212121"/>
<path d="M7.53803 8.82048C7.60809 8.89492 7.69566 8.93214 7.792 8.93214C7.87957 8.93214 7.9759 8.89492 8.04596 8.82048L8.2649 8.58786L8.48384 8.82048C8.5539 8.89492 8.64148 8.93214 8.73781 8.93214C8.83414 8.93214 8.92172 8.89492 8.99178 8.82048C9.1319 8.6716 9.1319 8.42967 8.99178 8.2808L8.77284 8.04818L8.99178 7.80625C9.1319 7.65737 9.1319 7.41544 8.99178 7.26657C8.85166 7.11769 8.62396 7.11769 8.48384 7.26657L8.2649 7.50849L8.04596 7.27587C7.90584 7.12699 7.67815 7.12699 7.53803 7.27587C7.39791 7.42475 7.39791 7.66668 7.53803 7.81555L7.76572 8.04818L7.53803 8.2808C7.39791 8.42967 7.39791 8.6716 7.53803 8.82048Z" fill="#212121"/>
</svg>
