<svg width="24" height="24" viewBox="0 0 24 24" fill="none" xmlns="http://www.w3.org/2000/svg">
<path d="M20.4238 4.52985H18.5561V2.49585C18.5561 1.66584 17.8363 1 16.9608 1H3.5953C2.71983 1 2 1.67496 2 2.49585V17.9652C2 18.7952 2.71983 19.461 3.5953 19.461H5.46297V21.495C5.46297 22.325 6.1828 22.9909 7.05827 22.9909H20.4043C21.2895 22.9909 21.9996 22.3159 21.9996 21.495V6.0257C22.0191 5.20481 21.2992 4.52985 20.4238 4.52985ZM3.5953 18.0655C3.53694 18.0655 3.4883 18.0199 3.4883 17.9652V2.49585C3.4883 2.44113 3.53694 2.39552 3.5953 2.39552H16.9413C16.9997 2.39552 17.0483 2.44113 17.0483 2.49585V4.52985H7.068C6.1828 4.52985 5.4727 5.20481 5.4727 6.0257V18.0655H3.5953ZM20.5308 21.495C20.5308 21.5497 20.4821 21.5954 20.4238 21.5954H7.068C7.00963 21.5954 6.96099 21.5497 6.96099 21.495V6.0257C6.96099 5.97098 7.00963 5.92537 7.068 5.92537H20.414C20.4724 5.92537 20.521 5.97098 20.521 6.0257V21.495H20.5308Z" fill="black"/>
<path d="M18.0697 7.72222H9.38311C8.97455 7.72222 8.63409 8.03234 8.63409 8.42454C8.63409 8.81675 8.97455 9.11774 9.38311 9.11774H18.06C18.4685 9.11774 18.809 8.80763 18.809 8.41542C18.809 8.02322 18.4783 7.72222 18.0697 7.72222Z" fill="black"/>
<path d="M18.0697 11.2977H9.38311C8.97455 11.2977 8.63409 11.6078 8.63409 12C8.63409 12.3922 8.96483 12.7023 9.38311 12.7023H18.06C18.4685 12.7023 18.809 12.3922 18.809 12C18.809 11.6078 18.4783 11.2977 18.0697 11.2977Z" fill="black"/>
<path d="M18.0697 14.8731H9.38311C8.97455 14.8731 8.63409 15.1833 8.63409 15.5755C8.63409 15.9585 8.96483 16.2778 9.38311 16.2778H18.06C18.4685 16.2778 18.809 15.9677 18.809 15.5755C18.809 15.1924 18.4783 14.8731 18.0697 14.8731Z" fill="black"/>
<path d="M18.0697 18.4577H9.38311C8.97455 18.4577 8.63409 18.7678 8.63409 19.16C8.63409 19.5522 8.96483 19.8624 9.38311 19.8624H18.06C18.4685 19.8624 18.809 19.5522 18.809 19.16C18.809 18.7678 18.4783 18.4577 18.0697 18.4577Z" fill="black"/>
</svg>
