<svg width="24" height="24" viewBox="0 0 24 24" fill="none" xmlns="http://www.w3.org/2000/svg">
<path d="M19.2605 2.819H18.0785C17.8094 1.77828 16.8099 1 15.6279 1H8.38174C7.19007 1 6.1906 1.77828 5.92152 2.819H4.73946C3.77843 2.819 3 3.56109 3 4.45701V21.362C3 22.267 3.77843 23 4.73946 23H19.2605C20.2216 23 21 22.267 21 21.362V4.45701C21 3.56109 20.2216 2.819 19.2605 2.819ZM8.38174 2.52941H15.6279C16.1276 2.52941 16.5312 2.9095 16.5312 3.38009C16.5312 3.85068 16.1276 4.23077 15.6279 4.23077H8.38174C7.88201 4.23077 7.47838 3.85068 7.47838 3.38009C7.47838 2.9095 7.88201 2.52941 8.38174 2.52941ZM19.3759 21.362C19.3759 21.4253 19.3278 21.4706 19.2605 21.4706H4.73946C4.67218 21.4706 4.62413 21.4253 4.62413 21.362V4.45701C4.62413 4.39367 4.67218 4.34842 4.73946 4.34842H6.07528C6.4693 5.17195 7.35344 5.75113 8.38174 5.75113H15.6279C16.6466 5.75113 17.5307 5.17195 17.9247 4.34842H19.2605C19.3278 4.34842 19.3759 4.39367 19.3759 4.45701V21.362V21.362Z" fill="black"/>
<path d="M9.27546 9H11.6684C12.1201 9 12.4757 8.65611 12.4757 8.23982C12.4757 7.81448 12.1105 7.47964 11.6684 7.47964H9.27546C8.82378 7.47059 8.4682 7.81448 8.4682 8.23982C8.4682 8.65611 8.82378 9 9.27546 9Z" fill="black"/>
<path d="M16.685 10.991H9.27546C8.82378 10.991 8.4682 11.3348 8.4682 11.7511C8.4682 12.1765 8.83339 12.5113 9.27546 12.5113H16.6946C17.1463 12.5113 17.5018 12.1674 17.5018 11.7511C17.5018 11.3348 17.1366 10.991 16.685 10.991Z" fill="black"/>
<path d="M16.685 14.5204H9.27546C8.82378 14.5204 8.4682 14.8643 8.4682 15.2805C8.4682 15.7059 8.83339 16.0407 9.27546 16.0407H16.6946C17.1463 16.0407 17.5018 15.6968 17.5018 15.2805C17.5018 14.8552 17.1366 14.5204 16.685 14.5204Z" fill="black"/>
<path d="M16.685 18.0407H9.27546C8.82378 18.0407 8.4682 18.3846 8.4682 18.8009C8.4682 19.2262 8.83339 19.5611 9.27546 19.5611H16.6946C17.1463 19.5611 17.5018 19.2172 17.5018 18.8009C17.5018 18.3756 17.1366 18.0407 16.685 18.0407Z" fill="black"/>
<path d="M6.93064 7.47059C6.47896 7.47059 6.11377 7.81448 6.11377 8.23982C6.11377 8.66516 6.47896 9 6.92103 9C7.37271 9 7.72829 8.65611 7.72829 8.23982C7.7379 7.81448 7.37271 7.47059 6.93064 7.47059Z" fill="black"/>
<path d="M6.93061 10.991C6.47893 10.991 6.12335 11.3348 6.12335 11.7511C6.12335 12.1765 6.48854 12.5113 6.93061 12.5113C7.3823 12.5113 7.73787 12.1674 7.73787 11.7511C7.73787 11.3348 7.37268 10.991 6.93061 10.991Z" fill="black"/>
<path d="M6.93061 16.0407C7.37645 16.0407 7.73787 15.7004 7.73787 15.2805C7.73787 14.8607 7.37645 14.5204 6.93061 14.5204C6.48478 14.5204 6.12335 14.8607 6.12335 15.2805C6.12335 15.7004 6.48478 16.0407 6.93061 16.0407Z" fill="black"/>
<path d="M6.93061 19.5611C7.37645 19.5611 7.73787 19.2207 7.73787 18.8009C7.73787 18.3811 7.37645 18.0407 6.93061 18.0407C6.48478 18.0407 6.12335 18.3811 6.12335 18.8009C6.12335 19.2207 6.48478 19.5611 6.93061 19.5611Z" fill="black"/>
</svg>
