<svg width="24" height="24" viewBox="0 0 24 24" fill="none" xmlns="http://www.w3.org/2000/svg">
<path d="M18.6005 3.65364H17.5259C17.2813 2.70753 16.3727 2 15.2981 2H8.71067C7.62733 2 6.71872 2.70753 6.4741 3.65364H5.3995C4.52584 3.65364 3.81818 4.32826 3.81818 5.14274V20.5109C3.81818 21.3336 4.52584 22 5.3995 22H18.6005C19.4741 22 20.1818 21.3336 20.1818 20.5109V5.14274C20.1818 4.32826 19.4741 3.65364 18.6005 3.65364ZM8.71067 3.39037H15.2981C15.7524 3.39037 16.1193 3.73591 16.1193 4.16372C16.1193 4.59153 15.7524 4.93706 15.2981 4.93706H8.71067C8.25636 4.93706 7.88943 4.59153 7.88943 4.16372C7.88943 3.73591 8.25636 3.39037 8.71067 3.39037ZM18.7053 20.5109C18.7053 20.5685 18.6616 20.6096 18.6005 20.6096H5.3995C5.33834 20.6096 5.29466 20.5685 5.29466 20.5109V5.14274C5.29466 5.08515 5.33834 5.04401 5.3995 5.04401H6.61389C6.97209 5.79268 7.77585 6.31921 8.71067 6.31921H15.2981C16.2241 6.31921 17.0279 5.79268 17.3861 5.04401H18.6005C18.6616 5.04401 18.7053 5.08515 18.7053 5.14274V20.5109Z" fill="black"/>
<path d="M9.52315 9.27273H11.6986C12.1092 9.27273 12.4324 8.9601 12.4324 8.58166C12.4324 8.19499 12.1004 7.89059 11.6986 7.89059H9.52315C9.11253 7.88236 8.78928 8.19499 8.78928 8.58166C8.78928 8.9601 9.11253 9.27273 9.52315 9.27273Z" fill="black"/>
<path d="M16.2591 11.0827H9.52315C9.11253 11.0827 8.78928 11.3953 8.78928 11.7738C8.78928 12.1604 9.12127 12.4648 9.52315 12.4648H16.2678C16.6784 12.4648 17.0017 12.1522 17.0017 11.7738C17.0017 11.3953 16.6697 11.0827 16.2591 11.0827Z" fill="black"/>
<path d="M16.2591 14.2912H9.52315C9.11253 14.2912 8.78928 14.6039 8.78928 14.9823C8.78928 15.369 9.12127 15.6734 9.52315 15.6734H16.2678C16.6784 15.6734 17.0017 15.3607 17.0017 14.9823C17.0017 14.5956 16.6697 14.2912 16.2591 14.2912Z" fill="black"/>
<path d="M16.2591 17.4916H9.52315C9.11253 17.4916 8.78928 17.8042 8.78928 18.1826C8.78928 18.5693 9.12127 18.8737 9.52315 18.8737H16.2678C16.6784 18.8737 17.0017 18.5611 17.0017 18.1826C17.0017 17.796 16.6697 17.4916 16.2591 17.4916Z" fill="black"/>
<path d="M7.39151 7.88234C6.98089 7.88234 6.6489 8.19497 6.6489 8.58164C6.6489 8.96831 6.98089 9.27271 7.38277 9.27271C7.79339 9.27271 8.11664 8.96008 8.11664 8.58164C8.12538 8.19497 7.79339 7.88234 7.39151 7.88234Z" fill="black"/>
<path d="M7.39147 11.0827C6.98085 11.0827 6.65759 11.3953 6.65759 11.7738C6.65759 12.1604 6.98958 12.4648 7.39147 12.4648C7.80209 12.4648 8.12534 12.1522 8.12534 11.7738C8.12534 11.3953 7.79335 11.0827 7.39147 11.0827Z" fill="black"/>
<path d="M7.39147 15.6734C7.79677 15.6734 8.12534 15.364 8.12534 14.9823C8.12534 14.6006 7.79677 14.2912 7.39147 14.2912C6.98616 14.2912 6.65759 14.6006 6.65759 14.9823C6.65759 15.364 6.98616 15.6734 7.39147 15.6734Z" fill="black"/>
<path d="M7.39147 18.8737C7.79677 18.8737 8.12534 18.5643 8.12534 18.1826C8.12534 17.801 7.79677 17.4916 7.39147 17.4916C6.98616 17.4916 6.65759 17.801 6.65759 18.1826C6.65759 18.5643 6.98616 18.8737 7.39147 18.8737Z" fill="black"/>
</svg>
