<svg width="24" height="24" viewBox="0 0 24 24" fill="none" xmlns="http://www.w3.org/2000/svg">
<path d="M21.8237 12.1502L20.8379 11.1626C20.6295 10.9458 20.2849 10.9458 20.0685 11.1626L16.7906 14.4386C16.5903 14.6393 16.438 14.8883 16.3498 15.1613L16.0293 16.173C15.9571 16.3978 16.0213 16.6467 16.1896 16.8153C16.3098 16.9358 16.4701 17 16.6384 17C16.7025 17 16.7746 16.992 16.8387 16.9679L17.8485 16.6306C18.113 16.5423 18.3534 16.3898 18.5538 16.1971L21.8397 12.913C21.9439 12.8086 22 12.6641 22 12.5196C21.984 12.3831 21.9279 12.2546 21.8237 12.1502ZM17.8966 15.5547C17.8004 15.6511 17.6802 15.7233 17.552 15.7635L17.0711 15.9241L17.2234 15.4343C17.2635 15.2978 17.3436 15.1773 17.4398 15.081L19.1389 13.3787L19.6037 13.8444L17.8966 15.5547ZM20.2529 13.2021L19.788 12.7364L20.4532 12.0699L20.9181 12.5356L20.2529 13.2021Z" fill="#212121"/>
<path d="M19.3593 10.7547C19.7133 10.7547 20 10.4733 20 10.1258V7.7923C20 7.06413 19.393 6.46835 18.6511 6.46835H17.4033V5.47538C17.4033 4.75548 16.8131 4.17625 16.0796 4.17625H15.304V3.29913C15.304 2.57923 14.7138 2 13.9803 2H3.32365C2.59016 2 2 2.57923 2 3.29913V16.2242C2 16.9441 2.59016 17.5234 3.32365 17.5234H4.0993V18.4088C4.0993 19.1287 4.68946 19.7079 5.42295 19.7079H6.69602V20.676C6.69602 21.4042 7.30304 22 8.04496 22H18.6511C19.393 22 20 21.4042 20 20.676V17.664C20 17.3165 19.7133 17.0352 19.3593 17.0352C19.0052 17.0352 18.7185 17.3165 18.7185 17.664V20.676C18.7185 20.7091 18.6932 20.7422 18.6511 20.7422H8.04496C8.01124 20.7422 7.97752 20.7174 7.97752 20.676V7.7923C7.97752 7.75921 8.00281 7.72611 8.04496 7.72611H18.6511C18.6848 7.72611 18.7185 7.75093 18.7185 7.7923V10.1258C18.7185 10.4733 19.0052 10.7547 19.3593 10.7547ZM4.0993 5.48366V16.2656H3.32365C3.29836 16.2656 3.2815 16.2491 3.2815 16.2242V3.29913C3.2815 3.27431 3.29836 3.25776 3.32365 3.25776H13.9803C14.0056 3.25776 14.0225 3.27431 14.0225 3.29913V4.18453H5.42295C4.68946 4.18453 4.0993 4.76376 4.0993 5.48366ZM16.1218 6.46835H8.04496C7.30304 6.46835 6.69602 7.06413 6.69602 7.7923V18.4501H5.42295C5.39766 18.4501 5.3808 18.4336 5.3808 18.4088V5.48366C5.3808 5.45883 5.39766 5.44228 5.42295 5.44228H16.0796C16.1049 5.44228 16.1218 5.45883 16.1218 5.48366V6.46835Z" fill="#212121"/>
<path d="M16.4538 10H10.5462C10.2444 10 10 10.2237 10 10.5C10 10.7763 10.2444 11 10.5462 11H16.4538C16.7556 11 17 10.7763 17 10.5C17 10.2237 16.7628 10 16.4538 10Z" fill="#212121"/>
<path d="M17 12.5C17 12.2237 16.7559 12 16.4544 12H10.5456C10.2441 12 10 12.2237 10 12.5C10 12.7763 10.2441 13 10.5456 13H16.4472C16.7559 13 17 12.7763 17 12.5Z" fill="#212121"/>
<path d="M13.5476 15H10.4524C10.2024 15 10 15.2237 10 15.5C10 15.7763 10.2024 16 10.4524 16H13.5476C13.7976 16 14 15.7763 14 15.5C14 15.2237 13.7976 15 13.5476 15Z" fill="#212121"/>
<path d="M10 18.5C10 18.7763 10.2444 19 10.5462 19H16.4538C16.7556 19 17 18.7763 17 18.5C17 18.2237 16.7556 18 16.4538 18H10.5462C10.2444 18 10 18.2237 10 18.5Z" fill="#212121"/>
</svg>
