<svg width="24" height="24" viewBox="0 0 24 24" fill="none" xmlns="http://www.w3.org/2000/svg">
<path d="M5.88065 6.76861H14.7961C15.1425 6.76861 15.4229 6.48762 15.4229 6.14051C15.4229 5.79341 15.1425 5.51242 14.7961 5.51242H5.88065C5.53426 5.50415 5.25385 5.78514 5.25385 6.13225C5.25385 6.47936 5.53426 6.76861 5.88065 6.76861Z" fill="#212121"/>
<path d="M14.7961 17.281H5.88065C5.53426 17.281 5.25385 17.562 5.25385 17.9091C5.25385 18.2562 5.53426 18.5372 5.88065 18.5372H14.7961C15.1425 18.5372 15.4229 18.2562 15.4229 17.9091C15.4229 17.562 15.1425 17.281 14.7961 17.281Z" fill="#212121"/>
<path d="M21.9961 12C21.9961 9.80165 20.6353 7.90909 18.7219 7.13223C18.7219 7.12397 18.7219 7.1157 18.7219 7.1157V3.54545C18.7219 2.69421 18.0291 2 17.1796 2H3.53836C2.68888 2 1.99609 2.69421 1.99609 3.54545V20.4545C1.99609 21.3058 2.68888 22 3.53836 22H17.1796C18.0291 22 18.7219 21.3058 18.7219 20.4545V16.8678C20.6353 16.0826 21.9961 14.1983 21.9961 12ZM17.46 20.4545C17.46 20.6116 17.3363 20.7355 17.1796 20.7355H3.53836C3.38166 20.7355 3.25795 20.6116 3.25795 20.4545V3.54545C3.25795 3.38843 3.38166 3.26446 3.53836 3.26446H17.1796C17.3363 3.26446 17.46 3.38843 17.46 3.54545V6.79339C17.2291 6.76033 16.9899 6.73554 16.7425 6.73554C14.7796 6.73554 13.0641 7.82645 12.1652 9.42975H5.88063C5.53424 9.42975 5.25383 9.71074 5.25383 10.0579C5.25383 10.405 5.53424 10.686 5.88063 10.686H11.6621C11.5549 11.1074 11.4889 11.5372 11.4889 11.9917C11.4889 12.4628 11.5549 12.9174 11.6703 13.3554H5.88063C5.53424 13.3554 5.25383 13.6364 5.25383 13.9835C5.25383 14.3306 5.53424 14.6116 5.88063 14.6116H12.1239C12.1487 14.6116 12.1734 14.6033 12.1982 14.6033C13.1054 16.1818 14.8043 17.2479 16.7425 17.2479C16.9899 17.2479 17.2208 17.2231 17.46 17.1901V20.4545ZM16.7425 15.9917C14.5404 15.9917 12.7507 14.1983 12.7507 11.9917C12.7507 9.78512 14.5404 7.99173 16.7425 7.99173C18.9445 7.99173 20.7342 9.78512 20.7342 11.9917C20.7342 14.1983 18.9445 15.9917 16.7425 15.9917Z" fill="#212121"/>
<path d="M18.0291 9.02478C17.8641 8.8595 17.592 8.8595 17.427 9.02478C17.2621 9.19007 17.2621 9.4628 17.427 9.62809L17.8559 10.0578H14.5981C14.3672 10.0578 14.1693 10.2479 14.1693 10.4876C14.1693 10.719 14.359 10.9173 14.5981 10.9173H17.8394L17.4188 11.3554C17.2538 11.5289 17.2621 11.7934 17.427 11.9587C17.5095 12.0413 17.6167 12.0744 17.7239 12.0744C17.8394 12.0744 17.9466 12.033 18.0291 11.9421L19.159 10.7603C19.3157 10.595 19.3157 10.3306 19.1507 10.1653L18.0291 9.02478Z" fill="#212121"/>
<path d="M18.8621 13.1074H15.6209L16.0415 12.6694C16.2064 12.4959 16.1982 12.2314 16.025 12.0661C15.86 11.9008 15.5879 11.9091 15.4229 12.0826L14.293 13.2645C14.1363 13.4298 14.1363 13.6942 14.3013 13.8595L15.4312 14.9917C15.5136 15.0744 15.6209 15.1157 15.7281 15.1157C15.8353 15.1157 15.9425 15.0744 16.025 14.9917C16.1899 14.8264 16.1899 14.5537 16.025 14.3884L15.5961 13.9587H18.8539C19.0848 13.9587 19.2827 13.7686 19.2827 13.5289C19.2827 13.3058 19.093 13.1074 18.8621 13.1074Z" fill="#212121"/>
</svg>
