<svg width="24" height="24" viewBox="0 0 24 24" fill="none" xmlns="http://www.w3.org/2000/svg">
<path d="M20.5072 10.9444H20.1772V8.09107C20.1772 7.91637 20.1095 7.75832 19.9826 7.63354L15.2779 3.17469C15.1594 3.06655 14.9987 3 14.8379 3H5.35235C4.5908 3 3.97309 3.60727 3.97309 4.35595V10.9444H3.64309C3.2877 10.9444 3 11.2272 3 11.5766V18.2316C3 18.581 3.2877 18.8638 3.64309 18.8638H3.97309V20.644C3.97309 21.3927 4.5908 22 5.35235 22H18.798C19.5595 22 20.1772 21.3927 20.1772 20.644V18.8638H20.5072C20.8626 18.8638 21.1503 18.581 21.1503 18.2316V11.5766C21.1503 11.2272 20.8626 10.9444 20.5072 10.9444ZM4.28618 17.5994V12.2088H19.8641V17.5994H4.28618ZM15.2948 4.94658L18.3495 7.84151H15.2948V4.94658ZM5.25927 4.35595C5.25927 4.30604 5.30158 4.26445 5.35235 4.26445H14.0086V8.47373C14.0086 8.82312 14.2963 9.10595 14.6517 9.10595H18.8995V10.9444H5.25927V4.35595ZM18.891 20.644C18.891 20.694 18.8487 20.7356 18.798 20.7356H5.35235C5.30158 20.7356 5.25927 20.694 5.25927 20.644V18.8638H18.891V20.644Z" fill="#212121"/>
<path d="M8.95699 13.049H7.60312V16.5013H8.36467V15.4199H8.95699C9.65931 15.4199 10.1924 14.9124 10.1924 14.2303C10.2009 13.5565 9.66777 13.049 8.95699 13.049ZM8.92314 14.7377H8.37313V13.7478H8.92314C9.22776 13.7478 9.42238 13.9558 9.42238 14.2469C9.42238 14.5381 9.22776 14.7377 8.92314 14.7377Z" fill="#212121"/>
<path d="M12.054 13.049H10.7255V16.5013H12.054C13.0863 16.5013 13.8309 15.7692 13.8309 14.771C13.8394 13.7727 13.0948 13.049 12.054 13.049ZM12.0371 15.8108H11.487V13.7478H12.0371C12.6378 13.7478 13.0609 14.172 13.0609 14.7793C13.0609 15.3783 12.6378 15.8108 12.0371 15.8108Z" fill="#212121"/>
<path d="M14.4486 16.5013H15.2017V15.1786H16.4117V14.5048H15.2017V13.7478H16.5471V13.049H14.4486V16.5013Z" fill="#212121"/>
</svg>
