<svg width="24" height="24" viewBox="0 0 24 24" fill="none" xmlns="http://www.w3.org/2000/svg">
<path d="M19.6577 5.20882H17.9598V3.35981C17.9598 2.60528 17.3055 2 16.5096 2H4.35968C3.56383 2 2.90947 2.61357 2.90947 3.35981V17.4222C2.90947 18.1768 3.56383 18.7821 4.35968 18.7821H6.05749V20.6311C6.05749 21.3856 6.71186 21.9909 7.5077 21.9909H19.64C20.4447 21.9909 21.0902 21.3773 21.0902 20.6311V6.56863C21.1079 5.8224 20.4535 5.20882 19.6577 5.20882ZM4.35968 17.5135C4.30663 17.5135 4.26241 17.472 4.26241 17.4222V3.35981C4.26241 3.31006 4.30663 3.2686 4.35968 3.2686H16.4919C16.545 3.2686 16.5892 3.31006 16.5892 3.35981V5.20882H7.51655C6.71186 5.20882 6.06633 5.8224 6.06633 6.56863V17.5135H4.35968ZM19.7549 20.6311C19.7549 20.6808 19.7107 20.7223 19.6577 20.7223H7.51655C7.46349 20.7223 7.41928 20.6808 7.41928 20.6311V6.56863C7.41928 6.51888 7.46349 6.47743 7.51655 6.47743H19.6488C19.7019 6.47743 19.7461 6.51888 19.7461 6.56863V20.6311H19.7549Z" fill="black"/>
<path d="M17.5177 8.11087H9.62111C9.24971 8.11087 8.94022 8.39278 8.94022 8.74932C8.94022 9.10585 9.24971 9.37947 9.62111 9.37947H17.5089C17.8802 9.37947 18.1897 9.09756 18.1897 8.74103C18.1897 8.38449 17.8891 8.11087 17.5177 8.11087Z" fill="black"/>
<path d="M17.5177 11.3611H9.62111C9.24971 11.3611 8.94022 11.643 8.94022 11.9996C8.94022 12.3561 9.24087 12.638 9.62111 12.638H17.5089C17.8802 12.638 18.1897 12.3561 18.1897 11.9996C18.1897 11.643 17.8891 11.3611 17.5177 11.3611Z" fill="black"/>
<path d="M17.5177 14.6114H9.62111C9.24971 14.6114 8.94022 14.8933 8.94022 15.2499C8.94022 15.5981 9.24087 15.8883 9.62111 15.8883H17.5089C17.8802 15.8883 18.1897 15.6064 18.1897 15.2499C18.1897 14.9016 17.8891 14.6114 17.5177 14.6114Z" fill="black"/>
<path d="M17.5177 17.87H9.62111C9.24971 17.87 8.94022 18.1519 8.94022 18.5084C8.94022 18.865 9.24087 19.1469 9.62111 19.1469H17.5089C17.8802 19.1469 18.1897 18.865 18.1897 18.5084C18.1897 18.1519 17.8891 17.87 17.5177 17.87Z" fill="black"/>
</svg>
