<svg width="24" height="24" viewBox="0 0 24 24" fill="none" xmlns="http://www.w3.org/2000/svg">
<path d="M21.8243 9.33892L20.4937 8C20.2594 7.76569 19.8912 7.76569 19.6653 7.99164L15.2301 12.4184C14.9791 12.6695 14.7782 12.9875 14.6695 13.3389L14.2343 14.7113C14.1506 14.9624 14.2259 15.2385 14.41 15.431C14.5439 15.5649 14.728 15.6402 14.9121 15.6402C14.9875 15.6402 15.0628 15.6318 15.1297 15.6067L16.4937 15.1548C16.8285 15.046 17.1381 14.8536 17.3891 14.6025L21.8326 10.1674C21.9414 10.0586 22 9.90796 22 9.75733C22 9.59833 21.9414 9.4477 21.8243 9.33892ZM16.7197 13.9331C16.5774 14.0753 16.3933 14.1925 16.1925 14.2511L15.2636 14.5607L15.5649 13.6318C15.6318 13.431 15.7406 13.2385 15.8912 13.0962L18.2929 10.6946L19.1297 11.5314L16.7197 13.9331ZM19.7992 10.8619L18.9707 10.0251L20.0837 8.92051L20.9121 9.75733L19.7992 10.8619Z" fill="#212121"/>
<path d="M18.1004 15.8494C17.749 15.8494 17.4728 16.1339 17.4728 16.477V20.4184C17.4728 20.569 17.3473 20.6946 17.1967 20.6946H3.53975C3.38912 20.6946 3.2636 20.569 3.2636 20.4184V3.53975C3.2636 3.38912 3.38912 3.2636 3.53975 3.2636H17.1883C17.3389 3.2636 17.4644 3.38912 17.4644 3.53975V6.59414C17.4644 6.94561 17.749 7.22176 18.0921 7.22176C18.4435 7.22176 18.7197 6.93724 18.7197 6.59414V3.53975C18.7197 2.69456 18.0335 2 17.1799 2H3.53975C2.68619 2 2 2.68619 2 3.53975V20.4184C2 21.2636 2.68619 21.9582 3.53975 21.9582H17.1883C18.0335 21.9582 18.728 21.272 18.728 20.4184V16.477C18.728 16.1255 18.4435 15.8494 18.1004 15.8494Z" fill="#212121"/>
<path d="M14.8034 5.49789H5.88286C5.5314 5.49789 5.25525 5.78241 5.25525 6.12551C5.25525 6.47697 5.53977 6.75313 5.88286 6.75313H14.8034C15.1548 6.75313 15.431 6.46861 15.431 6.12551C15.431 5.78241 15.1548 5.49789 14.8034 5.49789Z" fill="#212121"/>
<path d="M15.431 10.0502C15.431 9.69876 15.1465 9.42261 14.8034 9.42261H5.88286C5.5314 9.42261 5.25525 9.70713 5.25525 10.0502C5.25525 10.4017 5.53977 10.6778 5.88286 10.6778H14.8034C15.1548 10.6778 15.431 10.3933 15.431 10.0502Z" fill="#212121"/>
<path d="M11.523 13.3389H5.88286C5.5314 13.3389 5.25525 13.6234 5.25525 13.9665C5.25525 14.3096 5.53977 14.5941 5.88286 14.5941H11.523C11.8745 14.5941 12.1507 14.3096 12.1507 13.9665C12.1507 13.6234 11.8745 13.3389 11.523 13.3389Z" fill="#212121"/>
<path d="M5.25525 17.8828C5.25525 18.2343 5.53977 18.5104 5.88286 18.5104H14.8034C15.1548 18.5104 15.431 18.2259 15.431 17.8828C15.431 17.5397 15.1465 17.2552 14.8034 17.2552H5.88286C5.53977 17.2552 5.25525 17.5397 5.25525 17.8828Z" fill="#212121"/>
</svg>
