<svg width="24" height="24" viewBox="0 0 24 24" fill="none" xmlns="http://www.w3.org/2000/svg">
<path d="M5.89894 6.65232H14.8393C15.187 6.65232 15.4685 6.37086 15.4685 6.02318C15.4685 5.6755 15.187 5.39404 14.8393 5.39404H5.89894C5.55126 5.39404 5.2698 5.6755 5.2698 6.02318C5.26152 6.37086 5.54298 6.65232 5.89894 6.65232Z" fill="#212121"/>
<path d="M5.89916 17.298C5.55148 17.298 5.27002 17.5795 5.27002 17.9271C5.27002 18.2748 5.55148 18.5563 5.89916 18.5563H14.8396C15.1872 18.5563 15.4687 18.2748 15.4687 17.9271C15.4687 17.5795 15.1872 17.298 14.8396 17.298H5.89916Z" fill="#212121"/>
<path d="M21.793 9.64901L19.351 7.06623C19.2351 6.94205 19.0695 6.86755 18.8957 6.86755H18.7632V3.53974C18.7632 2.68709 18.0679 2 17.2235 2H3.53973C2.69536 2 2 2.69536 2 3.53974V20.4603C2 21.3129 2.69536 22 3.53973 22H17.2152C18.0679 22 18.755 21.3046 18.755 20.4603V16.9586H18.9536C19.1358 16.9586 19.3013 16.8841 19.4255 16.7517L21.8013 14.0944C21.9007 13.9785 21.9586 13.8295 21.9586 13.6722V10.0795C21.9669 9.92219 21.9007 9.7649 21.793 9.64901ZM17.4967 20.4603C17.4967 20.6175 17.3725 20.7417 17.2152 20.7417H3.53973C3.38245 20.7417 3.25828 20.6175 3.25828 20.4603V3.53974C3.25828 3.38245 3.38245 3.25828 3.53973 3.25828H17.2152C17.3725 3.25828 17.4967 3.38245 17.4967 3.53974V6.86755H15.1209C14.9553 6.86755 14.8063 6.9255 14.6904 7.04139L12.2897 9.32616C12.2815 9.32616 12.2732 9.32616 12.2566 9.32616H5.89901C5.55132 9.32616 5.26987 9.60762 5.26987 9.9553C5.26987 10.303 5.55132 10.5844 5.89901 10.5844H11.7682V13.25H5.89901C5.55132 13.25 5.26987 13.5315 5.26987 13.8791C5.26987 14.2268 5.55132 14.5083 5.89901 14.5083H12.1573C12.2152 14.5083 12.2649 14.5 12.3146 14.4834L14.5 16.7599C14.6159 16.8841 14.7815 16.9503 14.9553 16.9503H17.505V20.4603H17.4967ZM20.7003 13.4321L18.6722 15.7003H15.2119L13.0265 13.4156V10.3526L15.3692 8.12583H18.6142L20.7003 10.3278V13.4321Z" fill="#212121"/>
<path d="M16.9916 11.0232L15.6919 9.72349C15.4436 9.47515 15.0462 9.47515 14.7979 9.72349C14.5495 9.97183 14.5495 10.3692 14.7979 10.6175L16.0976 11.9172L14.7979 13.2169C14.5495 13.4652 14.5495 13.8626 14.7979 14.1109C14.9221 14.2351 15.0793 14.293 15.2449 14.293C15.4105 14.293 15.5678 14.2351 15.6919 14.1109L16.9916 12.8112L18.2913 14.1109C18.4154 14.2351 18.5727 14.293 18.7383 14.293C18.9039 14.293 19.0611 14.2351 19.1853 14.1109C19.4337 13.8626 19.4337 13.4652 19.1853 13.2169L17.8856 11.9172L19.1853 10.6175C19.4337 10.3692 19.4337 9.97183 19.1853 9.72349C18.937 9.47515 18.5396 9.47515 18.2913 9.72349L16.9916 11.0232Z" fill="#212121"/>
</svg>
