<svg width="24" height="24" viewBox="0 0 24 24" fill="none" xmlns="http://www.w3.org/2000/svg">
<path d="M20.4538 10.9396H20.1246V8.0933C20.1246 7.91853 20.0571 7.7604 19.9305 7.63557L15.2464 3.17477C15.1198 3.06658 14.9678 3 14.799 3H5.3463C4.58671 3 3.97059 3.60753 3.97059 4.35655V10.9396H3.64144C3.28696 10.9396 3 11.2225 3 11.5721V18.23C3 18.5795 3.28696 18.8625 3.64144 18.8625H3.97059V20.6435C3.97059 21.3925 4.58671 22 5.3463 22H18.7489C19.5085 22 20.1246 21.3925 20.1246 20.6435V18.8625H20.4538C20.8083 18.8625 21.0952 18.5795 21.0952 18.23V11.5721C21.0952 11.2225 20.8083 10.9396 20.4538 10.9396ZM4.28287 17.5975V12.2046H19.8124V17.5975H4.28287ZM15.2548 4.94744L18.3016 7.84363H15.2548V4.94744ZM5.25346 4.35655C5.25346 4.30661 5.29566 4.265 5.3463 4.265H13.9719V8.46781C13.9719 8.81735 14.2589 9.10031 14.6134 9.10031H18.8418V10.9396H5.25346V4.35655ZM18.8418 20.6435C18.8418 20.6934 18.7996 20.735 18.7489 20.735H5.3463C5.29566 20.735 5.25346 20.6934 5.25346 20.6435V18.8625H18.8502V20.6435H18.8418Z" fill="#212121"/>
<path d="M5.75144 15.0924H6.94991V14.4266H5.75144V13.7525H7.07651V13.0784H5.00873V16.4739H7.12715V15.7915H5.75144V15.0924Z" fill="#212121"/>
<path d="M10.3428 13.0784H9.53254L8.90798 14.127L8.29187 13.0784H7.45631L8.46067 14.6929L7.38879 16.4739H8.22435L8.91642 15.3088L9.59162 16.4739H10.4356L9.3553 14.7179L10.3428 13.0784Z" fill="#212121"/>
<path d="M12.2586 15.8498C11.6763 15.8498 11.2374 15.392 11.2374 14.7845C11.2374 14.1686 11.6763 13.7109 12.2586 13.7109C12.6975 13.7109 13.0351 13.9606 13.1786 14.3601H13.9298C13.7694 13.5528 13.1026 13.0035 12.2586 13.0035C11.2458 13.0035 10.4778 13.7692 10.4778 14.7845C10.4778 15.7915 11.2458 16.5572 12.2586 16.5572C13.1111 16.5572 13.7863 15.9912 13.9382 15.1507H13.187C13.0604 15.5751 12.706 15.8498 12.2586 15.8498Z" fill="#212121"/>
<path d="M15.221 15.0924H16.4195V14.4266H15.221V13.7525H16.5461V13.0784H14.4783V16.4739H16.5968V15.7915H15.221V15.0924Z" fill="#212121"/>
<path d="M17.9725 13.0784H17.2297V16.4739H19.2975V15.7915H17.9725V13.0784Z" fill="#212121"/>
</svg>
