<svg width="24" height="24" viewBox="0 0 24 24" fill="none" xmlns="http://www.w3.org/2000/svg">
<path d="M18.338 3H5.66203C4.74751 3 4 3.73437 4 4.64062V5.90625C4 6.125 4.04771 6.33594 4.13519 6.53125C4.13519 6.53906 4.15109 6.5625 4.15905 6.57812C4.21471 6.69531 4.27833 6.8125 4.36581 6.92187L8.62028 12.1719C8.78728 12.3828 8.8827 12.6484 8.8827 12.9141V18.6484C8.8827 19.4844 9.32008 20.2344 10.0517 20.6641C10.4334 20.8828 10.8469 21 11.2684 21C11.6581 21 12.0477 20.9062 12.4135 20.7109L14.1074 19.8047C14.8787 19.3906 15.3559 18.6016 15.3559 17.7422V12.8203C15.3559 12.5625 15.4433 12.3047 15.6103 12.0937L19.6581 6.90625C19.8807 6.625 20 6.26562 20 5.90625V4.64062C20 3.73437 19.2525 3 18.338 3ZM5.66203 4.15625H18.33C18.6004 4.15625 18.8151 4.375 18.8151 4.63281V5.73437H5.17694V4.64062C5.17694 4.375 5.3996 4.15625 5.66203 4.15625ZM14.672 11.3828C14.3539 11.7891 14.1789 12.2969 14.1789 12.8125V17.7344C14.1789 18.1719 13.9404 18.5703 13.5507 18.7812L11.8569 19.6875C11.4751 19.8906 11.0298 19.8828 10.664 19.6641C10.2903 19.4453 10.0755 19.0625 10.0755 18.6406V12.9062C10.0755 12.375 9.89264 11.8594 9.55865 11.4453L5.85288 6.89844H18.1789L14.672 11.3828Z" fill="#212121"/>
</svg>
