<svg width="24" height="24" viewBox="0 0 24 24" fill="none" xmlns="http://www.w3.org/2000/svg">
<path d="M20.6704 3.76075C20.4676 3.6403 20.2141 3.6317 20.0028 3.75214C16.6817 5.6449 14.4592 4.96523 11.2817 2.96063C7.97747 0.869998 3.5831 2.83158 3.39718 2.90901C3.15211 3.02085 3 3.27035 3 3.53706V21.3203C3 21.6989 3.29577 22 3.66761 22C4.03944 22 4.33521 21.6989 4.33521 21.3203V14.429C5.4 14.0418 8.3831 13.1557 10.5718 14.5408C14.0282 16.7261 16.7915 17.5606 20.6535 15.3668C20.8648 15.2463 21 15.0226 21 14.7731V4.34578C21 4.10488 20.8732 3.88119 20.6704 3.76075ZM19.6648 14.3688C16.5296 16.0206 14.3493 15.3237 11.2817 13.388C10.1408 12.6653 8.87324 12.4244 7.69014 12.4244C6.35493 12.4244 5.12958 12.7255 4.33521 12.9836V4.00164C5.4 3.61449 8.3831 2.72834 10.5718 4.11349C13.7239 6.10948 16.3014 6.97843 19.6563 5.45562V14.3688H19.6648Z" fill="black"/>
</svg>
