<svg width="24" height="24" viewBox="0 0 24 24" fill="none" xmlns="http://www.w3.org/2000/svg">
<path d="M21.6338 2.93654C21.4085 2.80406 21.1268 2.7946 20.892 2.92707C17.2019 5.00879 14.7324 4.26127 11.2019 2.05654C7.53052 -0.242819 2.64789 1.9146 2.44131 1.99976C2.16901 2.12277 2 2.39718 2 2.69051V22.2492C2 22.6656 2.32864 22.9968 2.74178 22.9968C3.15493 22.9968 3.48357 22.6656 3.48357 22.2492V14.6699C4.66667 14.2441 7.98122 13.2694 10.4131 14.7929C14.2535 17.1963 17.3239 18.1142 21.615 15.7013C21.8498 15.5688 22 15.3228 22 15.0484V3.57998C22 3.31503 21.8592 3.06901 21.6338 2.93654ZM20.5164 14.6036C17.0329 16.4204 14.6103 15.654 11.2019 13.5249C9.93427 12.7301 8.52582 12.4651 7.21127 12.4651C5.7277 12.4651 4.3662 12.7963 3.48357 13.0802V3.20148C4.66667 2.77568 7.98122 1.80105 10.4131 3.32449C13.9155 5.51976 16.7793 6.47546 20.507 4.80062V14.6036H20.5164Z" fill="black"/>
</svg>
