<svg width="24" height="24" viewBox="0 0 24 24" fill="none" xmlns="http://www.w3.org/2000/svg">
<path d="M20.8542 6.45714L17.8251 3.25714C17.0678 2.45714 16.0096 2 14.9222 2H4.52425C3.13591 2 2 3.34286 2 4.99048V19.0095C2 20.6571 3.13591 22 4.52425 22H19.4756C20.8736 22 21.9998 20.6571 21.9998 19.0095V9.38095C22.0095 8.28571 21.5921 7.24762 20.8542 6.45714ZM15.495 3.57143V10.4381H7.2718V3.50476H14.9222C15.1164 3.50476 15.3106 3.53333 15.495 3.57143ZM20.4756 19.0095C20.4756 19.8 20.0096 20.4952 19.4756 20.4952H4.52425C3.99027 20.4952 3.52426 19.8 3.52426 19.0095V4.99048C3.52426 4.2 3.99027 3.50476 4.52425 3.50476H5.73783V10.5524C5.73783 11.3238 6.35919 11.9524 7.12617 11.9524H15.6504C16.4174 11.9524 17.0387 11.3238 17.0387 10.5524V4.62857L19.7377 7.47619C20.2134 7.98095 20.4853 8.67619 20.4853 9.38095V19.0095H20.4756Z" fill="#212121"/>
</svg>
