<svg width="24" height="24" viewBox="0 0 24 24" fill="none" xmlns="http://www.w3.org/2000/svg">
<path d="M22.1801 5.95824C21.7702 5.63141 21.2692 5.45892 20.7408 5.45892H12.4874L11.6948 3.52519C11.3213 2.59918 10.4286 2 9.4265 2H3.45052C2.10228 2 1 3.0985 1 4.44212V7.73763V19.7031C1 20.965 2.0294 21.9909 3.29565 21.9909H17.8894C18.8369 21.9909 19.6567 21.3554 19.8845 20.4385L22.918 8.29142C23.1458 7.41988 22.8542 6.49387 22.1801 5.95824ZM3.45052 3.38901H9.4265C9.85466 3.38901 10.2464 3.64321 10.4104 4.04267L10.9843 5.44984H3.29565C2.97681 5.44984 2.67619 5.51339 2.39379 5.63141V4.44212C2.39379 3.8611 2.86749 3.38901 3.45052 3.38901ZM21.5698 7.96459L18.5362 20.1117C18.4634 20.4022 18.1992 20.611 17.8894 20.611H3.29565C2.80373 20.611 2.39379 20.2115 2.39379 19.7122V7.74671C2.39379 7.25647 2.79462 6.84793 3.29565 6.84793H20.7499C20.9594 6.84793 21.1507 6.91148 21.3147 7.04766C21.5516 7.23831 21.6609 7.61053 21.5698 7.96459Z" fill="black"/>
</svg>
