<svg width="24" height="24" viewBox="0 0 24 24" fill="none" xmlns="http://www.w3.org/2000/svg">
<path d="M21.2595 6.56403C20.8868 6.26975 20.4312 6.11444 19.9507 6.11444H12.4457L11.725 4.3733C11.3854 3.53951 10.5736 3 9.66239 3H4.22831C3.00232 3 2 3.9891 2 5.19891V8.16621V18.9401C2 20.0763 2.93605 21 4.08748 21H17.3579C18.2194 21 18.965 20.4278 19.172 19.6022L21.9305 8.66485C22.1376 7.88011 21.8725 7.04632 21.2595 6.56403ZM4.22831 4.25068H9.66239C10.0517 4.25068 10.4079 4.47956 10.557 4.83924L11.0789 6.10627H4.08748C3.79756 6.10627 3.5242 6.16349 3.2674 6.26975V5.19891C3.2674 4.67575 3.69815 4.25068 4.22831 4.25068ZM20.7045 8.37057L17.9461 19.3079C17.8798 19.5695 17.6396 19.7575 17.3579 19.7575H4.08748C3.64017 19.7575 3.2674 19.3978 3.2674 18.9482V8.17439C3.2674 7.73297 3.63188 7.36512 4.08748 7.36512H19.959C20.1495 7.36512 20.3235 7.42234 20.4726 7.54496C20.688 7.71662 20.7874 8.05177 20.7045 8.37057Z" fill="black"/>
</svg>
