<svg width="24" height="24" viewBox="0 0 24 24" fill="none" xmlns="http://www.w3.org/2000/svg">
<path d="M20.7562 5.9301L17.6457 3.25247C17.5092 3.13487 17.3239 3.0625 17.1387 3.0625H11.4637V1.69655C11.4637 1.30757 11.1322 1 10.7129 1H5.36945C4.95991 1 4.61863 1.30757 4.61863 1.69655V3.0625H3.75081C3.33153 3.0625 3 3.37911 3 3.75905V22.3035C3 22.6834 3.33153 23 3.75081 23H20.2492C20.6587 23 21 22.6924 21 22.3035V6.44572C21 6.24671 20.9122 6.06579 20.7562 5.9301ZM6.12026 2.39309H9.96208V3.0625H6.12026V2.39309ZM19.4984 21.6069H4.50163V4.45559H5.36945H10.7129H16.8462L19.4984 6.74424V21.6069V21.6069Z" fill="black"/>
<path d="M13.4334 5.16119C13.1408 5.17928 12.8971 5.35115 12.7898 5.5954C12.6826 5.83964 12.7411 6.12911 12.9361 6.32813L17.48 10.9145C17.6262 11.0592 17.8212 11.1406 18.0358 11.1406C18.1138 11.1406 18.2015 11.1316 18.2795 11.1044C18.5623 11.014 18.7573 10.7788 18.7768 10.4984L19.0303 7.36842C19.0498 7.16036 18.9621 6.96135 18.8061 6.81661L16.9729 5.17928C16.8169 5.04359 16.6121 4.97122 16.4074 4.98931L13.4334 5.16119ZM17.5092 7.59457L17.4117 8.7977L15.1008 6.46382L16.1733 6.40049L17.5092 7.59457Z" fill="black"/>
<path d="M11.8147 6.14721H5.70097V7.5403H11.8147V6.14721Z" fill="black"/>
<path d="M15.9101 11.0954L12.3023 14.4424L8.60672 11.0863L7.56339 12.0814L11.2492 15.4285L7.55363 18.8569L8.61647 19.8339L12.312 16.3964L15.9198 19.662L16.9632 18.6669L13.3749 15.4104L16.9729 12.0724L15.9101 11.0954Z" fill="black"/>
</svg>
