<svg width="24" height="24" viewBox="0 0 24 24" fill="none" xmlns="http://www.w3.org/2000/svg">
<path d="M19.9602 6.48191L17.1325 4.0477C17.0084 3.94079 16.8399 3.875 16.6715 3.875H11.5125V2.63322C11.5125 2.27961 11.2111 2 10.8299 2H5.97222C5.59992 2 5.28966 2.27961 5.28966 2.63322V3.875H4.50073C4.11957 3.875 3.81818 4.16283 3.81818 4.50822V21.3668C3.81818 21.7122 4.11957 22 4.50073 22H19.4993C19.8716 22 20.1818 21.7204 20.1818 21.3668V6.95066C20.1818 6.76974 20.102 6.60526 19.9602 6.48191ZM6.65478 3.26645H10.1473V3.875H6.65478V3.26645ZM18.8167 20.7336H5.18329V5.14145H5.97222H10.8299H16.4056L18.8167 7.22204V20.7336V20.7336Z" fill="black"/>
<path d="M13.303 5.7829C13.0371 5.79935 12.8155 5.9556 12.718 6.17764C12.6205 6.39968 12.6737 6.66284 12.851 6.84376L16.9818 11.0132C17.1147 11.1447 17.292 11.2188 17.487 11.2188C17.558 11.2188 17.6377 11.2105 17.7086 11.1859C17.9657 11.1036 18.143 10.8898 18.1607 10.6349L18.3912 7.78948C18.4089 7.60034 18.3292 7.41942 18.1873 7.28784L16.5208 5.79935C16.379 5.676 16.1928 5.61021 16.0067 5.62665L13.303 5.7829ZM17.0084 7.99507L16.9197 9.08882L14.8189 6.96711L15.7939 6.90955L17.0084 7.99507Z" fill="black"/>
<path d="M11.8316 6.67928H6.27361V7.94572H11.8316V6.67928Z" fill="black"/>
<path d="M15.5546 11.1776L12.2748 14.2204L8.91519 11.1694L7.9667 12.074L11.3174 15.1168L7.95784 18.2335L8.92406 19.1217L12.2837 15.9967L15.5635 18.9655L16.512 18.0609L13.2499 15.1003L16.5208 12.0658L15.5546 11.1776Z" fill="black"/>
</svg>
