<svg width="24" height="24" viewBox="0 0 24 24" fill="none" xmlns="http://www.w3.org/2000/svg">
<path d="M12 2C11.975 2 11.9583 2 11.9332 2C11.9165 2 11.9082 2 11.8915 2C11.8331 2 11.7746 2.00835 11.7245 2.00835C6.33222 2.1586 2 6.58264 2 12C2 17.4174 6.33222 21.8414 11.7245 21.9917C11.783 21.9917 11.8414 22 11.8915 22C11.9082 22 11.9165 22 11.9332 22C11.9583 22 11.975 22 12 22C17.5175 22 22 17.5092 22 12C22 6.49082 17.5175 2 12 2ZM12.5259 16.7997C13.5776 16.8331 14.596 16.975 15.5476 17.2003C14.8297 19.02 13.7446 20.3055 12.5259 20.6477V16.7997ZM12.5259 15.5309V12.6761H16.4574C16.4073 13.8614 16.2237 14.9883 15.9482 15.9983C14.8715 15.7312 13.7112 15.5726 12.5259 15.5309ZM12.5259 11.4157V8.46912C13.7195 8.42738 14.8715 8.26878 15.9482 8.00167C16.2404 9.04508 16.4157 10.197 16.4658 11.4157H12.5259ZM12.5259 7.20033V3.35225C13.7446 3.68614 14.8214 4.97997 15.5476 6.79967C14.596 7.02504 13.5776 7.16694 12.5259 7.20033ZM15.4057 3.95326C16.4491 4.39566 17.384 5.03005 18.177 5.82304C17.7429 6.05676 17.2755 6.2571 16.7746 6.43239C16.4073 5.47245 15.9399 4.63773 15.4057 3.95326ZM11.2571 3.35225V7.20033C10.2053 7.15025 9.18698 7.00835 8.25209 6.77462C8.96995 4.96327 10.0467 3.68614 11.2571 3.35225ZM11.2571 8.46077V11.4073H7.32554C7.36728 10.1886 7.55092 9.02003 7.84307 7.97663C8.91152 8.25209 10.0634 8.41903 11.2571 8.46077ZM6.05676 11.4157H3.28548C3.40234 9.70451 4.00334 8.13523 4.96327 6.83306C5.47245 7.12521 6.02337 7.37563 6.62437 7.59265C6.29883 8.75292 6.0985 10.0384 6.05676 11.4157ZM6.05676 12.6761C6.10684 14.0117 6.30718 15.2721 6.62437 16.4073C6.03172 16.6244 5.47245 16.8748 4.96327 17.1669C4.02003 15.8898 3.42738 14.3456 3.29382 12.6761H6.05676ZM7.32554 12.6761H11.2571V15.5392C10.0718 15.5893 8.91152 15.7563 7.84307 16.0317C7.55927 15.0134 7.37563 13.8698 7.32554 12.6761ZM11.2571 16.808V20.6477C10.0467 20.3139 8.96995 19.0367 8.25209 17.2337C9.18698 17 10.2053 16.8497 11.2571 16.808ZM16.7746 17.5676C17.2755 17.7429 17.7429 17.9516 18.1686 18.1853C17.384 18.9699 16.4407 19.6127 15.4057 20.0551C15.9399 19.3706 16.4073 18.5275 16.7746 17.5676ZM17.1753 16.374C17.4841 15.2471 17.6761 14.0033 17.7262 12.6845H20.7145C20.581 14.3706 19.9716 15.9316 19.02 17.217C18.4608 16.8831 17.8347 16.6077 17.1753 16.374ZM17.7262 11.4157C17.6845 10.0634 17.4841 8.78631 17.1669 7.64274C17.8347 7.40902 18.4524 7.12521 19.0117 6.80801C19.98 8.11853 20.5977 9.70451 20.7145 11.424H17.7262V11.4157ZM8.26043 4.10351C7.78464 4.75459 7.35893 5.52254 7.02504 6.399C6.59098 6.23205 6.18197 6.05676 5.798 5.85643C6.50751 5.13856 7.34224 4.54591 8.26043 4.10351ZM5.798 18.1519C6.17362 17.9516 6.58264 17.7679 7.01669 17.6093C7.35893 18.4858 7.77629 19.2538 8.26043 19.8965C7.34224 19.4624 6.50751 18.8698 5.798 18.1519Z" fill="black"/>
</svg>
