<svg width="24" height="24" viewBox="0 0 24 24" fill="none" xmlns="http://www.w3.org/2000/svg">
<path d="M12 1C11.9725 1 11.9541 1 11.9265 1C11.9082 1 11.899 1 11.8806 1C11.8164 1 11.7521 1.00918 11.697 1.00918C5.76544 1.17446 1 6.0409 1 12C1 17.9591 5.76544 22.8255 11.697 22.9908C11.7613 22.9908 11.8255 23 11.8806 23C11.899 23 11.9082 23 11.9265 23C11.9541 23 11.9725 23 12 23C18.0693 23 23 18.0601 23 12C23 5.9399 18.0693 1 12 1ZM12.5785 17.2796C13.7354 17.3164 14.8556 17.4725 15.9023 17.7204C15.1127 19.722 13.919 21.1361 12.5785 21.5125V17.2796ZM12.5785 15.884V12.7437H16.9032C16.8481 14.0476 16.6461 15.2871 16.3431 16.3982C15.1586 16.1043 13.8823 15.9299 12.5785 15.884ZM12.5785 11.3573V8.11603C13.8915 8.07012 15.1586 7.89566 16.3431 7.60184C16.6644 8.74958 16.8573 10.0167 16.9124 11.3573H12.5785ZM12.5785 6.72037V2.48748C13.919 2.85476 15.1035 4.27796 15.9023 6.27963C14.8556 6.52755 13.7354 6.68364 12.5785 6.72037ZM15.7462 3.14858C16.894 3.63523 17.9224 4.33306 18.7947 5.20534C18.3172 5.46244 17.803 5.6828 17.2521 5.87563C16.8481 4.8197 16.3339 3.9015 15.7462 3.14858ZM11.1828 2.48748V6.72037C10.0259 6.66528 8.90568 6.50918 7.8773 6.25209C8.66695 4.2596 9.85142 2.85476 11.1828 2.48748ZM11.1828 8.10684V11.3481H6.8581C6.90401 10.0075 7.10601 8.72204 7.42738 7.57429C8.60267 7.8773 9.86978 8.06093 11.1828 8.10684ZM5.46244 11.3573H2.41402C2.54257 9.47496 3.20367 7.74875 4.2596 6.31636C4.8197 6.63773 5.42571 6.91319 6.08681 7.15192C5.72871 8.42821 5.50835 9.84224 5.46244 11.3573ZM5.46244 12.7437C5.51753 14.2129 5.7379 15.5993 6.08681 16.8481C5.43489 17.0868 4.8197 17.3623 4.2596 17.6836C3.22204 16.2788 2.57012 14.5801 2.42321 12.7437H5.46244ZM6.8581 12.7437H11.1828V15.8932C9.87897 15.9482 8.60267 16.1319 7.42738 16.4349C7.11519 15.3147 6.91319 14.0568 6.8581 12.7437ZM11.1828 17.2888V21.5125C9.85142 21.1452 8.66695 19.7404 7.8773 17.7571C8.90568 17.5 10.0259 17.3347 11.1828 17.2888ZM17.2521 18.1244C17.803 18.3172 18.3172 18.5467 18.7855 18.8038C17.9224 19.6669 16.8848 20.374 15.7462 20.8606C16.3339 20.1077 16.8481 19.1803 17.2521 18.1244ZM17.6928 16.8114C18.0326 15.5718 18.2437 14.2037 18.2988 12.7529H21.586C21.4391 14.6077 20.7688 16.3247 19.722 17.7387C19.1068 17.3715 18.4182 17.0684 17.6928 16.8114ZM18.2988 11.3573C18.2529 9.86978 18.0326 8.46494 17.6836 7.20701C18.4182 6.94992 19.0977 6.63773 19.7129 6.28882C20.778 7.73038 21.4574 9.47496 21.586 11.3664H18.2988V11.3573ZM7.88648 3.31386C7.36311 4.03005 6.89482 4.87479 6.52755 5.8389C6.05008 5.65526 5.60017 5.46244 5.1778 5.24207C5.95826 4.45242 6.87646 3.8005 7.88648 3.31386ZM5.1778 18.7671C5.59099 18.5467 6.0409 18.3447 6.51836 18.1703C6.89483 19.1344 7.35392 19.9791 7.88648 20.6861C6.87646 20.2087 5.95826 19.5568 5.1778 18.7671Z" fill="black"/>
</svg>
