<svg width="24" height="24" viewBox="0 0 24 24" fill="none" xmlns="http://www.w3.org/2000/svg">
<path d="M11.8718 12.2555C13.2858 12.2555 14.4367 11.1181 14.4367 9.72059C14.4367 8.32313 13.2858 7.18567 11.8718 7.18567C10.4578 7.18567 9.30685 8.32313 9.30685 9.72059C9.30685 11.1181 10.4578 12.2555 11.8718 12.2555ZM11.8718 8.42876C12.5952 8.42876 13.1789 9.00561 13.1789 9.72059C13.1789 10.4356 12.5952 11.0124 11.8718 11.0124C11.1483 11.0124 10.5646 10.4356 10.5646 9.72059C10.5646 9.00561 11.1566 8.42876 11.8718 8.42876Z" fill="black"/>
<path d="M17.2647 11.6056C18.6787 11.6056 19.8296 10.4681 19.8296 9.07063C19.8296 7.67317 18.6869 6.53571 17.2647 6.53571C15.8425 6.53571 14.6998 7.67317 14.6998 9.07063C14.6998 10.4681 15.8507 11.6056 17.2647 11.6056ZM17.2647 7.77879C17.9881 7.77879 18.5718 8.35565 18.5718 9.07063C18.5718 9.78561 17.9881 10.3625 17.2647 10.3625C16.5495 10.3625 15.9576 9.78561 15.9576 9.07063C15.9576 8.35565 16.5495 7.77879 17.2647 7.77879Z" fill="black"/>
<path d="M17.3633 11.8655C16.1631 11.8655 15.0204 12.2962 14.1572 13.0599C13.4913 12.7186 12.7185 12.5155 11.9047 12.5155C11.1319 12.5155 10.4085 12.6943 9.76723 13.003C8.91226 12.2799 7.79422 11.8655 6.62685 11.8655C4.07016 11.8655 1.98206 13.8074 1.98206 16.196C1.98206 16.5373 2.26157 16.8135 2.60684 16.8135H7.25164C7.25164 16.8216 7.25164 16.8298 7.25164 16.8379C7.25164 17.1791 7.53115 17.4554 7.87643 17.4554H15.9165C16.2617 17.4554 16.5412 17.1791 16.5412 16.8379C16.5412 16.8298 16.5412 16.8216 16.5412 16.8135H21.3751C21.7204 16.8135 21.9999 16.5373 21.9999 16.196C22.0163 13.8074 19.9282 11.8655 17.3633 11.8655ZM3.30562 15.5786C3.62623 14.173 4.99912 13.1086 6.63508 13.1086C7.38318 13.1086 8.09839 13.328 8.68208 13.7342C8.12305 14.238 7.69557 14.8636 7.46538 15.5786H3.30562V15.5786ZM8.58342 16.2204C8.90404 14.8148 10.2687 13.7586 11.9047 13.7586C13.5406 13.7586 14.9135 14.8148 15.2259 16.2204H8.58342ZM16.3439 15.5786C16.122 14.9042 15.7274 14.303 15.2095 13.8155C15.8096 13.3686 16.5659 13.1168 17.3551 13.1168C18.9911 13.1168 20.3639 14.173 20.6763 15.5786H16.3439Z" fill="black"/>
<path d="M6.53641 11.6056C7.9504 11.6056 9.10133 10.4681 9.10133 9.07063C9.10133 7.67317 7.9504 6.53571 6.53641 6.53571C5.12242 6.53571 3.9715 7.67317 3.9715 9.07063C3.9715 10.4681 5.12242 11.6056 6.53641 11.6056ZM6.53641 7.77879C7.25985 7.77879 7.84353 8.35565 7.84353 9.07063C7.84353 9.78561 7.25985 10.3625 6.53641 10.3625C5.81297 10.3625 5.22929 9.78561 5.22929 9.07063C5.22929 8.35565 5.81297 7.77879 6.53641 7.77879Z" fill="black"/>
</svg>
