<svg width="24" height="24" viewBox="0 0 24 24" fill="none" xmlns="http://www.w3.org/2000/svg">
<path d="M11.8601 12.281C13.4128 12.281 14.6766 11.032 14.6766 9.4974C14.6766 7.96283 13.4128 6.71375 11.8601 6.71375C10.3073 6.71375 9.04349 7.96283 9.04349 9.4974C9.04349 11.032 10.3073 12.281 11.8601 12.281ZM11.8601 8.07881C12.6545 8.07881 13.2954 8.71227 13.2954 9.4974C13.2954 10.2825 12.6545 10.916 11.8601 10.916C11.0656 10.916 10.4247 10.2825 10.4247 9.4974C10.4247 8.71227 11.0747 8.07881 11.8601 8.07881Z" fill="black"/>
<path d="M17.7821 11.5673C19.3348 11.5673 20.5987 10.3182 20.5987 8.78364C20.5987 7.24907 19.3439 6 17.7821 6C16.2204 6 14.9655 7.24907 14.9655 8.78364C14.9655 10.3182 16.2294 11.5673 17.7821 11.5673ZM17.7821 7.36506C18.5765 7.36506 19.2175 7.99851 19.2175 8.78364C19.2175 9.56877 18.5765 10.2022 17.7821 10.2022C16.9967 10.2022 16.3467 9.56877 16.3467 8.78364C16.3467 7.99851 16.9967 7.36506 17.7821 7.36506Z" fill="black"/>
<path d="M17.8904 11.8528C16.5724 11.8528 15.3176 12.3257 14.3697 13.1643C13.6385 12.7896 12.7899 12.5665 11.8962 12.5665C11.0476 12.5665 10.2532 12.7628 9.54904 13.1019C8.61018 12.3078 7.38244 11.8528 6.10053 11.8528C3.29298 11.8528 1 13.9851 1 16.6082C1 16.9829 1.30693 17.2862 1.68609 17.2862H6.78662C6.78662 17.2952 6.78662 17.3041 6.78662 17.313C6.78662 17.6877 7.09356 17.9911 7.47271 17.9911H16.3016C16.6808 17.9911 16.9877 17.6877 16.9877 17.313C16.9877 17.3041 16.9877 17.2952 16.9877 17.2862H22.2959C22.675 17.2862 22.9819 16.9829 22.9819 16.6082C23 13.9851 20.707 11.8528 17.8904 11.8528ZM2.45343 15.9301C2.8055 14.3866 4.31309 13.2178 6.10956 13.2178C6.93106 13.2178 7.71645 13.4587 8.35741 13.9048C7.74354 14.458 7.27411 15.145 7.02134 15.9301H2.45343V15.9301ZM8.24908 16.6349C8.60115 15.0914 10.0997 13.9316 11.8962 13.9316C13.6927 13.9316 15.2002 15.0914 15.5433 16.6349H8.24908ZM16.771 15.9301C16.5273 15.1896 16.094 14.5294 15.5252 13.9941C16.1842 13.5033 17.0148 13.2268 17.8814 13.2268C19.6779 13.2268 21.1855 14.3866 21.5285 15.9301H16.771Z" fill="black"/>
<path d="M6.00122 11.5673C7.55395 11.5673 8.8178 10.3182 8.8178 8.78364C8.8178 7.24907 7.55395 6 6.00122 6C4.4485 6 3.18465 7.24907 3.18465 8.78364C3.18465 10.3182 4.4485 11.5673 6.00122 11.5673ZM6.00122 7.36506C6.79564 7.36506 7.4366 7.99851 7.4366 8.78364C7.4366 9.56877 6.79564 10.2022 6.00122 10.2022C5.2068 10.2022 4.56585 9.56877 4.56585 8.78364C4.56585 7.99851 5.2068 7.36506 6.00122 7.36506Z" fill="black"/>
</svg>
