<svg width="24" height="24" viewBox="0 0 24 24" fill="none" xmlns="http://www.w3.org/2000/svg">
<path d="M21.9036 6.59363H19.5115C18.9135 6.59363 18.4242 7.08276 18.4242 7.68059V8.39617C17.5 8.04291 16.0593 7.56283 14.673 7.32733L14.682 7.31827C14.6096 7.26392 12.8064 6.08639 10.9761 6.00486C9.39045 5.94146 6.8715 6.51211 5.24053 6.89255C5.04119 6.71139 4.77842 6.59363 4.48847 6.59363H2.08731C1.48929 6.59363 1 7.08276 1 7.68965V16.0954C1 16.6933 1.48929 17.1824 2.08731 17.1824H4.47941C4.7603 17.1824 5.014 17.0737 5.20428 16.9016L6.1285 17.8889C6.88962 18.7041 7.78666 19.3744 8.78336 19.8726L10.1244 20.7512C10.3871 20.9233 10.6862 21.0049 10.9852 21.0049C11.4745 21.0049 11.9547 20.7784 12.2628 20.3527C12.3262 20.2621 12.3806 20.1715 12.4259 20.0719L12.598 20.1806C12.8608 20.3436 13.1598 20.4252 13.4498 20.4252C13.9753 20.4252 14.4918 20.1625 14.7998 19.6824C14.8633 19.5828 14.9176 19.4831 14.9539 19.3744C15.126 19.4288 15.3072 19.456 15.4885 19.456C16.0684 19.456 16.6301 19.1752 16.9654 18.6679C17.0832 18.4867 17.1647 18.2965 17.21 18.0973C17.2282 18.0973 17.2372 18.0973 17.2554 18.0973C17.8715 18.0973 18.4695 17.7983 18.832 17.2549C18.8773 17.1824 18.9135 17.1009 18.9588 17.0284C19.1219 17.119 19.2941 17.1733 19.4934 17.1733H21.8855C22.4835 17.1733 22.9728 16.6842 22.9728 16.0864V7.68965C23 7.08276 22.5107 6.59363 21.9036 6.59363ZM18.3608 14.6643L17.953 14.3925L17.9168 14.3654L12.1269 10.5429C11.9366 10.4161 11.7191 10.3527 11.4926 10.3527C11.2842 10.3527 11.0667 10.407 10.8855 10.5248C10.514 10.7512 9.71664 11.1136 8.54778 10.9415C7.93163 10.8509 7.54201 10.5791 7.39703 10.1353C9.34514 9.36537 11.855 8.57733 13.2957 8.57733C15.0264 8.57733 17.4547 9.48312 18.4242 9.87262L18.3608 14.6643ZM2.37727 7.97044H4.19852V15.8056H2.37727V7.97044ZM17.7084 16.5031C17.5544 16.7386 17.2372 16.802 17.0016 16.648L16.7389 16.4759C16.6392 16.3853 16.5395 16.3038 16.4217 16.2313L13.042 14.1752L12.3262 15.3527L15.7241 17.4179C15.8147 17.4723 15.8781 17.5538 15.8962 17.6444C15.9143 17.7078 15.9143 17.8074 15.8509 17.907C15.7331 18.0791 15.4885 18.1335 15.2982 18.0248L14.3649 17.4723C14.3377 17.4541 14.3196 17.436 14.2924 17.4179L11.7463 15.9233L11.0486 17.1099L12.8427 18.1607V18.1697L13.6219 18.6317C13.6672 18.677 13.6944 18.7223 13.7035 18.7585C13.7125 18.7947 13.7216 18.8672 13.6672 18.9396C13.5947 19.0483 13.4498 19.0846 13.341 19.0121L11.8369 18.0882L10.6771 17.3726L9.95222 18.5411L11.112 19.2567C11.1755 19.2929 11.1936 19.3473 11.2026 19.3835C11.2117 19.4197 11.2117 19.4831 11.1664 19.5375C11.103 19.619 10.9852 19.6462 10.8946 19.5828L9.5173 18.6951L9.44481 18.6589C8.58402 18.2241 7.80478 17.6534 7.14333 16.9469L5.57578 15.2712V8.23312C7.06178 7.87986 9.52636 7.32733 10.9127 7.39073C11.0758 7.39979 11.2298 7.41791 11.3929 7.44508C9.58979 7.81646 7.60544 8.56827 6.65404 8.9487C6.17381 9.13892 5.89292 9.62805 5.97446 10.1353C6.06507 10.6969 6.46376 12.0284 8.33937 12.3092C9.82537 12.5266 10.9127 12.1009 11.4835 11.7748L17.1466 15.5248L17.5634 15.8056C17.6812 15.8781 17.7537 15.9958 17.7809 16.1317C17.8081 16.2675 17.7809 16.3944 17.7084 16.5031ZM21.6227 15.8056H19.8015V9.42878L19.8105 8.96682H19.8015V7.97044H21.6227V15.8056V15.8056Z" fill="black"/>
</svg>
