<svg width="24" height="24" viewBox="0 0 24 24" fill="none" xmlns="http://www.w3.org/2000/svg">
<path d="M22.7448 14.8301C22.2071 14.0391 20.9221 13.6787 19.6827 13.9688C18.8078 14.1709 17.8326 14.5488 17.14 14.8389C16.7846 14.1094 16.0191 13.5996 15.135 13.5996H10.5965C6.96935 11.3232 1.84756 11.833 1.62883 11.8594C1.26429 11.9033 1 12.1846 1 12.5273V17.9062C1 18.1523 1.1367 18.3721 1.36454 18.4951C1.38277 18.5039 2.99586 19.3564 4.73654 20.1914C5.87573 20.7451 8.03563 21 10.1408 21C11.6355 21 13.1118 20.8682 14.1599 20.6221C16.3836 20.0947 21.3687 18.2578 22.5717 16.7461C23.0729 16.1045 23.1367 15.4102 22.7448 14.8301ZM21.4598 15.9287C20.6761 16.9219 16.4292 18.7061 13.8318 19.3213C11.3803 19.9014 6.85998 19.7256 5.35626 18.9961C4.12593 18.4072 2.9594 17.8008 2.39437 17.5107V13.1602C3.82519 13.0986 7.45236 13.1426 9.99503 14.8301C10.1135 14.9092 10.2502 14.9443 10.3869 14.9443H15.135C15.5907 14.9443 15.9644 15.3047 15.9644 15.7441C15.9644 16.1836 15.5907 16.5439 15.135 16.5439H7.33389V17.8799H15.1259C16.1649 17.8799 17.0489 17.1768 17.2767 16.2451C17.8964 15.9727 19.0447 15.5068 20.0017 15.2783C20.7399 15.1025 21.4143 15.3311 21.5783 15.5684C21.633 15.6387 21.5965 15.7617 21.4598 15.9287Z" fill="black"/>
<path d="M15.6545 10.3477C15.6545 10.7168 15.9644 11.0156 16.3471 11.0156H17.4772V12.1055C17.4772 12.4746 17.7871 12.7734 18.1698 12.7734C18.5526 12.7734 18.8625 12.4746 18.8625 12.1055V11.0156H19.9925C20.3753 11.0156 20.6852 10.7168 20.6852 10.3477C20.6852 9.97852 20.3753 9.67969 19.9925 9.67969H18.8625V8.58984C18.8625 8.2207 18.5526 7.92188 18.1698 7.92188C17.7871 7.92188 17.4772 8.2207 17.4772 8.58984V9.67969H16.3471C15.9735 9.67969 15.6545 9.97852 15.6545 10.3477Z" fill="black"/>
<path d="M4.4449 7.59668H6.36785V9.45117C6.36785 9.82031 6.67771 10.1191 7.06048 10.1191C7.44324 10.1191 7.7531 9.82031 7.7531 9.45117V7.59668H9.67605C10.0588 7.59668 10.3687 7.29785 10.3687 6.92871C10.3687 6.55957 10.0588 6.26074 9.67605 6.26074H7.7531V4.40625C7.7531 4.03711 7.44324 3.73828 7.06048 3.73828C6.67771 3.73828 6.36785 4.03711 6.36785 4.40625V6.26074H4.4449C4.06213 6.26074 3.75227 6.55957 3.75227 6.92871C3.75227 7.29785 4.06213 7.59668 4.4449 7.59668Z" fill="black"/>
<path d="M12.0182 11.499C12.4283 11.499 12.7564 11.1826 12.7564 10.7871C12.7564 10.3916 12.4283 10.0752 12.0182 10.0752C11.6081 10.0752 11.28 10.3916 11.28 10.7871C11.28 11.1826 11.6172 11.499 12.0182 11.499Z" fill="black"/>
<path d="M15.6089 6.39258C16.5841 6.39258 17.3678 5.63672 17.3678 4.69629C17.3678 3.75586 16.5841 3 15.6089 3C14.6338 3 13.85 3.75586 13.85 4.69629C13.85 5.63672 14.6429 6.39258 15.6089 6.39258Z" fill="black"/>
</svg>
