<svg width="24" height="24" viewBox="0 0 24 24" fill="none" xmlns="http://www.w3.org/2000/svg">
<path d="M21.7689 14.573C21.28 13.8539 20.1117 13.5262 18.9848 13.7899C18.1894 13.9737 17.3028 14.3173 16.6731 14.581C16.35 13.9178 15.654 13.4543 14.8503 13.4543H10.724C7.42622 11.3847 2.76963 11.8482 2.57077 11.8721C2.23934 11.9121 1.99905 12.1678 1.99905 12.4794V17.3698C1.99905 17.5935 2.12334 17.7933 2.33048 17.9052C2.34706 17.9132 3.81363 18.6883 5.39621 19.4474C6.43193 19.9508 8.39565 20.1826 10.3097 20.1826C11.6685 20.1826 13.0108 20.0627 13.9637 19.839C15.9854 19.3595 20.5177 17.6894 21.6114 16.315C22.0671 15.7317 22.1251 15.1004 21.7689 14.573ZM20.6006 15.5719C19.888 16.4748 16.0268 18.097 13.6654 18.6563C11.4365 19.1837 7.32679 19.0239 5.95964 18.3607C4.84107 17.8253 3.78049 17.2739 3.26677 17.0102V13.0548C4.56764 12.9988 7.86537 13.0388 10.1771 14.573C10.2848 14.6449 10.4091 14.6769 10.5334 14.6769H14.8503C15.2645 14.6769 15.6043 15.0045 15.6043 15.4041C15.6043 15.8036 15.2645 16.1312 14.8503 16.1312H7.75765V17.3458H14.842C15.7865 17.3458 16.5903 16.7066 16.7974 15.8595C17.3608 15.6118 18.4048 15.1883 19.2748 14.9806C19.946 14.8207 20.5591 15.0285 20.7083 15.2443C20.758 15.3082 20.7249 15.4201 20.6006 15.5719Z" fill="black"/>
<path d="M15.3226 10.4977C15.3226 10.8333 15.6043 11.105 15.9523 11.105H16.9797V12.0959C16.9797 12.4315 17.2614 12.7032 17.6094 12.7032C17.9574 12.7032 18.2391 12.4315 18.2391 12.0959V11.105H19.2666C19.6146 11.105 19.8963 10.8333 19.8963 10.4977C19.8963 10.1621 19.6146 9.89044 19.2666 9.89044H18.2391V8.89958C18.2391 8.56397 17.9574 8.29228 17.6094 8.29228C17.2614 8.29228 16.9797 8.56397 16.9797 8.89958V9.89044H15.9523C15.6126 9.89044 15.3226 10.1621 15.3226 10.4977Z" fill="black"/>
<path d="M5.13106 7.99661H6.87935V9.68267C6.87935 10.0183 7.16107 10.29 7.50907 10.29C7.85707 10.29 8.13879 10.0183 8.13879 9.68267V7.99661H9.88708C10.2351 7.99661 10.5168 7.72493 10.5168 7.38932C10.5168 7.0537 10.2351 6.78202 9.88708 6.78202H8.13879V5.09596C8.13879 4.76035 7.85707 4.48866 7.50907 4.48866C7.16107 4.48866 6.87935 4.76035 6.87935 5.09596V6.78202H5.13106C4.78306 6.78202 4.50134 7.0537 4.50134 7.38932C4.50134 7.72493 4.78306 7.99661 5.13106 7.99661Z" fill="black"/>
<path d="M12.0165 11.5445C12.3894 11.5445 12.6877 11.2569 12.6877 10.8973C12.6877 10.5377 12.3894 10.25 12.0165 10.25C11.6437 10.25 11.3454 10.5377 11.3454 10.8973C11.3454 11.2569 11.652 11.5445 12.0165 11.5445Z" fill="black"/>
<path d="M15.2811 6.90188C16.1677 6.90188 16.8803 6.21468 16.8803 5.35966C16.8803 4.50465 16.1677 3.81744 15.2811 3.81744C14.3945 3.81744 13.682 4.50465 13.682 5.35966C13.682 6.21468 14.4028 6.90188 15.2811 6.90188Z" fill="black"/>
</svg>
