<svg width="24" height="24" viewBox="0 0 24 24" fill="none" xmlns="http://www.w3.org/2000/svg">
<path d="M21.0259 7.51431H18.8487C18.3044 7.51431 17.859 7.93809 17.859 8.45604V9.07601C17.0178 8.76995 15.7065 8.35402 14.4447 8.14998L14.453 8.14213C14.387 8.09504 12.7459 7.07484 11.08 7.00421C9.63674 6.94928 7.34407 7.44369 5.8596 7.77329C5.67817 7.61633 5.43901 7.51431 5.1751 7.51431H2.98964C2.44534 7.51431 2 7.93809 2 8.46389V15.7465C2 16.2645 2.44534 16.6883 2.98964 16.6883H5.16685C5.42251 16.6883 5.65343 16.5941 5.82662 16.445L6.66781 17.3004C7.36056 18.0067 8.17702 18.5874 9.08419 19.019L10.3047 19.7803C10.5439 19.9294 10.8161 20 11.0882 20C11.5336 20 11.9706 19.8038 12.251 19.435C12.3088 19.3565 12.3583 19.278 12.3995 19.1917L12.5562 19.2859C12.7953 19.4271 13.0675 19.4977 13.3314 19.4977C13.8097 19.4977 14.2798 19.2702 14.5602 18.8542C14.6179 18.7679 14.6674 18.6816 14.7004 18.5874C14.8571 18.6345 15.022 18.658 15.187 18.658C15.7148 18.658 16.2261 18.4148 16.5312 17.9753C16.6385 17.8183 16.7127 17.6535 16.7539 17.4809C16.7704 17.4809 16.7787 17.4809 16.7951 17.4809C17.3559 17.4809 17.9002 17.2219 18.2301 16.7511C18.2714 16.6883 18.3044 16.6176 18.3456 16.5549C18.494 16.6333 18.6507 16.6804 18.8322 16.6804H21.0094C21.5537 16.6804 21.999 16.2566 21.999 15.7387V8.46389C22.0238 7.93809 21.5784 7.51431 21.0259 7.51431ZM17.8013 14.5066L17.4302 14.2712L17.3972 14.2476L12.1273 10.9359C11.9541 10.826 11.7562 10.7711 11.55 10.7711C11.3604 10.7711 11.1624 10.8182 10.9975 10.9202C10.6594 11.1164 9.93363 11.4303 8.86977 11.2812C8.30897 11.2027 7.95435 10.9673 7.82239 10.5828C9.5955 9.91571 11.8799 9.23296 13.1912 9.23296C14.7664 9.23296 16.9766 10.0177 17.859 10.3552L17.8013 14.5066ZM3.25355 8.70716H4.9112V15.4954H3.25355V8.70716ZM17.2075 16.0997C17.0673 16.3037 16.7787 16.3587 16.5642 16.2253L16.3251 16.0762C16.2344 15.9977 16.1436 15.927 16.0364 15.8643L12.9603 14.0828L12.3088 15.103L15.4014 16.8923C15.4839 16.9394 15.5416 17.01 15.5581 17.0885C15.5746 17.1434 15.5746 17.2298 15.5169 17.3161C15.4096 17.4652 15.187 17.5123 15.0138 17.4181L14.1644 16.9394C14.1396 16.9237 14.1231 16.908 14.0984 16.8923L11.781 15.5974L11.1459 16.6255L12.7789 17.5358V17.5437L13.4881 17.9439C13.5293 17.9831 13.5541 18.0224 13.5623 18.0538C13.5706 18.0852 13.5788 18.1479 13.5293 18.2107C13.4634 18.3049 13.3314 18.3363 13.2324 18.2735L11.8634 17.473L10.8078 16.8531L10.1481 17.8654L11.2037 18.4854C11.2614 18.5168 11.2779 18.5639 11.2861 18.5953C11.2944 18.6267 11.2944 18.6816 11.2532 18.7287C11.1954 18.7993 11.0882 18.8228 11.0057 18.7679L9.7522 17.9988L9.68622 17.9674C8.90275 17.5908 8.19351 17.0964 7.59148 16.4842L6.16474 15.0324V8.93475C7.51725 8.62869 9.76044 8.14998 11.0222 8.20491C11.1707 8.21276 11.3109 8.22845 11.4593 8.252C9.81817 8.57375 8.01208 9.22511 7.14614 9.55472C6.70905 9.71952 6.45339 10.1433 6.52761 10.5828C6.61008 11.0693 6.97295 12.2229 8.68008 12.4662C10.0326 12.6546 11.0222 12.2857 11.5418 12.0032L16.6962 15.2521L17.0755 15.4954C17.1828 15.5582 17.2487 15.6602 17.2735 15.7779C17.2982 15.8957 17.2735 16.0055 17.2075 16.0997ZM20.7702 15.4954H19.1126V9.97064L19.1208 9.57041H19.1126V8.70716H20.7702V15.4954Z" fill="black"/>
</svg>
