<svg width="24" height="24" viewBox="0 0 24 24" fill="none" xmlns="http://www.w3.org/2000/svg">
<path fill-rule="evenodd" clip-rule="evenodd" d="M12 3.39535C7.24778 3.39535 3.39535 7.24778 3.39535 12C3.39535 16.7522 7.24778 20.6047 12 20.6047C16.7522 20.6047 20.6047 16.7522 20.6047 12C20.6047 7.24778 16.7522 3.39535 12 3.39535ZM2 12C2 6.47715 6.47715 2 12 2C17.5228 2 22 6.47715 22 12C22 17.5228 17.5228 22 12 22C6.47715 22 2 17.5228 2 12Z" fill="black"/>
<path d="M11.9709 15.8554C13.6458 15.8554 15.1805 15.1046 16.0633 13.8339C16.2696 13.5452 16.1953 13.1409 15.9065 12.9346C15.791 12.8521 15.6673 12.8191 15.5352 12.8191C15.329 12.8191 15.1309 12.9181 15.0072 13.0914C14.3719 13.999 13.2085 14.56 11.9709 14.56C10.758 14.56 9.64415 14.0402 8.99233 13.1656C8.77781 12.8768 8.37352 12.8273 8.08474 13.0336C7.79596 13.2481 7.73821 13.6524 7.95273 13.9412C8.86032 15.1376 10.3537 15.8554 11.9709 15.8554Z" fill="black"/>
<path d="M9.86303 9.58476C9.86303 8.90819 9.31848 8.36364 8.64191 8.36364C7.96534 8.36364 7.42904 8.90819 7.42904 9.58476C7.42904 10.2613 7.97359 10.8059 8.65016 10.8059C9.32673 10.8059 9.86303 10.2531 9.86303 9.58476Z" fill="black"/>
<path d="M15.2921 8.36364C14.6155 8.36364 14.071 8.90819 14.071 9.58476C14.071 10.2613 14.6155 10.8059 15.2921 10.8059C15.9686 10.8059 16.5132 10.2613 16.5132 9.58476C16.5049 8.90819 15.9604 8.36364 15.2921 8.36364Z" fill="black"/>
</svg>
