<svg width="24" height="24" viewBox="0 0 24 24" fill="none" xmlns="http://www.w3.org/2000/svg">
<path d="M19.8521 2H4.14787C2.96654 2 2 2.98402 2 4.18671V15.3558C2 16.5585 2.96654 17.5425 4.14787 17.5425H8.88145V20.6712H6.69228V22H17.3077V20.6712H15.3581V17.5425H19.8521C21.0335 17.5425 22 16.5585 22 15.3558V4.18671C22 2.98402 21.0335 2 19.8521 2ZM4.14787 3.32885H19.8521C20.3147 3.32885 20.6948 3.71573 20.6948 4.18671V13.6484H3.30525V4.18671C3.30525 3.71573 3.68525 3.32885 4.14787 3.32885ZM14.0529 20.6712H10.1867V17.5425H14.0529V20.6712ZM19.8521 16.2136H4.14787C3.68525 16.2136 3.30525 15.8267 3.30525 15.3558V14.9773H20.6948V15.3558C20.6948 15.8267 20.3147 16.2136 19.8521 16.2136Z" fill="black"/>
<path d="M7.56796 12.6644H16.4321C17.0021 12.6644 17.473 12.1934 17.473 11.6047V5.3894C17.473 4.80908 17.0103 4.32968 16.4321 4.32968H7.56796C6.99795 4.32968 6.52707 4.80067 6.52707 5.3894V11.6047C6.52707 12.185 6.98969 12.6644 7.56796 12.6644ZM7.83231 11.3356V6.59209L11.9959 9.28342L16.1595 6.59209V11.3272H7.83231V11.3356ZM8.81538 5.65853H15.1764L11.9959 7.71067L8.81538 5.65853Z" fill="black"/>
</svg>
