<svg width="24" height="24" viewBox="0 0 24 24" fill="none" xmlns="http://www.w3.org/2000/svg">
<path d="M19.8556 3H4.14434C2.95953 3 2 3.94737 2 5.11716V14.5497C2 15.7195 2.95953 16.6668 4.14434 16.6668H8.88359V19.7066H6.68918V21H17.3108V19.7066H15.3583V16.6751H19.8556C21.0404 16.6751 21.9999 15.7277 21.9999 14.5579V5.11716C22.0083 3.94737 21.0404 3 19.8556 3ZM4.14434 4.29336H19.8556C20.3229 4.29336 20.6983 4.66407 20.6983 5.1254V11.8558H3.30997V5.11716C3.30997 4.66407 3.68544 4.29336 4.14434 4.29336ZM14.0567 19.7066H10.1852V16.6751H14.0567V19.7066ZM19.8556 15.3817H4.14434C3.67709 15.3817 3.30162 15.011 3.30162 14.5497V13.141H20.6983V14.5497C20.6983 15.011 20.3229 15.3817 19.8556 15.3817Z" fill="black"/>
</svg>
