<svg width="24" height="24" viewBox="0 0 24 24" fill="none" xmlns="http://www.w3.org/2000/svg">
<path d="M20.6373 1H3.36266C2.0632 1 1 2.08242 1 3.40538V15.6913C1 17.0143 2.0632 18.0967 3.36266 18.0967H8.5696V21.5383H6.1615V23H17.8385V21.5383H15.6939V18.0967H20.6373C21.9368 18.0967 23 17.0143 23 15.6913V3.40538C23 2.08242 21.9368 1 20.6373 1ZM3.36266 2.46173H20.6373C21.1462 2.46173 21.5642 2.8873 21.5642 3.40538V13.8133H2.43577V3.40538C2.43577 2.8873 2.85378 2.46173 3.36266 2.46173ZM14.2582 21.5383H10.0054V18.0967H14.2582V21.5383ZM20.6373 16.635H3.36266C2.85378 16.635 2.43577 16.2094 2.43577 15.6913V15.275H21.5642V15.6913C21.5642 16.2094 21.1462 16.635 20.6373 16.635Z" fill="black"/>
<path d="M7.12475 12.7309H16.8753C17.5023 12.7309 18.0202 12.2128 18.0202 11.5652V4.72834C18.0202 4.08999 17.5114 3.56266 16.8753 3.56266H7.12475C6.49773 3.56266 5.97977 4.08074 5.97977 4.72834V11.5652C5.97977 12.2035 6.48865 12.7309 7.12475 12.7309ZM7.41554 11.2691V6.0513L11.9955 9.01177L16.5754 6.0513V11.2599H7.41554V11.2691ZM8.49691 5.02439H15.494L11.9955 7.28175L8.49691 5.02439Z" fill="black"/>
</svg>
