<svg width="24" height="24" viewBox="0 0 24 24" fill="none" xmlns="http://www.w3.org/2000/svg">
<path d="M20.633 2H3.3578C2.05505 2 1 3.05263 1 4.3524V14.833C1 16.1327 2.05505 17.1854 3.3578 17.1854H8.56881V20.5629H6.15596V22H17.8349V20.5629H15.6881V17.1945H20.633C21.9358 17.1945 22.9908 16.1419 22.9908 14.8421V4.3524C23 3.05263 21.9358 2 20.633 2ZM3.3578 3.43707H20.633C21.1468 3.43707 21.5596 3.84897 21.5596 4.36156V11.8398H2.44037V4.3524C2.44037 3.84897 2.85321 3.43707 3.3578 3.43707ZM14.2569 20.5629H10V17.1945H14.2569V20.5629ZM20.633 15.7574H3.3578C2.84404 15.7574 2.43119 15.3455 2.43119 14.833V13.2677H21.5596V14.833C21.5596 15.3455 21.1468 15.7574 20.633 15.7574Z" fill="black"/>
</svg>
