<svg width="24" height="24" viewBox="0 0 24 24" fill="none" xmlns="http://www.w3.org/2000/svg">
<path d="M20.7159 3H3.29319C2.03239 3 1 4.00901 1 5.26126V18.7477C1 19.991 2.03239 21.009 3.29319 21.009H20.7159C21.9767 21.009 23.0091 20 23.0091 18.7477V5.26126C23 4.00901 21.9767 3 20.7159 3ZM3.29319 4.36937H20.7159C21.2093 4.36937 21.6113 4.76577 21.6113 5.25225V14.9189L20.5332 13.5405C20.0947 12.973 19.4277 12.6216 18.706 12.5676C17.9842 12.5135 17.2716 12.7568 16.7508 13.2523L14.6678 15.1892C14.2018 15.6216 13.4709 15.6036 13.0233 15.1532L9.77076 11.8378C8.79319 10.8378 7.16694 10.8108 6.15282 11.7658L2.3887 15.3243V5.26126C2.3887 4.77477 2.79983 4.36937 3.29319 4.36937ZM20.7159 19.6306H3.29319C2.79983 19.6306 2.39784 19.2342 2.39784 18.7477V17.2342L7.12126 12.7568C7.58721 12.3153 8.32724 12.3333 8.77492 12.7838L12.0274 16.1081C12.9958 17.0991 14.613 17.1351 15.6271 16.1892L17.7101 14.2523C17.9568 14.027 18.2674 13.9189 18.6055 13.9459C18.9344 13.973 19.2359 14.1261 19.4369 14.3874L21.6204 17.1712V18.7387C21.6113 19.2342 21.2093 19.6306 20.7159 19.6306Z" fill="black"/>
<path d="M17.7376 10.1351C18.7974 10.1351 19.6562 9.28829 19.6562 8.24324C19.6562 7.1982 18.7974 6.35135 17.7376 6.35135C16.6778 6.35135 15.819 7.1982 15.819 8.24324C15.819 9.28829 16.6778 10.1351 17.7376 10.1351Z" fill="black"/>
</svg>
