<svg width="24" height="24" viewBox="0 0 24 24" fill="none" xmlns="http://www.w3.org/2000/svg">
<path d="M19.9171 3.82573H4.09203C2.94684 3.82573 2.00912 4.74221 2.00912 5.87963V18.1294C2.00912 19.2586 2.94684 20.1833 4.09203 20.1833H19.9171C21.0623 20.1833 22 19.2668 22 18.1294V5.87963C21.9917 4.74221 21.0623 3.82573 19.9171 3.82573ZM4.09203 5.06953H19.9171C20.3652 5.06953 20.7303 5.42957 20.7303 5.87145V14.6517L19.7511 13.3997C19.3528 12.8842 18.747 12.565 18.0914 12.5159C17.4359 12.4668 16.7886 12.6878 16.3156 13.1378L14.4235 14.8972C14.0003 15.2899 13.3365 15.2736 12.9298 14.8644L9.9756 11.8531C9.08767 10.9448 7.61055 10.9203 6.68943 11.7877L3.27048 15.0199V5.87963C3.27048 5.43775 3.64391 5.06953 4.09203 5.06953ZM19.9171 18.9313H4.09203C3.64391 18.9313 3.27878 18.5713 3.27878 18.1294V16.7547L7.56906 12.6878C7.99228 12.2868 8.66445 12.3032 9.07107 12.7123L12.0253 15.7318C12.9049 16.6319 14.3738 16.6646 15.2949 15.8054L17.1869 14.0461C17.411 13.8416 17.6931 13.7434 18.0002 13.7679C18.2989 13.7925 18.5727 13.9316 18.7553 14.1689L20.7386 16.6974V18.1212C20.7303 18.5713 20.3652 18.9313 19.9171 18.9313Z" fill="black"/>
<path d="M17.2118 10.3066C18.1744 10.3066 18.9545 9.53737 18.9545 8.58815C18.9545 7.63894 18.1744 6.86975 17.2118 6.86975C16.2492 6.86975 15.4691 7.63894 15.4691 8.58815C15.4691 9.53737 16.2492 10.3066 17.2118 10.3066Z" fill="black"/>
</svg>
