<svg width="24" height="24" viewBox="0 0 24 24" fill="none" xmlns="http://www.w3.org/2000/svg">
<path d="M18.9973 11.3177V9.77731C18.9973 8.69736 18.1545 7.82671 17.1271 7.82671C16.8622 7.82671 16.6054 7.88531 16.3726 7.99414C16.1398 7.39138 15.5619 6.96442 14.8877 6.96442C14.7191 6.96442 14.5666 6.99791 14.4141 7.03977C14.1813 6.38677 13.5633 5.90959 12.8328 5.90959C12.6803 5.90959 12.5278 5.9347 12.3833 5.97656V3.96735C12.3753 2.87903 11.5325 2 10.4971 2C9.46164 2 8.61884 2.87903 8.61884 3.95898V10.0452L8.43422 9.76057C8.41817 9.74383 8.41014 9.72708 8.39409 9.71034C8.00078 9.20804 6.94126 8.44621 5.74529 9.17455C4.54931 9.90289 5.03894 11.5856 5.52054 12.4814L8.95596 18.7015C8.6991 18.7769 8.51449 19.028 8.51449 19.3127V21.3554C8.51449 21.707 8.7874 22 9.13254 22H17.7933C18.1304 22 18.4114 21.7154 18.4114 21.3554V19.3127C18.4114 19.0532 18.2669 18.8355 18.0582 18.735C18.4836 17.1026 18.8368 14.4236 18.9251 13.4106C19.0214 12.1716 18.9973 11.4349 18.9973 11.3177ZM6.36334 10.288C6.8931 9.96149 7.31851 10.3884 7.42286 10.514L8.71516 12.54C8.86766 12.7744 9.1486 12.8832 9.40545 12.7995C9.6623 12.7158 9.84692 12.4646 9.84692 12.18V3.95898C9.84692 3.59062 10.1359 3.28924 10.4891 3.28924C10.8422 3.28924 11.1312 3.59062 11.1312 3.95898V8.06949C11.1312 8.07786 11.1312 8.08623 11.1312 8.0946V12.3809C11.1312 12.7325 11.4041 13.0255 11.7492 13.0255C12.0944 13.0255 12.3833 12.7325 12.3833 12.3809V7.61741C12.3833 7.38301 12.584 7.19046 12.8328 7.19046C13.0817 7.19046 13.2823 7.38301 13.2823 7.61741V8.57179V12.3725C13.2823 12.7242 13.5552 13.0172 13.9004 13.0172C14.2455 13.0172 14.5184 12.7325 14.5184 12.3725V8.57179C14.5184 8.38761 14.679 8.23692 14.8877 8.23692C15.0883 8.23692 15.2569 8.38761 15.2569 8.57179V9.76894V11.3847V12.3725C15.2569 12.7242 15.5298 13.0172 15.8749 13.0172C16.2201 13.0172 16.493 12.7325 16.493 12.3725V11.3847V9.77731C16.493 9.40896 16.782 9.10758 17.1351 9.10758C17.4883 9.10758 17.7773 9.40896 17.7773 9.77731V11.7363C17.7773 11.753 17.7773 11.7698 17.7853 11.7865C17.7853 12.113 17.7692 12.6237 17.7131 13.2934C17.6007 14.5827 17.1993 17.3537 16.8141 18.6681H10.3606L6.59611 11.8368C6.34729 11.3763 6.05833 10.4638 6.36334 10.288ZM17.1753 20.7108H9.74257V19.9573H9.99942H17.1672V20.7108H17.1753Z" fill="#212121"/>
</svg>
