<svg width="24" height="24" viewBox="0 0 24 24" fill="none" xmlns="http://www.w3.org/2000/svg">
<path fill-rule="evenodd" clip-rule="evenodd" d="M12 3.39535C7.24778 3.39535 3.39535 7.24778 3.39535 12C3.39535 16.7522 7.24778 20.6047 12 20.6047C16.7522 20.6047 20.6047 16.7522 20.6047 12C20.6047 7.24778 16.7522 3.39535 12 3.39535ZM2 12C2 6.47715 6.47715 2 12 2C17.5228 2 22 6.47715 22 12C22 17.5228 17.5228 22 12 22C6.47715 22 2 17.5228 2 12Z" fill="black"/>
<path d="M13.4957 9.18807H11.0976L9.89452 14.6681C9.89452 14.6681 9.32591 17.1073 11.0976 17.4452C13.1578 17.8407 13.4957 15.6982 13.4957 15.6982C13.4957 15.6982 12.1689 16.1432 12.2761 14.9153C12.3832 13.6875 13.4957 9.18807 13.4957 9.18807Z" fill="black"/>
<path d="M12.6798 5.63636C11.9547 5.63636 11.3696 6.22144 11.3696 6.94662C11.3696 7.6718 11.9547 8.25688 12.6798 8.25688C13.405 8.25688 13.9901 7.6718 13.9901 6.94662C13.9901 6.22144 13.3968 5.63636 12.6798 5.63636Z" fill="black"/>
</svg>
