<svg width="24" height="24" viewBox="0 0 24 24" fill="none" xmlns="http://www.w3.org/2000/svg">
<path fill-rule="evenodd" clip-rule="evenodd" d="M12 3.39535C7.24778 3.39535 3.39535 7.24778 3.39535 12C3.39535 16.7522 7.24778 20.6047 12 20.6047C16.7522 20.6047 20.6047 16.7522 20.6047 12C20.6047 7.24778 16.7522 3.39535 12 3.39535ZM2 12C2 6.47715 6.47715 2 12 2C17.5228 2 22 6.47715 22 12C22 17.5228 17.5228 22 12 22C6.47715 22 2 17.5228 2 12Z" fill="black"/>
<path d="M17.0546 7.98182C16.9273 7.66364 16.7818 7.43636 16.5455 7.2C16.3091 6.96364 16.0818 6.81818 15.7636 6.69091C15.5273 6.6 15.1636 6.49091 14.5 6.45455C13.7818 6.41818 13.5727 6.41818 11.7546 6.41818C9.93637 6.41818 9.72728 6.42727 9.0091 6.46364C8.34546 6.49091 7.99091 6.6 7.74546 6.69091C7.42728 6.81818 7.20001 6.96364 6.96364 7.2C6.72728 7.43636 6.58182 7.66364 6.46364 7.98182C6.36364 8.22727 6.25455 8.58182 6.22728 9.24546C6.19091 9.96364 6.18182 10.1818 6.18182 11.9909C6.18182 13.8091 6.19091 14.0182 6.21819 14.7364C6.24546 15.4 6.36364 15.7545 6.45455 16C6.58182 16.3182 6.72728 16.5455 6.96364 16.7818C7.20001 17.0182 7.42728 17.1636 7.74546 17.2909C7.98182 17.3818 8.34546 17.4909 9.0091 17.5273C9.72728 17.5636 9.93637 17.5636 11.7546 17.5636C13.5727 17.5636 13.7818 17.5545 14.5 17.5273C15.1636 17.5 15.5273 17.3818 15.7636 17.2909C16.0818 17.1636 16.3091 17.0182 16.5455 16.7818C16.7818 16.5455 16.9273 16.3182 17.0546 16C17.1455 15.7636 17.2545 15.4 17.2909 14.7364C17.3273 14.0182 17.3273 13.8091 17.3273 11.9909C17.3273 10.1727 17.3182 9.96364 17.2909 9.24546C17.2636 8.58182 17.1545 8.22727 17.0546 7.98182ZM11.7546 15.4818C9.82728 15.4818 8.26364 13.9182 8.26364 11.9909C8.26364 10.0636 9.82728 8.5 11.7546 8.5C13.6818 8.5 15.2455 10.0636 15.2455 11.9909C15.2455 13.9182 13.6909 15.4818 11.7546 15.4818ZM15.3909 9.18182C14.9364 9.18182 14.5727 8.81818 14.5727 8.36364C14.5727 7.90909 14.9364 7.54545 15.3909 7.54545C15.8455 7.54545 16.2091 7.90909 16.2091 8.36364C16.2091 8.81818 15.8364 9.18182 15.3909 9.18182Z" fill="black"/>
<path d="M11.7545 14.2545C13.0047 14.2545 14.0182 13.2411 14.0182 11.9909C14.0182 10.7407 13.0047 9.72727 11.7545 9.72727C10.5044 9.72727 9.49091 10.7407 9.49091 11.9909C9.49091 13.2411 10.5044 14.2545 11.7545 14.2545Z" fill="black"/>
</svg>
