<svg width="24" height="24" viewBox="0 0 24 24" fill="none" xmlns="http://www.w3.org/2000/svg">
<path fill-rule="evenodd" clip-rule="evenodd" d="M12 2.53488C6.77256 2.53488 2.53488 6.77256 2.53488 12C2.53488 17.2274 6.77256 21.4651 12 21.4651C17.2274 21.4651 21.4651 17.2274 21.4651 12C21.4651 6.77256 17.2274 2.53488 12 2.53488ZM1 12C1 5.92487 5.92487 1 12 1C18.0751 1 23 5.92487 23 12C23 18.0751 18.0751 23 12 23C5.92487 23 1 18.0751 1 12Z" fill="black"/>
<path d="M17.56 7.58C17.42 7.23 17.26 6.98 17 6.72C16.74 6.46 16.49 6.3 16.14 6.16C15.88 6.06 15.48 5.94 14.75 5.9C13.96 5.86 13.73 5.86 11.73 5.86C9.73001 5.86 9.50001 5.87 8.71001 5.91C7.98001 5.94 7.59001 6.06 7.32001 6.16C6.97001 6.3 6.72001 6.46 6.46001 6.72C6.20001 6.98 6.04001 7.23 5.91001 7.58C5.80001 7.85 5.68001 8.24 5.65001 8.97C5.61001 9.76 5.60001 10 5.60001 11.99C5.60001 13.99 5.61001 14.22 5.64001 15.01C5.67001 15.74 5.80001 16.13 5.90001 16.4C6.04001 16.75 6.20001 17 6.46001 17.26C6.72001 17.52 6.97001 17.68 7.32001 17.82C7.58001 17.92 7.98001 18.04 8.71001 18.08C9.50001 18.12 9.73001 18.12 11.73 18.12C13.73 18.12 13.96 18.11 14.75 18.08C15.48 18.05 15.88 17.92 16.14 17.82C16.49 17.68 16.74 17.52 17 17.26C17.26 17 17.42 16.75 17.56 16.4C17.66 16.14 17.78 15.74 17.82 15.01C17.86 14.22 17.86 13.99 17.86 11.99C17.86 9.99 17.85 9.76 17.82 8.97C17.79 8.24 17.67 7.85 17.56 7.58ZM11.73 15.83C9.61001 15.83 7.89001 14.11 7.89001 11.99C7.89001 9.87 9.61001 8.15 11.73 8.15C13.85 8.15 15.57 9.87 15.57 11.99C15.57 14.11 13.86 15.83 11.73 15.83ZM15.73 8.9C15.23 8.9 14.83 8.5 14.83 8C14.83 7.5 15.23 7.1 15.73 7.1C16.23 7.1 16.63 7.5 16.63 8C16.63 8.5 16.22 8.9 15.73 8.9Z" fill="black"/>
<path d="M11.73 14.48C13.1052 14.48 14.22 13.3652 14.22 11.99C14.22 10.6148 13.1052 9.5 11.73 9.5C10.3548 9.5 9.23999 10.6148 9.23999 11.99C9.23999 13.3652 10.3548 14.48 11.73 14.48Z" fill="black"/>
</svg>
