<svg width="24" height="24" viewBox="0 0 24 24" fill="none" xmlns="http://www.w3.org/2000/svg">
<path d="M14.9112 14.9586C14.5163 14.9586 14.1398 14.8041 13.8735 14.5222L10.549 11.1222C9.51123 10.0586 8.90511 8.71314 8.83164 7.33132C8.83164 7.23132 8.82245 7.12223 8.82245 7.02223C8.82245 5.36769 9.52041 3.76769 10.7418 2.63132C11.9816 1.47678 13.598 0.904052 15.2969 1.01314C18.3459 1.20405 20.7888 3.61314 20.9816 6.63132C21.0367 7.52223 20.9082 8.39496 20.5776 9.21314C20.3112 9.89496 19.8796 10.5404 19.301 11.1222L15.9398 14.5313C15.6735 14.8041 15.3061 14.9586 14.9112 14.9586ZM14.9112 2.39496C13.7173 2.39496 12.5878 2.83132 11.7153 3.64951C10.7602 4.53132 10.2367 5.73132 10.2367 7.02223C10.2367 7.10405 10.2367 7.18587 10.2459 7.26769C10.301 8.31314 10.7694 9.33132 11.5684 10.1495L14.8929 13.5495H14.9388L18.3 10.1404C18.7408 9.68587 19.0714 9.20405 19.2735 8.70405C19.5214 8.07678 19.6225 7.40405 19.5765 6.72223C19.4296 4.40405 17.5469 2.5586 15.2143 2.41314C15.1133 2.39496 15.0122 2.39496 14.9112 2.39496Z" fill="black"/>
<path d="M14.9112 9.74041C13.3959 9.74041 12.1653 8.52223 12.1653 7.02223C12.1653 5.52223 13.3959 4.30405 14.9112 4.30405C16.4265 4.30405 17.6571 5.52223 17.6571 7.02223C17.6571 8.52223 16.4265 9.74041 14.9112 9.74041ZM14.9112 5.69496C14.1765 5.69496 13.5704 6.28587 13.5704 7.02223C13.5704 7.7586 14.1673 8.34951 14.9112 8.34951C15.6459 8.34951 16.252 7.7586 16.252 7.02223C16.252 6.28587 15.6459 5.69496 14.9112 5.69496Z" fill="black"/>
<path d="M15.7469 22.995H6.44388C6.05816 22.995 5.73673 22.6859 5.73673 22.295C5.73673 21.9041 6.04898 21.595 6.44388 21.595H15.7469C16.7571 21.595 17.5745 20.7859 17.5745 19.7859C17.5745 18.7859 16.7571 17.9768 15.7469 17.9768H6.23265C4.45102 17.9859 3 16.5495 3 14.7859C3 13.0222 4.45102 11.5859 6.23265 11.5859H9.06122C9.44694 11.5859 9.76837 11.895 9.76837 12.2859C9.76837 12.6768 9.45612 12.9859 9.06122 12.9859H6.23265C5.22245 12.9859 4.4051 13.795 4.4051 14.795C4.4051 15.795 5.22245 16.6041 6.23265 16.6041H15.7378C17.5194 16.6041 18.9704 18.0404 18.9704 19.8041C18.9704 21.5677 17.5286 22.995 15.7469 22.995Z" fill="black"/>
</svg>
