<svg width="24" height="24" viewBox="0 0 24 24" fill="none" xmlns="http://www.w3.org/2000/svg">
<path d="M14.6462 14.6893C14.2872 14.6893 13.9449 14.5489 13.7028 14.2927L10.6806 11.2018C9.73723 10.2349 9.18622 9.01179 9.11943 7.75562C9.11943 7.66471 9.11108 7.56554 9.11108 7.47463C9.11108 5.97053 9.74558 4.51602 10.8559 3.48299C11.983 2.43343 13.4524 1.91278 14.9968 2.01195C17.7686 2.1855 19.9893 4.37553 20.1646 7.11927C20.2147 7.92917 20.0978 8.72254 19.7973 9.46632C19.5552 10.0861 19.1628 10.6729 18.6368 11.2018L15.5813 14.3009C15.3391 14.5489 15.0052 14.6893 14.6462 14.6893ZM14.6462 3.26812C13.5609 3.26812 12.534 3.6648 11.7409 4.40859C10.8726 5.21022 10.3968 6.30111 10.3968 7.47463C10.3968 7.54901 10.3968 7.62339 10.4051 7.69777C10.4552 8.64816 10.881 9.57376 11.6073 10.3175L14.6295 13.4084H14.6713L17.7268 10.3093C18.1276 9.89607 18.4281 9.45806 18.6118 9.00352C18.8372 8.43329 18.929 7.82173 18.8873 7.20191C18.7537 5.09452 17.0423 3.41687 14.9217 3.28465C14.8299 3.26812 14.738 3.26812 14.6462 3.26812Z" fill="black"/>
<path d="M14.6462 9.94565C13.2687 9.94565 12.15 8.83824 12.15 7.47463C12.15 6.11103 13.2687 5.00362 14.6462 5.00362C16.0237 5.00362 17.1424 6.11103 17.1424 7.47463C17.1424 8.83824 16.0237 9.94565 14.6462 9.94565ZM14.6462 6.26805C13.9783 6.26805 13.4273 6.80523 13.4273 7.47463C13.4273 8.14404 13.97 8.68122 14.6462 8.68122C15.3141 8.68122 15.8651 8.14404 15.8651 7.47463C15.8651 6.80523 15.3141 6.26805 14.6462 6.26805Z" fill="black"/>
<path d="M15.4059 21.995H6.94881C6.59817 21.995 6.30597 21.714 6.30597 21.3586C6.30597 21.0033 6.58982 20.7223 6.94881 20.7223H15.4059C16.3243 20.7223 17.0673 19.9868 17.0673 19.0777C17.0673 18.1686 16.3243 17.4331 15.4059 17.4331H6.75679C5.13716 17.4414 3.81808 16.1356 3.81808 14.5323C3.81808 12.9291 5.13716 11.6233 6.75679 11.6233H9.32816C9.6788 11.6233 9.971 11.9043 9.971 12.2597C9.971 12.615 9.68715 12.896 9.32816 12.896H6.75679C5.83845 12.896 5.09542 13.6315 5.09542 14.5406C5.09542 15.4497 5.83845 16.1852 6.75679 16.1852H15.3976C17.0172 16.1852 18.3363 17.4909 18.3363 19.0942C18.3363 20.6975 17.0256 21.995 15.4059 21.995Z" fill="black"/>
</svg>
