<svg width="24" height="24" viewBox="0 0 24 24" fill="none" xmlns="http://www.w3.org/2000/svg">
<path d="M7.05294 14.1145V3.00083C7.05294 1.90037 6.1001 1 4.93552 1C3.77093 1 2.81809 1.90037 2.81809 3.00083V14.1145C2.31761 14.6147 2 15.2877 2 16.0426C2 16.7883 2.31761 17.4704 2.82772 17.9706V20.9992C2.82772 22.0996 3.78056 23 4.94514 23C6.10972 23 7.06256 22.0996 7.06256 20.9992V17.9706C7.57267 17.4704 7.89028 16.7883 7.89028 16.0426C7.88065 15.2877 7.57267 14.6147 7.05294 14.1145ZM4.94514 17.425C4.13667 17.425 3.47257 16.8065 3.47257 16.0335C3.47257 15.2695 4.12705 14.642 4.94514 14.642C5.75361 14.642 6.41771 15.2604 6.41771 16.0335C6.40809 16.8065 5.75361 17.425 4.94514 17.425ZM4.94514 2.39148C5.30125 2.39148 5.58999 2.66432 5.58999 3.00083V13.3324C5.38787 13.2869 5.16651 13.2596 4.94514 13.2596C4.72377 13.2596 4.51203 13.2869 4.30029 13.3324V3.00083C4.30029 2.66432 4.58903 2.39148 4.94514 2.39148ZM4.94514 21.5994C4.58903 21.5994 4.30029 21.3266 4.30029 20.9901V18.7437C4.50241 18.7892 4.72377 18.8165 4.94514 18.8165C5.16651 18.8165 5.37825 18.7892 5.58999 18.7437V20.9901C5.58037 21.3357 5.30125 21.5994 4.94514 21.5994Z" fill="black"/>
<path d="M14.127 6.02935V3.00083C14.127 1.90037 13.1741 1 12.0095 1C10.8449 1 9.89211 1.90037 9.89211 3.00083V6.02935C9.382 6.52956 9.06439 7.21166 9.06439 7.95742C9.06439 8.70318 9.382 9.38528 9.89211 9.88549V20.9992C9.89211 22.0996 10.8449 23 12.0095 23C13.1741 23 14.127 22.0996 14.127 20.9992V9.88549C14.6371 9.38528 14.9547 8.70318 14.9547 7.95742C14.9547 7.21166 14.6371 6.52956 14.127 6.02935ZM12.0095 9.3489C11.2011 9.3489 10.537 8.73047 10.537 7.95742C10.537 7.19347 11.1914 6.56594 12.0095 6.56594C12.8276 6.56594 13.4821 7.18437 13.4821 7.95742C13.4821 8.72137 12.818 9.3489 12.0095 9.3489ZM12.0095 2.39148C12.3656 2.39148 12.6544 2.66432 12.6544 3.00083V5.24721C12.4523 5.20174 12.2309 5.17445 12.0095 5.17445C11.7882 5.17445 11.5764 5.20174 11.3743 5.24721V3.00083C11.3743 2.66432 11.663 2.39148 12.0095 2.39148ZM12.0095 21.5994C11.6534 21.5994 11.3647 21.3266 11.3647 20.9901V10.6676C11.5668 10.7131 11.7882 10.7404 12.0095 10.7404C12.2309 10.7404 12.4426 10.7131 12.6544 10.6676V20.9992C12.6544 21.3357 12.3656 21.5994 12.0095 21.5994Z" fill="black"/>
<path d="M22.0001 12.6957C22.0001 11.95 21.6824 11.2679 21.1723 10.7677V3.00083C21.1723 1.90037 20.2195 1 19.0549 1C17.8903 1 16.9375 1.90037 16.9375 3.00083V10.7677C16.4274 11.2679 16.1098 11.95 16.1098 12.6957C16.1098 13.4415 16.4274 14.1236 16.9375 14.6238V20.9992C16.9375 22.0996 17.8903 23 19.0549 23C20.2195 23 21.1723 22.0996 21.1723 20.9992V14.6238C21.6824 14.1236 22.0001 13.4415 22.0001 12.6957ZM17.592 12.6957C17.592 11.9318 18.2464 11.3043 19.0645 11.3043C19.873 11.3043 20.5371 11.9227 20.5371 12.6957C20.5371 13.4597 19.8826 14.0872 19.0645 14.0872C18.2464 14.0781 17.592 13.4597 17.592 12.6957ZM19.0549 2.39148C19.411 2.39148 19.6998 2.66432 19.6998 3.00083V9.98553C19.4976 9.94006 19.2763 9.91277 19.0549 9.91277C18.8335 9.91277 18.6218 9.94006 18.4101 9.98553V3.00083C18.4197 2.66432 18.7084 2.39148 19.0549 2.39148ZM19.0549 21.5994C18.6988 21.5994 18.4101 21.3266 18.4101 20.9901V15.3969C18.6122 15.4423 18.8335 15.4696 19.0549 15.4696C19.2763 15.4696 19.488 15.4423 19.6998 15.3969V20.9901C19.6998 21.3357 19.411 21.5994 19.0549 21.5994Z" fill="black"/>
</svg>
