<svg width="24" height="24" viewBox="0 0 24 24" fill="none" xmlns="http://www.w3.org/2000/svg">
<path d="M7.50267 13.9223V3.81893C7.50267 2.81852 6.63645 2 5.57774 2C4.51903 2 3.65281 2.81852 3.65281 3.81893V13.9223C3.19783 14.377 2.90909 14.9888 2.90909 15.6751C2.90909 16.353 3.19783 16.9731 3.66156 17.4279V20.1811C3.66156 21.1815 4.52778 22 5.58649 22C6.6452 22 7.51142 21.1815 7.51142 20.1811V17.4279C7.97515 16.9731 8.26389 16.353 8.26389 15.6751C8.25514 14.9888 7.97515 14.377 7.50267 13.9223ZM5.58649 16.9318C4.85152 16.9318 4.24779 16.3696 4.24779 15.6668C4.24779 14.9723 4.84277 14.4018 5.58649 14.4018C6.32146 14.4018 6.92519 14.964 6.92519 15.6668C6.91644 16.3696 6.32146 16.9318 5.58649 16.9318ZM5.58649 3.26499C5.91023 3.26499 6.17272 3.51302 6.17272 3.81893V13.2112C5.98897 13.1699 5.78773 13.1451 5.58649 13.1451C5.38525 13.1451 5.19275 13.1699 5.00026 13.2112V3.81893C5.00026 3.51302 5.26275 3.26499 5.58649 3.26499ZM5.58649 20.7267C5.26275 20.7267 5.00026 20.4787 5.00026 20.1728V18.1306C5.184 18.172 5.38525 18.1968 5.58649 18.1968C5.78773 18.1968 5.98022 18.172 6.17272 18.1306V20.1728C6.16397 20.487 5.91023 20.7267 5.58649 20.7267Z" fill="black"/>
<path d="M13.9336 6.57214V3.81893C13.9336 2.81852 13.0674 2 12.0087 2C10.95 2 10.0837 2.81852 10.0837 3.81893V6.57214C9.62001 7.02687 9.33127 7.64696 9.33127 8.32493C9.33127 9.00289 9.62001 9.62298 10.0837 10.0777V20.1811C10.0837 21.1815 10.95 22 12.0087 22C13.0674 22 13.9336 21.1815 13.9336 20.1811V10.0777C14.3973 9.62298 14.6861 9.00289 14.6861 8.32493C14.6861 7.64696 14.3973 7.02687 13.9336 6.57214ZM12.0087 9.58991C11.2737 9.58991 10.67 9.0277 10.67 8.32493C10.67 7.63043 11.2649 7.05994 12.0087 7.05994C12.7524 7.05994 13.3474 7.62216 13.3474 8.32493C13.3474 9.01943 12.7436 9.58991 12.0087 9.58991ZM12.0087 3.26499C12.3324 3.26499 12.5949 3.51302 12.5949 3.81893V5.8611C12.4112 5.81976 12.2099 5.79496 12.0087 5.79496C11.8074 5.79496 11.6149 5.81976 11.4312 5.8611V3.81893C11.4312 3.51302 11.6937 3.26499 12.0087 3.26499ZM12.0087 20.7267C11.6849 20.7267 11.4224 20.4787 11.4224 20.1728V10.7888C11.6062 10.8301 11.8074 10.8549 12.0087 10.8549C12.2099 10.8549 12.4024 10.8301 12.5949 10.7888V20.1811C12.5949 20.487 12.3324 20.7267 12.0087 20.7267Z" fill="black"/>
<path d="M21.0909 12.6325C21.0909 11.9545 20.8022 11.3344 20.3385 10.8797V3.81893C20.3385 2.81852 19.4723 2 18.4135 2C17.3548 2 16.4886 2.81852 16.4886 3.81893V10.8797C16.0249 11.3344 15.7361 11.9545 15.7361 12.6325C15.7361 13.3105 16.0249 13.9305 16.4886 14.3853V20.1811C16.4886 21.1815 17.3548 22 18.4135 22C19.4723 22 20.3385 21.1815 20.3385 20.1811V14.3853C20.8022 13.9305 21.0909 13.3105 21.0909 12.6325ZM17.0836 12.6325C17.0836 11.938 17.6786 11.3675 18.4223 11.3675C19.1573 11.3675 19.761 11.9297 19.761 12.6325C19.761 13.327 19.166 13.8975 18.4223 13.8975C17.6786 13.8892 17.0836 13.327 17.0836 12.6325ZM18.4135 3.26499C18.7373 3.26499 18.9998 3.51302 18.9998 3.81893V10.1687C18.816 10.1273 18.6148 10.1025 18.4135 10.1025C18.2123 10.1025 18.0198 10.1273 17.8273 10.1687V3.81893C17.8361 3.51302 18.0986 3.26499 18.4135 3.26499ZM18.4135 20.7267C18.0898 20.7267 17.8273 20.4787 17.8273 20.1728V15.0881C18.0111 15.1294 18.2123 15.1542 18.4135 15.1542C18.6148 15.1542 18.8073 15.1294 18.9998 15.0881V20.1728C18.9998 20.487 18.7373 20.7267 18.4135 20.7267Z" fill="black"/>
</svg>
