<svg width="24" height="24" viewBox="0 0 24 24" fill="none" xmlns="http://www.w3.org/2000/svg">
<path d="M19.7741 19.4945L14.96 8.96879V5.1922H16.157C16.5442 5.1922 16.8698 4.86694 16.8698 4.46037C16.8698 4.0538 16.553 3.72854 16.157 3.72854H7.30328C6.91604 3.72854 6.59041 4.0538 6.59041 4.46037C6.59041 4.86694 6.90724 5.1922 7.30328 5.1922H8.64982V9.24887L4.20537 19.5487C3.87974 20.3166 3.94134 21.184 4.39019 21.8887C4.83023 22.5844 5.58711 23.009 6.39679 23.009H17.6003C18.4276 23.009 19.1845 22.5844 19.6245 21.8706C20.0734 21.1478 20.1262 20.2624 19.7741 19.4945ZM10.0668 9.56509V5.1922H13.5431V9.28501L15.8841 14.4078H7.97215L10.0668 9.56509ZM18.4364 21.0846C18.2516 21.3828 17.9523 21.5544 17.6091 21.5544H6.39679C6.06236 21.5544 5.76313 21.3918 5.57831 21.0936C5.39349 20.8045 5.36709 20.4522 5.5079 20.1359L7.34728 15.8715H16.553L18.498 20.1179C18.6388 20.4341 18.6124 20.7864 18.4364 21.0846Z" fill="black"/>
<path d="M12.4606 13.5766C13.0591 13.5766 13.5519 13.0797 13.5519 12.4563C13.5519 11.8419 13.0679 11.3359 12.4606 11.3359C11.8621 11.3359 11.3693 11.8329 11.3693 12.4563C11.3693 13.0797 11.8533 13.5766 12.4606 13.5766Z" fill="black"/>
<path d="M12.1174 3.24066C12.7201 3.24066 13.2087 2.73907 13.2087 2.12033C13.2087 1.50159 12.7201 1 12.1174 1C11.5147 1 11.0261 1.50159 11.0261 2.12033C11.0261 2.73907 11.5147 3.24066 12.1174 3.24066Z" fill="black"/>
<path d="M12.003 20.0185C12.6057 20.0185 13.0943 19.5169 13.0943 18.8982C13.0943 18.2794 12.6057 17.7778 12.003 17.7778C11.4002 17.7778 10.9117 18.2794 10.9117 18.8982C10.9117 19.5169 11.4002 20.0185 12.003 20.0185Z" fill="black"/>
<path d="M9.59152 18.1392C9.91718 18.1392 10.1812 17.8682 10.1812 17.5339C10.1812 17.1996 9.91718 16.9285 9.59152 16.9285C9.26586 16.9285 9.00186 17.1996 9.00186 17.5339C9.00186 17.8682 9.26586 18.1392 9.59152 18.1392Z" fill="black"/>
</svg>
