<svg width="24" height="24" viewBox="0 0 24 24" fill="none" xmlns="http://www.w3.org/2000/svg">
<path d="M19.0615 18.8077L14.6888 9.24715V5.81684H15.776C16.1277 5.81684 16.4235 5.52141 16.4235 5.15212C16.4235 4.78283 16.1357 4.4874 15.776 4.4874H7.73414C7.38241 4.4874 7.08664 4.78283 7.08664 5.15212C7.08664 5.52141 7.37442 5.81684 7.73414 5.81684H8.95721V9.50155L4.92029 18.8569C4.62451 19.5545 4.68047 20.3423 5.08816 20.9824C5.48786 21.6143 6.17533 22 6.91077 22H17.087C17.8384 22 18.5259 21.6143 18.9256 20.966C19.3333 20.3095 19.3813 19.5052 19.0615 18.8077ZM10.2442 9.78878V5.81684H13.4018V9.53438L15.5282 14.1874H8.34168L10.2442 9.78878ZM17.8464 20.252C17.6786 20.5228 17.4068 20.6788 17.095 20.6788H6.91077C6.607 20.6788 6.33521 20.531 6.16734 20.2602C5.99947 19.9976 5.97548 19.6776 6.10339 19.3903L7.77411 15.5169H16.1357L17.9024 19.3739C18.0303 19.6612 18.0063 19.9812 17.8464 20.252Z" fill="black"/>
<path d="M12.4186 13.4325C12.9622 13.4325 13.4098 12.9811 13.4098 12.4148C13.4098 11.8568 12.9702 11.3972 12.4186 11.3972C11.875 11.3972 11.4273 11.8486 11.4273 12.4148C11.4273 12.9811 11.867 13.4325 12.4186 13.4325Z" fill="black"/>
<path d="M12.1068 4.04424C12.6542 4.04424 13.098 3.58864 13.098 3.02664C13.098 2.46463 12.6542 2.00903 12.1068 2.00903C11.5594 2.00903 11.1156 2.46463 11.1156 3.02664C11.1156 3.58864 11.5594 4.04424 12.1068 4.04424Z" fill="black"/>
<path d="M12.0029 19.2836C12.5504 19.2836 12.9941 18.8281 12.9941 18.266C12.9941 17.704 12.5504 17.2484 12.0029 17.2484C11.4555 17.2484 11.0117 17.704 11.0117 18.266C11.0117 18.8281 11.4555 19.2836 12.0029 19.2836Z" fill="black"/>
<path d="M9.81255 17.5767C10.1084 17.5767 10.3481 17.3305 10.3481 17.0269C10.3481 16.7232 10.1084 16.4771 9.81255 16.4771C9.51675 16.4771 9.27696 16.7232 9.27696 17.0269C9.27696 17.3305 9.51675 17.5767 9.81255 17.5767Z" fill="black"/>
</svg>
