<svg width="24" height="24" viewBox="0 0 24 24" fill="none" xmlns="http://www.w3.org/2000/svg">
<path d="M4.65932 11.904C4.81522 12.0511 5.02614 12.129 5.22789 12.129C5.43881 12.129 5.64056 12.0511 5.79646 11.904C6.10826 11.6098 6.10826 11.1252 5.79646 10.8224L3.68725 8.82344H22.1841C22.6335 8.82344 22.9911 8.48596 22.9911 8.06195C22.9911 7.63794 22.6335 7.30046 22.1841 7.30046H3.77895L5.8148 5.29288C6.1266 4.99002 6.11743 4.50543 5.78729 4.21122C5.45715 3.91701 4.96195 3.93431 4.65015 4.23718L1.22956 7.60332C0.926933 7.90619 0.926933 8.37347 1.23873 8.66768L4.65932 11.904Z" fill="black"/>
<path d="M19.341 12.1036C19.0292 11.8094 18.5156 11.8094 18.1947 12.1036C17.8829 12.3978 17.8829 12.8824 18.1947 13.1853L20.3039 15.1842H1.807C1.35765 15.1842 1 15.5217 1 15.9457C1 16.3697 1.35765 16.7072 1.807 16.7072H20.2213L18.1855 18.7147C17.8737 19.0176 17.8829 19.5022 18.213 19.7964C18.3689 19.9349 18.5707 20.0127 18.7724 20.0127C18.9833 20.0127 19.1942 19.9349 19.3593 19.7791L22.7799 16.413C23.0825 16.1101 23.0825 15.6428 22.7707 15.3486L19.341 12.1036Z" fill="black"/>
</svg>
