<svg width="24" height="24" viewBox="0 0 24 24" fill="none" xmlns="http://www.w3.org/2000/svg">
<path d="M5.33058 11.9134C5.47222 12.047 5.66386 12.1178 5.84717 12.1178C6.03882 12.1178 6.22212 12.047 6.36377 11.9134C6.64707 11.6461 6.64707 11.2058 6.36377 10.9306L4.44736 9.11439H21.2535C21.6618 9.11439 21.9867 8.80775 21.9867 8.4225C21.9867 8.03724 21.6618 7.73061 21.2535 7.73061H4.53068L6.38044 5.90655C6.66373 5.63137 6.6554 5.19107 6.35544 4.92375C6.05548 4.65643 5.60554 4.67216 5.32224 4.94734L2.21432 8.00579C1.93935 8.28098 1.93935 8.70554 2.22265 8.97286L5.33058 11.9134Z" fill="black"/>
<path d="M18.6702 12.0947C18.3869 11.8274 17.9203 11.8274 17.6287 12.0947C17.3454 12.362 17.3454 12.8023 17.6287 13.0775L19.5451 14.8937H2.73897C2.33069 14.8937 2.00574 15.2003 2.00574 15.5856C2.00574 15.9709 2.33069 16.2775 2.73897 16.2775H19.4701L17.6204 18.1016C17.3371 18.3767 17.3454 18.817 17.6453 19.0843C17.787 19.2101 17.9703 19.2809 18.1536 19.2809C18.3453 19.2809 18.5369 19.2101 18.6869 19.0686L21.7948 16.0102C22.0698 15.735 22.0698 15.3104 21.7865 15.0431L18.6702 12.0947Z" fill="black"/>
</svg>
