<svg width="24" height="24" viewBox="0 0 24 24" fill="none" xmlns="http://www.w3.org/2000/svg">
<path d="M21.0307 11.0595H5.3374L7.78582 8.58629C8.1535 8.21451 8.14514 7.61641 7.76075 7.26079C7.37636 6.90517 6.75799 6.91325 6.39031 7.28504L2.27062 11.4313C1.90294 11.8031 1.91129 12.385 2.28733 12.7487L6.39866 16.7252C6.59086 16.9111 6.83319 17 7.08388 17C7.33458 17 7.57691 16.9111 7.76911 16.7252C8.14514 16.3615 8.14514 15.7634 7.76911 15.3997L5.23713 12.9427H21.0307C21.5655 12.9427 22 12.5224 22 12.0051C22 11.4878 21.5655 11.0595 21.0307 11.0595Z" fill="black"/>
</svg>
