<svg width="24" height="24" viewBox="0 0 24 24" fill="none" xmlns="http://www.w3.org/2000/svg">
<path d="M21.37 12.51C21.54 12.33 21.62 12.11 21.62 11.88C21.62 11.65 21.53 11.41 21.35 11.24L16.6 6.48999C16.25 6.13999 15.67 6.13999 15.31 6.48999C14.96 6.83999 14.96 7.41999 15.31 7.77999L18.61 11.08H6.46C5.96 11.08 5.55 11.49 5.55 11.99C5.55 12.49 5.96 12.9 6.46 12.9H18.48L15.3 16.21C14.95 16.57 14.96 17.15 15.33 17.49C15.69 17.84 16.27 17.83 16.61 17.46L21.37 12.51Z" fill="black"/>
<path d="M9.13 21.06C9.13 20.56 8.72 20.15 8.22 20.15H3.82V3.82H7.96C8.46 3.82 8.87 3.41 8.87 2.91C8.87 2.41 8.46 2 7.96 2H2.91C2.41 2 2 2.41 2 2.91V21.06C2 21.56 2.41 21.97 2.91 21.97H8.22C8.72 21.97 9.13 21.56 9.13 21.06Z" fill="black"/>
</svg>
