<svg width="24" height="24" viewBox="0 0 24 24" fill="none" xmlns="http://www.w3.org/2000/svg">
<path d="M21.7676 4.43697C21.6185 4.31092 21.4281 4.26891 21.2376 4.30252L15.4489 5.53781L9.25447 3.04202H9.24619C9.18822 3.02521 9.13025 3.0084 9.07228 3.0084C9.05572 3 9.04744 3 9.03915 3C9.03087 3 9.03087 3 9.02259 3C8.96462 3 8.90665 3.0084 8.85696 3.02521C8.84868 3.02521 8.84868 3.02521 8.8404 3.02521L2.45547 4.97479C2.18219 5.05882 2 5.31092 2 5.59664V20.6723C2 20.8739 2.09938 21.0672 2.25672 21.1933C2.42235 21.3109 2.62938 21.3529 2.81985 21.2941L8.98947 19.3697L15.126 21.9496C15.2005 21.9832 15.2833 22 15.3661 22H15.3744H15.3827C15.4489 22 15.5152 21.9832 15.5731 21.9664L21.5109 20.5126C21.7924 20.4454 21.9995 20.1849 21.9995 19.8824V4.93277C22.0078 4.7395 21.9167 4.56303 21.7676 4.43697ZM9.66026 4.59664L14.7533 6.64706V20.3866L9.66026 18.2437V4.59664ZM3.26705 6.07563L8.38493 4.5126V18.2017L3.26705 19.7983V6.07563ZM20.7324 19.3613L16.0203 20.5126V6.73109L20.7324 5.73109V19.3613Z" fill="black"/>
</svg>
