<svg width="24" height="24" viewBox="0 0 24 24" fill="none" xmlns="http://www.w3.org/2000/svg">
<path d="M22.7359 3.58964C22.572 3.4502 22.3626 3.40372 22.1531 3.4409L15.7881 4.80744L8.97682 2.04648H8.96772C8.90397 2.02789 8.84023 2.0093 8.77649 2.0093C8.75828 2 8.74917 2 8.74007 2C8.73096 2 8.73096 2 8.72185 2C8.65811 2 8.59437 2.0093 8.53973 2.02789C8.53063 2.02789 8.53063 2.02789 8.52152 2.02789L1.50083 4.18459C1.20033 4.27756 1 4.55644 1 4.87251V21.5498C1 21.7729 1.10927 21.9867 1.28228 22.1262C1.4644 22.2563 1.69205 22.3028 1.90149 22.2377L8.68543 20.1089L15.4329 22.9628C15.5149 23 15.606 23.0186 15.697 23.0186H15.7061H15.7152C15.7881 23.0186 15.8609 23 15.9247 22.9814L22.4536 21.3732C22.7632 21.2988 22.9909 21.0106 22.9909 20.676V4.13811C23 3.9243 22.8998 3.72908 22.7359 3.58964ZM9.42301 3.76627L15.0232 6.03453V21.2337L9.42301 18.8632V3.76627ZM2.39321 5.40239L8.0207 3.67331V18.8167L2.39321 20.583V5.40239V5.40239ZM21.5977 20.0996L16.4164 21.3732V6.12749L21.5977 5.02125V20.0996Z" fill="black"/>
</svg>
