<svg width="24" height="24" viewBox="0 0 24 24" fill="none" xmlns="http://www.w3.org/2000/svg">
<path d="M18.9898 12.0666C18.9898 11.575 18.5906 11.1756 18.0994 11.1756C17.6082 11.1756 17.2091 11.575 17.2091 12.0666V15.9685L8.02924 6.77176H11.9898C12.481 6.77176 12.8801 6.37235 12.8801 5.88076C12.8801 5.38917 12.481 5 12 5H5.89035C5.82895 5 5.76754 5.01024 5.71637 5.02048C5.68567 5.02048 5.6652 5.03072 5.6345 5.04097C5.6038 5.05121 5.5731 5.05121 5.55263 5.07169C5.52193 5.08193 5.49123 5.10241 5.46053 5.11266C5.44006 5.1229 5.41959 5.13314 5.39912 5.15362C5.29678 5.21507 5.21491 5.30724 5.15351 5.39941C5.13304 5.4199 5.12281 5.44038 5.11257 5.46086C5.09211 5.49159 5.08187 5.52231 5.07164 5.55304C5.05117 5.57352 5.05117 5.60424 5.04094 5.63497C5.0307 5.66569 5.02047 5.68617 5.02047 5.7169C5.01023 5.76811 5 5.82955 5 5.891V12.0051C5 12.4865 5.39912 12.8859 5.89035 12.8859C6.38158 12.8859 6.7807 12.4865 6.7807 11.9949V8.03146L15.9605 17.218H12C11.5088 17.218 11.1096 17.6174 11.1096 18.109C11.1096 18.6006 11.5088 19 12 19H18.1096C18.1711 19 18.2222 18.9898 18.2836 18.9795C18.3143 18.9693 18.3348 18.9693 18.3655 18.959C18.3962 18.9488 18.4269 18.9386 18.4576 18.9283C18.4883 18.9181 18.519 18.8976 18.5395 18.8873C18.5599 18.8771 18.5804 18.8669 18.6009 18.8566C18.7032 18.7952 18.7851 18.703 18.8465 18.6108C18.8567 18.5903 18.867 18.5699 18.8874 18.5391C18.9079 18.5084 18.9181 18.4879 18.9284 18.4572C18.9386 18.4265 18.9488 18.3958 18.9591 18.365C18.9693 18.3446 18.9795 18.3138 18.9795 18.2933C18.9898 18.2319 19 18.1807 19 18.1192V12.0666H18.9898Z" fill="black"/>
</svg>
