<svg width="24" height="24" viewBox="0 0 24 24" fill="none" xmlns="http://www.w3.org/2000/svg">
<path d="M17.8643 14.3418L13.2597 18.3081V5.69816L17.8643 9.66448C18.1104 9.87652 18.429 9.9763 18.7475 9.9763C19.0661 9.9763 19.3846 9.87652 19.6308 9.66448C20.1231 9.24041 20.1231 8.55441 19.6308 8.13034L12.8977 2.31805C12.4054 1.89398 11.609 1.89398 11.1167 2.31805L4.36923 8.13034C3.87692 8.55441 3.87692 9.24041 4.36923 9.66448C4.86154 10.0886 5.65792 10.0886 6.15023 9.66448L10.7548 5.69816V18.2956L6.15023 14.3418C5.65792 13.9177 4.86154 13.9177 4.36923 14.3418C3.87692 14.7658 3.87692 15.4518 4.36923 15.8759L11.1167 21.6882C11.3629 21.9002 11.6814 22 12 22C12.3186 22 12.6371 21.9002 12.8833 21.6882L19.6308 15.8759C20.1231 15.4518 20.1231 14.7658 19.6308 14.3418C19.1529 13.9177 18.3566 13.9177 17.8643 14.3418Z" fill="black"/>
</svg>
