<svg width="24" height="24" viewBox="0 0 24 24" fill="none" xmlns="http://www.w3.org/2000/svg">
<path d="M16.3982 13.8734L12.9448 17.0465V6.95853L16.3982 10.1316C16.5828 10.3012 16.8217 10.381 17.0606 10.381C17.2995 10.381 17.5385 10.3012 17.7231 10.1316C18.0923 9.79233 18.0923 9.24353 17.7231 8.90427L12.6733 4.25444C12.3041 3.91519 11.7068 3.91519 11.3376 4.25444L6.27692 8.90427C5.90769 9.24353 5.90769 9.79233 6.27692 10.1316C6.64615 10.4708 7.24344 10.4708 7.61267 10.1316L11.0661 6.95853V17.0365L7.61267 13.8734C7.24344 13.5341 6.64615 13.5341 6.27692 13.8734C5.90769 14.2127 5.90769 14.7615 6.27692 15.1007L11.3376 19.7505C11.5222 19.9202 11.7611 20 12 20C12.2389 20 12.4778 19.9202 12.6624 19.7505L17.7231 15.1007C18.0923 14.7615 18.0923 14.2127 17.7231 13.8734C17.3647 13.5341 16.7674 13.5341 16.3982 13.8734Z" fill="black"/>
</svg>
