<svg width="24" height="24" viewBox="0 0 24 24" fill="none" xmlns="http://www.w3.org/2000/svg">
<path d="M21.9854 12.0951C21.9854 11.3928 21.4152 10.8222 20.7135 10.8222C20.0117 10.8222 19.4415 11.3928 19.4415 12.0951V17.6693L6.32749 4.53109H11.9854C12.6871 4.53109 13.2573 3.9605 13.2573 3.25823C13.2573 2.55596 12.6871 2 12 2H3.27193C3.18421 2 3.09649 2.01463 3.02339 2.02926C2.97953 2.02926 2.95029 2.04389 2.90643 2.05852C2.86257 2.07315 2.81871 2.07315 2.78947 2.10241C2.74561 2.11704 2.70175 2.14631 2.65789 2.16094C2.62865 2.17557 2.59942 2.1902 2.57018 2.21946C2.42398 2.30724 2.30702 2.43892 2.2193 2.57059C2.19006 2.59985 2.17544 2.62911 2.16082 2.65838C2.13158 2.70227 2.11696 2.74616 2.10234 2.79005C2.0731 2.81931 2.0731 2.8632 2.05848 2.9071C2.04386 2.95099 2.02924 2.98025 2.02924 3.02414C2.01462 3.09729 2 3.18508 2 3.27286V12.0073C2 12.695 2.57018 13.2655 3.27193 13.2655C3.97368 13.2655 4.54386 12.695 4.54386 11.9927V6.33065L17.6579 19.4543H12C11.2982 19.4543 10.7281 20.0249 10.7281 20.7271C10.7281 21.4294 11.2982 22 12 22H20.7281C20.8158 22 20.8889 21.9854 20.9766 21.9707C21.0205 21.9561 21.0497 21.9561 21.0936 21.9415C21.1374 21.9268 21.1813 21.9122 21.2251 21.8976C21.269 21.883 21.3129 21.8537 21.3421 21.8391C21.3713 21.8244 21.4006 21.8098 21.4298 21.7952C21.576 21.7074 21.693 21.5757 21.7807 21.444C21.7953 21.4148 21.8099 21.3855 21.8392 21.3416C21.8684 21.2977 21.883 21.2685 21.8977 21.2246C21.9123 21.1807 21.9269 21.1368 21.9415 21.0929C21.9561 21.0636 21.9708 21.0198 21.9708 20.9905C21.9854 20.9027 22 20.8296 22 20.7418V12.0951H21.9854Z" fill="black"/>
</svg>
