<svg width="24" height="24" viewBox="0 0 24 24" fill="none" xmlns="http://www.w3.org/2000/svg">
<path d="M9.65825 17.8643L5.69192 13.2597L18.3018 13.2597L14.3355 17.8643C14.1235 18.1104 14.0237 18.429 14.0237 18.7475C14.0237 19.0661 14.1235 19.3846 14.3355 19.6308C14.7596 20.1231 15.4456 20.1231 15.8697 19.6308L21.6819 12.8977C22.106 12.4054 22.106 11.609 21.6819 11.1167L15.8697 4.36923C15.4456 3.87692 14.7596 3.87692 14.3355 4.36923C13.9114 4.86154 13.9114 5.65792 14.3355 6.15023L18.3018 10.7548L5.70439 10.7548L9.65825 6.15023C10.0823 5.65792 10.0823 4.86154 9.65825 4.36923C9.23417 3.87692 8.54817 3.87692 8.1241 4.36923L2.31182 11.1167C2.09978 11.3629 2 11.6814 2 12C2 12.3186 2.09978 12.6371 2.31182 12.8833L8.1241 19.6308C8.54817 20.1231 9.23417 20.1231 9.65825 19.6308C10.0823 19.1529 10.0823 18.3566 9.65825 17.8643Z" fill="black"/>
</svg>
