<svg width="24" height="24" viewBox="0 0 24 24" fill="none" xmlns="http://www.w3.org/2000/svg">
<path d="M20.9334 6H8.50338C7.87645 6 7.35818 6.53337 7.35818 7.18616V14.8126C7.35818 15.4654 7.87645 15.9988 8.50338 15.9988H10.1167V18.395C10.1167 18.6099 10.2421 18.8169 10.4427 18.9204C10.543 18.9682 10.6433 19 10.752 19C10.869 19 10.986 18.9682 11.0863 18.9124L16.0349 16.0067H20.9417C21.577 16.0067 22.0869 15.4734 22.0869 14.8206V7.18616C22.0869 6.53337 21.5687 6 20.9334 6ZM20.808 14.7887H15.851C15.8343 14.7887 15.826 14.7887 15.8092 14.7967C15.7842 14.7967 15.7591 14.7967 15.7424 14.8047C15.7173 14.8047 15.7006 14.8126 15.6839 14.8206C15.6671 14.8285 15.6421 14.8285 15.6253 14.8365C15.6003 14.8445 15.5836 14.8524 15.5585 14.8683C15.5501 14.8763 15.5334 14.8763 15.525 14.8843L11.3956 17.3123V15.3938C11.3956 15.0594 11.1114 14.7887 10.7603 14.7887H8.62877L8.63713 7.21004H20.8247L20.808 14.7887Z" fill="#212121"/>
<path d="M6.01237 7.17026H2.63529C2.28421 7.17026 2 7.44093 2 7.77528C2 8.10963 2.28421 8.3803 2.63529 8.3803H6.01237C6.36346 8.3803 6.64767 8.10963 6.64767 7.77528C6.64767 7.44093 6.36346 7.17026 6.01237 7.17026Z" fill="#212121"/>
<path d="M6.01238 10.2431H3.7805C3.42941 10.2431 3.1452 10.5138 3.1452 10.8482C3.1452 11.1825 3.42941 11.4532 3.7805 11.4532H6.01238C6.36346 11.4532 6.64767 11.1825 6.64767 10.8482C6.64767 10.5138 6.36346 10.2431 6.01238 10.2431Z" fill="#212121"/>
<path d="M6.01237 13.308H4.90061C4.54953 13.308 4.26532 13.5787 4.26532 13.913C4.26532 14.2474 4.54953 14.5181 4.90061 14.5181H6.01237C6.36346 14.5181 6.64767 14.2474 6.64767 13.913C6.64767 13.5787 6.36346 13.308 6.01237 13.308Z" fill="#212121"/>
<path d="M14.7309 11.8831C15.1656 11.8751 15.5167 11.5407 15.5167 11.1188L15.4832 8.7067C15.4749 8.31662 15.1405 7.99022 14.7309 7.99022C14.313 7.98226 13.9619 8.30866 13.9619 8.7067L13.9368 11.1188C13.9368 11.1268 13.9368 11.1347 13.9368 11.1347C13.9368 11.5567 14.2963 11.891 14.7309 11.8831Z" fill="#212121"/>
<path d="M14.7226 13.9847C15.2489 13.9847 15.6755 13.5784 15.6755 13.0771C15.6755 12.5759 15.2489 12.1696 14.7226 12.1696C14.1963 12.1696 13.7696 12.5759 13.7696 13.0771C13.7696 13.5784 14.1963 13.9847 14.7226 13.9847Z" fill="#212121"/>
</svg>
