<svg width="24" height="24" viewBox="0 0 24 24" fill="none" xmlns="http://www.w3.org/2000/svg">
<path d="M12.2674 13.3644C12.292 13.5933 12.4319 13.7967 12.6458 13.9322C12.7774 14.0085 12.9091 14.0509 13.0407 14.0509C13.1312 14.0509 13.2135 14.0339 13.2957 14L14.3323 13.5509C14.6285 13.4238 14.8671 13.2119 15.0234 12.9492L17.3105 9.02546C17.4668 8.75428 17.3681 8.39835 17.0884 8.22038L15.4101 7.18648C15.3031 7.11869 15.1797 7.09326 15.0645 7.09326C14.8753 7.10174 14.7108 7.20343 14.6121 7.35597L12.3332 11.2712C12.1769 11.5424 12.111 11.8644 12.1439 12.2034L12.2674 13.3644ZM15.2209 8.21191L16.2904 8.87292L15.8626 9.60174L14.7931 8.94072L15.2209 8.21191ZM13.1476 11.7797L14.3159 9.7797L15.3854 10.4407L14.2172 12.4492C14.1678 12.5339 14.0855 12.6017 13.9786 12.6526L13.1888 12.9916L13.0983 12.1102C13.0736 11.9746 13.0901 11.8644 13.1476 11.7797Z" fill="#212121"/>
<path d="M20.8646 5H8.48288C7.8494 5 7.33932 5.57627 7.33932 6.27966V14.4915C7.33932 15.1949 7.8494 15.7712 8.48288 15.7712H10.0872V18.3475C10.0872 18.5847 10.2106 18.7966 10.408 18.9153C10.5067 18.9746 10.6137 19 10.7124 19C10.8276 19 10.9428 18.9661 11.0415 18.9068L15.9695 15.7712H20.8563C21.4898 15.7712 21.9999 15.1949 21.9999 14.4915V6.27966C22.0081 5.57627 21.4898 5 20.8646 5ZM20.7412 14.4661H15.8049C15.7885 14.4661 15.7803 14.4661 15.7638 14.4746C15.7391 14.4746 15.7144 14.4746 15.6898 14.4831C15.6733 14.4831 15.6486 14.4915 15.6322 14.5C15.6157 14.5085 15.591 14.5085 15.5746 14.5169C15.5499 14.5254 15.5334 14.5339 15.5088 14.5508C15.4923 14.5593 15.4841 14.5593 15.4676 14.5678L11.3541 17.1864V15.1271C11.3541 14.7712 11.0744 14.4746 10.7206 14.4746H8.59806L8.60629 6.30508H20.7412V14.4661Z" fill="#212121"/>
<path d="M5.99834 6.26273H2.63348C2.27972 6.26273 2 6.55086 2 6.91527C2 7.27967 2.27972 7.56781 2.63348 7.56781H5.99834C6.34387 7.56781 6.63182 7.27967 6.63182 6.91527C6.63182 6.55086 6.34387 6.26273 5.99834 6.26273Z" fill="#212121"/>
<path d="M5.99833 9.57623H3.77704C3.4315 9.57623 3.14355 9.86437 3.14355 10.2288C3.14355 10.5847 3.42327 10.8813 3.77704 10.8813H5.99833C6.34387 10.8813 6.63182 10.5932 6.63182 10.2288C6.63182 9.86437 6.34387 9.57623 5.99833 9.57623Z" fill="#212121"/>
<path d="M5.99834 12.8729H4.88769C4.54216 12.8729 4.25421 13.161 4.25421 13.5254C4.25421 13.8814 4.53393 14.178 4.88769 14.178H5.99834C6.34388 14.178 6.63182 13.8898 6.63182 13.5254C6.63182 13.161 6.34388 12.8729 5.99834 12.8729Z" fill="#212121"/>
</svg>
