<svg width="24" height="24" viewBox="0 0 24 24" fill="none" xmlns="http://www.w3.org/2000/svg">
<path d="M21.024 2H2.9851C1.89238 2 1 2.89703 1 3.99542V16.4256C1 17.524 1.89238 18.4211 2.9851 18.4211H8.50331L11.481 21.7712C11.6084 21.9176 11.7997 22.0092 12 22.0092C12 22.0092 12 22.0092 12.0091 22.0092C12.2094 22.0092 12.3916 21.9268 12.5281 21.7803L15.5969 18.4302H21.0331C22.1258 18.4302 23.0182 17.5332 23.0182 16.4348V3.99542C23 2.89703 22.1167 2 21.024 2ZM21.5977 16.4256C21.5977 16.746 21.3336 17.0114 21.0149 17.0114H15.269C15.2599 17.0114 15.2599 17.0114 15.2508 17.0114C15.2326 17.0114 15.2053 17.0114 15.1871 17.0206C15.1598 17.0206 15.1416 17.0297 15.1142 17.0297C15.096 17.0297 15.0778 17.0389 15.0596 17.0481C15.0323 17.0572 15.005 17.0664 14.9868 17.0755C14.9685 17.0847 14.9503 17.0938 14.9412 17.103C14.9139 17.1121 14.8957 17.1304 14.8775 17.1396C14.8593 17.1487 14.8502 17.167 14.832 17.1762C14.8137 17.1945 14.7955 17.2128 14.7773 17.2311L14.7682 17.2403L12.0182 20.2517L9.35017 17.2494C9.19536 17.0755 8.96772 16.9931 8.74917 17.0206C8.73096 17.0206 8.71275 17.0114 8.69454 17.0114H2.9851C2.66639 17.0114 2.40232 16.746 2.40232 16.4256V3.99542C2.40232 3.67506 2.66639 3.40961 2.9851 3.40961H21.024C21.3427 3.40961 21.6068 3.67506 21.6068 3.99542V16.4256H21.5977Z" fill="black"/>
<path d="M18.9205 6.75057H5.07949C4.68793 6.75057 4.37833 7.06178 4.37833 7.45538C4.37833 7.84897 4.68793 8.16018 5.07949 8.16018H18.9205C19.3121 8.16018 19.6217 7.84897 19.6217 7.45538C19.6217 7.06178 19.3121 6.75057 18.9205 6.75057Z" fill="black"/>
<path d="M18.9205 9.50572H5.07949C4.68793 9.50572 4.37833 9.81693 4.37833 10.2105C4.37833 10.6041 4.68793 10.9153 5.07949 10.9153H18.9205C19.3121 10.9153 19.6217 10.6041 19.6217 10.2105C19.6217 9.81693 19.3121 9.50572 18.9205 9.50572Z" fill="black"/>
<path d="M12.0911 12.2792H5.07949C4.68793 12.2792 4.37833 12.5904 4.37833 12.984C4.37833 13.3776 4.68793 13.6888 5.07949 13.6888H12.0911C12.4826 13.6888 12.7922 13.3776 12.7922 12.984C12.7922 12.5904 12.4826 12.2792 12.0911 12.2792Z" fill="black"/>
</svg>
