<svg width="24" height="24" viewBox="0 0 24 24" fill="none" xmlns="http://www.w3.org/2000/svg">
<path d="M20.1902 2.92529H3.81972C2.82807 2.92529 2.01822 3.73935 2.01822 4.73616V16.0167C2.01822 17.0135 2.82807 17.8276 3.81972 17.8276H8.82756L11.5298 20.8679C11.6455 21.0008 11.819 21.0838 12.0008 21.0838C12.0008 21.0838 12.0008 21.0838 12.0091 21.0838C12.1909 21.0838 12.3562 21.0091 12.4801 20.8762L15.265 17.8359H20.1985C21.1902 17.8359 22 17.0218 22 16.025V4.73616C21.9835 3.73935 21.1819 2.92529 20.1902 2.92529ZM20.7109 16.0167C20.7109 16.3075 20.4712 16.5484 20.182 16.5484H14.9675C14.9593 16.5484 14.9593 16.5484 14.951 16.5484C14.9345 16.5484 14.9097 16.5484 14.8932 16.5567C14.8684 16.5567 14.8518 16.565 14.8271 16.565C14.8105 16.565 14.794 16.5733 14.7775 16.5816C14.7527 16.5899 14.7279 16.5982 14.7114 16.6065C14.6948 16.6148 14.6783 16.6231 14.67 16.6314C14.6453 16.6397 14.6287 16.6563 14.6122 16.6646C14.5957 16.673 14.5874 16.6896 14.5709 16.6979C14.5544 16.7145 14.5378 16.7311 14.5213 16.7477L14.513 16.756L12.0174 19.4889L9.59609 16.7643C9.45561 16.6065 9.24901 16.5317 9.05068 16.5567C9.03416 16.5567 9.01763 16.5484 9.0011 16.5484H3.81972C3.53049 16.5484 3.29084 16.3075 3.29084 16.0167V4.73616C3.29084 4.44543 3.53049 4.20453 3.81972 4.20453H20.1902C20.4795 4.20453 20.7191 4.44543 20.7191 4.73616V16.0167H20.7109Z" fill="black"/>
<path d="M18.2813 7.23651H5.72039C5.36504 7.23651 5.08408 7.51894 5.08408 7.87613C5.08408 8.23332 5.36504 8.51575 5.72039 8.51575H18.2813C18.6367 8.51575 18.9176 8.23332 18.9176 7.87613C18.9176 7.51894 18.6367 7.23651 18.2813 7.23651Z" fill="black"/>
<path d="M18.2813 9.73682H5.72039C5.36504 9.73682 5.08408 10.0192 5.08408 10.3764C5.08408 10.7336 5.36504 11.0161 5.72039 11.0161H18.2813C18.6367 11.0161 18.9176 10.7336 18.9176 10.3764C18.9176 10.0192 18.6367 9.73682 18.2813 9.73682Z" fill="black"/>
<path d="M12.0835 12.2538H5.72039C5.36504 12.2538 5.08408 12.5362 5.08408 12.8934C5.08408 13.2506 5.36504 13.533 5.72039 13.533H12.0835C12.4388 13.533 12.7198 13.2506 12.7198 12.8934C12.7198 12.5362 12.4388 12.2538 12.0835 12.2538Z" fill="black"/>
</svg>
