<svg width="24" height="24" viewBox="0 0 24 24" fill="none" xmlns="http://www.w3.org/2000/svg">
<path d="M20.8618 5H8.48245C7.8474 5 7.33606 5.55257 7.33606 6.23711V14.2123C7.33606 14.8969 7.8474 15.4494 8.48245 15.4494H10.0907V17.9566C10.0907 18.1876 10.2144 18.3937 10.4123 18.5092C10.5113 18.5669 10.6103 18.5917 10.7175 18.5917C10.8329 18.5917 10.9484 18.5587 11.0474 18.501L15.9711 15.4577H20.8535C21.4803 15.4577 21.9999 14.9051 21.9999 14.2206V6.23711C22.0082 5.55257 21.4968 5 20.8618 5ZM20.7381 14.1958H15.7979C15.7814 14.1958 15.7731 14.1958 15.7566 14.1958C15.7319 14.1958 15.7072 14.1958 15.6824 14.2041C15.6659 14.2041 15.6412 14.2123 15.6247 14.2206C15.5999 14.2288 15.5834 14.2288 15.5669 14.2371C15.5422 14.2453 15.5257 14.2536 15.5092 14.2701C15.4927 14.2783 15.4845 14.2783 15.468 14.2866L11.3525 16.8267V14.8226C11.3525 14.4762 11.0721 14.1876 10.7175 14.1876H8.59791L8.60616 6.2536H20.7463L20.7381 14.1958Z" fill="#212121"/>
<path d="M5.99998 6.22885H2.63505C2.28041 6.22885 2 6.50926 2 6.85565C2 7.20204 2.28041 7.4907 2.63505 7.4907H5.99998C6.34637 7.4907 6.63503 7.21029 6.63503 6.85565C6.63503 6.50101 6.34637 6.22885 5.99998 6.22885Z" fill="#212121"/>
<path d="M5.99996 9.44537H3.77317C3.42678 9.44537 3.13812 9.72578 3.13812 10.0804C3.13812 10.4351 3.41853 10.7155 3.77317 10.7155H5.99172C6.33811 10.7155 6.62677 10.4351 6.62677 10.0804C6.62677 9.72578 6.34635 9.44537 5.99996 9.44537Z" fill="#212121"/>
<path d="M6 12.6453H4.8866C4.54021 12.6453 4.25156 12.9257 4.25156 13.2804C4.25156 13.6268 4.53197 13.9154 4.8866 13.9154H6C6.34639 13.9154 6.63505 13.635 6.63505 13.2804C6.6268 12.9257 6.34639 12.6453 6 12.6453Z" fill="#212121"/>
<path d="M14.6762 13.635C18.2721 13.635 19.7731 10.5587 19.8391 10.4268L19.9545 10.1794L19.8308 9.94018C19.7649 9.81647 18.1979 6.81442 14.7504 6.81442C11.3195 6.81442 9.60408 9.79173 9.52985 9.91544L9.38965 10.1629L9.51336 10.4185C9.57109 10.5587 11.0721 13.635 14.6762 13.635ZM14.7504 7.91957C17.0185 7.91957 18.2886 9.5608 18.7009 10.1958C18.3051 10.8391 17.0432 12.5299 14.6762 12.5299C12.3092 12.5299 11.0556 10.8639 10.6597 10.2123C11.1051 9.56905 12.4742 7.91957 14.7504 7.91957Z" fill="#212121"/>
<path d="M14.6762 11.9113C15.6247 11.9113 16.3999 11.1361 16.3999 10.1876C16.3999 9.23918 15.6247 8.46393 14.6762 8.46393C13.7278 8.46393 12.9525 9.23918 12.9525 10.1876C12.9525 11.1361 13.7195 11.9113 14.6762 11.9113ZM14.6762 9.57733C15.0144 9.57733 15.2948 9.85774 15.2948 10.1959C15.2948 10.534 15.0144 10.8144 14.6762 10.8144C14.3381 10.8144 14.0577 10.534 14.0577 10.1959C14.0577 9.84949 14.3298 9.57733 14.6762 9.57733Z" fill="#212121"/>
</svg>
