<svg width="24" height="24" viewBox="0 0 24 24" fill="none" xmlns="http://www.w3.org/2000/svg">
<path d="M12.0041 14.9588C13.9086 14.9588 15.458 13.3608 15.458 11.3966V5.56221C15.458 3.598 13.9086 2 12.0041 2C10.0996 2 8.55017 3.598 8.55017 5.56221V11.3966C8.55017 13.3608 10.0996 14.9588 12.0041 14.9588ZM9.79294 5.56221C9.79294 4.30545 10.7855 3.28173 12.0041 3.28173C13.2227 3.28173 14.2153 4.30545 14.2153 5.56221V11.3966C14.2153 12.6534 13.2227 13.6771 12.0041 13.6771C10.7855 13.6771 9.79294 12.6534 9.79294 11.3966V5.56221Z" fill="black"/>
<path d="M18 11.3217V9.2576C18 8.90803 17.7256 8.61673 17.3786 8.61673C17.0397 8.61673 16.7572 8.89971 16.7572 9.2576V11.3217C16.7572 13.9018 14.6429 15.9992 12.0363 15.9992C9.42972 15.9992 7.3154 13.9018 7.3154 11.3217V9.2576C7.3154 8.90803 7.04102 8.61673 6.69401 8.61673C6.34701 8.61673 6.0807 8.90803 6.0807 9.2576V11.3217C6.0807 14.3845 8.40484 16.9147 11.3826 17.2476C11.3826 17.2643 11.3826 17.2726 11.3826 17.2892V20.7183H6.62139C6.27438 20.7183 6 21.0096 6 21.3591C6 21.7087 6.27438 22 6.62139 22H17.3786C17.7176 22 18 21.717 18 21.3591C18 21.0096 17.7256 20.7183 17.3786 20.7183H12.6174V17.2892C12.6174 17.2809 12.6174 17.2726 12.6174 17.2643C15.6355 16.9646 18 14.4178 18 11.3217Z" fill="black"/>
</svg>
