<svg width="24" height="24" viewBox="0 0 24 24" fill="none" xmlns="http://www.w3.org/2000/svg">
<path d="M20.9649 9.90309C20.6049 5.49206 16.7239 2 12 2C7.2761 2 3.38634 5.49206 3.02634 9.90309H3V13.2281C3 18.0652 7.03902 22 12 22C16.961 22 21 18.0652 21 13.2281V9.90309H20.9649ZM12 3.26984C16.2234 3.26984 19.6566 6.53634 19.6566 10.5547C19.6566 14.5731 16.2234 17.8396 12 17.8396C7.77659 17.8396 4.34341 14.5731 4.34341 10.5547C4.33463 6.54469 7.77659 3.26984 12 3.26984ZM17.0312 18.8755C16.5571 19.2765 16.039 19.6274 15.4683 19.9114V18.4578C16.0215 18.2406 16.5395 17.9649 17.0312 17.6558V18.8755ZM6.94244 17.6391C7.43415 17.9566 7.9522 18.2239 8.50537 18.4495V19.9031C7.94341 19.619 7.41658 19.2682 6.94244 18.8588V17.6391ZM9.50634 18.7836C10.1122 18.9507 10.7444 19.0593 11.4029 19.1011V20.7051C10.7444 20.655 10.1122 20.5213 9.50634 20.3208V18.7836ZM12.4039 19.1094C13.1151 19.076 13.8088 18.9674 14.4673 18.7836V20.3208C13.8176 20.538 13.1239 20.68 12.4039 20.7134V19.1094ZM4.72976 15.6007C5.08976 16.0685 5.49366 16.4946 5.94146 16.8872V17.8145C5.41463 17.1546 5.01073 16.411 4.72976 15.6007ZM18.0322 17.8312V16.8956C18.4888 16.5029 18.9015 16.0685 19.2615 15.5923C18.9805 16.4194 18.5678 17.1713 18.0322 17.8312Z" fill="#212121"/>
<path d="M12.0176 12.6015C11.719 12.6015 11.4907 12.518 11.3327 12.3509C11.1746 12.1838 11.0868 11.9499 11.0868 11.6408H10.1561C10.1561 12.1253 10.2878 12.5096 10.56 12.802C10.8322 13.0944 11.2185 13.2699 11.7278 13.32V14.0301H12.3337V13.32C12.8078 13.2699 13.1766 13.1195 13.44 12.8689C13.7034 12.6099 13.8351 12.2841 13.8351 11.8747C13.8351 11.6575 13.8 11.4654 13.7298 11.3066C13.6595 11.1479 13.5629 10.9975 13.4312 10.8722C13.2995 10.7469 13.1502 10.6383 12.9571 10.538C12.7727 10.4378 12.518 10.3375 12.1844 10.2206C11.8683 10.0953 11.64 9.97831 11.5083 9.84464C11.3678 9.71933 11.2976 9.55224 11.2976 9.33503C11.2976 9.10111 11.3678 8.91732 11.5083 8.79201C11.6488 8.66669 11.8332 8.59986 12.079 8.59986C12.3249 8.59986 12.518 8.69176 12.6673 8.86719C12.8078 9.04263 12.8868 9.28491 12.8868 9.59401H13.8088C13.8088 9.11782 13.6859 8.73353 13.4488 8.43277C13.2029 8.13202 12.8605 7.95658 12.4215 7.8981V7.0961H11.8068V7.88975C11.3678 7.93988 11.0166 8.09025 10.762 8.34923C10.4985 8.60821 10.3668 8.94238 10.3668 9.34338C10.3668 9.93653 10.6654 10.3877 11.2624 10.6884C11.438 10.7803 11.6927 10.8806 12.0088 10.9892C12.3337 11.0978 12.562 11.2147 12.6937 11.3568C12.8341 11.4904 12.9044 11.6659 12.9044 11.8664C12.9044 12.0836 12.8254 12.2674 12.6761 12.401C12.5268 12.5347 12.3073 12.6015 12.0176 12.6015Z" fill="#212121"/>
<path d="M12 16.7953C15.6176 16.7953 18.559 13.9967 18.559 10.5547C18.559 7.11278 15.6176 4.31412 12 4.31412C8.38244 4.31412 5.44098 7.11278 5.44098 10.5547C5.44098 13.9967 8.38244 16.7953 12 16.7953ZM12 5.59231C14.88 5.59231 17.2244 7.82289 17.2244 10.5631C17.2244 13.3033 14.88 15.5338 12 15.5338C9.12 15.5338 6.77561 13.2949 6.77561 10.5631C6.77561 7.83124 9.12 5.59231 12 5.59231Z" fill="#212121"/>
</svg>
