<svg width="24" height="24" viewBox="0 0 24 24" fill="none" xmlns="http://www.w3.org/2000/svg">
<path d="M21.122 5.64471H2.87784C2.39751 5.64471 2 6.04223 2 6.52256V17.6612C2 18.1498 2.39751 18.539 2.87784 18.539H21.122C21.6106 18.539 21.9999 18.1415 21.9999 17.6612V6.52256C22.0082 6.04223 21.6106 5.64471 21.122 5.64471ZM17.0227 17.272H6.93579C6.82813 15.3092 5.24636 13.7358 3.27535 13.6447V10.7627C5.31261 10.6716 6.94407 8.99045 6.94407 6.92835V6.92007H17.0144V6.92835C17.0144 9.00701 18.6707 10.6964 20.7328 10.7627V13.6364C18.737 13.7109 17.1303 15.2927 17.0227 17.272ZM20.7328 9.48734C19.3746 9.42109 18.2898 8.2948 18.2898 6.92835V6.92007H20.7328V9.48734ZM5.66871 6.92007C5.66871 6.92007 5.66871 6.92835 5.66871 6.92007C5.66871 8.28652 4.60868 9.39624 3.27535 9.48734V6.92007H5.66871V6.92007ZM3.27535 14.92C4.54243 15.0028 5.55277 16.0132 5.66043 17.272H3.27535V14.92ZM18.298 17.272C18.4057 15.9966 19.4409 14.9863 20.7245 14.92V17.272H18.298Z" fill="#212121"/>
<path d="M12.0041 8.95734C10.2732 8.95734 8.86537 10.3652 8.86537 12.096C8.86537 13.8269 10.2732 15.2347 12.0041 15.2347C13.7349 15.2347 15.1428 13.8269 15.1428 12.096C15.1428 10.3652 13.7349 8.95734 12.0041 8.95734ZM12.0041 13.9594C10.9772 13.9594 10.1407 13.1229 10.1407 12.096C10.1407 11.0691 10.9772 10.2327 12.0041 10.2327C13.031 10.2327 13.8674 11.0691 13.8674 12.096C13.8674 13.1229 13.031 13.9594 12.0041 13.9594Z" fill="#212121"/>
</svg>
