<svg width="24" height="24" viewBox="0 0 24 24" fill="none" xmlns="http://www.w3.org/2000/svg">
<path d="M20.1787 18.3644H20.2791C21.224 18.3644 21.9933 17.6025 21.9933 16.6667C21.9933 15.913 21.4916 15.2671 20.8059 15.0518C20.6554 14.0166 19.7606 13.2215 18.6735 13.2215C18.1132 13.2215 17.6031 13.4369 17.2185 13.793L12.6192 6.64596V5.69358H16.3572C16.7167 5.69358 17.0011 5.40373 17.0011 5.0559V2.63768C17.0011 2.28157 16.7084 2 16.3572 2H11.967C11.6074 2 11.3231 2.28986 11.3231 2.63768V5.0559V6.63768L7.49319 12.617C7.12525 11.971 6.42282 11.5321 5.62005 11.5321C4.55804 11.5321 3.68001 12.294 3.5044 13.2961C2.65981 13.3872 2.00756 14.1077 2.00756 14.9689C2.00756 15.9048 2.77689 16.6667 3.72182 16.6667H4.89253L2.09954 21.0228C1.97411 21.2215 1.96575 21.47 2.08282 21.6687C2.19989 21.8758 2.40895 22 2.65145 22H21.3494C21.5836 22 21.801 21.8758 21.9181 21.6687C22.0351 21.4617 22.0268 21.2132 21.893 21.0145L20.1787 18.3644ZM18.6735 14.4886C19.1502 14.4886 19.5348 14.8696 19.5348 15.3416C19.5348 15.383 19.5265 15.4327 19.5181 15.499C19.4846 15.6977 19.5432 15.9048 19.6853 16.0538C19.8275 16.2029 20.0282 16.2774 20.2289 16.2526L20.2791 16.2443C20.5132 16.2443 20.7055 16.4348 20.7055 16.6667C20.7055 16.8986 20.5132 17.089 20.2791 17.089H16.7753C16.5411 17.089 16.3488 16.8986 16.3488 16.6667C16.3488 16.4348 16.5411 16.2443 16.7753 16.2443C16.8338 16.2443 16.8923 16.2609 16.9509 16.2857C17.1767 16.3851 17.4443 16.352 17.6282 16.1946C17.8206 16.0373 17.9042 15.7888 17.8456 15.5487C17.8289 15.4658 17.8122 15.3996 17.8122 15.3416C17.8122 14.8696 18.2052 14.4886 18.6735 14.4886ZM11.9753 8.01242L13.5893 10.5135L13.2799 10.8696L12.4436 10.0166C12.3182 9.89234 12.151 9.82609 11.9753 9.82609C11.7997 9.82609 11.6325 9.90062 11.5071 10.0331L10.7712 10.8282L10.4451 10.4224L11.9753 8.01242ZM15.7133 4.41822H12.6192V3.27536H15.7133V4.41822ZM3.29534 14.9689C3.29534 14.7371 3.48768 14.5466 3.72182 14.5466C3.78035 14.5466 3.83889 14.5631 3.89743 14.588C4.12321 14.6874 4.3908 14.6542 4.57477 14.4969C4.7671 14.3395 4.85072 14.0911 4.79219 13.8509C4.77546 13.7681 4.75874 13.7019 4.75874 13.6439C4.75874 13.1718 5.1434 12.7909 5.62005 12.7909C6.09669 12.7909 6.48136 13.1718 6.48136 13.6439C6.48136 13.6853 6.473 13.735 6.46463 13.8012C6.43118 14 6.48972 14.207 6.63188 14.3561C6.77404 14.5052 6.97473 14.5797 7.17542 14.5549L7.2256 14.5466C7.45974 14.5466 7.65207 14.7371 7.65207 14.9689C7.65207 15.2008 7.45974 15.3913 7.2256 15.3913H3.72182C3.48768 15.3996 3.29534 15.2091 3.29534 14.9689ZM3.82217 20.7329L6.42282 16.6749H7.2256C8.17053 16.6749 8.93986 15.913 8.93986 14.9772C8.93986 14.4638 8.70571 14 8.33778 13.6853L9.70082 11.5652L10.2193 12.2112C10.3363 12.3602 10.512 12.4431 10.7043 12.4513C10.7127 12.4513 10.721 12.4513 10.7294 12.4513C10.9133 12.4513 11.0806 12.3768 11.206 12.2443L11.9921 11.3913L12.845 12.2526C12.9705 12.3768 13.1377 12.4513 13.3217 12.4431C13.4973 12.4348 13.6729 12.3602 13.79 12.2277L14.3168 11.6315L16.4742 14.9855C15.6715 15.1263 15.0527 15.8219 15.0527 16.6584C15.0527 17.5942 15.822 18.3561 16.7669 18.3561H18.6401L20.1703 20.7246H3.82217V20.7329Z" fill="black"/>
</svg>
