<svg width="24" height="24" viewBox="0 0 24 24" fill="none" xmlns="http://www.w3.org/2000/svg">
<path d="M21.0108 18.9859H21.1213C22.1615 18.9859 23.0083 18.1485 23.0083 17.12C23.0083 16.2917 22.456 15.5817 21.7012 15.3451C21.5355 14.2073 20.5506 13.3335 19.3539 13.3335C18.7372 13.3335 18.1757 13.5701 17.7523 13.9615L12.6895 6.10633V5.05958H16.8041C17.2 5.05958 17.5129 4.741 17.5129 4.35871V1.70087C17.5129 1.30947 17.1907 1 16.8041 1H11.9715C11.5757 1 11.2627 1.31858 11.2627 1.70087V4.35871V6.09723L7.04682 12.669C6.6418 11.959 5.86857 11.4766 4.98489 11.4766C3.81585 11.4766 2.84933 12.314 2.65602 13.4154C1.72631 13.5155 1.00832 14.3074 1.00832 15.254C1.00832 16.2826 1.85518 17.12 2.89535 17.12H4.18405L1.10958 21.9077C0.971502 22.1262 0.962297 22.3993 1.09117 22.6177C1.22004 22.8453 1.45016 22.9818 1.71711 22.9818H22.2995C22.5573 22.9818 22.7966 22.8453 22.9255 22.6177C23.0543 22.3902 23.0451 22.1171 22.8979 21.8986L21.0108 18.9859ZM19.3539 14.7261C19.8786 14.7261 20.302 15.1448 20.302 15.6636C20.302 15.7091 20.2928 15.7638 20.2836 15.8366C20.2468 16.055 20.3113 16.2826 20.4677 16.4464C20.6242 16.6103 20.8451 16.6922 21.0661 16.6649L21.1213 16.6558C21.379 16.6558 21.5908 16.8651 21.5908 17.12C21.5908 17.3748 21.379 17.5842 21.1213 17.5842H17.2644C17.0066 17.5842 16.7949 17.3748 16.7949 17.12C16.7949 16.8651 17.0066 16.6558 17.2644 16.6558C17.3288 16.6558 17.3933 16.674 17.4577 16.7013C17.7062 16.8105 18.0008 16.7741 18.2033 16.6012C18.415 16.4282 18.5071 16.1552 18.4426 15.8912C18.4242 15.8002 18.4058 15.7273 18.4058 15.6636C18.4058 15.1448 18.8384 14.7261 19.3539 14.7261ZM11.9807 7.60819L13.7573 10.3571L13.4167 10.7484L12.4962 9.81092C12.3581 9.67439 12.174 9.60157 11.9807 9.60157C11.7874 9.60157 11.6033 9.68349 11.4652 9.82913L10.6552 10.7029L10.2962 10.2569L11.9807 7.60819ZM16.0954 3.65784H12.6895V2.40174H16.0954V3.65784ZM2.4259 15.254C2.4259 14.9992 2.63761 14.7898 2.89535 14.7898C2.95979 14.7898 3.02422 14.808 3.08866 14.8353C3.33719 14.9446 3.63175 14.9082 3.83426 14.7352C4.04598 14.5623 4.13803 14.2892 4.07359 14.0252C4.05518 13.9342 4.03677 13.8614 4.03677 13.7977C4.03677 13.2789 4.46021 12.8602 4.98489 12.8602C5.50958 12.8602 5.93301 13.2789 5.93301 13.7977C5.93301 13.8432 5.9238 13.8978 5.9146 13.9706C5.87778 14.1891 5.94221 14.4166 6.0987 14.5805C6.25518 14.7443 6.4761 14.8262 6.69703 14.7989L6.75226 14.7898C7.01 14.7898 7.22171 14.9992 7.22171 15.254C7.22171 15.5089 7.01 15.7182 6.75226 15.7182H2.89535C2.63761 15.7273 2.4259 15.518 2.4259 15.254ZM3.00581 21.5892L5.86857 17.1291H6.75226C7.79242 17.1291 8.63928 16.2917 8.63928 15.2631C8.63928 14.6988 8.38154 14.1891 7.97652 13.8432L9.47694 11.513L10.0477 12.223C10.1765 12.3868 10.3698 12.4779 10.5815 12.487C10.5907 12.487 10.6 12.487 10.6092 12.487C10.8117 12.487 10.9958 12.405 11.1338 12.2594L11.9991 11.3219L12.938 12.2685C13.0761 12.405 13.2602 12.487 13.4627 12.4779C13.656 12.4688 13.8493 12.3868 13.9782 12.2412L14.5581 11.5859L16.933 15.2722C16.0493 15.427 15.3682 16.1916 15.3682 17.1109C15.3682 18.1394 16.215 18.9768 17.2552 18.9768H19.3171L21.0016 21.5801H3.00581V21.5892Z" fill="black"/>
</svg>
