<svg width="24" height="24" viewBox="0 0 24 24" fill="none" xmlns="http://www.w3.org/2000/svg">
<path d="M21.8053 11.4767L18.9986 8.66876C18.7404 8.41047 18.324 8.41047 18.0658 8.66876C17.8076 8.92705 17.8076 9.34365 18.0658 9.60195L19.7981 11.335H13.102H12.6606V10.8934V4.26945L14.4012 5.94419C14.5262 6.06917 14.6927 6.12749 14.8593 6.12749C15.0342 6.12749 15.2091 6.06083 15.334 5.92752C15.5839 5.6609 15.5756 5.2443 15.3174 4.99433L12.3941 2.18644C12.1359 1.93648 11.7195 1.93648 11.4696 2.19477L8.67121 4.99433C8.41302 5.25263 8.41302 5.66923 8.67121 5.92752C8.92939 6.18581 9.34582 6.18581 9.604 5.92752L11.3363 4.19446V10.8934V11.335H10.8949H4.27374L5.94778 9.59361C6.19763 9.33532 6.1893 8.91039 5.92279 8.66043C5.66461 8.40213 5.23985 8.41047 4.99 8.67709L2.18328 11.6016C1.93342 11.8599 1.94175 12.2765 2.19161 12.5265L4.99832 15.3344C5.13158 15.4677 5.29815 15.526 5.46472 15.526C5.63129 15.526 5.80619 15.4594 5.93112 15.3344C6.1893 15.0761 6.1893 14.6595 5.93112 14.4012L4.19879 12.6598H10.8949H11.3363V13.1014V19.7254L9.59568 18.0506C9.33749 17.809 8.91274 17.8173 8.66288 18.0756C8.41302 18.3422 8.42135 18.7588 8.67954 19.0088L11.6029 21.8167C11.7278 21.9417 11.8944 22 12.0609 22C12.2275 22 12.4024 21.9333 12.5273 21.8084L15.334 19.0005C15.5922 18.7422 15.5922 18.3256 15.334 18.0673C15.0759 17.809 14.6594 17.809 14.4012 18.0673L12.6689 19.8003V13.1014V12.6598H13.1103H19.7315L18.0575 14.4012C17.8076 14.6678 17.8159 15.0844 18.0741 15.3344C18.1991 15.4594 18.3656 15.5177 18.5322 15.5177C18.7071 15.5177 18.882 15.451 19.0069 15.3177L21.8136 12.3932C22.0635 12.1432 22.0635 11.7266 21.8053 11.4767Z" fill="#212121"/>
</svg>
