<svg width="24" height="24" viewBox="0 0 24 24" fill="none" xmlns="http://www.w3.org/2000/svg">
<path d="M19.1587 16.5222C18.9105 16.5222 18.6624 16.5552 18.4313 16.6128L15.5301 13.7381C15.9409 13.112 16.1805 12.3707 16.1805 11.5799C16.1805 10.8633 15.9837 10.1796 15.6414 9.59473L18.0119 7.23888C18.3628 7.38715 18.7479 7.46952 19.1587 7.46952C20.7248 7.46952 22 6.24217 22 4.73476C22 3.22735 20.7334 2 19.1587 2C17.5926 2 16.3175 3.22735 16.3175 4.73476C16.3175 5.31137 16.5057 5.84679 16.8224 6.28336L14.6487 8.44152C13.9127 7.85667 12.9799 7.50247 11.9529 7.50247C11.0286 7.50247 10.1729 7.79077 9.4711 8.28501L7.29738 6.12685C7.54556 5.72323 7.69104 5.24547 7.69104 4.743C7.69104 3.22735 6.41591 2 4.84124 2C3.26658 2 2 3.22735 2 4.73476C2 6.24217 3.27514 7.46952 4.84124 7.46952C5.32049 7.46952 5.77406 7.3542 6.17629 7.14827L8.40991 9.36409C7.98202 9.99835 7.72528 10.7644 7.72528 11.5799C7.72528 12.4695 8.02481 13.285 8.52972 13.9605L5.79118 16.6787C5.50021 16.5799 5.18356 16.5222 4.8498 16.5222C3.27514 16.5222 2 17.7496 2 19.257C2 20.7644 3.27514 21.9918 4.84124 21.9918C6.40735 21.9918 7.68249 20.7644 7.68249 19.257C7.68249 18.6145 7.45142 18.0214 7.05775 17.5519L9.64226 14.9901C10.3098 15.4102 11.0971 15.6573 11.9529 15.6573C12.9028 15.6573 13.7758 15.3526 14.4861 14.8418L17.0706 17.4119C16.5999 17.8979 16.3175 18.5486 16.3175 19.2652C16.3175 20.7727 17.5926 22 19.1587 22C20.7248 22 22 20.7727 22 19.2652C22.0085 17.7496 20.7334 16.5222 19.1587 16.5222ZM19.1587 3.49094C19.869 3.49094 20.451 4.05107 20.451 4.73476C20.451 5.41845 19.869 5.97858 19.1587 5.97858C18.4484 5.97858 17.8665 5.41845 17.8665 4.73476C17.8665 4.05107 18.4484 3.49094 19.1587 3.49094ZM3.54899 4.73476C3.54899 4.05107 4.13093 3.49094 4.84124 3.49094C5.55155 3.49094 6.1335 4.05107 6.1335 4.73476C6.1335 5.41845 5.55155 5.97858 4.84124 5.97858C4.13093 5.98682 3.54899 5.42669 3.54899 4.73476ZM4.84124 20.5091C4.13093 20.5091 3.54899 19.9489 3.54899 19.2652C3.54899 18.5815 4.13093 18.0214 4.84124 18.0214C5.55155 18.0214 6.1335 18.5815 6.1335 19.2652C6.1335 19.9489 5.56011 20.5091 4.84124 20.5091ZM11.9529 14.1664C10.4724 14.1664 9.27427 13.0049 9.27427 11.5881C9.27427 10.1713 10.4724 9.00165 11.9529 9.00165C13.4334 9.00165 14.6316 10.1631 14.6316 11.5799C14.6316 12.9967 13.4334 14.1664 11.9529 14.1664ZM19.1587 20.5091C18.4484 20.5091 17.8665 19.9489 17.8665 19.2652C17.8665 18.5815 18.4484 18.0214 19.1587 18.0214C19.869 18.0214 20.451 18.5815 20.451 19.2652C20.451 19.9489 19.8776 20.5091 19.1587 20.5091Z" fill="#212121"/>
</svg>
