<svg width="24" height="24" viewBox="0 0 24 24" fill="none" xmlns="http://www.w3.org/2000/svg">
<path d="M23 11.6145C23 11.0005 22.5443 10.4754 21.9155 10.2707C21.3413 6.18595 17.1856 3 12.1458 3C7.13339 3 2.98674 6.15035 2.38525 10.1995C1.60149 10.3241 1 10.9115 1 11.6145V14.5424C1 15.3344 1.74731 15.9841 2.66777 15.9841H4.69097C5.35626 19.4014 8.43662 21.9911 12.1276 21.9911C14.8799 21.9911 17.2858 20.5494 18.6164 18.4047H22.599V15.459C22.8451 15.2098 22.9909 14.8895 22.9909 14.5424V11.6145H23ZM19.0174 11.5344H21.3231C21.4963 11.5344 21.5965 11.6145 21.6056 11.6145V14.5246C21.5874 14.5513 21.4963 14.6314 21.3231 14.6314H19.7009C19.7009 14.6225 19.7009 14.6136 19.7009 14.6047C19.71 13.5101 19.464 12.4689 19.0174 11.5344ZM12.1458 4.36159C16.3654 4.36159 19.8741 6.88899 20.4938 10.1817H18.1972C16.8119 8.38407 14.6156 7.21827 12.1367 7.21827C9.65783 7.21827 7.45236 8.37518 6.07622 10.1728H3.79785C4.41756 6.88899 7.92626 4.36159 12.1458 4.36159ZM2.66777 14.6314C2.49461 14.6314 2.39437 14.5513 2.38525 14.5513V11.6412C2.40348 11.6145 2.49461 11.5344 2.66777 11.5344H5.24689C4.80944 12.4689 4.56338 13.5101 4.56338 14.6047C4.56338 14.6136 4.56338 14.6225 4.56338 14.6314H2.66777V14.6314ZM12.1367 20.6384C8.72825 20.6384 5.95775 17.933 5.95775 14.6047C5.95775 11.2763 8.72825 8.57096 12.1367 8.57096C15.5452 8.57096 18.3157 11.2763 18.3157 14.6047C18.3157 15.4768 18.1243 16.3044 17.778 17.052H14.8161C14.7978 16.5091 14.3513 16.0731 13.7862 16.0731H10.6694C10.1044 16.0731 9.6396 16.5269 9.6396 17.0787V18.556C9.6396 19.1077 10.1044 19.5616 10.6694 19.5616H13.7862C14.3513 19.5616 14.8161 19.1077 14.8161 18.556V18.4047H16.9213C15.7912 19.7663 14.0688 20.6384 12.1367 20.6384ZM13.7862 18.5471H10.6785L10.6694 17.0876L13.6495 17.0787V18.4136H13.7954L13.7862 18.5471ZM19.2817 17.052C19.4093 16.7049 19.5004 16.3489 19.5733 15.9841H21.2138V17.052H19.2817Z" fill="black"/>
</svg>
