<svg width="24" height="24" viewBox="0 0 24 24" fill="none" xmlns="http://www.w3.org/2000/svg">
<path d="M22 11.7113C22 11.1617 21.5858 10.6917 21.0141 10.5084C20.4921 6.85192 16.7142 4 12.1326 4C7.57581 4 3.80613 6.82006 3.25932 10.4447C2.54681 10.5562 2 11.082 2 11.7113V14.3322C2 15.0412 2.67937 15.6228 3.51616 15.6228H5.35543C5.96023 18.6818 8.76056 21 12.116 21C14.6181 21 16.8053 19.7095 18.0149 17.7896H21.6355V15.1528C21.8592 14.9297 21.9917 14.6429 21.9917 14.3322V11.7113H22ZM18.3795 11.6396H20.4756C20.633 11.6396 20.7241 11.7113 20.7324 11.7113V14.3163C20.7158 14.3402 20.633 14.4119 20.4756 14.4119H19.0008C19.0008 14.4039 19.0008 14.396 19.0008 14.388C19.0091 13.4082 18.7854 12.4761 18.3795 11.6396ZM12.1326 5.21884C15.9685 5.21884 19.1582 7.48126 19.7216 10.4288H17.6338C16.3745 8.81959 14.3778 7.77601 12.1243 7.77601C9.87075 7.77601 7.86578 8.81162 6.61475 10.4208H4.5435C5.10688 7.48126 8.2966 5.21884 12.1326 5.21884ZM3.51616 14.4119C3.35874 14.4119 3.26761 14.3402 3.25932 14.3402V11.7352C3.27589 11.7113 3.35874 11.6396 3.51616 11.6396H5.86081C5.46313 12.4761 5.23944 13.4082 5.23944 14.388C5.23944 14.396 5.23944 14.4039 5.23944 14.4119H3.51616V14.4119ZM12.1243 19.7891C9.02568 19.7891 6.50704 17.3674 6.50704 14.388C6.50704 11.4086 9.02568 8.98688 12.1243 8.98688C15.2229 8.98688 17.7415 11.4086 17.7415 14.388C17.7415 15.1687 17.5675 15.9096 17.2527 16.5787H14.5601C14.5435 16.0928 14.1375 15.7024 13.6239 15.7024H10.7904C10.2767 15.7024 9.85418 16.1087 9.85418 16.6026V17.925C9.85418 18.4189 10.2767 18.8252 10.7904 18.8252H13.6239C14.1375 18.8252 14.5601 18.4189 14.5601 17.925V17.7896H16.4739C15.4466 19.0084 13.8807 19.7891 12.1243 19.7891ZM13.6239 17.9171H10.7987L10.7904 16.6106L13.4996 16.6026V17.7976H13.6321L13.6239 17.9171ZM18.6197 16.5787C18.7357 16.268 18.8186 15.9494 18.8848 15.6228H20.3761V16.5787H18.6197Z" fill="black"/>
</svg>
