<svg width="24" height="24" viewBox="0 0 24 24" fill="none" xmlns="http://www.w3.org/2000/svg">
<path d="M21.447 11.8076C21.3727 11.7995 20.5968 11.7179 19.4825 11.7587V3.6198C19.4825 3.27728 19.2018 3 18.8552 3H14.7363H10.3698H6.25095C5.90427 3 5.62363 3.27728 5.62363 3.6198V5.1122H6.87827V4.23959H9.74249V6.00927C9.74249 6.35179 10.0231 6.62907 10.3698 6.62907H14.7363C15.083 6.62907 15.3636 6.35179 15.3636 6.00927V4.23959H18.2278V11.8484C16.6926 12.0115 14.8684 12.4356 13.3331 13.4224H9.23073C8.43007 13.4224 7.73671 13.8954 7.4148 14.5641C7.24971 14.4907 7.06812 14.4173 6.87827 14.3439V11.1797H5.62363V13.8954C5.45029 13.8464 5.27695 13.7975 5.11187 13.7567C3.98929 13.4876 2.82545 13.822 2.33845 14.5559C1.98351 15.0942 2.04129 15.7384 2.49528 16.3256C3.57658 17.7283 8.08339 19.4327 10.0974 19.9221C11.0467 20.1504 12.3756 20.2727 13.7293 20.2727C15.636 20.2727 17.5923 20.0362 18.624 19.5224C20.2006 18.7477 21.6533 17.9566 21.6699 17.9485C21.868 17.8425 22 17.6304 22 17.4021V12.4193C22 12.1094 21.7606 11.8402 21.447 11.8076ZM14.109 5.38948H10.9971V4.23959H14.109V5.38948ZM20.7454 17.0351C20.2336 17.3042 19.1771 17.8588 18.0628 18.4133C16.6926 19.0902 12.615 19.2533 10.3946 18.7151C8.04212 18.1442 4.19565 16.4887 3.49404 15.5753C3.37848 15.4204 3.34546 15.3062 3.39499 15.2328C3.50229 15.0697 3.88199 14.9066 4.34422 14.9066C4.4928 14.9066 4.65788 14.9229 4.82297 14.9637C5.68966 15.1757 6.7297 15.6161 7.29098 15.8608C7.50559 16.7334 8.298 17.3776 9.23898 17.3776H16.2881V16.138H9.23073C8.81802 16.138 8.47959 15.8037 8.47959 15.3959C8.47959 14.9882 8.81802 14.6538 9.23073 14.6538H13.5229C13.6467 14.6538 13.7706 14.613 13.8779 14.5478C16.1725 12.9901 19.4495 12.9494 20.7454 12.9983V17.0351Z" fill="black"/>
<path d="M2.62732 8.70864H7.79447L7.0681 9.45077C6.82873 9.70358 6.83698 10.095 7.09286 10.3315C7.20842 10.4457 7.36525 10.5028 7.52208 10.5028C7.68717 10.5028 7.85225 10.4375 7.97606 10.3152L9.75072 8.48845C9.9901 8.2438 9.98184 7.8605 9.74247 7.624L7.96781 5.86248C7.72018 5.61782 7.32398 5.61782 7.08461 5.86248C6.83698 6.10713 6.83698 6.49858 7.08461 6.73508L7.82749 7.46905H2.62732C2.28064 7.46905 2 7.74633 2 8.08885C2 8.43137 2.28064 8.70864 2.62732 8.70864Z" fill="black"/>
<path d="M2.62732 6.65353H4.21213C4.55881 6.65353 4.83946 6.37625 4.83946 6.03374C4.83946 5.69122 4.55881 5.41394 4.21213 5.41394H2.62732C2.28064 5.41394 2 5.69122 2 6.03374C2 6.37625 2.28064 6.65353 2.62732 6.65353Z" fill="black"/>
<path d="M2.62732 10.7638H4.90549C5.25217 10.7638 5.53281 10.4865 5.53281 10.144C5.53281 9.80144 5.25217 9.52416 4.90549 9.52416H2.62732C2.28064 9.52416 2 9.80144 2 10.144C2 10.4865 2.28064 10.7638 2.62732 10.7638Z" fill="black"/>
</svg>
