<svg width="24" height="24" viewBox="0 0 24 24" fill="none" xmlns="http://www.w3.org/2000/svg">
<path d="M22.3917 12.6884C22.3099 12.6794 21.4565 12.5897 20.2307 12.6346V3.68178C20.2307 3.305 19.922 3 19.5407 3H15.0099H10.2068H5.67602C5.29468 3 4.98597 3.305 4.98597 3.68178V5.32342H6.36608V4.36355H9.51672V6.3102C9.51672 6.68697 9.82542 6.99197 10.2068 6.99197H15.0099C15.3913 6.99197 15.7 6.68697 15.7 6.3102V4.36355H18.8506V12.7332C17.1618 12.9127 15.1552 13.3791 13.4664 14.4646H8.95378C8.07305 14.4646 7.31036 14.9849 6.95625 15.7205C6.77466 15.6398 6.57491 15.559 6.36608 15.4783V11.9976H4.98597V14.9849C4.7953 14.9311 4.60462 14.8772 4.42303 14.8324C3.1882 14.5364 1.90797 14.9042 1.37227 15.7115C0.981842 16.3036 1.0454 17.0123 1.54478 17.6582C2.73422 19.2011 7.69171 21.076 9.90714 21.6143C10.9513 21.8654 12.4131 22 13.9022 22C15.9996 22 18.1515 21.7398 19.2864 21.1747C21.0206 20.3225 22.6187 19.4523 22.6368 19.4433C22.8547 19.3267 23 19.0935 23 18.8423V13.3612C23 13.0203 22.7367 12.7243 22.3917 12.6884ZM14.3199 5.62842H10.8968V4.36355H14.3199V5.62842ZM21.6199 18.4386C21.057 18.7347 19.8948 19.3447 18.669 19.9547C17.1618 20.6992 12.6764 20.8787 10.234 20.2866C7.64631 19.6586 3.41519 17.8376 2.64342 16.8329C2.5163 16.6624 2.47999 16.5368 2.53446 16.4561C2.6525 16.2767 3.07016 16.0973 3.57862 16.0973C3.74206 16.0973 3.92365 16.1152 4.10524 16.1601C5.05861 16.3933 6.20264 16.8777 6.82006 17.1468C7.05613 18.1067 7.92778 18.8154 8.96286 18.8154H16.7169V17.4518H8.95378C8.4998 17.4518 8.12753 17.084 8.12753 16.6355C8.12753 16.187 8.4998 15.8192 8.95378 15.8192H13.6752C13.8114 15.8192 13.9476 15.7743 14.0656 15.7025C16.5898 13.9891 20.1944 13.9443 21.6199 13.9981V18.4386Z" fill="black"/>
<path d="M1.69005 9.27951H7.37392L6.57491 10.0958C6.3116 10.3739 6.32068 10.8045 6.60215 11.0647C6.72926 11.1903 6.90178 11.2531 7.07429 11.2531C7.25588 11.2531 7.43747 11.1813 7.57367 11.0467L9.5258 9.0373C9.78911 8.76818 9.78003 8.34655 9.51672 8.0864L7.56459 6.14873C7.2922 5.8796 6.85638 5.8796 6.59307 6.14873C6.32068 6.41785 6.32068 6.84844 6.59307 7.10859L7.41024 7.91596H1.69005C1.30871 7.91596 1 8.22096 1 8.59773C1 8.9745 1.30871 9.27951 1.69005 9.27951Z" fill="black"/>
<path d="M1.69005 7.01888H3.43335C3.81469 7.01888 4.1234 6.71388 4.1234 6.33711C4.1234 5.96034 3.81469 5.65533 3.43335 5.65533H1.69005C1.30871 5.65533 1 5.96034 1 6.33711C1 6.71388 1.30871 7.01888 1.69005 7.01888Z" fill="black"/>
<path d="M1.69005 11.5401H4.19604C4.57738 11.5401 4.88609 11.2351 4.88609 10.8584C4.88609 10.4816 4.57738 10.1766 4.19604 10.1766H1.69005C1.30871 10.1766 1 10.4816 1 10.8584C1 11.2351 1.30871 11.5401 1.69005 11.5401Z" fill="black"/>
</svg>
