<svg width="24" height="24" viewBox="0 0 24 24" fill="none" xmlns="http://www.w3.org/2000/svg">
<path d="M17.3443 7.38146C17.0967 7.14529 16.7005 7.15343 16.4529 7.39775C16.2135 7.64207 16.2218 8.03298 16.4694 8.2773L17.4764 9.23015C17.6002 9.34416 17.757 9.40117 17.9138 9.40117C18.0707 9.40117 18.2357 9.34416 18.3596 9.222L21.8098 5.81782C22.0574 5.5735 22.0574 5.18259 21.8098 4.93827C21.5621 4.69395 21.1659 4.69395 20.9183 4.93827L17.9056 7.91082L17.3443 7.38146Z" fill="black"/>
<path d="M18.9043 13.7582C18.7392 13.7989 18.5659 13.8478 18.3926 13.8966V11.6082C20.0681 11.3964 21.3888 9.99568 21.4301 8.2773C21.4383 7.93525 21.1659 7.65021 20.8193 7.64207C20.4643 7.62578 20.1837 7.90268 20.1754 8.24472C20.1507 9.44189 19.1519 10.3947 17.9468 10.3947C17.9303 10.3947 17.9138 10.3947 17.8973 10.3947C17.303 10.3784 16.75 10.1423 16.3373 9.71878C15.9246 9.2953 15.71 8.73336 15.7182 8.147C15.7348 7.56063 15.9741 7.01498 16.4033 6.60778C16.8325 6.20058 17.3938 5.9807 17.9964 5.99699C18.2027 6.00513 18.4008 6.02956 18.5989 6.09471C18.9291 6.19244 19.284 6.01327 19.3831 5.67937C19.4821 5.35361 19.2923 5.00342 18.9621 4.90569C18.7805 4.84868 18.5824 4.81611 18.3926 4.79168V3.61894C18.3926 3.2769 18.1119 3 17.7653 3H13.6465H9.27183H5.15305C4.80638 3 4.51749 3.2769 4.51749 3.61894V11.7548C3.41144 11.7141 2.63556 11.7955 2.55302 11.8036C2.23937 11.8362 2 12.105 2 12.4144V17.3986C2 17.6266 2.12381 17.8302 2.33016 17.9442C2.34667 17.9524 3.80764 18.7423 5.37591 19.516C6.40767 20.0291 8.36388 20.2652 10.2706 20.2652C11.6242 20.2652 12.9531 20.1431 13.9106 19.9151C15.9246 19.4264 20.4396 17.7243 21.5209 16.3236C21.9748 15.729 22.0326 15.0857 21.6777 14.5482C21.1907 13.8152 20.0269 13.4813 18.9043 13.7582ZM13.0192 4.23789V5.38619H9.89914V4.23789H13.0192ZM5.78036 4.23789H8.64452V6.00513C8.64452 6.34718 8.92516 6.62407 9.27183 6.62407H13.6465C13.9931 6.62407 14.2738 6.34718 14.2738 6.00513V4.23789H17.1379V4.85683C16.5437 4.99528 15.9906 5.28031 15.5367 5.71195C14.8598 6.34718 14.4801 7.20229 14.4636 8.12256C14.4389 9.04283 14.7855 9.91424 15.4294 10.5739C15.8998 11.0625 16.4941 11.3883 17.1379 11.543V14.3446C16.9481 14.4179 16.7665 14.4993 16.6014 14.5645C16.2795 13.8885 15.5862 13.4162 14.7855 13.4162H10.6833C9.14802 12.4307 7.31561 12.0072 5.78036 11.8444V4.23789V4.23789ZM20.5221 15.5662C19.8123 16.4864 15.9659 18.1397 13.6135 18.7016C11.3931 19.2391 7.30736 19.0762 5.93719 18.4003C4.82289 17.8546 3.76637 17.3008 3.25462 17.0239V12.9927C4.55876 12.9357 7.83562 12.9845 10.1302 14.54C10.2376 14.6133 10.3614 14.6459 10.4852 14.6459H14.7855C15.1982 14.6459 15.5367 14.9798 15.5367 15.387C15.5367 15.7942 15.1982 16.1281 14.7855 16.1281H7.72832V17.366H14.7773C15.7182 17.366 16.5189 16.7226 16.7252 15.8512C17.2865 15.5987 18.3265 15.1671 19.1932 14.9554C19.8618 14.7925 20.4726 15.0042 20.6129 15.2241C20.6707 15.2974 20.6377 15.4114 20.5221 15.5662Z" fill="black"/>
<path d="M16.1475 11.6571H13.1925V13.0252H16.1475V11.6571Z" fill="black"/>
</svg>
