<svg width="24" height="24" viewBox="0 0 24 24" fill="none" xmlns="http://www.w3.org/2000/svg">
<path d="M17.886 7.8217C17.6135 7.56179 17.1775 7.57076 16.905 7.83962C16.6416 8.10849 16.6507 8.53868 16.9232 8.80755L18.0314 9.85613C18.1676 9.98161 18.3402 10.0443 18.5128 10.0443C18.6854 10.0443 18.8671 9.9816 19.0033 9.84717L22.8002 6.10095C23.0727 5.83208 23.0727 5.40189 22.8002 5.13302C22.5277 4.86415 22.0917 4.86415 21.8192 5.13302L18.5037 8.40425L17.886 7.8217Z" fill="black"/>
<path d="M19.6028 14.8392C19.4211 14.884 19.2304 14.9377 19.0396 14.9915V12.4731C20.8836 12.2401 22.3369 10.6986 22.3823 8.80755C22.3914 8.43113 22.0917 8.11745 21.7102 8.10849C21.3196 8.09057 21.0107 8.39528 21.0017 8.7717C20.9744 10.0892 19.8753 11.1377 18.5491 11.1377C18.531 11.1377 18.5128 11.1377 18.4946 11.1377C17.8406 11.1198 17.232 10.8599 16.7779 10.3939C16.3237 9.92783 16.0875 9.30943 16.0966 8.66415C16.1148 8.01887 16.3782 7.4184 16.8505 6.97028C17.3229 6.52217 17.9405 6.28019 18.6036 6.29811C18.8307 6.30708 19.0487 6.33396 19.2667 6.40566C19.6301 6.51321 20.0206 6.31604 20.1296 5.94858C20.2386 5.59009 20.0297 5.20472 19.6664 5.09717C19.4666 5.03443 19.2486 4.99858 19.0396 4.9717V3.68113C19.0396 3.30472 18.7308 3 18.3493 3H13.8167H9.00248H4.46986C4.08836 3 3.77044 3.30472 3.77044 3.68113V12.6344C2.55326 12.5896 1.69942 12.6792 1.60859 12.6882C1.26342 12.7241 1 13.0198 1 13.3604V18.8453C1 19.0962 1.13625 19.3203 1.36334 19.4458C1.3815 19.4547 2.98927 20.3241 4.71511 21.1755C5.85054 21.7401 8.0033 22 10.1016 22C11.5912 22 13.0537 21.8656 14.1074 21.6146C16.3237 21.0769 21.2923 19.2038 22.4822 17.6623C22.9818 17.008 23.0454 16.3 22.6548 15.7085C22.1189 14.9019 20.8382 14.5344 19.6028 14.8392ZM13.1263 4.36226V5.62594H9.69282V4.36226H13.1263ZM5.1602 4.36226H8.31214V6.30708C8.31214 6.68349 8.62098 6.98821 9.00248 6.98821H13.8167C14.1982 6.98821 14.507 6.68349 14.507 6.30708V4.36226H17.659V5.0434C17.005 5.19575 16.3964 5.50943 15.8968 5.98443C15.1519 6.68349 14.7341 7.62453 14.7159 8.63726C14.6887 9.65 15.0702 10.609 15.7787 11.3349C16.2965 11.8726 16.9505 12.2311 17.659 12.4014V15.4844C17.45 15.5651 17.2502 15.6547 17.0685 15.7264C16.7143 14.9825 15.9513 14.4627 15.0702 14.4627H10.5557C8.86623 13.3783 6.84971 12.9123 5.1602 12.733V4.36226V4.36226ZM21.3832 16.8288C20.602 17.8415 16.3691 19.6608 13.7803 20.2792C11.3369 20.8708 6.84063 20.6915 5.33278 19.9476C4.10652 19.3472 2.94385 18.7377 2.38068 18.433V13.9967C3.81585 13.934 7.42197 13.9877 9.94715 15.6995C10.0652 15.7802 10.2015 15.816 10.3377 15.816H15.0702C15.5244 15.816 15.8968 16.1835 15.8968 16.6316C15.8968 17.0797 15.5244 17.4472 15.0702 17.4472H7.30388V18.8094H15.0611C16.0966 18.8094 16.9777 18.1014 17.2048 17.1425C17.8225 16.8646 18.967 16.3896 19.9207 16.1566C20.6565 15.9774 21.3287 16.2104 21.4831 16.4524C21.5467 16.533 21.5103 16.6585 21.3832 16.8288Z" fill="black"/>
<path d="M16.5689 12.5269H13.3171V14.0325H16.5689V12.5269Z" fill="black"/>
</svg>
