<svg width="24" height="24" viewBox="0 0 24 24" fill="none" xmlns="http://www.w3.org/2000/svg">
<path d="M4.80431 16.7071C4.40532 16.7071 4.08057 17.0254 4.08057 17.4165C4.08057 17.8076 4.40532 18.1259 4.80431 18.1259H7.13329C7.53227 18.1259 7.85703 17.8076 7.85703 17.4165C7.85703 17.0254 7.53227 16.7071 7.13329 16.7071H4.80431Z" fill="#212121"/>
<path d="M14.5563 13.3054H13.0624V14.6606H14.5563V13.3054Z" fill="#212121"/>
<path d="M14.5563 15.4428H13.0624V16.798H14.5563V15.4428Z" fill="#212121"/>
<path d="M17.3863 13.3054H15.8924V14.6606H17.3863V13.3054Z" fill="#212121"/>
<path d="M17.3863 15.4428H15.8924V16.798H17.3863V15.4428Z" fill="#212121"/>
<path d="M20.2349 13.3054H18.741V14.6606H20.2349V13.3054Z" fill="#212121"/>
<path d="M20.2349 15.4428H18.741V16.798H20.2349V15.4428Z" fill="#212121"/>
<path d="M21.1628 8.37578H20.3092V7.34801H18.8617V8.37578H14.4171V7.34801H12.9696V8.37578H12.116C11.1046 8.37578 10.2788 9.18526 10.2788 10.1766V17.2982C10.2788 18.2896 11.1046 19.0991 12.116 19.0991H19.2328V19.5993H2.44749V3.41886H7.47659V6.19292H14.1944V3.41886H19.2235V5.36525C19.2235 5.75634 19.5483 6.07468 19.9473 6.07468C20.3463 6.07468 20.671 5.75634 20.671 5.36525V3.07324C20.671 2.48205 20.2071 2 19.6318 2H2.03922C1.46394 2 1 2.48205 1 3.07324V19.9268C1 20.518 1.46394 21 2.03922 21H19.6504C20.2164 21 20.6896 20.518 20.6896 19.9268V19.0809H21.1628C22.1742 19.0809 23 18.2714 23 17.28V10.1675C23 9.17616 22.1742 8.37578 21.1628 8.37578ZM12.7562 4.77405H8.93336V3.41886H12.7562V4.77405V4.77405ZM12.116 9.79464H12.9696V10.3585H14.4171V9.79464H18.8617V10.3585H20.3092V9.79464H21.1628C21.3762 9.79464 21.5525 9.96745 21.5525 10.1766V11.168H11.7356V10.1675C11.7356 9.95835 11.9026 9.79464 12.116 9.79464ZM21.1628 17.6711H12.1253C11.9119 17.6711 11.7356 17.4983 11.7356 17.2891V12.5778H21.5525V17.2891C21.5525 17.4983 21.3762 17.6711 21.1628 17.6711Z" fill="#212121"/>
</svg>
