<svg width="24" height="24" viewBox="0 0 24 24" fill="none" xmlns="http://www.w3.org/2000/svg">
<path d="M21.8213 15.6419L20.1703 12.7412V7.3719C20.1703 7.21398 20.1284 7.07269 20.0613 6.94801C20.0529 6.93139 20.0445 6.91477 20.0362 6.89814C20.0278 6.88152 20.011 6.8649 20.0026 6.84827C19.9943 6.83996 19.9943 6.83165 19.9859 6.82334L17.1363 3.24104C17.0106 3.09143 16.8262 3 16.6334 3H5.1094C4.89987 3 4.7071 3.09974 4.58977 3.27428L2.176 6.80671C2.14248 6.85658 2.11734 6.91477 2.10057 6.97295C2.03352 7.09762 2 7.23061 2 7.3719V19.3489C2 19.8559 2.41067 20.2632 2.92192 20.2632H19.2483C19.7596 20.2632 20.1703 19.8559 20.1703 19.3489V17.6617H20.5055C21.0503 17.6617 21.5532 17.3874 21.8213 16.9386C22.0476 16.5396 22.056 16.0492 21.8213 15.6419ZM18.075 6.45763H13.3899L12.9625 4.25505H16.3233L18.075 6.45763ZM9.57653 7.71268H12.2333V9.72409H9.57653V7.71268ZM9.66872 6.45763L9.98721 4.25505H11.6802L12.116 6.45763H9.66872ZM5.44464 4.25505H8.7049L8.38641 6.45763H3.94442L5.44464 4.25505ZM18.9047 19.0081H3.26555V7.71268H8.31936L8.31098 10.9791H13.4989V7.71268H18.9047V10.522L18.2258 9.34175C17.966 8.88462 17.4632 8.60202 16.9016 8.60202C16.3401 8.60202 15.8372 8.88462 15.5774 9.34175L11.9819 15.6419C11.7472 16.0492 11.7472 16.5396 11.9903 16.9469C12.2501 17.3957 12.753 17.67 13.3061 17.67H18.8963V19.0081H18.9047ZM20.715 16.3152C20.6899 16.3567 20.6145 16.4149 20.4971 16.4149H13.3145C13.1972 16.4149 13.1217 16.3651 13.0966 16.3152C13.0798 16.2903 13.0882 16.2736 13.0966 16.257L16.6921 9.95681C16.734 9.88201 16.8346 9.85707 16.91 9.85707C16.9854 9.85707 17.086 9.88201 17.1279 9.95681L20.7234 16.257C20.7318 16.2736 20.7318 16.2903 20.715 16.3152Z" fill="black"/>
<path d="M16.8514 11.3698C16.5245 11.3947 16.2815 11.6856 16.3066 12.0098L16.491 14.1126C16.5077 14.3121 16.667 14.47 16.8681 14.4866C17.0944 14.5033 17.2956 14.337 17.3207 14.1126L17.5051 12.0098C17.5051 11.9765 17.5051 11.9433 17.5051 11.91C17.4716 11.5776 17.1866 11.3365 16.8514 11.3698Z" fill="black"/>
<path d="M16.9016 15.8331C17.2025 15.8331 17.4464 15.5912 17.4464 15.2929C17.4464 14.9945 17.2025 14.7526 16.9016 14.7526C16.6008 14.7526 16.3569 14.9945 16.3569 15.2929C16.3569 15.5912 16.6008 15.8331 16.9016 15.8331Z" fill="black"/>
<path d="M7.64887 16.2986H4.54785V17.5536H7.64887V16.2986Z" fill="black"/>
</svg>
