<svg width="24" height="24" viewBox="0 0 24 24" fill="none" xmlns="http://www.w3.org/2000/svg">
<path d="M22.8155 16.9138L20.9983 13.7212V7.81175C20.9983 7.63794 20.9522 7.48243 20.8784 7.34521C20.8692 7.32691 20.86 7.30862 20.8507 7.29032C20.8415 7.27203 20.8231 7.25373 20.8138 7.23544C20.8046 7.22629 20.8046 7.21714 20.7954 7.20799L17.6591 3.26529C17.5208 3.10063 17.3178 3 17.1057 3H4.42222C4.19161 3 3.97945 3.10977 3.85031 3.30188L1.19371 7.1897C1.15681 7.24458 1.12914 7.30862 1.11069 7.37265C1.0369 7.50987 1 7.65624 1 7.81175V20.9937C1 21.5518 1.45199 22 2.01468 22H19.9836C20.5463 22 20.9983 21.5518 20.9983 20.9937V19.1367H21.3673C21.9669 19.1367 22.5203 18.8349 22.8155 18.3409C23.0646 17.9018 23.0738 17.3621 22.8155 16.9138ZM18.6922 6.80549H13.5358L13.0654 4.38132H16.7644L18.6922 6.80549ZM9.33878 8.18681H12.2629V10.4006H9.33878V8.18681ZM9.44025 6.80549L9.79078 4.38132H11.6541L12.1338 6.80549H9.44025ZM4.79119 4.38132H8.37945L8.02893 6.80549H3.14004L4.79119 4.38132ZM19.6055 20.6187H2.39287V8.18681H7.95514L7.94591 11.7819H13.6558V8.18681H19.6055V11.2788L18.8583 9.97978C18.5723 9.47665 18.0189 9.16562 17.4008 9.16562C16.7828 9.16562 16.2294 9.47665 15.9434 9.97978L11.9862 16.9138C11.7279 17.3621 11.7279 17.9018 11.9954 18.35C12.2813 18.844 12.8348 19.1459 13.4436 19.1459H19.5962V20.6187H19.6055ZM21.5979 17.6548C21.5702 17.7005 21.4872 17.7646 21.3581 17.7646H13.4528C13.3237 17.7646 13.2407 17.7097 13.213 17.6548C13.1945 17.6273 13.2038 17.6091 13.213 17.5908L17.1702 10.6567C17.2164 10.5744 17.327 10.5469 17.4101 10.5469C17.4931 10.5469 17.6038 10.5744 17.6499 10.6567L21.6071 17.5908C21.6164 17.6091 21.6164 17.6273 21.5979 17.6548Z" fill="black"/>
<path d="M17.3455 12.2118C16.9857 12.2393 16.7182 12.5595 16.7459 12.9162L16.9488 15.2306C16.9673 15.4502 17.1426 15.624 17.3639 15.6423C17.613 15.6606 17.8344 15.4776 17.8621 15.2306L18.065 12.9162C18.065 12.8796 18.065 12.843 18.065 12.8065C18.0281 12.4405 17.7145 12.1753 17.3455 12.2118Z" fill="black"/>
<path d="M17.4008 17.1242C17.732 17.1242 18.0004 16.858 18.0004 16.5296C18.0004 16.2012 17.732 15.935 17.4008 15.935C17.0697 15.935 16.8013 16.2012 16.8013 16.5296C16.8013 16.858 17.0697 17.1242 17.4008 17.1242Z" fill="black"/>
<path d="M7.21719 17.6365H3.8042V19.0178H7.21719V17.6365Z" fill="black"/>
</svg>
