<svg width="24" height="24" viewBox="0 0 24 24" fill="none" xmlns="http://www.w3.org/2000/svg">
<path d="M15.6715 9.40093C15.424 9.15744 15.0197 9.16584 14.7805 9.41773C14.5412 9.66962 14.5494 10.081 14.797 10.3245L16.1006 11.5924C16.2243 11.7099 16.3811 11.7687 16.5379 11.7687C16.7029 11.7687 16.8597 11.7099 16.9834 11.584L21.4471 7.04157C21.6946 6.78968 21.6946 6.38665 21.4471 6.13476C21.1995 5.88287 20.8035 5.88287 20.556 6.13476L16.5296 10.2322L15.6715 9.40093Z" fill="black"/>
<path d="M8.74084 12.9778H5.97684V14.2624H8.74084V12.9778Z" fill="black"/>
<path d="M21.381 15.7653H19.9866V13.0449C20.5394 12.3229 20.8777 11.4245 20.9025 10.4505C20.9107 10.207 20.8942 9.96349 20.8612 9.72839C20.8117 9.37575 20.4982 9.13225 20.1517 9.18263C19.8051 9.23301 19.5659 9.56047 19.6154 9.90472C19.6401 10.0726 19.6484 10.249 19.6484 10.4253C19.6071 12.1213 18.2457 13.4732 16.5873 13.4732C16.5626 13.4732 16.5378 13.4732 16.5213 13.4732C15.7045 13.4564 14.9454 13.1121 14.3761 12.5076C13.8068 11.903 13.5098 11.1138 13.5263 10.2826C13.5676 8.56131 14.9619 7.2011 16.6616 7.23469C17.1319 7.24308 17.5857 7.36063 17.9982 7.57894C18.3035 7.73847 18.683 7.62092 18.848 7.30186C19.0048 6.99119 18.8893 6.60496 18.5758 6.43704C17.99 6.12637 17.3546 5.95845 16.6863 5.95005C16.6533 5.95005 16.6203 5.95005 16.5873 5.95005C14.2524 5.95005 12.3217 7.85601 12.2639 10.249C12.2392 11.4245 12.66 12.5412 13.4603 13.3892C14.2606 14.2372 15.3332 14.7242 16.4883 14.7494C16.5213 14.7494 16.5543 14.7494 16.5873 14.7494C17.3712 14.7494 18.0972 14.5311 18.7325 14.1617V15.4631H4.89601V4.17003H9.27716V6.55458H14.0378V4.17003H18.7325V5.42948C18.7325 5.78212 19.0131 6.0676 19.3596 6.0676C19.7061 6.0676 19.9866 5.78212 19.9866 5.42948V3.7838C19.9866 3.28841 19.5906 2.88539 19.1038 2.88539H4.52473C4.03794 2.88539 3.6419 3.28841 3.6419 3.7838V15.7653H2.62706C2.28053 15.7653 2 16.0508 2 16.4119V19.9551C2 20.3078 2.28053 20.5932 2.62706 20.5932H5.2838C5.63033 20.5932 5.91086 20.3078 5.91086 19.9551V19.0987H18.1385L18.1467 19.9551C18.1467 20.3078 18.4272 20.5932 18.7738 20.5932H21.3728C21.7193 20.5932 21.9998 20.3078 21.9998 19.9551V16.4119C22.0081 16.0508 21.7275 15.7653 21.381 15.7653ZM12.7755 5.26995H10.5313V4.17003H12.7755V5.26995ZM20.754 19.3086H19.4091L19.4008 18.4522C19.4008 18.0995 19.1203 17.8141 18.7738 17.8141H5.29205C4.94552 17.8141 4.66499 18.0995 4.66499 18.4522V19.3086H3.26237V17.05H20.754V19.3086Z" fill="black"/>
</svg>
