<svg width="24" height="24" viewBox="0 0 24 24" fill="none" xmlns="http://www.w3.org/2000/svg">
<path d="M3.41054 13.9104H8.86984L8.0775 14.7268C7.8337 14.976 7.84241 15.3713 8.09491 15.6119C8.21681 15.7322 8.37354 15.7838 8.53026 15.7838C8.6957 15.7838 8.86113 15.715 8.99174 15.5947L10.855 13.6784C11.0901 13.4292 11.0901 13.0425 10.8463 12.8019L8.98303 10.9629C8.73923 10.7223 8.33 10.7223 8.08621 10.9629C7.84241 11.2035 7.84241 11.6074 8.08621 11.848L8.90467 12.6558H3.41054C3.06226 12.6558 2.77493 12.9394 2.77493 13.2831C2.78364 13.6268 3.06226 13.9104 3.41054 13.9104Z" fill="#212121"/>
<path d="M5.81366 11.7621C6.16194 11.7621 6.44927 11.4785 6.44927 11.1348C6.44927 10.7911 6.16194 10.5075 5.81366 10.5075H4.60338C4.2551 10.5075 3.96777 10.7911 3.96777 11.1348C3.96777 11.4785 4.2551 11.7621 4.60338 11.7621H5.81366Z" fill="#212121"/>
<path d="M5.65694 15.4315C5.65694 15.0877 5.36961 14.8041 5.02133 14.8041H2.63561C2.28733 14.8041 2 15.0877 2 15.4315C2 15.7752 2.28733 16.0588 2.63561 16.0588H5.02133C5.36961 16.0588 5.65694 15.7838 5.65694 15.4315Z" fill="#212121"/>
<path d="M21.8868 6.05608C21.8781 6.0389 21.8694 6.0303 21.8607 6.01312C21.852 5.99593 21.8346 5.97015 21.8258 5.95296C21.8171 5.94437 21.8171 5.93578 21.8084 5.93578L18.8481 2.24062C18.7349 2.08593 18.552 2 18.3518 2H6.39703C6.18807 2 5.9878 2.10312 5.87461 2.27499L3.367 5.92718C3.33217 5.97874 3.30605 6.0303 3.28863 6.09046C3.22768 6.21076 3.19286 6.34826 3.19286 6.49435V8.8919C3.19286 9.23564 3.48019 9.51922 3.82847 9.51922C4.17675 9.51922 4.46408 9.23564 4.46408 8.8919V6.82949H9.74923L9.74053 9.51063H15.0779V6.8209H20.7288V19.7454H4.46408V17.9579C4.46408 17.6142 4.17675 17.3306 3.82847 17.3306C3.48019 17.3306 3.19286 17.6142 3.19286 17.9579V20.0805C3.19286 20.5875 3.61079 21 4.12451 21H21.0683C21.5821 21 22 20.5875 22 20.0805V6.49435C22 6.33107 21.9565 6.18498 21.8868 6.05608ZM19.9016 5.57485H14.9734L14.5207 3.25464H18.047L19.9016 5.57485ZM13.6935 5.57485H11.0988L11.4384 3.25464H13.232L13.6935 5.57485ZM6.73661 3.25464H10.1585L9.81889 5.57485H5.14323L6.73661 3.25464ZM13.8067 8.26459H11.0117V6.8209H13.8067V8.26459Z" fill="#212121"/>
<path d="M19.2747 17.5627H16.0618V18.8173H19.2747V17.5627Z" fill="#212121"/>
</svg>
