<svg width="24" height="24" viewBox="0 0 24 24" fill="none" xmlns="http://www.w3.org/2000/svg">
<path d="M20.9487 13.6014C20.8996 13.2651 20.5804 13.0329 20.2366 13.0809C19.8928 13.129 19.6554 13.4413 19.7046 13.7776C19.7291 13.9617 19.7455 14.1539 19.7373 14.3381C19.6964 16.1797 18.1494 17.653 16.275 17.653C16.2504 17.653 16.2259 17.653 16.1931 17.653C14.286 17.613 12.7635 16.0596 12.8044 14.1859C12.829 13.2811 13.2055 12.4404 13.8767 11.8078C14.5479 11.1833 15.4155 10.847 16.3486 10.871C16.8807 10.879 17.3963 11.0071 17.8629 11.2473C18.1739 11.4075 18.5504 11.2873 18.706 10.9831C18.8615 10.6788 18.7469 10.3105 18.4359 10.1583C17.7974 9.83006 17.1017 9.66191 16.3732 9.64589C16.3404 9.64589 16.2995 9.64589 16.2668 9.64589C15.0472 9.64589 13.8931 10.0943 13.0091 10.927C12.1005 11.7758 11.5767 12.9288 11.5521 14.1619C11.4948 16.7082 13.5575 18.822 16.1604 18.8781C16.1931 18.8781 16.234 18.8781 16.2668 18.8781C17.159 18.8781 18.002 18.6299 18.7141 18.1975V19.7749H3.25233V7.60408H8.25348L8.2453 10.1423H13.3774V7.60408H18.7223V9.01333C18.7223 9.34963 19.0006 9.62988 19.3526 9.62988C19.6964 9.62988 19.9828 9.35764 19.9828 9.01333V7.26779C19.9828 7.11565 19.9419 6.97152 19.8683 6.85142C19.8601 6.8354 19.8519 6.81939 19.8437 6.81138C19.8355 6.79537 19.8191 6.77134 19.8028 6.75533C19.7946 6.74732 19.7946 6.73932 19.7864 6.73131L16.9625 3.23221C16.8561 3.08808 16.6679 3 16.4796 3H5.07763C4.873 3 4.67656 3.10409 4.56196 3.27224L2.17189 6.71529C2.13915 6.76334 2.11459 6.81939 2.09822 6.87544C2.03274 6.99554 2 7.12366 2 7.26779V20.1112C2 20.5996 2.40926 21 2.90856 21H19.0661C19.5654 21 19.9747 20.5996 19.9747 20.1112V17.1085C20.5886 16.3478 20.9651 15.403 20.9896 14.3621C20.9978 14.1058 20.9814 13.8496 20.9487 13.6014ZM12.1251 8.91725H9.49763V7.60408H12.1251V8.91725ZM9.58767 6.379L9.90689 4.22509H11.5849L12.0187 6.379H9.58767ZM17.912 6.379H13.2792L12.8536 4.22509H16.1767L17.912 6.379ZM5.41322 4.22509H8.63818L8.31896 6.379H3.92352L5.41322 4.22509Z" fill="black"/>
<path d="M21.6117 9.82204C21.3662 9.58183 20.9733 9.58183 20.7277 9.82204L16.2177 14.234L15.2191 13.2971C14.9736 13.0649 14.5725 13.0729 14.3351 13.3131C14.0977 13.5534 14.1059 13.9457 14.3515 14.1779L15.7921 15.5311C15.9148 15.6432 16.0704 15.6993 16.2259 15.6993C16.3896 15.6993 16.5451 15.6432 16.6679 15.5231L21.6117 10.6868C21.8573 10.4466 21.8573 10.0623 21.6117 9.82204Z" fill="black"/>
<path d="M7.58229 17.1325H4.52103V18.3576H7.58229V17.1325Z" fill="black"/>
</svg>
