<svg width="24" height="24" viewBox="0 0 24 24" fill="none" xmlns="http://www.w3.org/2000/svg">
<path d="M21.3879 20.7827H19.7714V15.6077C19.7714 15.583 19.7631 15.5583 19.7631 15.5419C19.7798 15.402 19.7547 15.2621 19.6709 15.1387L18.0713 12.7034C17.9624 12.5389 17.7865 12.4402 17.5939 12.4237V1.98318H4.67085V20.7827H2.61054C2.26715 20.7827 1.98239 21.0542 1.98239 21.3998C1.98239 21.7371 2.26715 22.0168 2.61054 22.0168H4.67085H9.22699H10.1148H12.0327H18.8669C18.959 22.0168 19.0428 22.0004 19.1182 21.9757C19.1852 22.0004 19.2606 22.0168 19.3359 22.0168H21.3711C21.7145 22.0168 21.9993 21.7371 21.9993 21.3998C22.016 21.0542 21.7396 20.7827 21.3879 20.7827ZM17.2086 13.6496L17.9121 14.7191H10.9942L11.5804 13.6496H17.2086ZM5.92714 3.21729H16.3543V12.4237H11.2203C10.9858 12.4237 10.7764 12.5471 10.6675 12.7446L9.34425 15.1552C9.3275 15.1799 9.31912 15.2128 9.31075 15.2375C9.26049 15.3526 9.22699 15.4761 9.22699 15.6077V20.7827H5.92714V3.21729ZM18.5235 20.7827H12.0411H10.4749V15.9532H18.5235V20.7827Z" fill="black"/>
<path d="M7.73621 10.2435C7.1667 10.2435 6.71443 10.696 6.71443 11.2472C6.71443 11.7984 7.17507 12.2509 7.73621 12.2509C8.29736 12.2509 8.758 11.7984 8.758 11.2472C8.758 10.696 8.30573 10.2435 7.73621 10.2435Z" fill="black"/>
<path d="M13.0545 18.8164H11.1366V20.1327H13.0545V18.8164Z" fill="black"/>
</svg>
