<svg width="24" height="24" viewBox="0 0 24 24" fill="none" xmlns="http://www.w3.org/2000/svg">
<path d="M20.1683 12.3514H20.0866V6.87387C20.0957 6.3964 19.6964 6 19.2063 6H13.1889C12.6988 6 12.3086 6.3964 12.3086 6.87387V12.3514H11.7096V6.87387C11.7096 6.3964 11.3102 6 10.8201 6H4.80281C4.32178 6 3.92244 6.3964 3.92244 6.87387V12.3514H3.83168C2.27063 12.3514 1 13.6126 1 15.1802C1 16.7297 2.27063 17.991 3.83168 17.991H20.1683C21.7294 17.991 23 16.7297 23 15.1622C23 13.6126 21.7294 12.3514 20.1683 12.3514ZM15.6394 7.36937H16.7649V8.86486H15.6394V7.36937ZM13.6881 7.36937H14.5957V9.9009H17.7995V7.36937H18.7071V12.3514H13.6881V7.36937ZM7.2533 7.36937H8.37871V8.86486H7.2533V7.36937ZM5.30198 7.36937H6.20957V9.9009H9.41337V7.36937H10.321V12.3514H5.30198V7.36937ZM20.1683 16.6216H3.83168C3.033 16.6216 2.37954 15.973 2.37954 15.1622C2.37954 14.3694 3.033 13.7207 3.83168 13.7207H4.80281H10.8201H13.1889H19.2063H20.1683C20.967 13.7207 21.6205 14.3694 21.6205 15.1802C21.6205 15.973 20.967 16.6216 20.1683 16.6216Z" fill="black"/>
<path d="M6.37295 14.1622C5.81932 14.1622 5.3746 14.6036 5.3746 15.1532C5.3746 15.7027 5.81932 16.1441 6.37295 16.1441C6.92658 16.1441 7.3713 15.7027 7.3713 15.1532C7.3713 14.6036 6.92658 14.1622 6.37295 14.1622Z" fill="black"/>
<path d="M10.3028 14.1622C9.74916 14.1622 9.30444 14.6036 9.30444 15.1532C9.30444 15.7027 9.74916 16.1441 10.3028 16.1441C10.8564 16.1441 11.3011 15.7027 11.3011 15.1532C11.2921 14.6036 10.8473 14.1622 10.3028 14.1622Z" fill="black"/>
<path d="M14.2236 14.1622C13.67 14.1622 13.2253 14.6036 13.2253 15.1532C13.2253 15.7027 13.67 16.1441 14.2236 16.1441C14.7772 16.1441 15.2219 15.7027 15.2219 15.1532C15.2219 14.6036 14.7772 14.1622 14.2236 14.1622Z" fill="black"/>
<path d="M18.1535 14.1622C17.5998 14.1622 17.1551 14.6036 17.1551 15.1532C17.1551 15.7027 17.5998 16.1441 18.1535 16.1441C18.7071 16.1441 19.1518 15.7027 19.1518 15.1532C19.1427 14.6036 18.698 14.1622 18.1535 14.1622Z" fill="black"/>
</svg>
