<svg width="24" height="24" viewBox="0 0 24 24" fill="none" xmlns="http://www.w3.org/2000/svg">
<path d="M22.3102 21.6448H20.5351V15.9618C20.5351 15.9347 20.5259 15.9076 20.5259 15.8895C20.5443 15.7359 20.5167 15.5823 20.4247 15.4468L18.6681 12.7725C18.5485 12.5918 18.3553 12.4834 18.1438 12.4653V1H3.95234V21.6448H1.6898C1.31271 21.6448 1 21.9429 1 22.3224C1 22.6928 1.31271 23 1.6898 23H3.95234H8.95568H9.9306H12.0368H19.5418C19.643 23 19.7349 22.9819 19.8177 22.9548C19.8913 22.9819 19.9741 23 20.0569 23H22.2918C22.6689 23 22.9816 22.6928 22.9816 22.3224C23 21.9429 22.6965 21.6448 22.3102 21.6448ZM17.7207 13.8115L18.4933 14.986H10.8963L11.5401 13.8115H17.7207ZM5.33194 2.35524H16.7826V12.4653H11.1446C10.8871 12.4653 10.6572 12.6008 10.5376 12.8177L9.08445 15.4649C9.06605 15.492 9.05686 15.5281 9.04766 15.5552C8.99247 15.6817 8.95568 15.8172 8.95568 15.9618V21.6448H5.33194V2.35524ZM19.1647 21.6448H12.046H10.3261V16.3413H19.1647V21.6448Z" fill="black"/>
<path d="M7.31858 10.071C6.69316 10.071 6.1965 10.568 6.1965 11.1733C6.1965 11.7786 6.70236 12.2756 7.31858 12.2756C7.9348 12.2756 8.44065 11.7786 8.44065 11.1733C8.44065 10.568 7.94399 10.071 7.31858 10.071Z" fill="black"/>
<path d="M13.1589 19.4854H11.0527V20.931H13.1589V19.4854Z" fill="black"/>
</svg>
