<svg width="24" height="24" viewBox="0 0 24 24" fill="none" xmlns="http://www.w3.org/2000/svg">
<path d="M16.0387 9.1671C15.7664 8.89926 15.3217 8.9085 15.0585 9.18558C14.7953 9.46265 14.8044 9.91522 15.0767 10.1831L16.5107 11.5777C16.6468 11.707 16.8192 11.7716 16.9917 11.7716C17.1732 11.7716 17.3456 11.707 17.4818 11.5685L22.3918 6.5718C22.6641 6.29472 22.6641 5.8514 22.3918 5.57432C22.1195 5.29724 21.6839 5.29724 21.4116 5.57432L16.9826 10.0815L16.0387 9.1671Z" fill="black"/>
<path d="M8.41491 13.1016H5.37451V14.5147H8.41491V13.1016Z" fill="black"/>
<path d="M22.3191 16.168H20.7853V13.1755C21.3934 12.3812 21.7655 11.393 21.7927 10.3216C21.8018 10.0538 21.7836 9.78591 21.7473 9.5273C21.6929 9.13939 21.348 8.87155 20.9668 8.92697C20.5856 8.98238 20.3224 9.34258 20.3769 9.72126C20.4041 9.90598 20.4132 10.0999 20.4132 10.2939C20.3678 12.1595 18.8703 13.6465 17.0461 13.6465C17.0188 13.6465 16.9916 13.6465 16.9735 13.6465C16.0749 13.6281 15.24 13.2494 14.6137 12.5844C13.9875 11.9194 13.6608 11.0512 13.6789 10.1369C13.7243 8.24351 15.2581 6.74728 17.1277 6.78422C17.6451 6.79346 18.1442 6.92276 18.598 7.1629C18.9338 7.33838 19.3513 7.20908 19.5328 6.85811C19.7053 6.51638 19.5782 6.09153 19.2333 5.90681C18.589 5.56508 17.8901 5.38036 17.155 5.37112C17.1187 5.37112 17.0824 5.37112 17.0461 5.37112C14.4776 5.37112 12.3539 7.46769 12.2903 10.0999C12.2631 11.393 12.726 12.6213 13.6063 13.5542C14.4867 14.487 15.6665 15.0227 16.9372 15.0504C16.9735 15.0504 17.0098 15.0504 17.0461 15.0504C17.9083 15.0504 18.7069 14.8103 19.4058 14.4039V15.8355H4.18562V3.4131H9.00488V6.03611H14.2416V3.4131H19.4058V4.79849C19.4058 5.1864 19.7144 5.50043 20.0955 5.50043C20.4767 5.50043 20.7853 5.1864 20.7853 4.79849V2.98825C20.7853 2.44333 20.3497 2 19.8142 2H3.7772C3.24173 2 2.80609 2.44333 2.80609 2.98825V16.168H1.68976C1.30858 16.168 1 16.482 1 16.8791V20.7767C1 21.1646 1.30858 21.4786 1.68976 21.4786H4.61218C4.99336 21.4786 5.30194 21.1646 5.30194 20.7767V19.8346H18.7523L18.7614 20.7767C18.7614 21.1646 19.07 21.4786 19.4512 21.4786H22.31C22.6912 21.4786 22.9998 21.1646 22.9998 20.7767V16.8791C23.0089 16.482 22.7003 16.168 22.3191 16.168ZM12.853 4.62301H10.3844V3.4131H12.853V4.62301ZM21.6294 20.0655H20.15L20.1409 19.1235C20.1409 18.7356 19.8323 18.4215 19.4512 18.4215H4.62125C4.24007 18.4215 3.93149 18.7356 3.93149 19.1235V20.0655H2.3886V17.5811H21.6294V20.0655Z" fill="black"/>
</svg>
