<svg width="24" height="24" viewBox="0 0 24 24" fill="none" xmlns="http://www.w3.org/2000/svg">
<path d="M21.1013 14.1514C21.0492 13.7946 20.7106 13.5483 20.3459 13.5993C19.9812 13.6502 19.7294 13.9815 19.7815 14.3383C19.8075 14.5336 19.8249 14.7375 19.8162 14.9329C19.7728 16.8865 18.1317 18.4494 16.1433 18.4494C16.1172 18.4494 16.0912 18.4494 16.0564 18.4494C14.0333 18.407 12.4182 16.7591 12.4617 14.7715C12.4877 13.8116 12.8871 12.9198 13.5991 12.2487C14.3111 11.5862 15.2316 11.2294 16.2214 11.2549C16.7858 11.2634 17.3329 11.3993 17.8278 11.6541C18.1577 11.824 18.5572 11.6966 18.7221 11.3738C18.8871 11.051 18.7656 10.6603 18.4356 10.4989C17.7583 10.1507 17.0203 9.97228 16.2475 9.95529C16.2127 9.95529 16.1693 9.95529 16.1346 9.95529C14.8408 9.95529 13.6165 10.431 12.6787 11.3144C11.7149 12.2147 11.1592 13.4379 11.1331 14.746C11.0724 17.4471 13.2605 19.6896 16.0217 19.7491C16.0564 19.7491 16.0999 19.7491 16.1346 19.7491C17.081 19.7491 17.9754 19.4857 18.7308 19.027V20.7004H2.32851V7.78928H7.63386L7.62518 10.4819H13.0695V7.78928H18.7395V9.28425C18.7395 9.64101 19.0347 9.9383 19.4081 9.9383C19.7728 9.9383 20.0767 9.6495 20.0767 9.28425V7.43253C20.0767 7.27114 20.0333 7.11824 19.9551 6.99083C19.9465 6.97384 19.9378 6.95686 19.9291 6.94836C19.9204 6.93137 19.903 6.90589 19.8857 6.8889C19.877 6.88041 19.877 6.87191 19.8683 6.86342L16.8727 3.15147C16.7598 2.99858 16.5601 2.90514 16.3603 2.90514H4.26483C4.04776 2.90514 3.83936 3.01557 3.7178 3.19394L1.18234 6.84643C1.14761 6.8974 1.12156 6.95686 1.1042 7.01631C1.03473 7.14373 1 7.27963 1 7.43253V21.0572C1 21.5753 1.43415 22 1.96382 22H19.1042C19.6339 22 20.068 21.5753 20.068 21.0572V17.8718C20.7192 17.0649 21.1187 16.0626 21.1447 14.9583C21.1534 14.6865 21.136 14.4147 21.1013 14.1514ZM11.741 9.18232H8.95369V7.78928H11.741V9.18232V9.18232ZM9.04921 6.48968L9.38784 4.20475H11.1679L11.6281 6.48968H9.04921ZM17.8799 6.48968H12.9653L12.5137 4.20475H16.0391L17.8799 6.48968ZM4.62084 4.20475H8.04197L7.70333 6.48968H3.04052L4.62084 4.20475Z" fill="black"/>
<path d="M21.8046 10.1422C21.5442 9.88734 21.1274 9.88734 20.8669 10.1422L16.0825 14.8224L15.0232 13.8286C14.7627 13.5823 14.3372 13.5908 14.0854 13.8456C13.8336 14.1004 13.8423 14.5167 14.1028 14.763L15.631 16.1985C15.7612 16.3174 15.9262 16.3769 16.0912 16.3769C16.2649 16.3769 16.4298 16.3174 16.5601 16.19L21.8046 11.0595C22.0651 10.8047 22.0651 10.397 21.8046 10.1422Z" fill="black"/>
<path d="M6.92184 17.8973H3.67438V19.1969H6.92184V17.8973Z" fill="black"/>
</svg>
