<svg width="24" height="24" viewBox="0 0 24 24" fill="none" xmlns="http://www.w3.org/2000/svg">
<path d="M21.8412 7.20903L21.8496 7.2007L18.4481 2.96293H5.05129L2.18472 7.17573H2.19308C2.07608 7.32559 2.00922 7.50875 2.00922 7.7169V21.1296C2.00922 21.6291 2.41873 22.0371 2.92017 22.0371H21.0891C21.5905 22.0371 22 21.6291 22 21.1296V7.7169C21.9917 7.5254 21.9415 7.35889 21.8412 7.20903ZM19.919 6.8094H14.5118L14.0104 4.22011H17.8464L19.919 6.8094ZM10.2663 8.0749H13.3418V12.0546H10.2663V8.0749ZM10.3499 6.8094L10.7259 4.22011H12.715L13.2248 6.8094H10.3499ZM5.72824 4.22011H9.44726L9.07118 6.8094H3.96484L5.72824 4.22011ZM20.7297 20.7799H3.27118V8.0749H9.00432L8.99597 13.3118H14.6038V8.0749H20.7213V20.7799H20.7297Z" fill="black"/>
<path d="M9.97378 15.5181H5.27695V16.7752H9.97378V15.5181Z" fill="black"/>
<path d="M9.97378 17.766H5.27695V19.0232H9.97378V17.766Z" fill="black"/>
</svg>
