<svg width="24" height="24" viewBox="0 0 24 24" fill="none" xmlns="http://www.w3.org/2000/svg">
<path d="M19.4257 12.319H19.3515V7.33947C19.3597 6.9054 18.9967 6.54504 18.5512 6.54504H13.0809C12.6353 6.54504 12.2805 6.9054 12.2805 7.33947V12.319H11.736V7.33947C11.736 6.9054 11.3729 6.54504 10.9274 6.54504H5.4571C5.0198 6.54504 4.65677 6.9054 4.65677 7.33947V12.319H4.57426C3.15512 12.319 2 13.4656 2 14.8907C2 16.2993 3.15512 17.4459 4.57426 17.4459H19.4257C20.8449 17.4459 22 16.2993 22 14.8743C22 13.4656 20.8449 12.319 19.4257 12.319ZM15.3086 7.78993H16.3317V9.14947H15.3086V7.78993ZM13.5347 7.78993H14.3597V10.0913H17.2723V7.78993H18.0974V12.319H13.5347V7.78993ZM7.68482 7.78993H8.70792V9.14947H7.68482V7.78993ZM5.91089 7.78993H6.73597V10.0913H9.64852V7.78993H10.4736V12.319H5.91089V7.78993ZM19.4257 16.2011H4.57426C3.84818 16.2011 3.25413 15.6114 3.25413 14.8743C3.25413 14.1536 3.84818 13.5639 4.57426 13.5639H5.4571H10.9274H13.0809H18.5512H19.4257C20.1518 13.5639 20.7459 14.1536 20.7459 14.8907C20.7459 15.6114 20.1518 16.2011 19.4257 16.2011Z" fill="black"/>
<path d="M6.88449 13.9652C6.38119 13.9652 5.9769 14.3665 5.9769 14.8661C5.9769 15.3657 6.38119 15.767 6.88449 15.767C7.38779 15.767 7.79208 15.3657 7.79208 14.8661C7.79208 14.3665 7.38779 13.9652 6.88449 13.9652Z" fill="black"/>
<path d="M10.4571 13.9652C9.95379 13.9652 9.5495 14.3665 9.5495 14.8661C9.5495 15.3657 9.95379 15.767 10.4571 15.767C10.9604 15.767 11.3647 15.3657 11.3647 14.8661C11.3564 14.3665 10.9521 13.9652 10.4571 13.9652Z" fill="black"/>
<path d="M14.0215 13.9652C13.5182 13.9652 13.1139 14.3665 13.1139 14.8661C13.1139 15.3657 13.5182 15.767 14.0215 15.767C14.5248 15.767 14.929 15.3657 14.929 14.8661C14.929 14.3665 14.5248 13.9652 14.0215 13.9652Z" fill="black"/>
<path d="M17.5941 13.9652C17.0908 13.9652 16.6865 14.3665 16.6865 14.8661C16.6865 15.3657 17.0908 15.767 17.5941 15.767C18.0974 15.767 18.5016 15.3657 18.5016 14.8661C18.4934 14.3665 18.0891 13.9652 17.5941 13.9652Z" fill="black"/>
</svg>
