<svg width="24" height="24" viewBox="0 0 24 24" fill="none" xmlns="http://www.w3.org/2000/svg">
<path d="M18.1397 12.363H8.21121V7.1481C8.21121 5.02044 9.91511 3.28494 12.004 3.28494C14.093 3.28494 15.7969 5.02044 15.7969 7.1481V9.72633C15.7969 10.0851 16.0754 10.3688 16.4276 10.3688C16.7799 10.3688 17.0584 10.0851 17.0584 9.72633V7.1481C17.0584 4.31122 14.7893 2 12.004 2C9.2188 2 6.94966 4.31122 6.94966 7.1481V12.363H5.86834C5.39321 12.363 5 12.7635 5 13.2474V21.1156C5 21.6078 5.39321 22 5.86834 22H18.1315C18.6149 22 18.9999 21.5995 18.9999 21.1156V13.2474C19.0081 12.7635 18.6149 12.363 18.1397 12.363ZM17.7465 20.7234H6.26155V13.6479H17.7465V20.7234Z" fill="#212121"/>
</svg>
