<svg width="24" height="24" viewBox="0 0 24 24" fill="none" xmlns="http://www.w3.org/2000/svg">
<path d="M21.444 12.6589C21.3112 12.6429 19.0953 12.4259 16.6554 12.9402V9.08304C16.6554 7.45982 15.4437 6.10179 13.842 5.82054C14.1324 5.21786 14.2486 4.71161 14.2818 4.35C14.315 4.00446 14.1988 3.66696 13.9582 3.40982C13.7175 3.14464 13.3689 3 13.0121 3H10.0659C9.73391 3 9.42684 3.13661 9.21107 3.38571C8.99529 3.62679 8.9123 3.94821 8.97039 4.26161C9.06168 4.79196 9.25256 5.34643 9.42684 5.78839C7.75042 6.00536 6.44746 7.39554 6.44746 9.08304V13.2375C6.44746 13.583 6.36447 13.9286 6.19849 14.242L6.0989 14.4268C6.03251 14.5634 5.99101 14.708 5.98271 14.8688C5.65905 14.7643 5.33538 14.6598 5.02002 14.5875C3.89134 14.3223 2.72116 14.6518 2.23151 15.367C1.87465 15.8973 1.93274 16.5321 2.3892 17.1107C3.47638 18.4929 8.0077 20.1723 10.0327 20.6545C10.9871 20.8795 12.3232 21 13.6843 21C15.6014 21 17.5683 20.767 18.6057 20.2607C20.1908 19.4973 21.6514 18.7179 21.668 18.7098C21.8672 18.6054 22 18.3964 22 18.1714V13.2616C22 12.9563 21.7593 12.6911 21.444 12.6589ZM13.0287 4.22946C12.9955 4.56696 12.8627 5.09732 12.4477 5.75625H10.7713C10.6136 5.38661 10.3729 4.78393 10.2485 4.22143L13.0287 4.22946ZM9.875 6.97768H13.2195C14.4146 6.97768 15.3939 7.91786 15.3939 9.08304V13.0527C15.3939 13.133 15.3939 13.2054 15.4022 13.2857C14.6719 13.5188 13.9499 13.8402 13.2859 14.258H9.16127C8.38116 14.258 7.70063 14.692 7.36866 15.3268C7.27737 15.1982 7.21928 15.0616 7.22758 14.9893L7.32717 14.8045C7.50145 14.475 7.61764 14.1134 7.66743 13.7438H9.58453C9.93309 13.7438 10.2153 13.4705 10.2153 13.133C10.2153 12.7955 9.93309 12.5223 9.58453 12.5223H7.70893V9.08304C7.70893 7.92589 8.67992 6.97768 9.875 6.97768ZM20.7385 17.8179C20.224 18.083 19.1617 18.6295 18.0413 19.1759C16.6637 19.8429 12.5556 20.0036 10.3314 19.4732C7.9662 18.9188 4.09881 17.2795 3.39339 16.3795C3.2772 16.2268 3.23571 16.1143 3.2855 16.042C3.39339 15.8813 3.77515 15.7205 4.2399 15.7205C4.38928 15.7205 4.55526 15.7366 4.72125 15.7768C5.41007 15.9375 6.20679 16.2429 6.79603 16.4839C6.92051 16.5804 7.0699 16.6607 7.21098 16.7089C7.44336 17.5366 8.22347 18.1554 9.15297 18.1554H16.2404V16.9339H9.16127C8.74632 16.9339 8.40605 16.6045 8.40605 16.2027C8.40605 15.8009 8.74632 15.4714 9.16127 15.4714H13.4768C13.6013 15.4714 13.7258 15.4313 13.8337 15.367C16.1408 13.8321 19.4356 13.792 20.7468 13.8402V17.8179H20.7385Z" fill="#212121"/>
<path d="M11.4921 10.9028C11.2619 10.9028 11.0556 10.7917 11.0556 10.5694H10C10 11.1597 10.4206 11.5486 11.0952 11.6597V12H11.9286V11.6597C12.5714 11.5556 13 11.2014 13 10.625C13 9.88194 12.2857 9.72222 11.7302 9.59722C11.373 9.52083 11.0952 9.45833 11.0952 9.27083C11.0952 9.13194 11.2698 9.0625 11.4603 9.0625C11.6746 9.0625 11.8492 9.15278 11.8492 9.34722H12.881C12.881 8.80556 12.5238 8.44444 11.8968 8.33333V8H11.0635V8.31944C10.4286 8.41667 10.0556 8.76389 10.0556 9.29167C10.0556 10.0347 10.746 10.1806 11.2857 10.2986C11.6429 10.375 11.9286 10.4306 11.9286 10.6389C11.9127 10.8056 11.7143 10.9028 11.4921 10.9028Z" fill="#212121"/>
</svg>
