<svg width="24" height="24" viewBox="0 0 24 24" fill="none" xmlns="http://www.w3.org/2000/svg">
<path d="M9.93997 22L14.0688 22C14.5783 22 15 21.6017 15 21.112L15 7.49378C15 6.78008 14.8243 6.05809 14.4905 5.41079L13.0498 2.6307C12.8477 2.24066 12.4348 2 11.978 2L11.9693 2C11.5124 2 11.0996 2.24896 10.8975 2.639L9.49195 5.42739C9.1757 6.05809 9 6.76348 9 7.46058L9 21.112C9 21.6017 9.42167 22 9.93997 22ZM10.3529 20.722L10.3529 18.473L13.6471 18.473L13.6471 20.722L10.3529 20.722ZM10.713 5.9917L11.978 3.49378L13.2694 5.9834C13.5154 6.45643 13.6384 6.97925 13.6384 7.50207L13.6384 17.195L10.3529 17.195L10.3529 7.47718C10.3529 6.96266 10.4758 6.45643 10.713 5.9917Z" fill="black"/>
</svg>
