<svg width="24" height="24" viewBox="0 0 24 24" fill="none" xmlns="http://www.w3.org/2000/svg">
<path d="M19.0912 4.4372L15.554 2.33003C15.1175 2.07 14.5411 2.21605 14.2765 2.66008L6.91938 15.0103C6.53381 15.6575 6.29428 16.4019 6.23057 17.1593L5.96292 20.4158C5.9253 20.8727 6.149 21.3016 6.54036 21.5348L6.54788 21.5392C6.93923 21.7724 7.42746 21.7573 7.81127 21.5067L10.5218 19.6953C11.1335 19.2847 11.6651 18.7347 12.0417 18.1025L19.4168 5.7222C19.6813 5.27817 19.5353 4.70172 19.0912 4.4372ZM18.0471 5.38549L16.8321 7.42504L14.0098 5.74379L15.2248 3.70424L18.0471 5.38549ZM9.78059 18.5603L7.34736 20.1801L7.58604 17.2632C7.63086 16.7087 7.80794 16.1718 8.09039 15.6977L13.3269 6.90728L16.1417 8.58405L10.8917 17.397C10.6137 17.8636 10.2349 18.2599 9.78059 18.5603Z" fill="#212121"/>
</svg>
