<svg width="24" height="24" viewBox="0 0 24 24" fill="none" xmlns="http://www.w3.org/2000/svg">
<path d="M9.93997 23.0091L14.0688 23.0091C14.5783 23.0091 15 22.5708 15 22.032L15 7.04566C15 6.26027 14.8243 5.46575 14.4905 4.75343L13.0498 1.69406C12.8477 1.26484 12.4348 1 11.978 1L11.9693 1C11.5124 1 11.0996 1.27397 10.8975 1.7032L9.49195 4.77169C9.1757 5.46575 9 6.24201 9 7.00913L9 22.032C9 22.5708 9.42167 23.0091 9.93997 23.0091ZM10.3529 21.6027L10.3529 19.1279L13.6471 19.1279L13.6471 21.6027L10.3529 21.6027ZM10.713 5.39269L11.978 2.64384L13.2694 5.38356C13.5154 5.90411 13.6384 6.47945 13.6384 7.0548L13.6384 17.7215L10.3529 17.7215L10.3529 7.0274C10.3529 6.46119 10.4758 5.90411 10.713 5.39269Z" fill="black"/>
</svg>
