<svg width="24" height="24" viewBox="0 0 24 24" fill="none" xmlns="http://www.w3.org/2000/svg">
<path d="M12.0045 11.866C14.8529 11.866 17.1683 9.65401 17.1683 6.93281C17.1683 4.21161 14.8529 1.99959 12.0045 1.99959C9.15604 1.99959 6.83189 4.21161 6.83189 6.93281C6.83189 9.65401 9.15604 11.866 12.0045 11.866ZM12.0045 3.26837C14.1189 3.26837 15.8402 4.91278 15.8402 6.93281C15.8402 8.95284 14.1189 10.5973 12.0045 10.5973C9.88999 10.5973 8.16871 8.95284 8.16871 6.93281C8.16871 4.91278 9.88999 3.26837 12.0045 3.26837Z" fill="black"/>
<path d="M12.0044 12.4003C6.49104 12.4003 2 16.4153 2 21.3568V21.9912H22V21.3568C22 16.4153 17.5177 12.4003 12.0044 12.4003ZM3.36304 20.7225C3.73001 16.7826 7.4609 13.669 12.0044 13.669C16.5478 13.669 20.2787 16.7826 20.6457 20.7225H3.36304Z" fill="black"/>
<path d="M13.3586 15.4553C13.3586 14.7375 12.7469 14.1615 12.0043 14.1615C11.2528 14.1615 10.65 14.7458 10.65 15.4553C10.65 15.8727 10.8597 16.2483 11.1829 16.482L10.5014 19.9044C10.4752 20.0797 10.6237 20.2383 10.816 20.2383H13.2013C13.3935 20.2383 13.542 20.0797 13.5071 19.8961L12.7557 16.5321C13.1139 16.3067 13.3586 15.9061 13.3586 15.4553Z" fill="black"/>
</svg>
