<svg width="24" height="24" viewBox="0 0 24 24" fill="none" xmlns="http://www.w3.org/2000/svg">
<path d="M12 13.1222C14.3275 13.1222 16.2228 11.2269 16.2228 8.89942C16.2228 6.57191 14.3275 4.67664 12 4.67664C9.67248 4.67664 7.77722 6.57191 7.77722 8.89942C7.77722 11.2269 9.67248 13.1222 12 13.1222ZM12 5.9734C13.6126 5.9734 14.926 7.28678 14.926 8.89942C14.926 10.5121 13.6126 11.8254 12 11.8254C10.3874 11.8254 9.07398 10.5121 9.07398 8.89942C9.07398 7.28678 10.3874 5.9734 12 5.9734Z" fill="#0E0E0E"/>
<path d="M12 2C6.48878 2 2 6.48878 2 12C2 17.5112 6.48878 22 12 22C17.5112 22 22 17.5112 22 12C22 6.48878 17.5112 2 12 2ZM12 3.29676C16.8047 3.29676 20.7032 7.20366 20.7032 12C20.7032 13.7955 20.1546 15.4663 19.2236 16.8545C17.4863 14.9011 14.7598 13.7041 12 13.7041C9.16542 13.7041 6.5054 14.8845 4.79302 16.8795C3.84539 15.4913 3.29676 13.8121 3.29676 12C3.29676 7.19534 7.19534 3.29676 12 3.29676ZM12 20.7032C9.4813 20.7032 7.20366 19.6226 5.61596 17.9102C7.07897 16.0815 9.44805 14.9925 12 14.9925C14.4771 14.9925 16.921 16.0981 18.409 17.8853C16.813 19.6143 14.5353 20.7032 12 20.7032Z" fill="#0E0E0E"/>
</svg>
