<svg width="24" height="24" viewBox="0 0 24 24" fill="none" xmlns="http://www.w3.org/2000/svg">
<path d="M12.0043 11.9754C14.8517 11.9754 17.1711 9.73633 17.1711 6.98768C17.1711 4.23902 14.8517 2 12.0043 2C9.15693 2 6.83749 4.23902 6.83749 6.98768C6.83749 9.73633 9.14827 11.9754 12.0043 11.9754ZM12.0043 3.2866C14.116 3.2866 15.8383 4.94916 15.8383 6.98768C15.8383 9.02619 14.116 10.6887 12.0043 10.6887C9.89257 10.6887 8.16164 9.02619 8.16164 6.98768C8.16164 4.94916 9.88391 3.2866 12.0043 3.2866Z" fill="black"/>
<path d="M12.0043 12.744C6.48268 12.744 1.99958 16.6121 1.99958 21.3659V22.0092H22.0004V21.3659C22.0004 16.6121 17.5173 12.744 12.0043 12.744ZM3.35836 20.7226C3.74782 16.9797 7.46931 14.0306 11.9957 14.0306C16.522 14.0306 20.2435 16.9797 20.633 20.7226H3.35836Z" fill="black"/>
</svg>
