<svg width="24" height="24" viewBox="0 0 24 24" fill="none" xmlns="http://www.w3.org/2000/svg">
<path d="M12 13.2344C14.5603 13.2344 16.6451 11.1496 16.6451 8.58936C16.6451 6.02909 14.5603 3.94431 12 3.94431C9.43977 3.94431 7.35498 6.02909 7.35498 8.58936C7.35498 11.1496 9.43977 13.2344 12 13.2344ZM12 5.37074C13.7739 5.37074 15.2187 6.81546 15.2187 8.58936C15.2187 10.3633 13.7739 11.808 12 11.808C10.2261 11.808 8.78141 10.3633 8.78141 8.58936C8.78141 6.81546 10.2261 5.37074 12 5.37074Z" fill="#0E0E0E"/>
<path d="M12 1C5.93766 1 1 5.93766 1 12C1 18.0623 5.93766 23 12 23C18.0623 23 23 18.0623 23 12C23 5.93766 18.0623 1 12 1ZM12 2.42643C17.2851 2.42643 21.5736 6.72402 21.5736 12C21.5736 13.9751 20.9701 15.813 19.946 17.34C18.0349 15.1912 15.0357 13.8745 12 13.8745C8.88196 13.8745 5.95594 15.1729 4.07232 17.3674C3.02993 15.8404 2.42643 13.9933 2.42643 12C2.42643 6.71488 6.71488 2.42643 12 2.42643ZM12 21.5736C9.22943 21.5736 6.72402 20.3849 4.97756 18.5012C6.58687 16.4896 9.19285 15.2918 12 15.2918C14.7249 15.2918 17.4131 16.5079 19.0499 18.4738C17.2943 20.3757 14.7889 21.5736 12 21.5736Z" fill="#0E0E0E"/>
</svg>
