<svg width="24" height="24" viewBox="0 0 24 24" fill="none" xmlns="http://www.w3.org/2000/svg">
<path d="M12.0049 11.8531C15.1382 11.8531 17.6851 9.41987 17.6851 6.42654C17.6851 3.43322 15.1382 1 12.0049 1C8.87167 1 6.31509 3.43322 6.31509 6.42654C6.31509 9.41987 8.87167 11.8531 12.0049 11.8531ZM12.0049 2.39566C14.3308 2.39566 16.2242 4.20451 16.2242 6.42654C16.2242 8.64858 14.3308 10.4574 12.0049 10.4574C9.67901 10.4574 7.7856 8.64858 7.7856 6.42654C7.7856 4.20451 9.67901 2.39566 12.0049 2.39566Z" fill="black"/>
<path d="M12.0048 12.4407C5.94015 12.4407 1 16.8573 1 22.293V22.9908H23V22.293C23 16.8573 18.0695 12.4407 12.0048 12.4407ZM2.49934 21.5952C2.90301 17.2613 7.00699 13.8364 12.0048 13.8364C17.0026 13.8364 21.1066 17.2613 21.5103 21.5952H2.49934Z" fill="black"/>
<path d="M13.4944 15.8013C13.4944 15.0117 12.8216 14.3781 12.0047 14.3781C11.1781 14.3781 10.515 15.0209 10.515 15.8013C10.515 16.2604 10.7456 16.6736 11.1012 16.9307L10.3516 20.6953C10.3227 20.8881 10.4861 21.0626 10.6976 21.0626H13.3214C13.5329 21.0626 13.6963 20.8881 13.6578 20.6861L12.8313 16.9858C13.2253 16.7379 13.4944 16.2972 13.4944 15.8013Z" fill="black"/>
</svg>
