<svg width="24" height="24" viewBox="0 0 24 24" fill="none" xmlns="http://www.w3.org/2000/svg">
<path d="M12.0047 11.9724C15.1367 11.9724 17.688 9.50961 17.688 6.48622C17.688 3.46282 15.1367 1 12.0047 1C8.87275 1 6.32147 3.46282 6.32147 6.48622C6.32147 9.50961 8.86323 11.9724 12.0047 11.9724ZM12.0047 2.4152C14.3275 2.4152 16.2219 4.24394 16.2219 6.48622C16.2219 8.72849 14.3275 10.5572 12.0047 10.5572C9.68192 10.5572 7.77798 8.72849 7.77798 6.48622C7.77798 4.24394 9.6724 2.4152 12.0047 2.4152Z" fill="black"/>
<path d="M12.0048 12.8179C5.9312 12.8179 1 17.0727 1 22.3016V23.0092H23V22.3016C23 17.0727 18.0688 12.8179 12.0048 12.8179ZM2.49459 21.594C2.92298 17.477 7.01644 14.2331 11.9952 14.2331C16.974 14.2331 21.0675 17.477 21.4959 21.594H2.49459Z" fill="black"/>
</svg>
