<svg width="24" height="24" viewBox="0 0 24 24" fill="none" xmlns="http://www.w3.org/2000/svg">
<path d="M16.6129 22C15.4909 22 14.3438 21.767 13.2384 21.3177C6.40609 18.5301 3.58009 13.1296 2.67411 10.9412C2.33333 10.1091 2.11722 9.27695 2.04242 8.48644C1.72657 5.29112 3.24762 3.29404 4.18685 2.38703C4.72712 1.8628 5.59985 1.87112 6.1318 2.41199L10.3542 6.739C10.4872 6.87213 10.5537 7.06352 10.537 7.25491C10.4373 8.45315 9.53963 9.12717 8.883 9.46834C10.3376 12.4723 13.1386 14.3362 14.3272 15.0269C15.2083 13.6539 16.6046 13.3626 16.6711 13.346C16.8872 13.3044 17.1116 13.371 17.2696 13.5291L21.5917 17.8228C22.0488 18.2804 22.132 18.9961 21.7912 19.5286C20.9434 20.86 19.5054 21.6838 17.6436 21.9334C17.3028 21.975 16.9537 22 16.6129 22ZM5.15102 3.32732C5.13439 3.32732 5.11777 3.33564 5.10946 3.34396C4.34477 4.08455 3.09801 5.72381 3.35567 8.36162C3.42217 9.02731 3.60503 9.72629 3.89594 10.4419C4.73543 12.4806 7.36194 17.4983 13.7371 20.0945C14.9755 20.602 16.2638 20.7851 17.4691 20.6187C18.9485 20.4273 20.0291 19.8115 20.6691 18.813C20.6774 18.8047 20.6691 18.7797 20.6525 18.7547L16.6213 14.7439C16.2306 14.9104 15.574 15.3098 15.2083 16.1752C15.1418 16.3416 15.0005 16.4747 14.8342 16.5413C14.668 16.6079 14.4768 16.5996 14.3106 16.5247C14.1028 16.4248 9.28196 14.0866 7.37857 9.36848C7.32039 9.19374 7.3287 8.99403 7.41182 8.82761C7.49493 8.66118 7.64455 8.53637 7.8274 8.48644C7.83572 8.48644 8.89962 8.17856 9.1656 7.42133L5.18426 3.34396C5.17595 3.32732 5.15933 3.32732 5.15102 3.32732Z" fill="black"/>
</svg>
