<svg width="24" height="24" viewBox="0 0 24 24" fill="none" xmlns="http://www.w3.org/2000/svg">
<path d="M15.6226 4.24441V1H8.36805V4.25352C6.99608 4.71831 6 5.98509 6 7.4797V19.5915C6 21.478 7.5787 23.0091 9.52388 23.0091H14.4761C16.4213 23.0091 18 21.478 18 19.5915V7.4797C18 5.97597 17.0039 4.7092 15.6226 4.24441ZM7.42835 19.2544V17.86H16.5623V19.2544H7.42835ZM7.42835 16.4747V8.77382H16.5623V16.4656H7.42835V16.4747ZM9.80579 2.38525H14.1848V4.05302H13.5364V2.86827H12.4652V4.05302H11.6194V2.86827H10.5388V4.05302H9.80579V2.38525ZM9.52388 5.44739H14.4761C15.6038 5.44739 16.5153 6.31317 16.5623 7.38857H7.43774C7.48473 6.31317 8.40564 5.44739 9.52388 5.44739ZM14.4761 21.6147H9.52388C8.77212 21.6147 8.11433 21.2229 7.74785 20.6487H16.2616C15.8857 21.2229 15.2279 21.6147 14.4761 21.6147Z" fill="black"/>
<path d="M13.7525 10.7515V9.26595H10.1817V10.7515H8.65936V14.2146H10.1911V15.7001H13.7619V14.2146H15.2937V10.7515H13.7525ZM14.213 13.1756H12.6813V14.6611H11.2623V13.1756H9.73062V11.7995H11.2623V10.314H12.6813V11.7995H14.213V13.1756V13.1756Z" fill="black"/>
</svg>
