<svg width="24" height="24" viewBox="0 0 24 24" fill="none" xmlns="http://www.w3.org/2000/svg">
<path d="M15.2934 4.94958V2H8.69809V4.95787C7.4508 5.38042 6.54523 6.53208 6.54523 7.89088V18.9021C6.54523 20.6172 7.98047 22.0091 9.74889 22.0091H14.2511C16.0195 22.0091 17.4548 20.6172 17.4548 18.9021V7.89088C17.4548 6.5238 16.5492 5.37214 15.2934 4.94958ZM7.84378 18.5956V17.3279H16.1477V18.5956H7.84378ZM7.84378 16.0685V9.0674H16.1477V16.0602H7.84378V16.0685ZM10.0052 3.25937H13.9863V4.77559H13.3968V3.6985H12.4229V4.77559H11.654V3.6985H10.6715V4.77559H10.0052V3.25937ZM9.74889 6.04325H14.2511C15.2763 6.04325 16.105 6.83036 16.1477 7.80803H7.85232C7.89504 6.83036 8.73226 6.04325 9.74889 6.04325ZM14.2511 20.7415H9.74889C9.06544 20.7415 8.46743 20.3852 8.13424 19.8632H15.8743C15.5326 20.3852 14.9346 20.7415 14.2511 20.7415Z" fill="black"/>
<path d="M13.5933 10.8653V9.5148H10.3469V10.8653H8.96292V14.0137H10.3554V15.3643H13.6018V14.0137H14.9944V10.8653H13.5933ZM14.0119 13.0692H12.6194V14.4197H11.3294V13.0692H9.93683V11.8181H11.3294V10.4676H12.6194V11.8181H14.0119V13.0692Z" fill="black"/>
</svg>
