<svg width="24" height="24" viewBox="0 0 24 24" fill="none" xmlns="http://www.w3.org/2000/svg">
<path d="M11.5 23.0001C10.9676 23.0001 10.4812 22.7905 10.114 22.4168L4.68019 16.8394C3.06473 15.1807 2.11932 13.0846 2.00918 10.9247C2 10.7607 2 10.5966 2 10.4326C2 7.83523 3.09227 5.32901 4.99227 3.56099C6.91981 1.75652 9.45314 0.863394 12.1058 1.01832C16.8604 1.30996 20.6696 5.09206 20.9816 9.81286C21.0734 11.2072 20.8623 12.5651 20.3575 13.8593C19.9444 14.9164 19.2744 15.9189 18.3749 16.8394L12.886 22.4259C12.5188 22.7905 12.0232 23.0001 11.5 23.0001ZM11.4908 2.41269C9.4256 2.41269 7.47971 3.17822 5.96522 4.59082C4.32222 6.12189 3.41353 8.19977 3.41353 10.4417C3.41353 10.5875 3.41353 10.7242 3.42271 10.8609C3.51449 12.6836 4.32222 14.4607 5.69903 15.8642L11.1328 21.4417C11.2246 21.5419 11.3531 21.5966 11.4908 21.5966C11.6285 21.5966 11.757 21.5419 11.8488 21.4417L17.3377 15.8551C18.1087 15.0713 18.6686 14.2329 19.0174 13.3489C19.4488 12.2553 19.6232 11.0979 19.5498 9.90399C19.2928 5.89405 16.0435 2.67698 12.0048 2.43092C11.8396 2.41269 11.6652 2.41269 11.4908 2.41269Z" fill="black"/>
<path d="M11.5 14.4515C9.26954 14.4515 7.45215 12.6471 7.45215 10.4325C7.45215 8.2179 9.26954 6.41342 11.5 6.41342C13.7304 6.41342 15.5478 8.2179 15.5478 10.4325C15.5478 12.6471 13.7304 14.4515 11.5 14.4515ZM11.5 7.82601C10.0497 7.82601 8.87485 8.99254 8.87485 10.4325C8.87485 11.8724 10.0497 13.0389 11.5 13.0389C12.9502 13.0389 14.1251 11.8724 14.1251 10.4325C14.1251 8.99254 12.9502 7.82601 11.5 7.82601Z" fill="black"/>
</svg>
