<svg width="24" height="24" viewBox="0 0 24 24" fill="none" xmlns="http://www.w3.org/2000/svg">
<path d="M11.6362 21.9988C11.1523 21.9988 10.71 21.8083 10.3763 21.4686L5.4365 16.3982C3.96793 14.8904 3.10847 12.9849 3.00834 11.0213C3 10.8722 3 10.7231 3 10.574C3 8.21276 3.99296 5.93442 5.72021 4.32715C7.47249 2.68674 9.77549 1.87482 12.187 2.01567C16.5092 2.28078 19.9721 5.71901 20.2558 10.0106C20.3392 11.2782 20.1473 12.5126 19.6884 13.6891C19.3129 14.6501 18.7038 15.5615 17.886 16.3982L12.8962 21.4769C12.5624 21.8083 12.1119 21.9988 11.6362 21.9988ZM11.6279 3.28325C9.75045 3.28325 7.98148 3.97918 6.60469 5.26334C5.11108 6.6552 4.28501 8.54416 4.28501 10.5822C4.28501 10.7148 4.28501 10.8391 4.29335 10.9633C4.37679 12.6203 5.11108 14.2359 6.36271 15.5117L11.3025 20.5821C11.3859 20.6732 11.5027 20.7229 11.6279 20.7229C11.7531 20.7229 11.8699 20.6732 11.9533 20.5821L16.9431 15.5035C17.6441 14.791 18.1531 14.0288 18.4701 13.2251C18.8623 12.2309 19.0209 11.1788 18.9541 10.0934C18.7205 6.44808 15.7666 3.52352 12.0952 3.29982C11.945 3.28325 11.7864 3.28325 11.6279 3.28325Z" fill="black"/>
<path d="M11.6362 14.2275C9.60858 14.2275 7.95643 12.5871 7.95643 10.5739C7.95643 8.56063 9.60858 6.92023 11.6362 6.92023C13.6639 6.92023 15.316 8.56063 15.316 10.5739C15.316 12.5871 13.6639 14.2275 11.6362 14.2275ZM11.6362 8.20438C10.3178 8.20438 9.24978 9.26485 9.24978 10.5739C9.24978 11.8829 10.3178 12.9433 11.6362 12.9433C12.9546 12.9433 14.0227 11.8829 14.0227 10.5739C14.0227 9.26485 12.9546 8.20438 11.6362 8.20438Z" fill="black"/>
</svg>
