<svg width="24" height="24" viewBox="0 0 24 24" fill="none" xmlns="http://www.w3.org/2000/svg">
<path d="M21.4568 11.3093C20.962 10.8053 20.2028 10.3769 19.2046 10.0409C18.0444 9.65446 16.8075 9.46965 15.5193 9.50325L15.0586 9.52845L12.1837 7.24361C11.9789 7.084 11.7316 7 11.4756 7H9.61588C9.16374 7 8.76279 7.25201 8.56658 7.66361C8.37037 8.08362 8.43861 8.57923 8.7372 8.93204L9.48792 9.71326L8.89075 9.73006L7.23575 9.80566L3.82338 7.2352C3.62717 7.084 3.3883 7 3.14091 7C2.76555 7 2.40725 7.1932 2.19397 7.50401C1.97217 7.83162 1.93805 8.25163 2.0916 8.61283L2.73995 10.1081C2.49256 10.2341 2.28781 10.4441 2.16838 10.7045C1.95511 11.1581 2.00629 11.6789 2.31341 12.0653C3.36271 13.4177 5.81962 14.6106 7.59405 15.0474C7.91823 15.123 8.25093 15.1986 8.55805 15.2574L8.1315 15.9294C7.87557 16.3326 7.85851 16.845 8.09738 17.265C8.32771 17.6682 8.7372 17.9118 9.19787 17.9118H10.2984C10.5713 17.9118 10.8273 17.8278 11.0405 17.6682L14.1031 15.4254C16.7136 15.4086 17.234 15.3498 18.5904 15.1482C19.7506 14.9802 20.6634 14.6358 21.2947 14.1318C21.7042 13.8041 21.9601 13.3085 21.9943 12.7793C22.0369 12.2333 21.8407 11.6957 21.4568 11.3093ZM9.80356 8.24323H11.433L13.1647 9.62086L13.0368 9.62926L11.1856 9.67966L9.80356 8.24323ZM5.27364 9.88126C4.78738 9.90646 4.36936 9.92326 4.02812 9.93166L3.39684 8.47003L5.27364 9.88126ZM20.5099 13.1657C20.1942 13.4177 19.5715 13.7537 18.4027 13.9217C17.4985 14.0561 17.0207 14.1234 15.7923 14.157C15.9629 13.9385 15.98 13.6361 15.8093 13.4009C15.6046 13.1237 15.2036 13.0649 14.9306 13.2749L10.2984 16.6686H9.2064C9.19787 16.6686 9.17227 16.6266 9.19787 16.5846L10.9041 13.9049C11.0917 13.6193 10.9979 13.2329 10.7078 13.0481C10.4178 12.8717 10.0254 12.9641 9.83769 13.2497L9.28318 14.1318C8.97606 14.0814 8.46421 13.9889 7.90117 13.8461C6.30588 13.4597 4.15609 12.4013 3.31153 11.3093C3.303 11.3009 3.28593 11.2841 3.29446 11.2505C3.303 11.2169 3.32006 11.2085 3.32006 11.2001C3.96841 11.1749 5.06037 11.1329 6.90305 11.0573L8.93341 10.9733L13.088 10.8641L15.5619 10.7465C16.6966 10.7129 17.78 10.8725 18.7952 11.2169C18.9999 11.2841 19.1961 11.3597 19.3753 11.4353H18.7696C18.4198 11.4353 18.1383 11.7125 18.1383 12.0569C18.1383 12.4013 18.4198 12.6785 18.7696 12.6785H20.7402C20.7402 12.6869 20.7402 12.6953 20.7402 12.7037C20.7317 12.8885 20.6464 13.0565 20.5099 13.1657Z" fill="black"/>
<path d="M16.7222 11.4353H16.1165C15.7667 11.4353 15.4852 11.7125 15.4852 12.0569C15.4852 12.4013 15.7667 12.6785 16.1165 12.6785H16.7222C17.0719 12.6785 17.3534 12.4013 17.3534 12.0569C17.3534 11.7125 17.0719 11.4353 16.7222 11.4353Z" fill="black"/>
<path d="M9.15524 11.4353H8.55808C8.20831 11.4353 7.92679 11.7125 7.92679 12.0569C7.92679 12.4013 8.20831 12.6785 8.55808 12.6785H9.16377C9.51354 12.6785 9.79506 12.4013 9.79506 12.0569C9.78653 11.7125 9.50501 11.4353 9.15524 11.4353Z" fill="black"/>
<path d="M14.2056 11.4353H13.5999C13.2501 11.4353 12.9686 11.7125 12.9686 12.0569C12.9686 12.4013 13.2501 12.6785 13.5999 12.6785H14.2056C14.5553 12.6785 14.8368 12.4013 14.8368 12.0569C14.8283 11.7125 14.5468 11.4353 14.2056 11.4353Z" fill="black"/>
<path d="M11.6804 11.4353H11.0747C10.7249 11.4353 10.4434 11.7125 10.4434 12.0569C10.4434 12.4013 10.7249 12.6785 11.0747 12.6785H11.6804C12.0302 12.6785 12.3117 12.4013 12.3117 12.0569C12.3117 11.7125 12.0302 11.4353 11.6804 11.4353Z" fill="black"/>
</svg>
