<svg width="24" height="24" viewBox="0 0 24 24" fill="none" xmlns="http://www.w3.org/2000/svg">
<path d="M22.4 10.739C21.8559 10.1848 21.0209 9.71363 19.9232 9.34411C18.6473 8.91917 17.287 8.71594 15.8704 8.75289L15.3638 8.7806L12.2021 6.2679C11.977 6.09238 11.7049 6 11.4235 6H9.37825C8.88102 6 8.44008 6.27714 8.22431 6.72979C8.00853 7.19169 8.08358 7.73672 8.41194 8.12471L9.23753 8.98383L8.58081 9.00231L6.76077 9.08545L3.0081 6.25866C2.79232 6.09238 2.52964 6 2.25757 6C1.84478 6 1.45075 6.21247 1.2162 6.55427C0.972281 6.91455 0.934755 7.37644 1.10362 7.77367L1.81663 9.41801C1.54456 9.55658 1.3194 9.78753 1.18806 10.0739C0.953518 10.5727 1.00981 11.1455 1.34755 11.5704C2.50149 13.0577 5.20341 14.3695 7.1548 14.8499C7.5113 14.933 7.87719 15.0162 8.21492 15.0808L7.74584 15.8199C7.46439 16.2633 7.44563 16.8268 7.70832 17.2887C7.96162 17.7321 8.41194 18 8.91855 18H10.1288C10.429 18 10.7104 17.9076 10.945 17.7321L14.313 15.2656C17.1838 15.2471 17.7561 15.1824 19.2478 14.9607C20.5237 14.776 21.5275 14.3972 22.2217 13.843C22.6721 13.4827 22.9535 12.9376 22.991 12.3557C23.038 11.7552 22.8222 11.164 22.4 10.739ZM9.58465 7.36721H11.3765L13.281 8.88222L13.1403 8.89146L11.1045 8.94688L9.58465 7.36721ZM4.60298 9.16859C4.06823 9.1963 3.60853 9.21478 3.23326 9.22402L2.53902 7.61663L4.60298 9.16859ZM21.3586 12.7806C21.0115 13.0577 20.3267 13.4273 19.0414 13.612C18.0469 13.7598 17.5215 13.8337 16.1706 13.8707C16.3582 13.6305 16.377 13.2979 16.1893 13.0393C15.9642 12.7344 15.5232 12.6697 15.223 12.9007L10.1288 16.6328H8.92793C8.91855 16.6328 8.8904 16.5866 8.91855 16.5404L10.7949 13.5935C11.0013 13.2794 10.8981 12.8545 10.5791 12.6513C10.2601 12.4573 9.82857 12.5589 9.62217 12.873L9.01237 13.843C8.67463 13.7875 8.11173 13.6859 7.49254 13.5289C5.73817 13.1039 3.37399 11.94 2.4452 10.739C2.43582 10.7298 2.41706 10.7113 2.42644 10.6744C2.43582 10.6374 2.45458 10.6282 2.45458 10.6189C3.16759 10.5912 4.36844 10.545 6.39488 10.4619L8.62772 10.3695L13.1966 10.2494L15.9173 10.1201C17.165 10.0831 18.3565 10.2587 19.4729 10.6374C19.6981 10.7113 19.9139 10.7945 20.1109 10.8776H19.4448C19.0601 10.8776 18.7505 11.1824 18.7505 11.5612C18.7505 11.94 19.0601 12.2448 19.4448 12.2448H21.6119C21.6119 12.254 21.6119 12.2633 21.6119 12.2725C21.6026 12.4758 21.5087 12.6605 21.3586 12.7806Z" fill="black"/>
<path d="M17.1932 10.8776H16.5271C16.1425 10.8776 15.8329 11.1824 15.8329 11.5612C15.8329 11.94 16.1425 12.2448 16.5271 12.2448H17.1932C17.5779 12.2448 17.8875 11.94 17.8875 11.5612C17.8875 11.1824 17.5779 10.8776 17.1932 10.8776Z" fill="black"/>
<path d="M8.87165 10.8776H8.21493C7.83029 10.8776 7.52069 11.1824 7.52069 11.5612C7.52069 11.94 7.83029 12.2448 8.21493 12.2448H8.88103C9.26568 12.2448 9.57528 11.94 9.57528 11.5612C9.56589 11.1824 9.2563 10.8776 8.87165 10.8776Z" fill="black"/>
<path d="M14.4256 10.8776H13.7595C13.3748 10.8776 13.0652 11.1824 13.0652 11.5612C13.0652 11.94 13.3748 12.2448 13.7595 12.2448H14.4256C14.8102 12.2448 15.1198 11.94 15.1198 11.5612C15.1104 11.1824 14.8009 10.8776 14.4256 10.8776Z" fill="black"/>
<path d="M11.6486 10.8776H10.9825C10.5979 10.8776 10.2883 11.1824 10.2883 11.5612C10.2883 11.94 10.5979 12.2448 10.9825 12.2448H11.6486C12.0333 12.2448 12.3429 11.94 12.3429 11.5612C12.3429 11.1824 12.0333 10.8776 11.6486 10.8776Z" fill="black"/>
</svg>
