<svg width="24" height="24" viewBox="0 0 24 24" fill="none" xmlns="http://www.w3.org/2000/svg">
<path d="M20.8687 10.8543H13.1719V3.15086C13.1719 2.5184 12.6532 2 12.0101 2C11.3669 2 10.8587 2.5184 10.8587 3.15086V10.844H3.15142C2.51866 10.8543 2 11.3727 2 12.0052C2 12.648 2.51866 13.156 3.15142 13.156H10.8483V20.8491C10.8483 21.492 11.3669 22 11.9997 22C12.6325 22 13.1511 21.4816 13.1511 20.8491V13.156H20.848C21.4911 13.156 21.9994 12.6376 21.9994 12.0052C22.0201 11.3727 21.5015 10.8543 20.8687 10.8543Z" fill="#212121"/>
</svg>
