<svg width="24" height="24" viewBox="0 0 24 24" fill="none" xmlns="http://www.w3.org/2000/svg">
<path d="M6.28571 5.125C6.28571 4.56141 6.51148 4.02091 6.91334 3.6224C7.31521 3.22388 7.86025 3 8.42857 3H15.5714C16.1397 3 16.6848 3.22388 17.0867 3.6224C17.4885 4.02091 17.7143 4.56141 17.7143 5.125V5.83333H19.1429C19.9006 5.83333 20.6273 6.13184 21.1632 6.6632C21.699 7.19455 22 7.91522 22 8.66667V15.0417C22 15.6053 21.7742 16.1458 21.3724 16.5443C20.9705 16.9428 20.4255 17.1667 19.8571 17.1667H17.8571V17.875C17.8571 18.4386 17.6314 18.9791 17.2295 19.3776C16.8277 19.7761 16.2826 20 15.7143 20H8.42857C7.86025 20 7.31521 19.7761 6.91334 19.3776C6.51148 18.9791 6.28571 18.4386 6.28571 17.875V17.1667H4.14286C3.57454 17.1667 3.02949 16.9428 2.62763 16.5443C2.22576 16.1458 2 15.6053 2 15.0417V8.66667C2 7.91522 2.30102 7.19455 2.83684 6.6632C3.37266 6.13184 4.09938 5.83333 4.85714 5.83333H6.28571V5.125ZM16.2857 5.83333V5.125C16.2857 4.93714 16.2105 4.75697 16.0765 4.62413C15.9426 4.49129 15.7609 4.41667 15.5714 4.41667H8.42857C8.23913 4.41667 8.05745 4.49129 7.9235 4.62413C7.78954 4.75697 7.71429 4.93714 7.71429 5.125V5.83333H16.2857ZM6.28571 7.25H4.85714C4.47826 7.25 4.1149 7.39926 3.84699 7.66493C3.57908 7.93061 3.42857 8.29094 3.42857 8.66667V15.0417C3.42857 15.2295 3.50383 15.4097 3.63778 15.5425C3.77174 15.6754 3.95342 15.75 4.14286 15.75H6.28571V15.0417C6.28571 14.4781 6.51148 13.9376 6.91334 13.5391C7.31521 13.1405 7.86025 12.9167 8.42857 12.9167H15.7143C16.2826 12.9167 16.8277 13.1405 17.2295 13.5391C17.6314 13.9376 17.8571 14.4781 17.8571 15.0417V15.75H19.8571C20.0466 15.75 20.2283 15.6754 20.3622 15.5425C20.4962 15.4097 20.5714 15.2295 20.5714 15.0417V8.66667C20.5714 8.29094 20.4209 7.93061 20.153 7.66493C19.8851 7.39926 19.5217 7.25 19.1429 7.25H6.28571ZM8.42857 14.3333C8.23913 14.3333 8.05745 14.408 7.9235 14.5408C7.78954 14.6736 7.71429 14.8538 7.71429 15.0417V17.875C7.71429 18.0629 7.78954 18.243 7.9235 18.3759C8.05745 18.5087 8.23913 18.5833 8.42857 18.5833H15.7143C15.9037 18.5833 16.0854 18.5087 16.2194 18.3759C16.3533 18.243 16.4286 18.0629 16.4286 17.875V15.0417C16.4286 14.8538 16.3533 14.6736 16.2194 14.5408C16.0854 14.408 15.9037 14.3333 15.7143 14.3333H8.42857Z" fill="#101010"/>
</svg>
