<svg width="24" height="24" viewBox="0 0 24 24" fill="none" xmlns="http://www.w3.org/2000/svg">
<path d="M20.8288 10.9588C21.1962 10.4414 21.1875 9.75151 20.785 9.25051L19.6127 7.76393C19.5777 7.72287 19.5602 7.66537 19.5689 7.6161L19.6739 6.16237C19.7264 5.45604 19.2277 4.81541 18.5015 4.63472L16.9179 4.24049C16.8654 4.22407 16.8217 4.19943 16.7867 4.15836L15.5268 2.58965C15.0981 2.0558 14.3369 1.85868 13.6808 2.10508L12.0797 2.70464C12.0272 2.72106 11.9747 2.72927 11.9134 2.71285L10.1724 2.19542C9.46369 1.99009 8.70252 2.26113 8.33505 2.8689L7.59138 4.07623C7.55638 4.12551 7.50389 4.16658 7.44265 4.183L5.68408 4.60187C5.00165 4.76613 4.52919 5.31642 4.4942 5.97347L4.39796 7.89534C4.39796 7.94462 4.37171 7.9939 4.34546 8.02675L3.26932 9.25051C2.81437 9.76794 2.78812 10.5153 3.20808 11.0656L4.35421 12.544C4.38046 12.585 4.39796 12.6261 4.39796 12.6754V14.3837C4.39796 15.0408 4.84416 15.6075 5.50909 15.7964L6.60273 16.1167L5.02789 19.0816C4.87916 19.3691 4.91415 19.7058 5.11538 19.9605C5.31661 20.2151 5.64908 20.3465 5.98155 20.3054L7.81886 20.059L8.75501 21.562C8.92124 21.8248 9.21871 21.9891 9.54243 21.9891C9.55118 21.9891 9.56868 21.9891 9.57743 21.9891C9.91864 21.9727 10.2161 21.792 10.3648 21.5127L12.1584 18.1371L13.917 21.5045C14.0657 21.792 14.3632 21.9809 14.7044 21.9891C14.7132 21.9891 14.7307 21.9891 14.7394 21.9891C15.0631 21.9891 15.3606 21.8248 15.5268 21.562L16.4717 20.0672L18.309 20.3136C18.6415 20.3547 18.974 20.2233 19.1752 19.9687C19.3764 19.7141 19.4114 19.3773 19.2627 19.0816L17.6791 16.051L18.5978 15.78C19.3064 15.5746 19.7614 14.9504 19.7089 14.2523L19.5952 12.774C19.5952 12.7247 19.6039 12.6754 19.6389 12.6343L20.8288 10.9588ZM9.51618 20.3054L8.83375 19.2048C8.64127 18.901 8.28256 18.7367 7.9151 18.786L6.59398 18.9584L7.69637 16.8887L8.51004 17.9072C8.81626 18.2932 9.28871 18.5067 9.77866 18.5067C9.97989 18.5067 10.1811 18.4739 10.3823 18.3917L10.5748 18.3178L9.51618 20.3054ZM16.3842 18.786C16.0168 18.7367 15.6581 18.901 15.4656 19.2048L14.7831 20.2972L13.7333 18.2932L13.9257 18.3589C14.5994 18.5724 15.3431 18.3425 15.7455 17.7922L16.533 16.7163L17.7141 18.9667L16.3842 18.786ZM18.519 11.9362C18.3265 12.2072 18.2303 12.544 18.2565 12.8725L18.3703 14.3509C18.379 14.4576 18.309 14.5562 18.204 14.5808L16.5155 15.0736C16.1743 15.1722 15.8768 15.3775 15.6756 15.6568L14.6344 17.0859C14.5732 17.168 14.4594 17.209 14.3544 17.1762L12.5609 16.6013C12.1934 16.4863 11.7997 16.4945 11.441 16.6341L9.8574 17.2501C9.75241 17.2912 9.63867 17.2583 9.56868 17.1762L8.33505 15.6239C8.13383 15.3693 7.8626 15.1886 7.53889 15.0983L5.9028 14.6219C5.79781 14.5891 5.73657 14.5069 5.73657 14.4084V12.7C5.73657 12.3879 5.63158 12.084 5.4391 11.8294L4.29297 10.3511C4.23172 10.2443 4.23172 10.1293 4.30172 10.0472L5.36911 8.83164C5.58784 8.58525 5.71032 8.27315 5.72782 7.95283L5.82406 6.03096C5.83281 5.9324 5.9028 5.84206 6.00779 5.81742L7.76636 5.39855C8.17757 5.29999 8.53628 5.04538 8.74626 4.70043L9.48994 3.4931C9.53368 3.41918 9.61242 3.37811 9.69992 3.37811C9.72616 3.37811 9.75241 3.37811 9.76991 3.38633L11.511 3.90375C11.8609 4.00231 12.2372 3.9941 12.5696 3.86269L14.1707 3.26313C14.2757 3.22206 14.3894 3.25492 14.4507 3.33705L15.7106 4.90576C15.9205 5.16858 16.2267 5.35748 16.568 5.44783L18.1515 5.84206C18.2653 5.8667 18.3353 5.96525 18.3265 6.08024L18.2215 7.53396C18.1953 7.88713 18.309 8.23208 18.5278 8.51133L19.7001 9.99791C19.7614 10.0718 19.7614 10.1786 19.7089 10.2607L18.519 11.9362Z" fill="black"/>
<path d="M13.4095 8.74932L12.7096 7.39416C12.5783 7.13133 12.2984 6.97528 11.9921 6.96707C11.6947 6.97528 11.406 7.12312 11.266 7.38594L10.5485 8.74111L8.96495 8.95465C8.65873 8.98751 8.41376 9.18462 8.30877 9.46387C8.22128 9.7349 8.29127 10.0306 8.51 10.2359L9.65613 11.2954L9.37616 12.782C9.32367 13.0694 9.44615 13.3487 9.69113 13.5212C9.9361 13.6936 10.2598 13.7183 10.5398 13.5787L11.9659 12.8805L13.3833 13.5869C13.5057 13.6444 13.6282 13.6772 13.7595 13.6772C13.9257 13.6772 14.0832 13.6279 14.2232 13.5376C14.4769 13.3651 14.5994 13.0859 14.5469 12.7984L14.2844 11.3118L15.4393 10.2605C15.658 10.0634 15.7368 9.76775 15.6493 9.48851C15.553 9.21747 15.3081 9.02036 15.0018 8.97108L13.4095 8.74932ZM13.1558 10.5891C12.9633 10.7615 12.8758 11.0079 12.9195 11.2543L13.0508 11.9935L12.3421 11.6404C12.2284 11.5829 12.0971 11.55 11.9659 11.55C11.8347 11.55 11.7122 11.5746 11.5984 11.6321L10.8898 11.9771L11.0297 11.2379C11.0735 10.9915 10.986 10.7451 10.8023 10.5726L10.2248 10.0552L11.021 9.94844C11.2835 9.91559 11.5109 9.75954 11.6247 9.53779L11.9834 8.86431L12.3334 9.53779C12.4471 9.75954 12.6746 9.91559 12.937 9.94844L13.7332 10.0634L13.1558 10.5891Z" fill="black"/>
<path d="M12.0011 4.53601C8.64143 4.53601 5.91171 7.09851 5.91171 10.2524C5.91171 13.4062 8.64143 15.9687 12.0011 15.9687C15.3607 15.9687 18.0905 13.4062 18.0905 10.2524C18.0905 7.09851 15.3607 4.53601 12.0011 4.53601ZM12.0011 14.7121C9.37636 14.7121 7.25033 12.7081 7.25033 10.2524C7.25033 7.79663 9.38511 5.79262 12.0011 5.79262C14.6171 5.79262 16.7519 7.79663 16.7519 10.2524C16.7519 12.7081 14.6258 14.7121 12.0011 14.7121Z" fill="black"/>
</svg>
