<svg width="24" height="24" viewBox="0 0 24 24" fill="none" xmlns="http://www.w3.org/2000/svg">
<path d="M21.7119 10.8552C22.1161 10.286 22.1065 9.52709 21.6637 8.97596L20.3741 7.34064C20.3356 7.29547 20.3163 7.23222 20.3259 7.17801L20.4414 5.57883C20.4992 4.80183 19.9506 4.09711 19.1517 3.89834L17.4097 3.46467C17.352 3.4466 17.3038 3.41949 17.2653 3.37432L15.8794 1.64865C15.4078 1.06138 14.5705 0.844542 13.8487 1.11559L12.0874 1.77514C12.0296 1.79321 11.9719 1.80224 11.9045 1.78417L9.98923 1.21497C9.20965 0.9891 8.37232 1.28725 7.96809 1.95584L7.15001 3.28397C7.11151 3.33818 7.05376 3.38335 6.98639 3.40142L5.05187 3.8622C4.30116 4.0429 3.78143 4.64824 3.74294 5.37103L3.63707 7.4852C3.63707 7.53941 3.60819 7.59362 3.57932 7.62976L2.39551 8.97596C1.89503 9.54516 1.86616 10.3673 2.32813 10.9727L3.58894 12.599C3.61782 12.6441 3.63707 12.6893 3.63707 12.7435V14.6228C3.63707 15.3456 4.12791 15.969 4.85938 16.1768L6.06244 16.5291L4.33003 19.7907C4.16641 20.107 4.20491 20.4774 4.42627 20.7575C4.64764 21.0376 5.01337 21.1821 5.3791 21.1369L7.40024 20.8659L8.43006 22.5193C8.61293 22.8084 8.94016 22.9891 9.29627 22.9891C9.30589 22.9891 9.32514 22.9891 9.33476 22.9891C9.71012 22.971 10.0374 22.7723 10.201 22.4651L12.174 18.7517L14.1085 22.456C14.2721 22.7723 14.5994 22.9801 14.9747 22.9891C14.9843 22.9891 15.0036 22.9891 15.0132 22.9891C15.3693 22.9891 15.6966 22.8084 15.8794 22.5193L16.9189 20.8749L18.94 21.146C19.3057 21.1912 19.6715 21.0466 19.8928 20.7665C20.1142 20.4864 20.1527 20.116 19.9891 19.7907L18.247 16.4569L19.2576 16.1587C20.0372 15.9328 20.5377 15.2462 20.4799 14.4782L20.3548 12.8519C20.3548 12.7977 20.3644 12.7435 20.4029 12.6983L21.7119 10.8552ZM9.26739 21.1369L8.51668 19.9263C8.30494 19.592 7.91034 19.4113 7.50611 19.4655L6.05281 19.6552L7.2655 17.3784L8.16058 18.4988C8.49743 18.9234 9.01716 19.1583 9.55613 19.1583C9.77749 19.1583 9.99886 19.1222 10.2202 19.0318L10.432 18.9505L9.26739 21.1369ZM16.8226 19.4655C16.4184 19.4113 16.0238 19.592 15.812 19.9263L15.0613 21.1279L13.9064 18.9234L14.1181 18.9957C14.8592 19.2306 15.6773 18.9776 16.12 18.3723L16.9862 17.1887L18.2855 19.6643L16.8226 19.4655ZM19.171 11.9304C18.9593 12.2285 18.8534 12.599 18.8823 12.9604L19.0074 14.5866C19.017 14.7041 18.94 14.8125 18.8245 14.8396L16.967 15.3817C16.5916 15.4901 16.2644 15.716 16.043 16.0232L14.8977 17.5953C14.8304 17.6856 14.7052 17.7308 14.5897 17.6946L12.6167 17.0622C12.2125 16.9357 11.7794 16.9447 11.3848 17.0983L9.64275 17.776C9.52726 17.8211 9.40214 17.785 9.32514 17.6946L7.96809 15.987C7.74672 15.707 7.44836 15.5082 7.09226 15.4088L5.29248 14.8848C5.17698 14.8486 5.10961 14.7583 5.10961 14.6499V12.7706C5.10961 12.4273 4.99412 12.093 4.78238 11.8129L3.52157 10.1866C3.4542 10.0692 3.4542 9.94269 3.5312 9.85234L4.70538 8.51518C4.946 8.24413 5.08074 7.9008 5.09999 7.54844L5.20586 5.43427C5.21548 5.32586 5.29248 5.22647 5.40797 5.19937L7.3425 4.73859C7.79485 4.63017 8.18945 4.35009 8.42044 3.97062L9.23852 2.64249C9.28664 2.56117 9.37326 2.516 9.46951 2.516C9.49838 2.516 9.52726 2.516 9.5465 2.52503L11.4618 3.09423C11.8468 3.20265 12.2606 3.19362 12.6263 3.04906L14.3876 2.38951C14.5031 2.34434 14.6282 2.38048 14.6956 2.47083L16.0815 4.19649C16.3125 4.48561 16.6494 4.69341 17.0247 4.7928L18.7668 5.22647C18.8919 5.25358 18.9689 5.362 18.9593 5.48848L18.8438 7.08766C18.8149 7.47616 18.94 7.85563 19.1806 8.16282L20.4703 9.79813C20.5377 9.87945 20.5377 9.9969 20.4799 10.0873L19.171 11.9304Z" fill="black"/>
<path d="M13.5503 8.42463L12.7803 6.93387C12.6359 6.64475 12.3279 6.47309 11.9911 6.46405C11.6639 6.47309 11.3462 6.63572 11.1923 6.92483L10.403 8.41559L8.66101 8.6505C8.32416 8.68664 8.05467 8.90348 7.93918 9.21067C7.84293 9.50882 7.91993 9.83407 8.16054 10.0599L9.42135 11.2254L9.11336 12.8608C9.05562 13.177 9.19036 13.4842 9.45985 13.6739C9.72933 13.8636 10.0854 13.8907 10.3934 13.7372L11.9622 12.9692L13.5214 13.7462C13.6561 13.8094 13.7909 13.8456 13.9352 13.8456C14.1181 13.8456 14.2913 13.7914 14.4453 13.692C14.7244 13.5022 14.8592 13.1951 14.8014 12.8788L14.5127 11.2435L15.7831 10.0871C16.0237 9.87021 16.1104 9.54496 16.0141 9.23777C15.9083 8.93962 15.6388 8.72278 15.3019 8.66857L13.5503 8.42463ZM13.2711 10.4484C13.0594 10.6382 12.9632 10.9092 13.0113 11.1803L13.1557 11.9934L12.3761 11.6049C12.2509 11.5417 12.1066 11.5055 11.9622 11.5055C11.8178 11.5055 11.6831 11.5326 11.558 11.5959L10.7784 11.9753L10.9324 11.1622C10.9805 10.8912 10.8843 10.6201 10.6822 10.4304L10.0469 9.86118L10.9228 9.74373C11.2115 9.70759 11.4617 9.53592 11.5869 9.29198L11.9815 8.55112L12.3664 9.29198C12.4916 9.53592 12.7418 9.70759 13.0305 9.74373L13.9064 9.87021L13.2711 10.4484Z" fill="black"/>
<path d="M12.0009 3.78972C8.30512 3.78972 5.30228 6.60861 5.30228 10.078C5.30228 13.5474 8.30512 16.3663 12.0009 16.3663C15.6967 16.3663 18.6996 13.5474 18.6996 10.078C18.6996 6.60861 15.6967 3.78972 12.0009 3.78972ZM12.0009 14.984C9.11358 14.984 6.77482 12.7795 6.77482 10.078C6.77482 7.37658 9.1232 5.17206 12.0009 5.17206C14.8786 5.17206 17.227 7.37658 17.227 10.078C17.227 12.7795 14.8883 14.984 12.0009 14.984Z" fill="black"/>
</svg>
