<svg width="24" height="24" viewBox="0 0 24 24" fill="none" xmlns="http://www.w3.org/2000/svg">
<path d="M21.7077 12.8584C22.1167 12.2288 22.1 11.4009 21.6659 10.7886L20.3805 8.98617C20.3472 8.93443 20.3221 8.87406 20.3305 8.80506L20.439 7.04574C20.4891 6.19195 19.9549 5.40715 19.1452 5.19155L17.4008 4.71722C17.3424 4.69997 17.2923 4.66548 17.2589 4.61373L15.8734 2.71642C15.3976 2.06961 14.5629 1.82813 13.8368 2.12998L12.0756 2.85441C12.0255 2.88028 11.9671 2.88028 11.9087 2.86303L9.98895 2.24209C9.20436 1.98337 8.3697 2.31971 7.96071 3.06139L7.15108 4.51887C7.1177 4.58786 7.05927 4.63098 6.98415 4.64823L5.04773 5.15705C4.30487 5.35541 3.77903 6.01947 3.7373 6.81289L3.63714 9.1414C3.63714 9.20177 3.6121 9.26214 3.57871 9.30526L2.40183 10.78C1.90103 11.4096 1.86765 12.3151 2.33506 12.9791L3.59541 14.773C3.62879 14.8161 3.64549 14.8765 3.64549 14.9368V17.0066C3.64549 17.8 4.13794 18.49 4.8641 18.7228L6.66698 19.3006C6.71706 19.3179 6.76714 19.3524 6.80052 19.3955L8.16103 21.2756C8.4949 21.7413 9.02074 22 9.55492 22C9.78028 22 10.0056 21.9569 10.2143 21.862L11.9588 21.1203C12.0172 21.0945 12.084 21.0945 12.1424 21.1117L14.1122 21.8103C14.8467 22.069 15.673 21.793 16.1154 21.129L17.2589 19.4041C17.2923 19.3524 17.3424 19.3179 17.4008 19.3006L19.2537 18.7056C20.03 18.4555 20.5308 17.6966 20.4724 16.86L20.3472 15.0662C20.3388 15.0058 20.3555 14.9455 20.3889 14.8937L21.7077 12.8584ZM19.1703 14.0399C18.9533 14.3676 18.8531 14.773 18.8781 15.1697L19.0033 16.9635C19.0117 17.0929 18.9366 17.205 18.8197 17.2481L16.9668 17.8432C16.5912 17.9639 16.2656 18.214 16.0486 18.5417L14.9051 20.2665C14.8384 20.37 14.7132 20.4132 14.5963 20.37L12.6265 19.6715C12.2259 19.5335 11.7918 19.5421 11.3995 19.7146L9.65508 20.4563C9.54658 20.508 9.41303 20.4649 9.33791 20.37L7.9774 18.49C7.76039 18.1795 7.45156 17.9639 7.101 17.8518L5.29812 17.2653C5.18962 17.2309 5.1145 17.1274 5.1145 17.0066V14.9368C5.1145 14.5574 4.99764 14.1865 4.78063 13.8847L3.52029 12.0909C3.44517 11.9874 3.45351 11.8494 3.52863 11.7545L4.70551 10.2798C4.94756 9.97795 5.08946 9.59848 5.10615 9.2104L5.20631 6.88188C5.21466 6.76114 5.28978 6.65765 5.40663 6.63178L7.34306 6.12296C7.80212 6.00222 8.19442 5.69175 8.42812 5.27779L9.2461 3.82031C9.29618 3.73407 9.37964 3.68232 9.47146 3.68232C9.4965 3.68232 9.52988 3.68232 9.55492 3.69957L11.4663 4.32051C11.8503 4.44125 12.2676 4.43262 12.6348 4.27739L14.396 3.55296C14.5045 3.50984 14.638 3.54434 14.7048 3.6392L16.0904 5.53651C16.3241 5.85561 16.6579 6.08846 17.0335 6.19195L18.778 6.65765C18.9032 6.69215 18.9867 6.81289 18.9783 6.94225L18.8615 8.70157C18.8364 9.12416 18.9533 9.54674 19.1953 9.88308L20.4807 11.6855C20.5475 11.7804 20.5475 11.9098 20.4891 12.0046L19.1703 14.0399Z" fill="black"/>
<path d="M11.2493 9.83996C11.2493 8.64121 10.4313 7.82191 9.23774 7.82191C8.04417 7.82191 7.2262 8.64983 7.2262 9.83996C7.2262 11.0301 8.05252 11.858 9.23774 11.858C10.423 11.858 11.2493 11.0301 11.2493 9.83996ZM8.63678 9.83996C8.63678 9.46913 8.88718 9.21903 9.2294 9.21903C9.57161 9.21903 9.82201 9.46913 9.82201 9.83996C9.82201 10.2022 9.57161 10.4609 9.2294 10.4609C8.88718 10.4609 8.63678 10.1936 8.63678 9.83996Z" fill="black"/>
<path d="M13.553 7.97715L8.85379 16.0493H10.3896L15.0971 7.97715H13.553Z" fill="black"/>
<path d="M14.7716 12.1426C13.5864 12.1426 12.76 12.9705 12.76 14.1607C12.76 15.3594 13.5864 16.1787 14.7716 16.1787C15.9568 16.1787 16.7831 15.3508 16.7831 14.1607C16.7915 12.9619 15.9652 12.1426 14.7716 12.1426ZM14.7716 14.7816C14.4294 14.7816 14.179 14.5229 14.179 14.1607C14.179 13.7898 14.4294 13.5397 14.7716 13.5397C15.1221 13.5397 15.3642 13.7898 15.3642 14.1607C15.3642 14.5229 15.1221 14.7816 14.7716 14.7816Z" fill="black"/>
</svg>
