<svg width="24" height="24" viewBox="0 0 24 24" fill="none" xmlns="http://www.w3.org/2000/svg">
<path d="M22.6786 12.9442C23.1285 12.2517 23.1102 11.3409 22.6327 10.6674L21.2187 8.68455C21.182 8.62763 21.1544 8.56122 21.1636 8.48533L21.283 6.54996C21.3381 5.61074 20.7504 4.74742 19.8598 4.51024L17.9408 3.98845C17.8765 3.96948 17.8214 3.93153 17.7847 3.87461L16.2605 1.78745C15.7372 1.07592 14.819 0.810286 14.0202 1.14233L12.0828 1.93925C12.0277 1.96771 11.9634 1.96771 11.8992 1.94873L9.78733 1.26567C8.92424 0.981053 8.00606 1.35105 7.55615 2.16694L6.66551 3.77025C6.62878 3.84615 6.56451 3.89358 6.48187 3.91256L4.35169 4.47229C3.53451 4.6905 2.95605 5.421 2.91014 6.29381L2.79996 8.85532C2.79996 8.92173 2.77242 8.98814 2.73569 9.03558L1.44105 10.6579C0.89014 11.3504 0.853413 12.3466 1.3676 13.0771L2.75405 15.0504C2.79078 15.0978 2.80914 15.1642 2.80914 15.2306V17.5075C2.80914 18.3803 3.35087 19.1393 4.14969 19.3955L6.13296 20.0311C6.18806 20.0501 6.24315 20.088 6.27987 20.1354L7.77651 22.2036C8.14379 22.7159 8.72224 23.0005 9.30988 23.0005C9.55779 23.0005 9.8057 22.9531 10.0352 22.8487L11.9542 22.0329C12.0185 22.0044 12.092 22.0044 12.1562 22.0234L14.3232 22.7918C15.1312 23.0764 16.0402 22.7729 16.5268 22.0423L17.7847 20.1449C17.8214 20.088 17.8765 20.0501 17.9408 20.0311L19.9792 19.3765C20.8331 19.1014 21.384 18.2665 21.3197 17.3462L21.182 15.3729C21.1728 15.3065 21.1912 15.2401 21.2279 15.1832L22.6786 12.9442ZM19.8873 14.244C19.6486 14.6045 19.5384 15.0504 19.566 15.4868L19.7037 17.4601C19.7129 17.6024 19.6303 17.7257 19.5017 17.7732L17.4633 18.4278C17.0502 18.5606 16.6921 18.8357 16.4533 19.1962L15.1954 21.0936C15.122 21.2075 14.9842 21.2549 14.8557 21.2075L12.6888 20.439C12.2481 20.2872 11.7706 20.2967 11.3391 20.4865L9.42006 21.3024C9.3007 21.3593 9.15379 21.3118 9.07115 21.2075L7.57451 19.1393C7.33578 18.7978 6.99606 18.5606 6.61042 18.4373L4.62714 17.7921C4.50778 17.7542 4.42514 17.6403 4.42514 17.5075V15.2306C4.42514 14.8132 4.2966 14.4053 4.05787 14.0732L2.67142 12.0999C2.58878 11.9861 2.59796 11.8343 2.6806 11.7299L3.97523 10.1076C4.24151 9.77557 4.3976 9.35814 4.41596 8.93122L4.52614 6.36971C4.53533 6.23689 4.61796 6.12305 4.74651 6.09458L6.87669 5.53485C7.38169 5.40203 7.81324 5.06049 8.07033 4.60511L8.97015 3.0018C9.02524 2.90693 9.11706 2.85001 9.21806 2.85001C9.2456 2.85001 9.28233 2.85001 9.30988 2.86898L11.4125 3.55205C11.8349 3.68487 12.294 3.67538 12.698 3.50461L14.6353 2.7077C14.7547 2.66026 14.9016 2.69821 14.9751 2.80257L16.4992 4.88973C16.7563 5.24075 17.1236 5.4969 17.5368 5.61074L19.4558 6.12305C19.5935 6.16099 19.6853 6.29381 19.6762 6.43612L19.5476 8.37148C19.5201 8.83635 19.6486 9.30121 19.9149 9.67121L21.3289 11.654C21.4023 11.7584 21.4023 11.9007 21.3381 12.005L19.8873 14.244Z" fill="black"/>
<path d="M11.1738 9.62378C11.1738 8.30507 10.274 7.4038 8.96096 7.4038C7.64796 7.4038 6.74814 8.31456 6.74814 9.62378C6.74814 10.933 7.65714 11.8437 8.96096 11.8437C10.2648 11.8437 11.1738 10.933 11.1738 9.62378ZM8.29987 9.62378C8.29987 9.21583 8.57532 8.94071 8.95178 8.94071C9.32823 8.94071 9.60369 9.21583 9.60369 9.62378C9.60369 10.0222 9.32823 10.3068 8.95178 10.3068C8.57532 10.3068 8.29987 10.0127 8.29987 9.62378Z" fill="black"/>
<path d="M13.708 7.57457L8.5386 16.4545H10.2281L15.4066 7.57457H13.708Z" fill="black"/>
<path d="M15.0485 12.1568C13.7447 12.1568 12.8357 13.0676 12.8357 14.3768C12.8357 15.6955 13.7447 16.5968 15.0485 16.5968C16.3523 16.5968 17.2613 15.686 17.2613 14.3768C17.2705 13.0581 16.3615 12.1568 15.0485 12.1568ZM15.0485 15.0599C14.6721 15.0599 14.3966 14.7753 14.3966 14.3768C14.3966 13.9689 14.6721 13.6937 15.0485 13.6937C15.4342 13.6937 15.7004 13.9689 15.7004 14.3768C15.7004 14.7753 15.4342 15.0599 15.0485 15.0599Z" fill="black"/>
</svg>
