<svg width="24" height="24" viewBox="0 0 24 24" fill="none" xmlns="http://www.w3.org/2000/svg">
<path fill-rule="evenodd" clip-rule="evenodd" d="M12 3.39535C7.24778 3.39535 3.39535 7.24778 3.39535 12C3.39535 16.7522 7.24778 20.6047 12 20.6047C16.7522 20.6047 20.6047 16.7522 20.6047 12C20.6047 7.24778 16.7522 3.39535 12 3.39535ZM2 12C2 6.47715 6.47715 2 12 2C17.5228 2 22 6.47715 22 12C22 17.5228 17.5228 22 12 22C6.47715 22 2 17.5228 2 12Z" fill="black"/>
<path d="M11.9169 15.5771C11.628 15.5771 11.3917 15.6734 11.1904 15.8659C10.9978 16.0585 10.8928 16.2948 10.8928 16.5749C10.8928 16.89 10.9978 17.1351 11.1991 17.3101C11.4005 17.4852 11.6368 17.5727 11.9081 17.5727C12.1707 17.5727 12.407 17.4852 12.5996 17.3014C12.8009 17.1263 12.8972 16.8812 12.8972 16.5661C12.8972 16.2861 12.8009 16.0497 12.6083 15.8572C12.4333 15.6734 12.1969 15.5771 11.9169 15.5771Z" fill="black"/>
<path d="M13.79 7.81341C13.2911 7.57708 12.7221 7.45454 12.0744 7.45454C11.383 7.45454 10.7703 7.59459 10.2451 7.88343C9.71993 8.17227 9.32606 8.53113 9.05473 8.96001C8.79214 9.39765 8.6521 9.82653 8.6521 10.2467C8.6521 10.448 8.73963 10.6405 8.90593 10.8156C9.08098 10.9906 9.29105 11.0782 9.53613 11.0782C9.95626 11.0782 10.2451 10.8243 10.4026 10.3254C10.5602 9.84404 10.7615 9.47643 10.9891 9.23135C11.2167 8.98627 11.5843 8.86373 12.0744 8.86373C12.4946 8.86373 12.8359 8.98627 13.0985 9.23135C13.3611 9.47643 13.4924 9.77402 13.4924 10.1329C13.4924 10.3167 13.4486 10.483 13.3611 10.6405C13.2735 10.7981 13.1685 10.9381 13.0372 11.0694C12.9059 11.2007 12.7046 11.3845 12.4158 11.6384C12.0919 11.9272 11.8293 12.1723 11.6368 12.3736C11.4442 12.5836 11.2867 12.82 11.1729 13.1001C11.0591 13.3714 10.9978 13.6952 10.9978 14.0716C10.9978 14.3692 11.0766 14.5968 11.2342 14.7456C11.3917 14.8944 11.5843 14.9731 11.8206 14.9731C12.267 14.9731 12.5296 14.7456 12.6171 14.2817C12.6696 14.0629 12.7046 13.9141 12.7309 13.8265C12.7571 13.739 12.7921 13.6515 12.8359 13.564C12.8797 13.4764 12.9497 13.3801 13.0372 13.2751C13.1247 13.1701 13.2473 13.0475 13.4048 12.9075C13.9563 12.4173 14.3326 12.0672 14.5427 11.8572C14.7528 11.6471 14.9366 11.402 15.0941 11.1219C15.2517 10.8331 15.3217 10.5005 15.3217 10.1241C15.3217 9.64273 15.1904 9.19634 14.9191 8.78496C14.674 8.37358 14.2889 8.04973 13.79 7.81341Z" fill="black"/>
</svg>
