<svg width="24" height="24" viewBox="0 0 24 24" fill="none" xmlns="http://www.w3.org/2000/svg">
<path fill-rule="evenodd" clip-rule="evenodd" d="M12 2.53488C6.77256 2.53488 2.53488 6.77256 2.53488 12C2.53488 17.2274 6.77256 21.4651 12 21.4651C17.2274 21.4651 21.4651 17.2274 21.4651 12C21.4651 6.77256 17.2274 2.53488 12 2.53488ZM1 12C1 5.92487 5.92487 1 12 1C18.0751 1 23 5.92487 23 12C23 18.0751 18.0751 23 12 23C5.92487 23 1 18.0751 1 12Z" fill="black"/>
<path d="M11.9086 15.9348C11.5909 15.9348 11.3309 16.0407 11.1095 16.2525C10.8976 16.4643 10.7821 16.7243 10.7821 17.0324C10.7821 17.379 10.8976 17.6486 11.1191 17.8411C11.3405 18.0337 11.6005 18.13 11.899 18.13C12.1878 18.13 12.4477 18.0337 12.6596 17.8315C12.881 17.6389 12.9869 17.3694 12.9869 17.0228C12.9869 16.7147 12.881 16.4547 12.6692 16.2429C12.4766 16.0407 12.2167 15.9348 11.9086 15.9348Z" fill="black"/>
<path d="M13.969 7.39475C13.4202 7.13479 12.7943 7 12.0819 7C11.3213 7 10.6473 7.15405 10.0696 7.47177C9.49194 7.7895 9.05868 8.18425 8.76021 8.65602C8.47137 9.13742 8.31732 9.60919 8.31732 10.0713C8.31732 10.2928 8.4136 10.5046 8.59653 10.6972C8.78909 10.8897 9.02017 10.986 9.28975 10.986C9.7519 10.986 10.0696 10.7068 10.2429 10.158C10.4162 9.62845 10.6377 9.22407 10.888 8.95449C11.1383 8.6849 11.5427 8.55011 12.0819 8.55011C12.544 8.55011 12.9195 8.6849 13.2084 8.95449C13.4972 9.22407 13.6416 9.55142 13.6416 9.94617C13.6416 10.1484 13.5935 10.3313 13.4972 10.5046C13.4009 10.6779 13.2854 10.8319 13.141 10.9764C12.9965 11.1208 12.7751 11.323 12.4574 11.6022C12.1011 11.9199 11.8123 12.1895 11.6005 12.4109C11.3887 12.642 11.2154 12.902 11.0902 13.2101C10.965 13.5085 10.8976 13.8648 10.8976 14.2788C10.8976 14.6061 10.9843 14.8565 11.1576 15.0201C11.3309 15.1838 11.5427 15.2705 11.8027 15.2705C12.2937 15.2705 12.5825 15.0201 12.6788 14.5098C12.7366 14.2691 12.7751 14.1055 12.804 14.0092C12.8329 13.9129 12.8714 13.8166 12.9195 13.7203C12.9677 13.6241 13.0447 13.5182 13.141 13.4026C13.2372 13.2871 13.372 13.1523 13.5453 12.9982C14.1519 12.4591 14.5659 12.074 14.797 11.8429C15.028 11.6118 15.2302 11.3422 15.4035 11.0341C15.5768 10.7164 15.6539 10.3505 15.6539 9.93654C15.6539 9.407 15.5094 8.91597 15.211 8.46346C14.9414 8.01094 14.5178 7.6547 13.969 7.39475Z" fill="black"/>
</svg>
