<svg width="24" height="24" viewBox="0 0 24 24" fill="none" xmlns="http://www.w3.org/2000/svg">
<path d="M13.3946 3C8.76731 3 4.9806 6.61999 4.78086 11.1347L3.08308 9.53404C2.8334 9.28778 2.4256 9.29599 2.17593 9.55046C1.93458 9.80493 1.9429 10.1989 2.19258 10.4452L5.02221 13.1212C5.14704 13.2361 5.30517 13.2936 5.4633 13.2936C5.62975 13.2936 5.78787 13.2279 5.91271 13.1048L8.62583 10.4288C8.8755 10.1825 8.8755 9.7803 8.62583 9.53404C8.37615 9.28778 7.96835 9.28778 7.71868 9.53404L6.05419 11.1758C6.22896 7.33414 9.44975 4.25592 13.3863 4.25592C17.431 4.25592 20.7267 7.50652 20.7267 11.4959C20.7267 15.4853 17.431 18.7359 13.3863 18.7359C11.9049 18.7359 10.4817 18.3008 9.25833 17.4882C8.96705 17.2912 8.56757 17.365 8.36783 17.6523C8.16809 17.9396 8.24299 18.3337 8.53428 18.5307C9.96574 19.4911 11.6386 20 13.3779 20C18.1301 20 22 16.183 22 11.4959C22 6.80879 18.1467 3 13.3946 3Z" fill="black"/>
</svg>
