<svg width="24" height="24" viewBox="0 0 24 24" fill="none" xmlns="http://www.w3.org/2000/svg">
<path d="M13.5244 2C8.43828 2 4.27612 6.04392 4.05658 11.0874L2.19046 9.29923C1.91604 9.02413 1.4678 9.0333 1.19337 9.31757C0.928093 9.60183 0.937241 10.042 1.21167 10.3171L4.32186 13.3065C4.45907 13.4348 4.63288 13.499 4.80668 13.499C4.98963 13.499 5.16344 13.4257 5.30065 13.2881L8.28277 10.2987C8.5572 10.0236 8.5572 9.57432 8.28277 9.29923C8.00834 9.02413 7.56011 9.02413 7.28568 9.29923L5.45616 11.1332C5.64826 6.8417 9.18839 3.40299 13.5152 3.40299C17.9609 3.40299 21.5834 7.03427 21.5834 11.4908C21.5834 15.9474 17.9609 19.5787 13.5152 19.5787C11.8869 19.5787 10.3227 19.0927 8.97799 18.1848C8.65782 17.9648 8.21874 18.0473 7.9992 18.3682C7.77965 18.6892 7.86198 19.1293 8.18215 19.3494C9.75554 20.4223 11.5942 20.9908 13.5061 20.9908C18.7293 20.9908 22.983 16.7268 22.983 11.4908C22.983 6.25483 18.7476 2 13.5244 2Z" fill="black"/>
<path d="M13.6974 7C13.3079 7 13 7.3057 13 7.69233V12.2509C13 12.5296 13.163 12.7724 13.4166 12.8893L16.9943 14.4268C17.0848 14.4627 17.1754 14.4807 17.2751 14.4807C17.5468 14.4807 17.8004 14.3279 17.9181 14.0671C18.0721 13.7165 17.9091 13.3119 17.5558 13.159L14.3948 11.8013V7.69233C14.3948 7.31469 14.0869 7 13.6974 7Z" fill="black"/>
</svg>
