<svg width="24" height="24" viewBox="0 0 24 24" fill="none" xmlns="http://www.w3.org/2000/svg">
<path d="M13.3873 2.84918C8.75605 2.84918 4.96611 6.53145 4.7662 11.1238L3.06698 9.49563C2.81709 9.24514 2.40895 9.25349 2.15906 9.51233C1.9175 9.77118 1.92583 10.172 2.17572 10.4225L5.00776 13.1445C5.1327 13.2614 5.29096 13.3198 5.44922 13.3198C5.61581 13.3198 5.77407 13.253 5.89902 13.1278L8.61444 10.4058C8.86433 10.1553 8.86433 9.74613 8.61444 9.49563C8.36456 9.24514 7.95641 9.24514 7.70653 9.49563L6.04062 11.1656C6.21554 7.25788 9.43907 4.1267 13.3789 4.1267C17.4271 4.1267 20.7256 7.43323 20.7256 11.4912C20.7256 15.5492 17.4271 18.8558 13.3789 18.8558C11.8963 18.8558 10.4719 18.4132 9.24749 17.5866C8.95596 17.3862 8.55614 17.4614 8.35623 17.7536C8.15632 18.0458 8.23129 18.4466 8.52282 18.647C9.9555 19.624 11.6297 20.1416 13.3706 20.1416C18.1268 20.1416 22 16.259 22 11.4912C22 6.7235 18.1434 2.84918 13.3873 2.84918Z" fill="black"/>
<path d="M13.5448 7.40202C13.1902 7.40202 12.9098 7.68039 12.9098 8.03243V12.1833C12.9098 12.4371 13.0583 12.6582 13.2892 12.7646L16.5469 14.1646C16.6293 14.1974 16.7118 14.2137 16.8025 14.2137C17.05 14.2137 17.2809 14.0745 17.3881 13.8371C17.5283 13.5178 17.3798 13.1494 17.0582 13.0102L14.1799 11.774V8.03243C14.1799 7.68857 13.8995 7.40202 13.5448 7.40202Z" fill="black"/>
</svg>
