<svg width="24" height="24" viewBox="0 0 24 24" fill="none" xmlns="http://www.w3.org/2000/svg">
<path d="M14.9916 7.35992H3.62624C2.79546 7.35992 2.11884 8.02347 2.11884 8.83821V19.9925C2.11884 20.8073 2.79546 21.4708 3.62624 21.4708H15.0002C15.831 21.4708 16.5076 20.8073 16.5076 19.9925V8.83821C16.5076 8.02347 15.831 7.35992 14.9916 7.35992ZM15.0002 19.9925H3.62624V8.83821H15.0002V19.9925Z" fill="#212121"/>
<path d="M15.1201 2.18596C14.8717 1.94237 14.4692 1.94237 14.2122 2.18596C13.9639 2.42954 13.9639 2.8327 14.2122 3.07629L14.649 3.50465H12.131H10.5808H4.17438L4.60262 3.06789C4.851 2.81591 4.84243 2.42114 4.58549 2.17756C4.32855 1.93398 3.92601 1.94237 3.67763 2.19435L2.1788 3.72303C1.93899 3.97501 1.93899 4.36138 2.18737 4.60497L3.6862 6.07485C3.8061 6.19244 3.9774 6.25964 4.14013 6.25964C4.30286 6.25964 4.46559 6.20084 4.59406 6.07485C4.84243 5.83127 4.84243 5.4281 4.59406 5.18452L4.15726 4.75615H10.5894H12.1396H14.6405L14.2122 5.19292C13.9639 5.4449 13.9724 5.83967 14.2294 6.08325C14.3493 6.20084 14.512 6.25964 14.6747 6.25964C14.846 6.25964 15.0088 6.19244 15.1372 6.06645L16.6361 4.53777C16.8759 4.29419 16.8759 3.89942 16.6275 3.65584L15.1201 2.18596Z" fill="#212121"/>
<path d="M21.8092 19.455C21.5608 19.2114 21.1497 19.2114 20.9013 19.455L20.4645 19.8834V17.414V15.8937V9.60259L20.9099 10.0226C21.0298 10.1401 21.1925 10.1989 21.3552 10.1989C21.5265 10.1989 21.6893 10.1317 21.8177 10.0058C22.0661 9.75377 22.0575 9.35901 21.8006 9.11542L20.2418 7.64554C19.9849 7.41036 19.5909 7.41876 19.3425 7.65394L17.8437 9.12382C17.5953 9.3674 17.5953 9.77057 17.8437 10.0142C18.0921 10.2577 18.5032 10.2577 18.7516 10.0142L19.1884 9.58579V15.8937V17.414V19.8666L18.743 19.4466C18.486 19.203 18.0835 19.2114 17.8351 19.4634C17.5868 19.7154 17.5953 20.1102 17.8523 20.3537L19.411 21.8236C19.5309 21.9412 19.6937 22 19.8564 22C20.0191 22 20.1819 21.9412 20.3103 21.8152L21.8092 20.3453C22.0575 20.1018 22.0575 19.6986 21.8092 19.455Z" fill="#212121"/>
</svg>
