<svg width="24" height="24" viewBox="0 0 24 24" fill="none" xmlns="http://www.w3.org/2000/svg">
<path d="M2.96934 12.9405L18.6626 12.9405L16.2142 15.4137C15.8465 15.7855 15.8549 16.3836 16.2393 16.7392C16.6236 17.0948 17.242 17.0867 17.6097 16.715L21.7294 12.5687C22.0971 12.1969 22.0887 11.615 21.7127 11.2513L17.6013 7.2748C17.4091 7.08891 17.1668 7 16.9161 7C16.6654 7 16.4231 7.08891 16.2309 7.2748C15.8549 7.6385 15.8549 8.2366 16.2309 8.6003L18.7629 11.0573L2.96934 11.0573C2.43453 11.0573 2 11.4776 2 11.9949C2 12.5121 2.43453 12.9405 2.96934 12.9405Z" fill="black"/>
</svg>
