<svg width="24" height="24" viewBox="0 0 24 24" fill="none" xmlns="http://www.w3.org/2000/svg">
<path fill-rule="evenodd" clip-rule="evenodd" d="M12 3.39535C7.24778 3.39535 3.39535 7.24778 3.39535 12C3.39535 16.7522 7.24778 20.6047 12 20.6047C16.7522 20.6047 20.6047 16.7522 20.6047 12C20.6047 7.24778 16.7522 3.39535 12 3.39535ZM2 12C2 6.47715 6.47715 2 12 2C17.5228 2 22 6.47715 22 12C22 17.5228 17.5228 22 12 22C6.47715 22 2 17.5228 2 12Z" fill="black"/>
<path d="M12.0585 12.8191C10.3836 12.8191 8.84894 13.5699 7.9661 14.8405C7.75983 15.1293 7.83408 15.5336 8.12286 15.7399C8.23837 15.8224 8.36214 15.8554 8.49415 15.8554C8.70042 15.8554 8.89844 15.7564 9.0222 15.5831C9.65752 14.6755 10.8209 14.1145 12.0585 14.1145C13.2714 14.1145 14.3852 14.6343 15.0371 15.5089C15.2516 15.7976 15.6559 15.8471 15.9446 15.6409C16.2334 15.4263 16.2912 15.0221 16.0767 14.7333C15.1691 13.5369 13.6757 12.8191 12.0585 12.8191Z" fill="black"/>
<path d="M9.88854 9.58476C9.88854 8.90819 9.34398 8.36364 8.66742 8.36364C7.99085 8.36364 7.45454 8.90819 7.45454 9.58476C7.45454 10.2613 7.9991 10.8059 8.67567 10.8059C9.35223 10.8059 9.88854 10.2531 9.88854 9.58476Z" fill="black"/>
<path d="M15.3176 8.36364C14.641 8.36364 14.0965 8.90819 14.0965 9.58476C14.0965 10.2613 14.641 10.8059 15.3176 10.8059C15.9941 10.8059 16.5387 10.2613 16.5387 9.58476C16.5305 8.90819 15.9859 8.36364 15.3176 8.36364Z" fill="black"/>
</svg>
