<svg width="24" height="24" viewBox="0 0 24 24" fill="none" xmlns="http://www.w3.org/2000/svg">
<path d="M21.7916 2.16935C21.6054 2.00368 21.3431 1.95398 21.1147 2.0451L2.41493 9.22688C2.16955 9.32628 2.00878 9.54993 2.00032 9.815C1.99186 10.0718 2.15262 10.3037 2.38954 10.4114L10.6225 13.9153L14.7263 21.6604C14.8363 21.8757 15.0648 22 15.3017 22C15.3186 22 15.3355 22 15.3609 22C15.6232 21.9751 15.8432 21.8012 15.9278 21.561L21.9693 2.82375C22.0454 2.59181 21.9777 2.33502 21.7916 2.16935ZM15.1578 19.7055L11.8833 13.526L17.3747 7.75242C17.6201 7.49563 17.6032 7.08974 17.3409 6.8578C17.0786 6.61758 16.6724 6.63415 16.427 6.89093L10.9356 12.6645L4.34413 9.84814L20.3193 3.70179L15.1578 19.7055Z" fill="black"/>
</svg>
