<svg width="24" height="24" viewBox="0 0 24 24" fill="none" xmlns="http://www.w3.org/2000/svg">
<path d="M21.3335 13.7479L19.9105 12.94C19.9528 12.602 19.9782 12.264 19.9782 11.9177C19.9782 11.621 19.9613 11.3324 19.9274 11.0439L21.3505 10.236C21.9688 9.88974 22.1806 9.10657 21.8333 8.50477L20.0629 5.47102C19.885 5.17424 19.6055 4.9599 19.2582 4.86922C18.9109 4.77854 18.5551 4.828 18.2502 5.00937L16.9034 5.79253C16.3528 5.3721 15.7429 5.02585 15.1076 4.77029V3.27815C15.1076 2.57742 14.5231 2.00035 13.7946 2.00035H10.1945C9.47454 1.98386 8.88159 2.55269 8.88159 3.26166L8.89006 4.76205C8.25475 5.01761 7.65333 5.36385 7.11121 5.77605L5.77283 5.02585C5.47636 4.85273 5.12059 4.81151 4.78176 4.89395C4.44293 4.98463 4.1634 5.19897 3.98551 5.49575L2.18972 8.52126C1.82548 9.1313 2.04572 9.91447 2.67255 10.2607L4.07022 11.0439C4.03634 11.3324 4.0194 11.621 4.0194 11.9095C4.0194 12.231 4.03634 12.5525 4.07869 12.874L2.69797 13.5912C2.38455 13.7561 2.15584 14.0282 2.05419 14.3579C1.95254 14.6877 1.9949 15.0422 2.17278 15.3472L3.94316 18.3892C4.29046 18.991 5.08671 19.2136 5.70507 18.8838L7.16203 18.1006C7.69569 18.4964 8.28017 18.8261 8.88159 19.0734V20.7222C8.88159 21.4229 9.46606 22 10.1945 22H13.7861C14.1419 22 14.4723 21.8681 14.7179 21.6208C14.9636 21.3735 15.0991 21.052 15.0991 20.714L15.0737 19.0899C15.6666 18.8508 16.2257 18.5376 16.7339 18.1666L18.2163 18.991C18.8431 19.3455 19.6479 19.1311 20.0036 18.5211L21.7994 15.4873C22.1552 14.8773 21.9434 14.0941 21.3335 13.7479ZM18.8686 17.8781L17.3862 17.0537C16.9372 16.7981 16.3782 16.8311 15.9631 17.1279C15.5311 17.4411 15.0567 17.6967 14.5654 17.9028C14.0741 18.1006 13.7692 18.5623 13.7692 19.0899L13.7861 20.7222H10.1945V19.0734C10.1945 18.5623 9.88113 18.1006 9.40677 17.9028C8.89006 17.6885 8.40723 17.4164 7.95828 17.0866C7.72957 16.9218 7.45851 16.8311 7.17897 16.8311C6.96721 16.8311 6.74697 16.8806 6.55214 16.9877L5.08671 17.7626L3.31633 14.7207L4.69705 14.0034C5.17141 13.7561 5.44248 13.245 5.38318 12.7256C5.3493 12.4618 5.33236 12.1898 5.33236 11.9177C5.33236 11.6787 5.3493 11.4313 5.37471 11.1923C5.43401 10.6894 5.17988 10.203 4.73094 9.94745L3.3248 9.15604L5.12059 6.12229L6.45049 6.87248C6.91638 7.13629 7.49239 7.09507 7.90745 6.7818C8.36487 6.43556 8.86464 6.14702 9.3983 5.93268C9.88113 5.73483 10.1945 5.27317 10.1945 4.76205V3.26166H13.7946V4.75381C13.7946 5.26493 14.108 5.72658 14.5908 5.92444C15.133 6.14702 15.6327 6.43556 16.0986 6.7818C16.5137 7.10331 17.1066 7.13629 17.5641 6.87248L18.9194 6.08931L20.6898 9.1313L19.2667 9.9392C18.8177 10.1948 18.5636 10.6812 18.6229 11.1758C18.6483 11.4149 18.6653 11.6622 18.6653 11.9095C18.6653 12.198 18.6483 12.4866 18.606 12.7669C18.5382 13.2697 18.7838 13.7644 19.2413 14.0199L20.6643 14.8361L18.8686 17.8781Z" fill="black"/>
<path d="M11.9903 7.60619C9.55078 7.60619 7.56863 9.53526 7.56863 11.9095C7.56863 14.2837 9.55078 16.2128 11.9903 16.2128C14.4299 16.2128 16.4121 14.2837 16.4121 11.9095C16.4121 9.53526 14.4299 7.60619 11.9903 7.60619ZM11.9903 14.9432C10.2708 14.9432 8.87312 13.583 8.87312 11.9095C8.87312 10.236 10.2708 8.87575 11.9903 8.87575C13.7099 8.87575 15.1076 10.236 15.1076 11.9095C15.1076 13.583 13.7099 14.9432 11.9903 14.9432Z" fill="black"/>
</svg>
