<svg width="24" height="24" viewBox="0 0 24 24" fill="none" xmlns="http://www.w3.org/2000/svg">
<path d="M14.522 9.07658L10.817 12.7963L10.0613 12.0623C9.80659 11.8231 9.41227 11.8313 9.17403 12.0788C8.9358 12.3344 8.94401 12.7303 9.19046 12.9695L10.3981 14.1325C10.5213 14.2479 10.6774 14.3057 10.8335 14.3057C10.9978 14.3057 11.1539 14.2397 11.2771 14.1242L15.4174 9.96734C15.6639 9.71991 15.6639 9.31577 15.4174 9.07658C15.171 8.82915 14.7685 8.82915 14.522 9.07658Z" fill="black"/>
<path d="M20.1822 10.7756V5.49705C20.1822 5.15065 19.9028 4.86197 19.5496 4.86197C14.5795 4.86197 12.5833 2.35465 12.5011 2.23919C12.4929 2.23094 12.4847 2.22269 12.4765 2.21444C12.4683 2.20619 12.4683 2.20619 12.46 2.19795C12.4354 2.1732 12.4107 2.14846 12.3861 2.12372C12.3861 2.12372 12.3779 2.12372 12.3779 2.11547C12.345 2.09073 12.3122 2.07423 12.2793 2.05773C12.2711 2.05773 12.2711 2.04949 12.2629 2.04949C12.23 2.03299 12.1972 2.02474 12.1643 2.0165C12.1561 2.0165 12.1561 2.0165 12.1479 2.00825C12.115 2.00825 12.0739 2 12.0411 2C12.0411 2 12.0329 2 12.0246 2C11.9918 2 11.9507 2 11.9178 2H11.9096C11.8768 2.00825 11.8357 2.0165 11.8028 2.03299C11.7946 2.03299 11.7946 2.04124 11.7864 2.04124C11.7535 2.04949 11.7289 2.05773 11.696 2.07423C11.6878 2.08248 11.6796 2.09073 11.6632 2.09897C11.6468 2.10722 11.6303 2.11547 11.6221 2.12372C11.6139 2.13196 11.6057 2.14021 11.5975 2.14021C11.5892 2.15671 11.5728 2.16496 11.5646 2.18145C11.5482 2.19795 11.5235 2.21444 11.5153 2.23094C11.5071 2.23919 11.4989 2.23919 11.4989 2.24743C11.4167 2.35465 9.4287 4.87022 4.4504 4.87022C4.09715 4.87022 3.81784 5.15065 3.81784 5.49705V10.7674C3.81784 10.9653 3.77677 15.7243 6.29056 18.3306C9.74908 21.9018 11.7782 22.0091 12 22.0091C12.2218 22.0091 14.2509 21.9018 17.7094 18.3306C20.2232 15.716 20.1822 10.9653 20.1822 10.7756ZM16.8058 17.4398C13.7909 20.5575 12.0657 20.7307 12.0082 20.7307C11.9096 20.7224 10.1927 20.5327 7.20243 17.4398C5.0501 15.2129 5.08296 10.8251 5.08296 10.7756V6.11563C8.92758 5.95893 11.0963 4.4001 12 3.55058C12.9037 4.4001 15.0724 5.96717 18.917 6.12388V10.7921C18.917 10.8251 18.9499 15.2212 16.8058 17.4398Z" fill="black"/>
</svg>
