<svg width="24" height="24" viewBox="0 0 24 24" fill="none" xmlns="http://www.w3.org/2000/svg">
<path d="M14.7741 8.78392L10.6988 12.8755L9.86748 12.068C9.58736 11.8049 9.15363 11.814 8.89158 12.0862C8.62953 12.3674 8.63857 12.8029 8.90965 13.066L10.238 14.3452C10.3735 14.4722 10.5452 14.5357 10.7169 14.5357C10.8976 14.5357 11.0693 14.4631 11.2048 14.3361L15.759 9.76371C16.0301 9.49154 16.0301 9.04701 15.759 8.78392C15.488 8.51175 15.0452 8.51175 14.7741 8.78392Z" fill="black"/>
<path d="M21 10.6528V4.8466C21 4.46557 20.6928 4.14804 20.3042 4.14804C14.8373 4.14804 12.6415 1.3901 12.5512 1.26309C12.5422 1.25402 12.5331 1.24495 12.5241 1.23588C12.515 1.2268 12.515 1.2268 12.506 1.21773C12.4789 1.19052 12.4518 1.1633 12.4247 1.13608C12.4247 1.13608 12.4156 1.13608 12.4156 1.12701C12.3795 1.09979 12.3434 1.08165 12.3072 1.06351C12.2982 1.06351 12.2982 1.05443 12.2891 1.05443C12.253 1.03629 12.2169 1.02722 12.1807 1.01814C12.1717 1.01814 12.1717 1.01814 12.1626 1.00907C12.1265 1.00907 12.0813 1 12.0452 1C12.0452 1 12.0361 1 12.0271 1C11.9909 1 11.9458 1 11.9096 1H11.9006C11.8644 1.00907 11.8193 1.01814 11.7831 1.03629C11.7741 1.03629 11.7741 1.04536 11.765 1.04536C11.7289 1.05443 11.7018 1.06351 11.6656 1.08165C11.6566 1.09072 11.6476 1.09979 11.6295 1.10887C11.6114 1.11794 11.5934 1.12701 11.5843 1.13608C11.5753 1.14515 11.5662 1.15423 11.5572 1.15423C11.5482 1.17237 11.5301 1.18144 11.5211 1.19959C11.503 1.21773 11.4759 1.23588 11.4669 1.25402C11.4578 1.26309 11.4488 1.26309 11.4488 1.27216C11.3584 1.3901 9.17167 4.15711 3.69577 4.15711C3.30721 4.15711 2.99998 4.46557 2.99998 4.8466V10.6437C2.99998 10.8614 2.9548 16.0961 5.71986 18.9629C9.52408 22.8911 11.756 23.0091 12 23.0091C12.244 23.0091 14.4759 22.8911 18.2801 18.9629C21.0452 16.087 21 10.8614 21 10.6528ZM17.2861 17.9831C13.9699 21.4124 12.0723 21.6029 12.009 21.6029C11.9006 21.5938 10.012 21.3852 6.72288 17.9831C4.35541 15.5336 4.39155 10.7072 4.39155 10.6528V5.52701C8.62047 5.35464 11.006 3.64 12 2.70557C12.994 3.64 15.3795 5.36371 19.6084 5.53608V10.6709C19.6084 10.7072 19.6446 15.5427 17.2861 17.9831Z" fill="black"/>
</svg>
