<svg width="24" height="24" viewBox="0 0 24 24" fill="none" xmlns="http://www.w3.org/2000/svg">
<path d="M16.5936 1H7.40639C6.08243 1 5 2.09683 5 3.4384V20.5616C5 21.9032 6.08243 23 7.40639 23H16.5936C17.9176 23 19 21.9032 19 20.5616V3.4384C19 2.09683 17.9265 1 16.5936 1ZM7.40639 2.40503H16.5936C17.1572 2.40503 17.6134 2.86733 17.6134 3.4384V4.50803H6.38658V3.4384C6.38658 2.86733 6.84281 2.40503 7.40639 2.40503ZM17.6224 5.91306V17.3164H6.38658V5.91306H17.6224ZM16.5936 21.595H7.40639C6.84281 21.595 6.38658 21.1327 6.38658 20.5616V18.7215H17.6224V20.5616C17.6224 21.1327 17.1572 21.595 16.5936 21.595Z" fill="black"/>
<path d="M12.5144 19.4738H11.4946C11.1099 19.4738 10.8058 19.7911 10.8058 20.1718C10.8058 20.5616 11.1189 20.8698 11.4946 20.8698H12.5144C12.899 20.8698 13.2032 20.5525 13.2032 20.1718C13.2032 19.7911 12.8901 19.4738 12.5144 19.4738Z" fill="black"/>
</svg>
