<svg width="24" height="24" viewBox="0 0 24 24" fill="none" xmlns="http://www.w3.org/2000/svg">
<path d="M16.176 2H7.82399C6.62039 2 5.63637 2.99712 5.63637 4.21673V19.7833C5.63637 21.0029 6.62039 22 7.82399 22H16.176C17.3796 22 18.3636 21.0029 18.3636 19.7833V4.21673C18.3636 2.99712 17.3877 2 16.176 2ZM7.82399 3.2773H16.176C16.6884 3.2773 17.1031 3.69757 17.1031 4.21673V5.18912H6.8969V4.21673C6.8969 3.69757 7.31165 3.2773 7.82399 3.2773ZM17.1112 6.46642V16.8331H6.8969V6.46642H17.1112ZM16.176 20.7227H7.82399C7.31165 20.7227 6.8969 20.3024 6.8969 19.7833V18.1104H17.1112V19.7833C17.1112 20.3024 16.6884 20.7227 16.176 20.7227Z" fill="black"/>
<path d="M12.4676 18.7944H11.5405C11.1908 18.7944 10.9143 19.0828 10.9143 19.4289C10.9143 19.7833 11.199 20.0635 11.5405 20.0635H12.4676C12.8173 20.0635 13.0938 19.775 13.0938 19.4289C13.0938 19.0828 12.8092 18.7944 12.4676 18.7944Z" fill="black"/>
</svg>
