<svg width="24" height="24" viewBox="0 0 24 24" fill="none" xmlns="http://www.w3.org/2000/svg">
<path d="M14.7129 3.8137C14.3303 3.58918 13.873 3.58918 13.4905 3.80539L8.1435 6.79902C8.06034 6.77407 7.97718 6.75744 7.89403 6.75744H2.90464C2.41402 6.74912 2.02319 7.14827 2.02319 7.63058V15.6884C2.02319 16.1707 2.41402 16.5699 2.90464 16.5699H7.89403C7.96055 16.5699 8.02708 16.5616 8.0936 16.5449L13.4738 19.7049C13.6651 19.8213 13.8813 19.8795 14.0975 19.8795C14.3054 19.8795 14.5133 19.8213 14.7129 19.7132C15.1037 19.4887 15.3282 19.0895 15.3282 18.6488V4.86979C15.3199 4.42906 15.0871 4.02991 14.7129 3.8137ZM7.49488 15.2893H3.29548V8.02973H7.49488V15.2893ZM14.0476 18.5656L8.77549 15.4639V7.905L14.0476 4.95295V18.5656Z" fill="#212121"/>
<path d="M16.6587 8.39563C16.376 8.60352 16.3095 8.99436 16.509 9.2854C16.5756 9.38519 18.1639 11.6803 16.4841 14.491C16.3011 14.7904 16.4009 15.1812 16.7003 15.3641C16.8001 15.4223 16.9165 15.4556 17.0246 15.4556C17.2408 15.4556 17.4487 15.3475 17.5734 15.1479C19.7022 11.5972 17.6317 8.67005 17.5402 8.54531C17.3406 8.25427 16.9498 8.19606 16.6587 8.39563Z" fill="#212121"/>
<path d="M20.7417 5.96745C20.592 5.65145 20.2095 5.5184 19.8935 5.66809C19.5775 5.81777 19.4445 6.20029 19.5941 6.51628C19.6191 6.56617 22.0971 11.9298 19.6025 16.7944C19.4445 17.1104 19.5692 17.4929 19.8769 17.6509C19.9683 17.7008 20.0681 17.7174 20.1679 17.7174C20.4008 17.7174 20.6253 17.5927 20.7334 17.3682C23.5191 11.9381 20.8581 6.2086 20.7417 5.96745Z" fill="#212121"/>
</svg>
