<svg width="24" height="24" viewBox="0 0 24 24" fill="none" xmlns="http://www.w3.org/2000/svg">
<path d="M21.943 9.58204C21.8022 9.12435 21.4298 8.7962 20.9828 8.72712L15.5196 7.87219L13.1026 2.69948C12.8956 2.2677 12.49 2 12.0265 2C12.0265 2 12.0265 2 12.0182 2C11.563 2 11.1491 2.2677 10.9422 2.69085L8.49201 7.84629L3.02885 8.6494C2.57359 8.71848 2.2011 9.038 2.06038 9.49568C1.91966 9.95337 2.02727 10.4456 2.35837 10.7824L6.29019 14.8152L5.33 20.4801C5.24722 20.9551 5.42933 21.4214 5.80182 21.7064C6.17431 21.9914 6.6544 22.0259 7.06 21.81L11.952 19.1503L16.8275 21.8532C17.0013 21.9482 17.2 22 17.3903 22C17.6387 22 17.8787 21.9223 18.0856 21.7668C18.4581 21.4905 18.6402 21.0155 18.5657 20.5492L17.6552 14.8756L21.6201 10.8774C21.9595 10.5233 22.0837 10.0397 21.943 9.58204ZM16.4136 13.8221C16.1322 14.1071 15.9997 14.5216 16.0659 14.9275L16.8771 20.0052L12.5232 17.5872C12.3493 17.4922 12.1507 17.4404 11.9603 17.4404C11.7699 17.4404 11.5795 17.4836 11.4057 17.5786L7.02689 19.9534L7.87947 14.8843C7.94569 14.4784 7.82153 14.0639 7.54009 13.7789L4.03043 10.1693L8.91416 9.4525C9.30321 9.39206 9.64258 9.14162 9.81641 8.77029L12.0182 4.16753L14.1869 8.7962C14.3608 9.16753 14.7001 9.4266 15.0892 9.48705L19.9646 10.247L16.4136 13.8221Z" fill="black"/>
</svg>
