<svg width="24" height="24" viewBox="0 0 24 24" fill="none" xmlns="http://www.w3.org/2000/svg">
<path d="M22.9373 9.34024C22.7825 8.83679 22.3727 8.47582 21.8811 8.39983L15.8716 7.45941L13.2128 1.76943C12.9852 1.29447 12.5391 1 12.0292 1C12.0292 1 12.0292 1 12.0201 1C11.5193 1 11.064 1.29447 10.8364 1.75993L8.14121 7.43092L2.13174 8.31433C1.63095 8.39033 1.22121 8.7418 1.06642 9.24525C0.911631 9.7487 1.03 10.2902 1.39421 10.6606L5.71921 15.0967L4.663 21.3282C4.57195 21.8506 4.77226 22.3636 5.182 22.677C5.59174 22.9905 6.11984 23.0285 6.566 22.791L11.9472 19.8653L17.3102 22.8385C17.5014 22.943 17.7199 23 17.9294 23C18.2025 23 18.4666 22.9145 18.6942 22.7435C19.1039 22.4395 19.3043 21.9171 19.2223 21.4041L18.2207 15.1632L22.5822 10.7651C22.9555 10.3756 23.0921 9.8437 22.9373 9.34024ZM16.8549 14.0043C16.5454 14.3178 16.3997 14.7737 16.4725 15.2202L17.3648 20.8057L12.5755 18.1459C12.3843 18.0414 12.1657 17.9845 11.9563 17.9845C11.7469 17.9845 11.5375 18.032 11.3463 18.1364L6.52958 20.7487L7.46742 15.1727C7.54026 14.7263 7.40368 14.2703 7.0941 13.9568L3.23347 9.98618L8.60558 9.19775C9.03353 9.13126 9.40684 8.85579 9.59805 8.44732L12.0201 3.38428L14.4056 8.47582C14.5968 8.88428 14.9702 9.16926 15.3981 9.23575L20.7611 10.0717L16.8549 14.0043Z" fill="black"/>
</svg>
