<svg width="24" height="24" viewBox="0 0 24 24" fill="none" xmlns="http://www.w3.org/2000/svg">
<path d="M18.0719 7.18275V6.16427H19.9022V2H3.94735V6.16427H5.76933V7.17454H2.01672V10.9281H2C2 11.0103 2.00836 11.0924 2.01672 11.1745V22L5.61053 21.9918H17.5955H22V10.7803V9.13758V7.19097L18.0719 7.18275ZM14.4279 10.7803C14.4279 10.9281 14.3861 11.0595 14.3025 11.1663C14.102 11.4374 13.8178 11.577 13.425 11.577C12.9904 11.5688 12.631 11.2402 12.631 10.8378V8.46407H14.4196V9.71253V10.7803H14.4279ZM11.3272 10.846C11.3188 10.9117 11.2603 11.0103 11.1433 11.1745C10.9427 11.4456 10.6586 11.5852 10.2658 11.5852C9.83117 11.577 9.47179 11.2485 9.47179 10.846V10.8049C9.47179 10.7967 9.47179 10.7967 9.47179 10.7885V8.46407H11.3272V10.846C11.3272 10.846 11.3272 10.8378 11.3272 10.846ZM8.16799 9.71253V10.7885C8.16799 10.9281 8.1262 11.0595 8.04262 11.1663C7.84204 11.4374 7.55788 11.577 7.16506 11.577C6.73046 11.5688 6.37108 11.2402 6.37108 10.8378V10.7967C6.37108 10.7885 6.37108 10.7885 6.37108 10.7803V9.74538V8.46407H8.15963L8.16799 9.71253ZM15.7401 10.7803V9.71253V8.46407H17.5286V10.7803C17.5286 10.9281 17.4868 11.0595 17.4033 11.1663C17.2027 11.4374 16.9269 11.577 16.5257 11.577C16.0911 11.5688 15.7317 11.2402 15.7317 10.8378V10.7803H15.7401ZM5.25115 3.28131H18.5901V4.87474H5.25115V3.28131ZM7.07313 6.16427H16.7597V7.18275L7.07313 7.17454V6.16427ZM5.06728 8.45585V10.7885C5.06728 10.9281 5.02549 11.0595 4.94191 11.1663C4.74133 11.4374 4.45717 11.577 4.06435 11.577C3.73005 11.5688 3.39574 11.4127 3.32052 11.076V8.45585H5.06728ZM6.229 15.4127H9.18763V20.694H6.24572L6.229 15.4127ZM13.425 15.4127V20.694H10.4831V15.4127H13.425ZM14.7371 20.7023V15.4209H17.5955V20.7023H14.7371ZM18.8993 20.7023V14.1314H4.91684L4.94191 20.7023L3.32052 20.7105V12.7433C3.54618 12.8172 3.78019 12.8665 4.03928 12.8665H4.09779C4.71626 12.8665 5.26786 12.653 5.69411 12.2752C6.0702 12.6366 6.58002 12.8583 7.13999 12.8665H7.1985C7.81697 12.8665 8.36857 12.653 8.79482 12.2752C9.17091 12.6366 9.68073 12.8583 10.2407 12.8665H10.2992C10.9344 12.8665 11.4944 12.6448 11.929 12.2423C12.3051 12.6201 12.8316 12.8583 13.4083 12.8665H13.4668C14.0852 12.8665 14.6369 12.653 15.0631 12.2669C15.4392 12.6283 15.949 12.8501 16.5173 12.8665H16.5758C17.211 12.8665 17.771 12.6448 18.2056 12.2423C18.5817 12.6201 19.1082 12.8583 19.6849 12.8665H19.7434C20.0944 12.8665 20.4204 12.7926 20.7129 12.6694V20.7023H18.8993V20.7023ZM20.6878 10.7803C20.6878 10.9281 20.646 11.0595 20.5625 11.1663C20.3619 11.4374 20.0777 11.577 19.6849 11.577C19.2503 11.5688 18.8909 11.2402 18.8909 10.8378V8.47228H20.6795V9.14579V10.7803H20.6878Z" fill="black"/>
</svg>
