<svg width="24" height="24" viewBox="0 0 24 24" fill="none" xmlns="http://www.w3.org/2000/svg">
<path d="M12.9173 19.0563H19.1298V13.8089H12.9173V19.0563V19.0563ZM14.2198 15.1143H17.8188V17.7594H14.2198V15.1143V15.1143Z" fill="black"/>
<path d="M20.4147 2H3.53385L2.01714 5.67747V9.02218H2C2 9.12457 2.00857 9.21843 2.01714 9.32082V22L6.25021 21.9829L6.23308 15.2167H10.2605V21.9915H22.0086V5.68601L20.4147 2ZM6.60154 6.45392V8.80887C6.60154 9.10751 6.50728 9.38908 6.35304 9.61945C5.98458 10.1485 5.47044 10.413 4.81919 10.413H4.77635C3.97087 10.3959 3.40531 9.90102 3.31962 9.19283V6.45392H6.60154ZM7.9126 8.80887C7.9126 8.80034 7.9126 8.79181 7.9126 8.78328V6.45392H11.2459V8.80887C11.2459 9.10751 11.1517 9.38908 10.9974 9.61945C10.629 10.1399 10.1148 10.4044 9.46358 10.4044H9.42074C8.58955 10.3959 7.9126 9.71331 7.9126 8.87713V8.80887ZM12.557 8.80887C12.557 8.80034 12.557 8.79181 12.557 8.78328V6.45392H15.8989V8.79181C15.8989 9.09898 15.8132 9.38908 15.6418 9.62799C15.2734 10.1485 14.7592 10.413 14.108 10.413H14.0651C13.2339 10.3959 12.557 9.71331 12.557 8.87713V8.80887V8.80887ZM17.2956 6.45392H20.6375V8.79181C20.6375 9.09898 20.5518 9.38908 20.3805 9.62799C20.012 10.1485 19.4979 10.413 18.8466 10.413H18.8038C17.9726 10.3959 17.2956 9.71331 17.2956 8.87713V6.45392V6.45392ZM19.5578 3.30546L20.3548 5.157H3.64524L4.40788 3.30546H19.5578V3.30546ZM11.563 20.686V13.9113H4.92202L4.93916 20.686L3.31962 20.6945V11.3259C3.73093 11.5648 4.21937 11.7014 4.75064 11.7099H4.81919C6.00171 11.7099 6.75578 11.1724 7.21851 10.6263C7.73265 11.2747 8.51243 11.6928 9.39503 11.7099H9.46358C10.4233 11.7099 11.2631 11.3259 11.8629 10.6263C12.377 11.2747 13.1568 11.6928 14.0394 11.7099H14.108C15.0934 11.7099 15.9503 11.3003 16.5587 10.5666C17.0728 11.2491 17.8783 11.7014 18.7866 11.7099H18.8552C19.5493 11.7099 20.1748 11.5051 20.6975 11.1382V20.6945H11.563V20.686Z" fill="black"/>
</svg>
