<svg width="24" height="24" viewBox="0 0 24 24" fill="none" xmlns="http://www.w3.org/2000/svg">
<path d="M18.6791 6.70337V5.58258H20.6924V1H3.14208V5.58258H5.14626V6.69433H1.01839V10.825H1C1 10.9154 1.00919 11.0058 1.01839 11.0961V23.009L4.97158 23H18.155H23V10.6623V8.85456V6.71241L18.6791 6.70337ZM14.6707 10.6623C14.6707 10.825 14.6247 10.9696 14.5328 11.0871C14.3122 11.3854 13.9996 11.539 13.5675 11.539C13.0894 11.53 12.6941 11.1684 12.6941 10.7256V8.11339H14.6615V9.48726V10.6623H14.6707ZM11.2599 10.7346C11.2507 10.8069 11.1864 10.9154 11.0577 11.0961C10.837 11.3944 10.5244 11.5481 10.0924 11.5481C9.61429 11.539 9.21897 11.1775 9.21897 10.7346V10.6894C9.21897 10.6804 9.21897 10.6804 9.21897 10.6713V8.11339H11.2599V10.7346C11.2599 10.7346 11.2599 10.7256 11.2599 10.7346ZM7.78479 9.48726V10.6713C7.78479 10.825 7.73882 10.9696 7.64689 11.0871C7.42624 11.3854 7.11366 11.539 6.68157 11.539C6.20351 11.53 5.80819 11.1684 5.80819 10.7256V10.6804C5.80819 10.6713 5.80819 10.6713 5.80819 10.6623V9.52342V8.11339H7.7756L7.78479 9.48726ZM16.1141 10.6623V9.48726V8.11339H18.0815V10.6623C18.0815 10.825 18.0355 10.9696 17.9436 11.0871C17.7229 11.3854 17.4196 11.539 16.9783 11.539C16.5002 11.53 16.1049 11.1684 16.1049 10.7256V10.6623H16.1141ZM4.57626 2.41002H19.2491V4.16352H4.57626V2.41002ZM6.58044 5.58258H17.2357V6.70337L6.58044 6.69433V5.58258ZM4.37401 8.10435V10.6713C4.37401 10.825 4.32804 10.9696 4.23611 11.0871C4.01546 11.3854 3.70288 11.539 3.27079 11.539C2.90305 11.53 2.53531 11.3583 2.45257 10.9877V8.10435H4.37401ZM5.6519 15.7601H8.90639V21.5719H5.67029L5.6519 15.7601ZM13.5675 15.7601V21.5719H10.3314V15.7601H13.5675ZM15.0109 21.5809V15.7691H18.155V21.5809H15.0109ZM19.5892 21.5809V14.35H4.20852L4.23611 21.5809L2.45257 21.59V12.8225C2.70079 12.9039 2.95821 12.9581 3.24321 12.9581H3.30756C3.98788 12.9581 4.59465 12.7231 5.06352 12.3073C5.47723 12.705 6.03803 12.9491 6.65399 12.9581H6.71834C7.39866 12.9581 8.00543 12.7231 8.4743 12.3073C8.88801 12.705 9.44881 12.9491 10.0648 12.9581H10.1291C10.8278 12.9581 11.4438 12.7141 11.9219 12.2712C12.3356 12.6869 12.9148 12.9491 13.5491 12.9581H13.6135C14.2938 12.9581 14.9005 12.7231 15.3694 12.2983C15.7831 12.696 16.3439 12.94 16.9691 12.9581H17.0334C17.7321 12.9581 18.3481 12.7141 18.8262 12.2712C19.2399 12.6869 19.8191 12.9491 20.4534 12.9581H20.5178C20.9039 12.9581 21.2624 12.8767 21.5842 12.7412V21.5809H19.5892V21.5809ZM21.5566 10.6623C21.5566 10.825 21.5107 10.9696 21.4187 11.0871C21.1981 11.3854 20.8855 11.539 20.4534 11.539C19.9753 11.53 19.58 11.1684 19.58 10.7256V8.12243H21.5474V8.8636V10.6623H21.5566Z" fill="black"/>
</svg>
