<svg width="24" height="24" viewBox="0 0 24 24" fill="none" xmlns="http://www.w3.org/2000/svg">
<path d="M13.0085 19.7619H19.8423V13.9898H13.0085V19.7619V19.7619ZM14.4413 15.4258H18.4001V18.3353H14.4413V15.4258V15.4258Z" fill="black"/>
<path d="M21.2562 1H2.68723L1.01885 5.04522V8.7244H1C1 8.83703 1.00943 8.94027 1.01885 9.0529V23L5.67524 22.9812L5.65638 15.5384H10.0865V22.9906H23.0094V5.05461L21.2562 1ZM6.0617 5.89932V8.48976C6.0617 8.81826 5.95801 9.12799 5.78835 9.3814C5.38303 9.96331 4.81748 10.2543 4.10111 10.2543H4.05398C3.16795 10.2355 2.54584 9.69113 2.45159 8.91212V5.89932H6.0617ZM7.50386 8.48976C7.50386 8.48038 7.50386 8.47099 7.50386 8.4616V5.89932H11.1705V8.48976C11.1705 8.81826 11.0668 9.12799 10.8972 9.3814C10.4919 9.95392 9.92631 10.2449 9.20994 10.2449H9.16281C8.2485 10.2355 7.50386 9.48464 7.50386 8.56485V8.48976ZM12.6127 8.48976C12.6127 8.48038 12.6127 8.47099 12.6127 8.4616V5.89932H16.2888V8.47099C16.2888 8.80887 16.1945 9.12799 16.006 9.39078C15.6007 9.96331 15.0351 10.2543 14.3188 10.2543H14.2716C13.3573 10.2355 12.6127 9.48464 12.6127 8.56485V8.48976V8.48976ZM17.8252 5.89932H21.5013V8.47099C21.5013 8.80887 21.407 9.12799 21.2185 9.39078C20.8132 9.96331 20.2476 10.2543 19.5313 10.2543H19.4841C18.5698 10.2355 17.8252 9.48464 17.8252 8.56485V5.89932V5.89932ZM20.3136 2.43601L21.1902 4.4727H2.80977L3.64867 2.43601H20.3136V2.43601ZM11.5193 21.5546V14.1024H4.21422L4.23308 21.5546L2.45159 21.564V11.2585C2.90403 11.5213 3.4413 11.6715 4.02571 11.6809H4.10111C5.40189 11.6809 6.23136 11.0896 6.74036 10.4889C7.30591 11.2022 8.16367 11.6621 9.13453 11.6809H9.20994C10.2656 11.6809 11.1894 11.2585 11.8492 10.4889C12.4147 11.2022 13.2725 11.6621 14.2434 11.6809H14.3188C15.4027 11.6809 16.3453 11.2304 17.0146 10.4232C17.5801 11.1741 18.4662 11.6715 19.4653 11.6809H19.5407C20.3042 11.6809 20.9923 11.4556 21.5673 11.052V21.564H11.5193V21.5546Z" fill="black"/>
</svg>
