<svg width="24" height="24" viewBox="0 0 24 24" fill="none" xmlns="http://www.w3.org/2000/svg">
<path d="M19.5687 6.41539H16.3381V5.52343C16.3381 4.68673 15.6386 4 14.781 4H9.06078C8.20316 4 7.50375 4.68673 7.50375 5.52343V6.41539H4.43131C3.09076 6.41539 2 7.35471 2 8.51505V17.8925C2 19.0528 3.09076 20 4.43131 20H19.5687C20.9092 20 22 19.0528 22 17.8925V8.51505C22 7.35471 20.9092 6.41539 19.5687 6.41539ZM8.78601 5.52343C8.78601 5.35767 8.91091 5.22348 9.05246 5.22348H14.781C14.9309 5.22348 15.0475 5.35767 15.0475 5.52343V6.41539H8.78601V5.52343ZM4.43131 7.63098H19.5687C20.2015 7.63098 20.7094 8.02565 20.7094 8.51505V9.43069L13.7236 11.9882C13.5404 11.6645 13.1907 11.4435 12.7827 11.4435H11.2173C10.8426 11.4435 10.5179 11.6251 10.3264 11.9013L3.29059 9.47015V8.51505C3.29059 8.03355 3.7985 7.63098 4.43131 7.63098ZM12.5662 12.6749V13.7405H11.4421V12.6749H12.5662ZM19.5687 18.7765H4.43131C3.7985 18.7765 3.29059 18.3818 3.29059 17.8925V10.7726L10.1515 13.1485V13.9457C10.1515 14.5062 10.6345 14.9561 11.2173 14.9561H12.7827C13.3739 14.9561 13.8485 14.4983 13.8485 13.9457V13.2511L20.7094 10.741V17.8846C20.7094 18.3818 20.2015 18.7765 19.5687 18.7765Z" fill="#212121"/>
</svg>
