<svg width="24" height="24" viewBox="0 0 24 24" fill="none" xmlns="http://www.w3.org/2000/svg">
<path d="M19.9393 11.8848H12.9938C11.8526 11.8848 10.9331 12.8117 10.9331 13.9437V17.6515C10.9331 18.7918 11.8608 19.7105 12.9938 19.7105H14.5455V20.7359H13.6752V21.991H19.2579V20.7359H18.519V19.7187H19.9475C21.0887 19.7187 22.0082 18.7918 22.0082 17.6597V13.9519C22 12.8035 21.0723 11.8848 19.9393 11.8848ZM12.9856 13.1398H19.9311C20.3744 13.1398 20.7439 13.5008 20.7439 13.9519V16.3801H12.181V13.9519C12.181 13.5008 12.5423 13.1398 12.9856 13.1398ZM17.2547 20.7441H15.7934V19.7187H17.2547V20.7441V20.7441ZM19.9393 18.4636H12.9938C12.5505 18.4636 12.181 18.1027 12.181 17.6515V17.6187H20.7439V17.6515C20.7439 18.1027 20.3827 18.4636 19.9393 18.4636Z" fill="black"/>
<path d="M12.2303 6.88084H8.92993V9.47303H12.2303V6.88084Z" fill="black"/>
<path d="M5.39067 11.5074L5.38246 8.18514H6.63856V11.5156H14.479V4.30507V2.85312V2.0082L2.00821 2V4.43632H2C2 4.50195 2 4.55937 2.00821 4.62499V11.5238L5.39067 11.5074ZM7.88646 10.2605V6.93007H4.11814L4.12635 10.2605H3.25611V6.10976C3.46135 6.17538 3.6666 6.20819 3.88826 6.2164H3.92931C4.48758 6.2164 4.98017 6.03593 5.36604 5.6914C5.71085 6.00312 6.1706 6.20819 6.67961 6.2164H6.72066C7.27893 6.2164 7.77152 6.03593 8.15738 5.6914C8.5022 6.00312 8.96195 6.20819 9.47096 6.2164H9.51201C10.0785 6.2164 10.5875 6.01952 10.9816 5.66679C11.3264 5.99491 11.8026 6.20819 12.328 6.2164H12.369C12.6728 6.2164 12.9519 6.15898 13.2064 6.06054V10.2605H7.88646ZM8.82238 4.32148V4.31328V3.25508H10.3658V4.30507C10.3658 4.41992 10.333 4.52656 10.2673 4.60859C10.0867 4.84648 9.84861 4.96132 9.49559 4.96132C9.12614 4.95312 8.82238 4.68242 8.82238 4.35429V4.32148ZM7.56627 4.32148C7.56627 4.40351 7.54164 4.51015 7.46776 4.60859C7.29535 4.84648 7.04905 4.96132 6.70424 4.96132C6.32659 4.95312 6.02282 4.68242 6.02282 4.35429V4.32148V4.31328V3.25508H7.55806V4.32148H7.56627ZM13.2146 4.30507C13.2146 4.41992 13.1818 4.52656 13.1161 4.60859C12.9437 4.83828 12.6974 4.95312 12.3526 4.95312C11.9832 4.94492 11.6794 4.67421 11.6794 4.35429V3.26328H13.2229V4.30507H13.2146ZM4.76672 3.25508V4.31328C4.76672 4.41992 4.73388 4.52656 4.6682 4.60859C4.49579 4.84648 4.25771 4.96132 3.90468 4.96132C3.60913 4.95312 3.31357 4.81367 3.26432 4.51835V3.25508H4.76672Z" fill="black"/>
<path d="M15.7277 5.58475C16.0314 5.58475 16.2859 5.33866 16.2859 5.02694C16.2859 4.72343 16.0396 4.46913 15.7277 4.46913C15.4157 4.46913 15.1694 4.71522 15.1694 5.02694C15.1694 5.33866 15.4157 5.58475 15.7277 5.58475Z" fill="black"/>
<path d="M17.5503 5.58475C17.854 5.58475 18.1085 5.33866 18.1085 5.02694C18.1085 4.72343 17.8622 4.46913 17.5503 4.46913C17.2383 4.46913 16.992 4.71522 16.992 5.02694C16.992 5.33866 17.2383 5.58475 17.5503 5.58475Z" fill="black"/>
<path d="M19.3729 5.58475C19.6766 5.58475 19.9311 5.33866 19.9311 5.02694C19.9311 4.72343 19.6848 4.46913 19.3729 4.46913C19.0691 4.46913 18.8146 4.71522 18.8146 5.02694C18.8146 5.33866 19.0609 5.58475 19.3729 5.58475Z" fill="black"/>
<path d="M19.3729 7.16796C19.6766 7.16796 19.9311 6.92187 19.9311 6.61015C19.9311 6.29843 19.6848 6.05234 19.3729 6.05234C19.0691 6.05234 18.8146 6.29843 18.8146 6.61015C18.8146 6.92187 19.0609 7.16796 19.3729 7.16796Z" fill="black"/>
<path d="M19.3729 8.74296C19.6766 8.74296 19.9311 8.49686 19.9311 8.18515C19.9311 7.88163 19.6848 7.62733 19.3729 7.62733C19.0691 7.62733 18.8146 7.87343 18.8146 8.18515C18.8146 8.49686 19.0609 8.74296 19.3729 8.74296Z" fill="black"/>
<path d="M19.3729 10.3262C19.6766 10.3262 19.9311 10.0801 19.9311 9.76835C19.9311 9.46484 19.6848 9.21054 19.3729 9.21054C19.0691 9.21054 18.8146 9.45663 18.8146 9.76835C18.8146 10.0719 19.0609 10.3262 19.3729 10.3262Z" fill="black"/>
<path d="M8.52764 17.4629C8.22388 17.4629 7.96938 17.709 7.96938 18.0207C7.96938 18.3242 8.21567 18.5785 8.52764 18.5785C8.83141 18.5785 9.08591 18.3324 9.08591 18.0207C9.08591 17.7172 8.83141 17.4629 8.52764 17.4629Z" fill="black"/>
<path d="M6.70506 17.4629C6.40129 17.4629 6.14679 17.709 6.14679 18.0207C6.14679 18.3242 6.39308 18.5785 6.70506 18.5785C7.00882 18.5785 7.26333 18.3324 7.26333 18.0207C7.26333 17.7172 7.00882 17.4629 6.70506 17.4629Z" fill="black"/>
<path d="M4.88248 17.4629C4.57872 17.4629 4.32421 17.709 4.32421 18.0207C4.32421 18.3242 4.57051 18.5785 4.88248 18.5785C5.19445 18.5785 5.44075 18.3324 5.44075 18.0207C5.43254 17.7172 5.18624 17.4629 4.88248 17.4629Z" fill="black"/>
<path d="M4.88248 17.0035C5.1908 17.0035 5.44075 16.7537 5.44075 16.4457C5.44075 16.1376 5.1908 15.8879 4.88248 15.8879C4.57416 15.8879 4.32421 16.1376 4.32421 16.4457C4.32421 16.7537 4.57416 17.0035 4.88248 17.0035Z" fill="black"/>
<path d="M4.88248 14.3047C4.57872 14.3047 4.32421 14.5508 4.32421 14.8625C4.32421 15.166 4.57051 15.4203 4.88248 15.4203C5.19445 15.4203 5.44075 15.1742 5.44075 14.8625C5.43254 14.559 5.18624 14.3047 4.88248 14.3047Z" fill="black"/>
<path d="M4.88248 12.7297C4.57872 12.7297 4.32421 12.9758 4.32421 13.2875C4.32421 13.591 4.57051 13.8453 4.88248 13.8453C5.19445 13.8453 5.44075 13.5992 5.44075 13.2875C5.43254 12.9758 5.18624 12.7297 4.88248 12.7297Z" fill="black"/>
</svg>
