<svg width="24" height="24" viewBox="0 0 24 24" fill="none" xmlns="http://www.w3.org/2000/svg">
<path d="M20.7332 11.8737H13.0928C11.8374 11.8737 10.8259 12.8934 10.8259 14.1386V18.2174C10.8259 19.4717 11.8465 20.4824 13.0928 20.4824H14.7997V21.6103H13.8423V22.991H19.9836V21.6103H19.1708V20.4914H20.7422C21.9975 20.4914 23.009 19.4717 23.009 18.2264V14.1477C23 12.8843 21.9795 11.8737 20.7332 11.8737ZM13.0837 13.2543H20.7241C21.2118 13.2543 21.6182 13.6514 21.6182 14.1477V16.8187H12.1987V14.1477C12.1987 13.6514 12.596 13.2543 13.0837 13.2543ZM17.78 21.6194H16.1724V20.4914H17.78V21.6194V21.6194ZM20.7332 19.1107H13.0928C12.6051 19.1107 12.1987 18.7137 12.1987 18.2174V18.1813H21.6182V18.2174C21.6182 18.7137 21.2208 19.1107 20.7332 19.1107Z" fill="black"/>
<path d="M12.2529 6.36916H8.62231V9.22067H12.2529V6.36916Z" fill="black"/>
<path d="M4.72988 11.4586L4.72085 7.80394H6.10263V11.4676H14.7274V3.53568V1.93847V1.00902L1.00903 1V3.68007H1C1 3.75226 1 3.81542 1.00903 3.88761V11.4766L4.72988 11.4586ZM7.47537 10.087V6.4233H3.33005L3.33908 10.087H2.38177V5.52092C2.60755 5.59311 2.83333 5.6292 3.07718 5.63823H3.12233C3.73645 5.63823 4.27832 5.4397 4.70279 5.06071C5.0821 5.40361 5.58785 5.6292 6.14778 5.63823H6.19294C6.80706 5.63823 7.34893 5.4397 7.7734 5.06071C8.15271 5.40361 8.65846 5.6292 9.21839 5.63823H9.26355C9.8867 5.63823 10.4466 5.42166 10.8801 5.03363C11.2594 5.39459 11.7833 5.6292 12.3612 5.63823H12.4064C12.7406 5.63823 13.0476 5.57506 13.3276 5.46678V10.087H7.47537ZM8.50493 3.55373V3.54471V2.38064H10.2028V3.53568C10.2028 3.66202 10.1667 3.77933 10.0944 3.86957C9.89573 4.13126 9.63383 4.25759 9.24548 4.25759C8.83908 4.24856 8.50493 3.95078 8.50493 3.58983V3.55373ZM7.12315 3.55373C7.12315 3.64397 7.09606 3.76128 7.01478 3.86957C6.82512 4.13126 6.55419 4.25759 6.17488 4.25759C5.75944 4.24856 5.42529 3.95078 5.42529 3.58983V3.55373V3.54471V2.38064H7.11412V3.55373H7.12315ZM13.3366 3.53568C13.3366 3.66202 13.3005 3.77933 13.2282 3.86957C13.0386 4.12223 12.7677 4.24856 12.3883 4.24856C11.9819 4.23954 11.6478 3.94176 11.6478 3.58983V2.38966H13.3456V3.53568H13.3366ZM4.04351 2.38064V3.54471C4.04351 3.66202 4.00739 3.77933 3.93514 3.86957C3.74548 4.13126 3.48358 4.25759 3.09524 4.25759C2.77011 4.24856 2.44499 4.09516 2.3908 3.7703V2.38064H4.04351Z" fill="black"/>
<path d="M16.1001 4.9434C16.4343 4.9434 16.7143 4.67268 16.7143 4.32978C16.7143 3.9959 16.4433 3.71616 16.1001 3.71616C15.757 3.71616 15.486 3.98687 15.486 4.32978C15.486 4.67268 15.757 4.9434 16.1001 4.9434Z" fill="black"/>
<path d="M18.1051 4.9434C18.4392 4.9434 18.7192 4.67268 18.7192 4.32978C18.7192 3.9959 18.4483 3.71616 18.1051 3.71616C17.7619 3.71616 17.491 3.98687 17.491 4.32978C17.491 4.67268 17.7619 4.9434 18.1051 4.9434Z" fill="black"/>
<path d="M20.11 4.9434C20.4442 4.9434 20.7242 4.67268 20.7242 4.32978C20.7242 3.9959 20.4532 3.71616 20.11 3.71616C19.7759 3.71616 19.4959 3.98687 19.4959 4.32978C19.4959 4.67268 19.7668 4.9434 20.11 4.9434Z" fill="black"/>
<path d="M20.11 6.68499C20.4442 6.68499 20.7242 6.41427 20.7242 6.07137C20.7242 5.72847 20.4532 5.45775 20.11 5.45775C19.7759 5.45775 19.4959 5.72847 19.4959 6.07137C19.4959 6.41427 19.7668 6.68499 20.11 6.68499Z" fill="black"/>
<path d="M20.11 8.41755C20.4442 8.41755 20.7242 8.14684 20.7242 7.80394C20.7242 7.47006 20.4532 7.19032 20.11 7.19032C19.7759 7.19032 19.4959 7.46103 19.4959 7.80394C19.4959 8.14684 19.7668 8.41755 20.11 8.41755Z" fill="black"/>
<path d="M20.11 10.1591C20.4442 10.1591 20.7242 9.88843 20.7242 9.54553C20.7242 9.21165 20.4532 8.93191 20.11 8.93191C19.7759 8.93191 19.4959 9.20263 19.4959 9.54553C19.4959 9.87941 19.7668 10.1591 20.11 10.1591Z" fill="black"/>
<path d="M8.1798 18.0098C7.84564 18.0098 7.56567 18.2806 7.56567 18.6235C7.56567 18.9573 7.83661 19.2371 8.1798 19.2371C8.51395 19.2371 8.79392 18.9664 8.79392 18.6235C8.79392 18.2896 8.51395 18.0098 8.1798 18.0098Z" fill="black"/>
<path d="M6.17485 18.0098C5.8407 18.0098 5.56073 18.2806 5.56073 18.6235C5.56073 18.9573 5.83167 19.2371 6.17485 19.2371C6.50901 19.2371 6.78897 18.9664 6.78897 18.6235C6.78897 18.2896 6.50901 18.0098 6.17485 18.0098Z" fill="black"/>
<path d="M4.16997 18.0098C3.83581 18.0098 3.55585 18.2806 3.55585 18.6235C3.55585 18.9573 3.82678 19.2371 4.16997 19.2371C4.51315 19.2371 4.78409 18.9664 4.78409 18.6235C4.77506 18.2896 4.50412 18.0098 4.16997 18.0098Z" fill="black"/>
<path d="M4.16997 17.5045C4.50914 17.5045 4.78409 17.2298 4.78409 16.8909C4.78409 16.552 4.50914 16.2773 4.16997 16.2773C3.8308 16.2773 3.55585 16.552 3.55585 16.8909C3.55585 17.2298 3.8308 17.5045 4.16997 17.5045Z" fill="black"/>
<path d="M4.16997 14.5357C3.83581 14.5357 3.55585 14.8064 3.55585 15.1493C3.55585 15.4832 3.82678 15.7629 4.16997 15.7629C4.51315 15.7629 4.78409 15.4922 4.78409 15.1493C4.77506 14.8154 4.50412 14.5357 4.16997 14.5357Z" fill="black"/>
<path d="M4.16997 12.8031C3.83581 12.8031 3.55585 13.0738 3.55585 13.4167C3.55585 13.7506 3.82678 14.0304 4.16997 14.0304C4.51315 14.0304 4.78409 13.7596 4.78409 13.4167C4.77506 13.0738 4.50412 12.8031 4.16997 12.8031Z" fill="black"/>
</svg>
