<svg width="24" height="24" viewBox="0 0 24 24" fill="none" xmlns="http://www.w3.org/2000/svg">
<path d="M18.1623 7.54878L12.4604 2.17694C12.207 1.93801 11.8015 1.93801 11.5481 2.17694L5.83771 7.54878C5.711 7.66412 5.63498 7.83714 5.63498 8.01016V21.3574C5.63498 21.7116 5.93063 22 6.29387 22H17.7061C18.0694 22 18.365 21.7116 18.365 21.3574V8.01016C18.365 7.83714 18.2974 7.66412 18.1623 7.54878ZM17.0472 20.7147H6.95275V8.28205L12.0042 3.52814L17.0557 8.28205V20.7147H17.0472Z" fill="black"/>
<path d="M12.0042 9.64128C12.9419 9.64128 13.7021 8.89984 13.7021 7.98523C13.7021 7.07063 12.9419 6.32919 12.0042 6.32919C11.0665 6.32919 10.3063 7.07063 10.3063 7.98523C10.3063 8.89984 11.0665 9.64128 12.0042 9.64128Z" fill="black"/>
</svg>
