<svg width="24" height="24" viewBox="0 0 24 24" fill="none" xmlns="http://www.w3.org/2000/svg">
<path d="M11.996 3C8.13696 3 5 6.22477 5 10.2181C5.00802 11.7631 5.58567 13.3161 6.6447 14.5917C6.90946 14.9166 7.18223 15.1939 7.44699 15.4237C8.22521 16.0972 8.28138 17.3094 8.28138 17.3094V20.3361C8.28138 21.2552 9.03553 22 9.96619 22H13.9215C14.8521 22 15.6063 21.2552 15.6063 20.3361V17.5471V17.46C15.6223 16.7627 15.9433 16.0972 16.5129 15.5901C17.9169 14.3224 18.4304 13.0309 18.4544 12.9833C18.8155 12.0959 19 11.161 19 10.1943C18.992 6.22477 15.855 3 11.996 3ZM13.9215 20.6847H9.96619C9.77364 20.6847 9.61318 20.5263 9.61318 20.3361V18.0463H14.2825V20.3361C14.2745 20.5263 14.114 20.6847 13.9215 20.6847ZM17.2109 12.5C17.2029 12.5079 16.7776 13.5696 15.6143 14.6155C14.9645 15.2018 14.5393 15.9387 14.3628 16.731H12.6619V11.8661H13.7129C14.0819 11.8661 14.3788 11.573 14.3788 11.2085C14.3788 10.844 14.0819 10.5509 13.7129 10.5509H10.2791C9.91003 10.5509 9.61318 10.844 9.61318 11.2085C9.61318 11.573 9.91003 11.8661 10.2791 11.8661H11.3301V16.731H9.54097C9.42865 16.1209 9.12378 15.1305 8.32149 14.4333C8.11289 14.251 7.89627 14.0292 7.67966 13.7598C6.8212 12.7139 6.33983 11.4541 6.33181 10.1864C6.33181 6.94579 8.87507 4.30734 11.996 4.30734C15.1169 4.30734 17.6602 6.94579 17.6602 10.1864C17.6682 10.9867 17.5158 11.7631 17.2109 12.5Z" fill="#212121"/>
</svg>
