<svg width="24" height="24" viewBox="0 0 24 24" fill="none" xmlns="http://www.w3.org/2000/svg">
<path d="M22.2503 4.33086H19.6265H16.2626V1.70792C16.2626 1.31766 15.9262 1 15.5129 1H8.4775C8.06422 1 7.73744 1.31766 7.73744 1.70792V4.33086H4.37353H1.74967C1.33639 4.33086 1 4.63944 1 5.0297C1 5.41997 1.33639 5.73762 1.74967 5.73762H3.34513V19.3606C3.34513 21.3663 5.07514 23 7.19921 23H16.8008C18.9249 23 20.6549 21.3663 20.6549 19.3606V5.73762H22.2503C22.6636 5.73762 23 5.41997 23 5.0297C23 4.63944 22.6636 4.33086 22.2503 4.33086ZM9.22717 2.40677H14.7824V4.33086H9.22717V2.40677ZM19.1651 19.3606C19.1651 20.5949 18.0983 21.5932 16.8008 21.5932H7.19921C5.89209 21.5932 4.83486 20.5858 4.83486 19.3606V5.73762H8.4775H15.5225H19.1651V19.3606Z" fill="black"/>
<path d="M8.47748 6.91749C8.0642 6.91749 7.72781 7.23515 7.72781 7.62541V19.5239C7.72781 19.9142 8.0642 20.2318 8.47748 20.2318C8.89076 20.2318 9.22715 19.9142 9.22715 19.5239V7.61634C9.22715 7.22607 8.89076 6.91749 8.47748 6.91749Z" fill="black"/>
<path d="M14.7729 7.61634V19.5149C14.7729 19.9051 15.1093 20.2228 15.5226 20.2228C15.9358 20.2228 16.2722 19.9051 16.2722 19.5149V7.61634C16.2722 7.22607 15.9358 6.90842 15.5226 6.90842C15.1093 6.91749 14.7729 7.22607 14.7729 7.61634Z" fill="black"/>
<path d="M11.9952 6.91749C11.5819 6.91749 11.2455 7.23515 11.2455 7.62541V19.5239C11.2455 19.9142 11.5819 20.2318 11.9952 20.2318C12.4084 20.2318 12.7448 19.9142 12.7448 19.5239V7.61634C12.7448 7.22607 12.4084 6.91749 11.9952 6.91749Z" fill="black"/>
</svg>
