<svg width="24" height="24" viewBox="0 0 24 24" fill="none" xmlns="http://www.w3.org/2000/svg">
<path d="M21.3185 5.02805H18.9332H15.8751V2.64356C15.8751 2.28878 15.5692 2 15.1935 2H8.79773C8.42202 2 8.12495 2.28878 8.12495 2.64356V5.02805H5.06684H2.68152C2.30581 5.02805 2 5.30858 2 5.66337C2 6.01815 2.30581 6.30693 2.68152 6.30693H4.13194V18.6914C4.13194 20.5149 5.70467 22 7.63565 22H16.3644C18.2953 22 19.8681 20.5149 19.8681 18.6914V6.30693H21.3185C21.6942 6.30693 22 6.01815 22 5.66337C22 5.30858 21.6942 5.02805 21.3185 5.02805ZM9.47925 3.27888H14.5295V5.02805H9.47925V3.27888ZM18.5138 18.6914C18.5138 19.8135 17.5439 20.7211 16.3644 20.7211H7.63565C6.44736 20.7211 5.48624 19.8053 5.48624 18.6914V6.30693H8.79773H15.2023H18.5138V18.6914Z" fill="black"/>
<path d="M8.79771 7.37952C8.422 7.37952 8.11619 7.6683 8.11619 8.02308V18.8399C8.11619 19.1947 8.422 19.4835 8.79771 19.4835C9.17342 19.4835 9.47923 19.1947 9.47923 18.8399V8.01483C9.47923 7.66004 9.17342 7.37952 8.79771 7.37952Z" fill="black"/>
<path d="M14.5208 8.01484V18.8317C14.5208 19.1865 14.8266 19.4752 15.2023 19.4752C15.578 19.4752 15.8838 19.1865 15.8838 18.8317V8.01484C15.8838 7.66006 15.578 7.37128 15.2023 7.37128C14.8266 7.37953 14.5208 7.66006 14.5208 8.01484Z" fill="black"/>
<path d="M11.9956 7.37952C11.6199 7.37952 11.3141 7.6683 11.3141 8.02308V18.8399C11.3141 19.1947 11.6199 19.4835 11.9956 19.4835C12.3713 19.4835 12.6771 19.1947 12.6771 18.8399V8.01483C12.6771 7.66004 12.3713 7.37952 11.9956 7.37952Z" fill="black"/>
</svg>
