<svg width="24" height="24" viewBox="0 0 24 24" fill="none" xmlns="http://www.w3.org/2000/svg">
<path d="M20.7018 10.8778H20.5008L18.7755 7.91928C18.4992 7.44058 17.9632 7.15022 17.3853 7.15022H14.8559V6.21637C14.8559 5.54148 14.2697 5 13.5578 5H3.29816C2.57789 5 2 5.54148 2 6.21637V16.1827C2 16.8498 2.57789 17.3991 3.29816 17.3991H4.45394C4.64657 18.3094 5.50921 19 6.53936 19C7.56951 19 8.43216 18.3094 8.62479 17.3991H13.5578C13.5745 17.3991 13.5829 17.3991 13.5997 17.3991H15.4255C15.6181 18.3094 16.4807 19 17.5109 19C18.541 19 19.4037 18.3094 19.5963 17.3991H20.727C21.4305 17.3991 22 16.8655 22 16.2063V12.102C22 11.4271 21.4137 10.8778 20.7018 10.8778ZM13.5578 16.1827H8.46566C8.13065 15.4922 7.39363 15.0135 6.53099 15.0135C5.66834 15.0135 4.93132 15.4922 4.59631 16.1827H3.28978V6.21637H13.5494V16.1827H13.5578ZM17.3769 8.35874C17.4858 8.35874 17.5863 8.41368 17.6365 8.5L19.0268 10.8778H14.8559V8.35874H17.3769ZM20.7018 16.1827H19.4456C19.1106 15.4922 18.3735 15.0135 17.5109 15.0135C16.6482 15.0135 15.9112 15.4922 15.5762 16.1827H14.8894V12.0942L20.7018 12.102V16.1827V16.1827Z" fill="black"/>
</svg>
