<svg width="24" height="24" viewBox="0 0 24 24" fill="none" xmlns="http://www.w3.org/2000/svg">
<path d="M8.06884 8.60143C9.24999 8.60143 10.2147 7.6392 10.2147 6.46114C10.2147 5.28308 9.24999 4.32985 8.06884 4.32985C6.8877 4.32985 5.92294 5.29208 5.92294 6.47013C5.92294 7.64819 6.8877 8.60143 8.06884 8.60143ZM8.06884 5.75071C8.46557 5.75071 8.79016 6.07445 8.79016 6.47013C8.79016 6.86582 8.46557 7.18956 8.06884 7.18956C7.67212 7.18956 7.34753 6.86582 7.34753 6.47013C7.34753 6.07445 7.67212 5.75071 8.06884 5.75071Z" fill="black"/>
<path d="M21.5664 12.4952H21.35L19.4475 9.03301C19.141 8.47546 18.5549 8.12474 17.9148 8.12474H15.1377V7.03661C15.1377 6.25423 14.4975 5.61574 13.7131 5.61574H12.4598C12.0811 3.64632 10.4041 2.14452 8.34836 2.00963C7.1041 1.92869 5.91393 2.36035 5.00328 3.21467C4.31803 3.85315 3.8582 4.69848 3.67787 5.61574H2.42459C1.64016 5.61574 1 6.24524 1 7.03661V18.7003C1 19.4827 1.64016 20.1211 2.42459 20.1211H3.6959C3.9123 21.1913 4.85 22.0006 5.98607 22.0006C7.12213 22.0006 8.06885 21.1913 8.27623 20.1211H13.7041C13.7221 20.1211 13.7311 20.1211 13.7492 20.1211H15.7598C15.9762 21.1913 16.9139 22.0006 18.05 22.0006C19.1861 22.0006 20.1328 21.1913 20.3402 20.1211H21.5844C22.3598 20.1211 22.982 19.4916 22.982 18.7273V13.9251C23 13.1337 22.3508 12.4952 21.5664 12.4952ZM5.97705 4.24884C6.54508 3.70927 7.28443 3.4215 8.06885 3.4215C8.13197 3.4215 8.2041 3.4215 8.26721 3.43049C9.77295 3.52042 11.0262 4.77042 11.1164 6.27222C11.1434 6.72186 11.0803 7.16251 10.918 7.57618C10.7918 7.89992 10.5754 8.22366 10.2869 8.52042L8.06885 10.7776L5.87787 8.52042C5.35492 7.98085 5.04836 7.31538 5.01229 6.62294C5.01229 6.56898 5.01229 6.51503 5.01229 6.46107C5.01229 5.61574 5.35492 4.83337 5.97705 4.24884ZM8.11393 18.7003C7.74426 17.8909 6.93279 17.3334 5.98607 17.3334C5.03934 17.3334 4.22787 17.8909 3.8582 18.7003H2.42459V7.03661H3.62377C3.75 7.94488 4.17377 8.81718 4.85 9.51862L7.17623 11.9197C7.41066 12.1625 7.72623 12.2974 8.05984 12.2974C8.39344 12.2974 8.70902 12.1625 8.94344 11.9287L11.2967 9.52761C11.7205 9.09596 12.0361 8.61035 12.2344 8.10675C12.3787 7.74704 12.4598 7.39632 12.5049 7.03661H13.7041V18.7003H8.11393ZM17.9148 9.5456C18.032 9.5456 18.1402 9.60855 18.1943 9.71646L19.718 12.4952H15.1287V9.5456H17.9148ZM21.5754 18.7003H20.1869C19.8172 17.8909 19.0057 17.3334 18.059 17.3334C17.1123 17.3334 16.3008 17.8909 15.9311 18.7003H15.1738V13.9161L21.5664 13.9251V18.7003H21.5754Z" fill="black"/>
</svg>
