<svg width="24" height="24" viewBox="0 0 24 24" fill="none" xmlns="http://www.w3.org/2000/svg">
<path d="M21.572 10.7175H21.3509L19.4531 7.33632C19.1491 6.78924 18.5595 6.4574 17.9238 6.4574H15.1415V5.39013C15.1415 4.61883 14.4967 4 13.7136 4H2.42797C1.63568 4 1 4.61883 1 5.39013V16.7803C1 17.5426 1.63568 18.1704 2.42797 18.1704H3.69933C3.91122 19.2108 4.86013 20 5.9933 20C7.12647 20 8.07538 19.2108 8.28727 18.1704H13.7136C13.732 18.1704 13.7412 18.1704 13.7596 18.1704H15.768C15.9799 19.2108 16.9288 20 18.062 20C19.1951 20 20.1441 19.2108 20.3559 18.1704H21.5997C22.3735 18.1704 23 17.5605 23 16.8072V12.1166C23 11.3453 22.3551 10.7175 21.572 10.7175ZM13.7136 16.7803H8.11223C7.74372 15.991 6.933 15.4439 5.98409 15.4439C5.03518 15.4439 4.22446 15.991 3.85595 16.7803H2.41876V5.39013H13.7044V16.7803H13.7136ZM17.9146 7.83857C18.0343 7.83857 18.1449 7.90135 18.2002 8L19.7295 10.7175H15.1415V7.83857H17.9146ZM21.572 16.7803H20.1901C19.8216 15.991 19.0109 15.4439 18.062 15.4439C17.1131 15.4439 16.3023 15.991 15.9338 16.7803H15.1784V12.1076L21.572 12.1166V16.7803V16.7803Z" fill="black"/>
</svg>
