<svg width="24" height="24" viewBox="0 0 24 24" fill="none" xmlns="http://www.w3.org/2000/svg">
<path d="M8.41941 8.90519C9.495 8.90519 10.3735 8.02896 10.3735 6.95619C10.3735 5.88342 9.495 5.01538 8.41941 5.01538C7.34383 5.01538 6.4653 5.89161 6.4653 6.96438C6.4653 8.03715 7.34383 8.90519 8.41941 8.90519ZM8.41941 6.30926C8.78068 6.30926 9.07626 6.60406 9.07626 6.96438C9.07626 7.3247 8.78068 7.61951 8.41941 7.61951C8.05815 7.61951 7.76257 7.3247 7.76257 6.96438C7.76257 6.60406 8.05815 6.30926 8.41941 6.30926Z" fill="black"/>
<path d="M20.7106 12.451H20.5136L18.7811 9.29821C18.502 8.79048 17.9683 8.47111 17.3853 8.47111H14.8565V7.48023C14.8565 6.76778 14.2735 6.18636 13.5592 6.18636H12.4179C12.0731 4.39295 10.5459 3.02537 8.67393 2.90254C7.54088 2.82884 6.45708 3.22191 5.62782 3.99987C5.00381 4.5813 4.58508 5.35107 4.42087 6.18636H3.2796C2.56528 6.18636 1.98233 6.75959 1.98233 7.48023V18.1015C1.98233 18.8139 2.56528 19.3953 3.2796 19.3953H4.43729C4.63434 20.3698 5.48824 21.1069 6.52277 21.1069C7.5573 21.1069 8.41941 20.3698 8.60825 19.3953H13.551C13.5674 19.3953 13.5756 19.3953 13.5921 19.3953H15.423C15.6201 20.3698 16.474 21.1069 17.5085 21.1069C18.543 21.1069 19.4051 20.3698 19.594 19.3953H20.727C21.4331 19.3953 21.9997 18.8221 21.9997 18.126V13.7531C22.0161 13.0324 21.4249 12.451 20.7106 12.451ZM6.51456 4.94162C7.03182 4.45027 7.70509 4.18822 8.41941 4.18822C8.47688 4.18822 8.54256 4.18822 8.60004 4.19641C9.9712 4.2783 11.1125 5.41658 11.1946 6.78416C11.2192 7.19361 11.1617 7.59488 11.0139 7.97157C10.899 8.26638 10.7019 8.56119 10.4392 8.83143L8.41941 10.8869L6.42424 8.83143C5.94803 8.34008 5.66887 7.73409 5.63603 7.10353C5.63603 7.0544 5.63603 7.00526 5.63603 6.95613C5.63603 6.18636 5.94803 5.47391 6.51456 4.94162ZM8.46046 18.1015C8.12383 17.3644 7.38488 16.8567 6.52277 16.8567C5.66066 16.8567 4.92171 17.3644 4.58508 18.1015H3.2796V7.48023H4.3716C4.48655 8.30733 4.87245 9.10167 5.48824 9.74042L7.60656 11.9269C7.82004 12.148 8.1074 12.2708 8.4112 12.2708C8.71499 12.2708 9.00236 12.148 9.21583 11.9351L11.3588 9.7486C11.7447 9.35553 12.0321 8.91332 12.2127 8.45473C12.3441 8.12717 12.4179 7.80779 12.459 7.48023H13.551V18.1015H8.46046ZM17.3853 9.76498C17.4921 9.76498 17.5906 9.82231 17.6399 9.92058L19.0274 12.451H14.8483V9.76498H17.3853ZM20.7188 18.1015H19.4544C19.1178 17.3644 18.3788 16.8567 17.5167 16.8567C16.6546 16.8567 15.9156 17.3644 15.579 18.1015H14.8893V13.7449L20.7106 13.7531V18.1015H20.7188Z" fill="black"/>
</svg>
