<svg width="24" height="24" viewBox="0 0 24 24" fill="none" xmlns="http://www.w3.org/2000/svg">
<path d="M11.9875 12.7806C13.7444 12.7806 15.176 11.3147 15.176 9.51572C15.176 7.71671 13.7444 6.25085 11.9875 6.25085C10.2307 6.25085 8.79913 7.71671 8.79913 9.51572C8.79913 11.3147 10.2307 12.7806 11.9875 12.7806ZM11.9875 7.58345C13.0287 7.58345 13.8746 8.44964 13.8746 9.51572C13.8746 10.5818 13.0287 11.448 11.9875 11.448C10.9464 11.448 10.1005 10.5818 10.1005 9.51572C10.1005 8.44964 10.9464 7.58345 11.9875 7.58345Z" fill="black"/>
<path d="M21.0733 20.6091L20.1867 15.0538C20.0973 14.4708 19.6011 14.0377 19.0236 14.0377H17.7954C18.2428 13.4714 18.5925 12.8717 18.8284 12.2387C19.2188 11.2143 19.3815 10.1315 19.3083 9.01548C19.0724 5.25922 16.128 2.24421 12.4516 2.011C10.41 1.88607 8.45793 2.60234 6.96133 4.04322C5.48913 5.45911 4.65136 7.44968 4.65136 9.51521C4.65136 9.64847 4.65136 9.78173 4.65949 9.90666C4.7327 11.3808 5.28579 12.8217 6.2293 14.0377H5.10685C4.53749 14.0377 4.04946 14.4542 3.95186 15.0205L2.92701 20.5758C2.86194 20.9339 2.95141 21.2921 3.17916 21.5669C3.4069 21.8418 3.73225 22 4.09013 22H19.9183C20.2681 22 20.5934 21.8418 20.813 21.5752C21.0326 21.3087 21.1302 20.9589 21.0733 20.6091ZM5.94462 9.51521C5.94462 7.79116 6.61971 6.19204 7.8479 5.00935C8.97849 3.91829 10.4344 3.33527 11.9798 3.33527C12.11 3.33527 12.2401 3.3436 12.3702 3.3436C15.3878 3.53516 17.8117 6.01713 18.0069 9.1071C18.0638 10.0233 17.9337 10.9144 17.6083 11.764C17.3481 12.4386 16.9251 13.0882 16.3558 13.6962L12.1832 18.0772C12.11 18.1521 12.0286 18.1604 11.988 18.1604C11.9473 18.1604 11.8578 18.1521 11.7928 18.0772L7.66083 13.7046C6.63598 12.6135 6.02595 11.2476 5.96088 9.84836C5.95275 9.73175 5.94462 9.62348 5.94462 9.51521ZM4.22027 20.6757L5.19632 15.362H7.42495L10.8574 18.9933C11.1583 19.3098 11.5569 19.4847 11.988 19.4847C12.419 19.4847 12.8176 19.3098 13.1104 19.0017L16.5754 15.3703H18.9179L19.7638 20.6841H4.22027V20.6757Z" fill="black"/>
</svg>
