<svg width="24" height="24" viewBox="0 0 24 24" fill="none" xmlns="http://www.w3.org/2000/svg">
<path d="M11.9865 12.8586C13.9185 12.8586 15.4927 11.2466 15.4927 9.26821C15.4927 7.28986 13.9185 5.67787 11.9865 5.67787C10.0545 5.67787 8.48022 7.28986 8.48022 9.26821C8.48022 11.2466 10.0545 12.8586 11.9865 12.8586ZM11.9865 7.14332C13.1314 7.14332 14.0616 8.09586 14.0616 9.26821C14.0616 10.4406 13.1314 11.3931 11.9865 11.3931C10.8416 11.3931 9.91135 10.4406 9.91135 9.26821C9.91135 8.09586 10.8416 7.14332 11.9865 7.14332Z" fill="black"/>
<path d="M21.978 21.4675L21.0031 15.3584C20.9047 14.7173 20.3591 14.241 19.724 14.241H18.3734C18.8653 13.6182 19.25 12.9587 19.5093 12.2626C19.9387 11.1361 20.1176 9.94541 20.0371 8.7181C19.7777 4.58738 16.5398 1.27181 12.4968 1.01536C10.2517 0.87797 8.10506 1.66565 6.45926 3.25016C4.8403 4.8072 3.91901 6.99621 3.91901 9.26765C3.91901 9.41419 3.91901 9.56073 3.92795 9.69812C4.00846 11.3193 4.61668 12.9038 5.65425 14.241H4.4199C3.79379 14.241 3.25711 14.699 3.14978 15.3218L2.02277 21.4308C1.95121 21.8247 2.0496 22.2185 2.30005 22.5208C2.55049 22.823 2.90828 22.997 3.30184 22.997H20.7079C21.0925 22.997 21.4503 22.823 21.6918 22.5299C21.9333 22.2368 22.0407 21.8522 21.978 21.4675ZM5.34119 9.26765C5.34119 7.37173 6.08359 5.61319 7.43422 4.31261C8.67751 3.11277 10.2786 2.47164 11.978 2.47164C12.1212 2.47164 12.2643 2.4808 12.4074 2.4808C15.7258 2.69146 18.3913 5.42085 18.606 8.81885C18.6686 9.82635 18.5254 10.8064 18.1677 11.7406C17.8814 12.4825 17.4163 13.1969 16.7902 13.8655L12.2017 18.6831C12.1212 18.7656 12.0317 18.7747 11.987 18.7747C11.9423 18.7747 11.8439 18.7656 11.7723 18.6831L7.22849 13.8746C6.10148 12.6748 5.43064 11.1727 5.35908 9.63401C5.35014 9.50578 5.34119 9.38671 5.34119 9.26765ZM3.44495 21.5408L4.51829 15.6973H6.9691L10.7437 19.6906C11.0746 20.0387 11.5129 20.231 11.987 20.231C12.461 20.231 12.8993 20.0387 13.2213 19.6998L17.0317 15.7064H19.6077L20.538 21.5499H3.44495V21.5408Z" fill="black"/>
</svg>
