<svg width="24" height="24" viewBox="0 0 24 24" fill="none" xmlns="http://www.w3.org/2000/svg">
<path d="M12.9405 21.0307L12.9405 5.3374L15.4137 7.78582C15.7855 8.1535 16.3836 8.14514 16.7392 7.76075C17.0948 7.37636 17.0868 6.75799 16.715 6.39031L12.5687 2.27062C12.1969 1.90294 11.615 1.91129 11.2513 2.28733L7.2748 6.39866C7.08891 6.59086 7 6.83319 7 7.08388C7 7.33457 7.08891 7.57691 7.2748 7.76911C7.6385 8.14514 8.2366 8.14514 8.6003 7.76911L11.0573 5.23713L11.0573 21.0307C11.0573 21.5655 11.4776 22 11.9949 22C12.5121 22 12.9405 21.5655 12.9405 21.0307Z" fill="black"/>
</svg>
