<svg width="24" height="24" viewBox="0 0 24 24" fill="none" xmlns="http://www.w3.org/2000/svg">
<path d="M14.6623 14.7871C14.8279 14.7871 14.9934 14.7258 15.1155 14.5946C15.3595 14.3408 15.3507 13.9383 15.098 13.6932L12.3006 10.9981C12.0479 10.7618 11.6558 10.7618 11.4118 11.0068L8.72765 13.702C8.48365 13.947 8.48365 14.3495 8.72765 14.6033C8.97166 14.8483 9.37253 14.8483 9.62526 14.6033L11.281 12.9407V20.3612C11.281 20.7112 11.5686 21 11.9172 21C12.2658 21 12.5534 20.7112 12.5534 20.3612V13.0019L14.2179 14.6033C14.3486 14.7258 14.5054 14.7871 14.6623 14.7871Z" fill="#212121"/>
<path d="M19.9172 3H4.08279C2.93246 3 2 3.93632 2 5.0914V17.5785C2 18.7336 2.93246 19.6699 4.08279 19.6699H8.85839C9.20697 19.6699 9.49455 19.3812 9.49455 19.0311C9.49455 18.6811 9.20697 18.3923 8.85839 18.3923H4.08279C3.62963 18.3923 3.26362 18.0248 3.26362 17.5698V8.74916H20.7364V17.5698C20.7364 18.0248 20.3704 18.3923 19.9172 18.3923H14.9847C14.6362 18.3923 14.3486 18.6811 14.3486 19.0311C14.3486 19.3812 14.6362 19.6699 14.9847 19.6699H19.9172C21.0675 19.6699 22 18.7336 22 17.5785V5.0914C22 3.93632 21.0675 3 19.9172 3ZM3.26362 7.48032V5.0914C3.26362 4.63637 3.62963 4.26884 4.08279 4.26884H19.9172C20.3704 4.26884 20.7364 4.63637 20.7364 5.0914V7.48032H3.26362Z" fill="#212121"/>
<path d="M5.10239 5.23141C4.65794 5.23141 4.30064 5.59019 4.30064 6.03647C4.30064 6.48275 4.65794 6.84153 5.10239 6.84153C5.54683 6.84153 5.90413 6.48275 5.90413 6.03647C5.91284 5.59019 5.54683 5.23141 5.10239 5.23141Z" fill="#212121"/>
<path d="M7.4292 5.23141C6.98476 5.23141 6.62746 5.59019 6.62746 6.03647C6.62746 6.48275 6.98476 6.84153 7.4292 6.84153C7.87364 6.84153 8.23094 6.48275 8.23094 6.03647C8.23094 5.59019 7.87364 5.23141 7.4292 5.23141Z" fill="#212121"/>
<path d="M9.74728 5.23141C9.30284 5.23141 8.94554 5.59019 8.94554 6.03647C8.94554 6.48275 9.30284 6.84153 9.74728 6.84153C10.1917 6.84153 10.549 6.48275 10.549 6.03647C10.549 5.59019 10.1917 5.23141 9.74728 5.23141Z" fill="#212121"/>
</svg>
