<svg width="24" height="24" viewBox="0 0 24 24" fill="none" xmlns="http://www.w3.org/2000/svg">
<path d="M12.5209 2.22462C12.3578 2.07188 12.1585 2 11.9501 2C11.7417 2 11.5242 2.08087 11.3701 2.24259L7.06607 6.51034C6.74893 6.82481 6.74893 7.34593 7.06607 7.66938C7.38321 7.98384 7.90876 7.98384 8.23497 7.66938L11.2252 4.70441L11.2252 15.6119C11.2252 16.0611 11.5967 16.4295 12.0497 16.4295C12.5028 16.4295 12.8652 16.0611 12.8652 15.6119L12.8652 4.81223L15.8645 7.66938C16.1907 7.98384 16.7072 7.96587 17.0243 7.64242C17.3415 7.31897 17.3324 6.79786 16.9972 6.49238L12.5209 2.22462Z" fill="#212121"/>
<path d="M20.2707 15.6028C19.8176 15.6028 19.4461 15.9712 19.4461 16.4205V20.3737H4.64914V16.6451C4.64914 16.1958 4.27763 15.8275 3.82457 15.8275C3.37151 15.8275 3 16.1958 3 16.6451V21.1824C3 21.6316 3.37151 22 3.82457 22H20.2707C20.7237 22 21.0952 21.6316 21.0952 21.1824V16.4115C21.0952 15.9712 20.7237 15.6028 20.2707 15.6028Z" fill="#212121"/>
</svg>
