<svg width="24" height="24" viewBox="0 0 24 24" fill="none" xmlns="http://www.w3.org/2000/svg">
<path d="M18.8333 9.44764C18.7895 8.75195 18.2281 8.20082 17.5439 8.20082H15.8421V6.10472H19.0526C19.3421 6.10472 19.6053 5.90595 19.693 5.61684L20.8509 1.90349C20.9123 1.69569 20.8772 1.46078 20.7544 1.28008C20.6228 1.10842 20.4211 1 20.2105 1H3.78947C3.57018 1 3.35965 1.11745 3.23684 1.30719C3.10526 1.49692 3.07895 1.74086 3.16667 1.94867L4.59649 5.67105C4.70175 5.93306 4.94737 6.11376 5.2193 6.11376H8.14912V8.20082H6.72807C6.04386 8.20082 5.48246 8.75195 5.44737 9.4386L3.01754 21.5363L3 21.6719C3 22.4037 3.57895 23 4.28947 23H19.7105C20.4211 23 21 22.4037 21 21.6719V21.6086L18.8333 9.44764ZM5.68421 4.72238L4.7807 2.39138H19.2807L18.5614 4.72238H15.8421H8.14912H5.68421ZM9.5 6.10472H14.5V8.19179H9.5V6.10472V6.10472ZM4.37719 21.6086L6.77193 9.66448L6.78947 9.5922L17.4825 9.58316L19.6228 21.6086H4.37719V21.6086Z" fill="black"/>
<path d="M11.9999 10.1253C9.02622 10.1253 6.60516 12.6189 6.60516 15.6817C6.60516 18.7446 9.02622 21.2382 11.9999 21.2382C14.9736 21.2382 17.3946 18.7446 17.3946 15.6817C17.3946 12.6099 14.9736 10.1253 11.9999 10.1253ZM11.9999 19.8378C9.77183 19.8378 7.95604 17.9675 7.95604 15.6727C7.95604 13.3778 9.77183 11.5076 11.9999 11.5076C14.228 11.5076 16.0438 13.3778 16.0438 15.6727C16.0438 17.9766 14.228 19.8378 11.9999 19.8378Z" fill="black"/>
<path d="M12.5086 15.2571V13.2423C12.5086 12.9532 12.2806 12.7183 11.9998 12.7183C11.7191 12.7183 11.4911 12.9532 11.4911 13.2423V15.2932C11.3244 15.4468 11.2191 15.6636 11.2191 15.9166C11.2191 16.3774 11.5788 16.7478 12.0262 16.7478C12.4735 16.7478 12.8332 16.3774 12.8332 15.9166C12.8244 15.6456 12.7016 15.4107 12.5086 15.2571Z" fill="black"/>
</svg>
