<svg width="24" height="24" viewBox="0 0 24 24" fill="none" xmlns="http://www.w3.org/2000/svg">
<path d="M18.2121 9.67967C18.1722 9.04723 17.6619 8.5462 17.0399 8.5462H15.4928V6.64066H18.4115C18.6746 6.64066 18.9139 6.45996 18.9936 6.19713L20.0462 2.82136C20.1021 2.63244 20.0702 2.41889 19.9585 2.25462C19.8389 2.09856 19.6555 2 19.4641 2H4.53588C4.33652 2 4.14513 2.10678 4.03349 2.27926C3.91387 2.45175 3.88995 2.67351 3.96969 2.86242L5.26953 6.24641C5.36523 6.4846 5.58851 6.64887 5.83572 6.64887H8.4992V8.5462H7.20733C6.58532 8.5462 6.07495 9.04723 6.04306 9.67146L3.83413 20.6694L3.81818 20.7926C3.81818 21.4579 4.34449 22 4.99043 22H19.0096C19.6555 22 20.1818 21.4579 20.1818 20.7926V20.7351L18.2121 9.67967ZM6.25837 5.38398L5.437 3.26489H18.6188L17.9649 5.38398H15.4928H8.4992H6.25837ZM9.72727 6.64066H14.2727V8.53799H9.72727V6.64066ZM5.07017 20.7351L7.2472 9.8768L7.26315 9.81109L16.984 9.80287L18.9298 20.7351H5.07017Z" fill="black"/>
<path d="M11.9999 10.2957C9.29657 10.2957 7.09561 12.5626 7.09561 15.347C7.09561 18.1314 9.29657 20.3984 11.9999 20.3984C14.7033 20.3984 16.9042 18.1314 16.9042 15.347C16.9042 12.5544 14.7033 10.2957 11.9999 10.2957ZM11.9999 19.1253C9.9744 19.1253 8.32368 17.425 8.32368 15.3388C8.32368 13.2526 9.9744 11.5524 11.9999 11.5524C14.0254 11.5524 15.6762 13.2526 15.6762 15.3388C15.6762 17.4333 14.0254 19.1253 11.9999 19.1253Z" fill="black"/>
<path d="M12.4624 14.961V13.1294C12.4624 12.8665 12.255 12.653 11.9999 12.653C11.7447 12.653 11.5373 12.8665 11.5373 13.1294V14.9938C11.3858 15.1335 11.2901 15.3306 11.2901 15.5606C11.2901 15.9795 11.6171 16.3162 12.0238 16.3162C12.4305 16.3162 12.7574 15.9795 12.7574 15.5606C12.7495 15.3142 12.6378 15.1006 12.4624 14.961Z" fill="black"/>
</svg>
