<svg width="24" height="24" viewBox="0 0 24 24" fill="none" xmlns="http://www.w3.org/2000/svg">
<path d="M14.1869 12.0031L21.5296 4.65811C22.1405 4.04705 22.1405 3.06936 21.5296 2.4583C20.9188 1.84723 19.9414 1.84723 19.3305 2.4583L11.9878 9.80324L4.6573 2.4583C4.04643 1.84723 3.06903 1.84723 2.45816 2.4583C1.84728 3.06936 1.84728 4.04705 2.45816 4.65811L9.80085 12.0031L2.45816 19.348C1.84728 19.9591 1.84728 20.9368 2.45816 21.5478C2.76359 21.8533 3.15455 22 3.55773 22C3.9609 22 4.35186 21.8533 4.6573 21.5478L12 14.2029L19.3427 21.5478C19.6481 21.8533 20.0391 22 20.4423 22C20.8454 22 21.2364 21.8533 21.5418 21.5478C22.1527 20.9368 22.1527 19.9591 21.5418 19.348L14.1869 12.0031Z" fill="black"/>
</svg>
