<svg width="24" height="24" viewBox="0 0 24 24" fill="none" xmlns="http://www.w3.org/2000/svg">
<path d="M22.7977 21.7813L16.5159 15.4681C17.8311 13.9379 18.6313 11.9496 18.6313 9.77801C18.6221 4.94002 14.6672 1 9.81104 1C4.95485 1 1 4.94002 1 9.77801C1 14.616 4.95485 18.556 9.81104 18.556C11.9724 18.556 13.959 17.7772 15.495 16.4761L21.7768 22.7801C21.9147 22.9175 22.0987 22.9908 22.2826 22.9908C22.4666 22.9908 22.6505 22.9175 22.7885 22.7801C23.0736 22.5144 23.0736 22.0654 22.7977 21.7813ZM2.43478 9.77801C2.43478 5.72803 5.74582 2.4294 9.81104 2.4294C13.8763 2.4294 17.1873 5.72803 17.1873 9.77801C17.1873 13.828 13.8763 17.1266 9.81104 17.1266C5.74582 17.1266 2.43478 13.828 2.43478 9.77801Z" fill="black"/>
</svg>
