<svg width="24" height="24" viewBox="0 0 24 24" fill="none" xmlns="http://www.w3.org/2000/svg">
<path d="M21.8129 20.9L16.1031 15.1583C17.2986 13.7667 18.0259 11.9583 18.0259 9.98333C18.0175 5.58333 14.4228 2 10.0088 2C5.59475 2 2 5.58333 2 9.98333C2 14.3833 5.59475 17.9667 10.0088 17.9667C11.9733 17.9667 13.7791 17.2583 15.1752 16.075L20.885 21.8083C21.0104 21.9333 21.1776 22 21.3448 22C21.512 22 21.6792 21.9333 21.8046 21.8083C22.0637 21.5667 22.0637 21.1583 21.8129 20.9ZM3.30414 9.98333C3.30414 6.3 6.3137 3.3 10.0088 3.3C13.7038 3.3 16.7134 6.3 16.7134 9.98333C16.7134 13.6667 13.7038 16.6667 10.0088 16.6667C6.3137 16.6667 3.30414 13.6667 3.30414 9.98333Z" fill="black"/>
</svg>
